M48
; DRILL file {KiCad (5.1.4-0-10_14)} date Monday, January 13, 2020 at 03:42:22 PM
; FORMAT={-:-/ absolute / inch / decimal}
; #@! TF.CreationDate,2020-01-13T15:42:22-06:00
; #@! TF.GenerationSoftware,Kicad,Pcbnew,(5.1.4-0-10_14)
; #@! TF.FileFunction,Plated,1,2,PTH
FMAT,2
INCH
T1C0.0157
T2C0.0236
T3C0.0295
T4C0.0315
T5C0.0394
T6C0.0433
T7C0.0512
T8C0.0591
%
G90
G05
T1
X4.65Y-2.91
X4.75Y-3.37
X4.79Y-2.7
X4.85Y-3.37
X4.98Y-3.95
X5.13Y-4.24
X5.6925Y-2.93
X5.79Y-4.15
X5.89Y-2.58
X5.89Y-2.71
X5.955Y-3.5825
T2
X5.8325Y-3.5825
X5.8916Y-3.5825
T3
X5.2275Y-3.7425
X5.5275Y-3.7425
T4
X5.7216Y-2.71
X5.82Y-2.71
X5.56Y-3.89
X5.86Y-3.89
X5.56Y-4.15
X5.86Y-4.15
X5.56Y-4.02
X5.86Y-4.02
T5
X4.55Y-2.7
X4.7Y-2.7
X5.13Y-3.87
X5.13Y-4.17
X5.23Y-3.87
X5.23Y-4.17
X5.33Y-3.87
X5.33Y-4.17
X5.43Y-3.87
X5.43Y-4.17
X5.72Y-2.28
X5.72Y-2.38
X5.72Y-2.48
X5.72Y-2.58
X5.82Y-2.28
X5.82Y-2.38
X5.82Y-2.48
X5.82Y-2.58
T6
X4.55Y-2.84
X4.55Y-3.44
X4.65Y-2.84
X4.65Y-3.44
X4.75Y-2.84
X4.75Y-3.44
X4.85Y-2.84
X4.85Y-3.44
X4.95Y-2.84
X4.95Y-3.44
X5.05Y-2.84
X5.05Y-3.44
X5.15Y-2.84
X5.15Y-3.44
X5.25Y-2.84
X5.25Y-3.44
X5.35Y-2.84
X5.35Y-3.44
X5.45Y-2.84
X5.45Y-3.44
X5.55Y-2.84
X5.55Y-3.44
X5.65Y-2.84
X5.65Y-3.44
T7
X4.5Y-3.75
X4.5Y-4.14
X4.9024Y-3.6483
X4.9024Y-3.9435
X4.9024Y-4.2388
X5.0008Y-3.7467
X5.0008Y-4.1404
T8
X5.7925Y-2.93
X5.7925Y-3.1456
X5.7925Y-3.3611
T0
M30
