M48
; DRILL file {KiCad (5.1.4-0-10_14)} date Thursday, April 09, 2020 at 04:23:11 PM
; FORMAT={-:-/ absolute / inch / decimal}
; #@! TF.CreationDate,2020-04-09T16:23:11-05:00
; #@! TF.GenerationSoftware,Kicad,Pcbnew,(5.1.4-0-10_14)
; #@! TF.FileFunction,Plated,1,2,PTH
FMAT,2
INCH
T1C0.0157
T2C0.0236
T3C0.0295
T4C0.0315
T5C0.0394
T6C0.0433
T7C0.0512
%
G90
G05
T1
X4.1Y-4.202
X4.2Y-4.662
X4.24Y-3.992
X4.3Y-4.662
X4.43Y-5.242
X4.58Y-5.532
X5.164Y-4.368
X5.24Y-5.442
X5.34Y-3.872
X5.34Y-4.002
X5.397Y-4.155
X5.782Y-4.194
X5.882Y-4.667
X5.918Y-3.993
X5.982Y-4.667
X6.107Y-5.235
X6.841Y-4.368
X6.993Y-4.0
X6.994Y-3.872
X7.056Y-4.152
T2
X5.27Y-4.155
X5.3291Y-4.155
X6.929Y-4.153
X6.9881Y-4.153
T3
X4.6775Y-5.0345
X4.9775Y-5.0345
T4
X6.365Y-5.036
X6.665Y-5.036
X5.01Y-5.312
X5.1716Y-4.002
X5.27Y-4.002
X5.31Y-5.312
X5.01Y-5.442
X5.31Y-5.442
X6.366Y-5.432
X6.666Y-5.432
X5.01Y-5.182
X5.31Y-5.182
X6.83Y-4.002
X6.9284Y-4.002
T5
X4.0Y-3.992
X6.831Y-3.572
X6.831Y-3.672
X6.831Y-3.772
X6.831Y-3.872
X6.931Y-3.572
X6.931Y-3.672
X6.931Y-3.772
X6.931Y-3.872
X4.15Y-3.992
X5.831Y-3.992
X5.17Y-3.572
X5.17Y-3.672
X5.27Y-3.572
X5.27Y-3.672
X5.683Y-3.992
X5.17Y-3.772
X5.17Y-3.872
X5.27Y-3.772
X5.27Y-3.872
X4.58Y-5.162
X4.58Y-5.462
X4.68Y-5.162
X4.68Y-5.462
X4.78Y-5.162
X4.78Y-5.462
X4.88Y-5.162
X4.88Y-5.462
T6
X4.0Y-4.131
X4.0Y-4.731
X4.1Y-4.131
X4.1Y-4.731
X4.2Y-4.131
X4.2Y-4.731
X4.3Y-4.131
X4.3Y-4.731
X4.4Y-4.131
X4.4Y-4.731
X4.5Y-4.131
X4.5Y-4.731
X4.6Y-4.131
X4.6Y-4.731
X4.7Y-4.131
X4.8Y-4.131
X5.0Y-4.731
X6.923Y-4.368
X6.923Y-4.468
X6.923Y-4.568
X4.7Y-4.731
X4.8Y-4.731
X4.9Y-4.131
X4.9Y-4.731
X5.0Y-4.131
X5.1Y-4.131
X5.1Y-4.731
X5.682Y-4.131
X5.682Y-4.731
X5.782Y-4.131
X5.782Y-4.731
X5.882Y-4.131
X5.882Y-4.731
X5.982Y-4.131
X5.982Y-4.731
X6.082Y-4.131
X6.082Y-4.731
X6.182Y-4.131
X6.182Y-4.731
X6.282Y-4.131
X6.282Y-4.731
X6.382Y-4.131
X6.382Y-4.731
X6.482Y-4.131
X6.482Y-4.731
X6.582Y-4.131
X6.582Y-4.731
X6.682Y-4.131
X6.682Y-4.731
X6.782Y-4.131
X6.782Y-4.731
X5.2425Y-4.368
X5.2425Y-4.468
X5.2425Y-4.568
T7
X5.63Y-5.042
X5.63Y-5.432
X6.0324Y-4.9403
X6.0324Y-5.2355
X6.0324Y-5.5308
X6.1308Y-5.0387
X6.1308Y-5.4324
X3.95Y-5.042
X3.95Y-5.432
X4.3524Y-4.9403
X4.3524Y-5.2355
X4.3524Y-5.5308
X4.4508Y-5.0387
X4.4508Y-5.4324
T0
M30
