G04 #@! TF.GenerationSoftware,KiCad,Pcbnew,(5.1.4-0-10_14)*
G04 #@! TF.CreationDate,2020-04-09T16:23:13-05:00*
G04 #@! TF.ProjectId,WIRELESS_MIDI_PANELIZED,57495245-4c45-4535-935f-4d4944495f50,rev?*
G04 #@! TF.SameCoordinates,Original*
G04 #@! TF.FileFunction,Profile,NP*
%FSLAX46Y46*%
G04 Gerber Fmt 4.6, Leading zero omitted, Abs format (unit mm)*
G04 Created by KiCad (PCBNEW (5.1.4-0-10_14)) date 2020-04-09 16:23:13*
%MOMM*%
%LPD*%
G04 APERTURE LIST*
%ADD10C,0.050000*%
G04 APERTURE END LIST*
D10*
X140462000Y-145846800D02*
X140487400Y-145846800D01*
X138430000Y-141859000D02*
G75*
G02X140462000Y-141859000I1016000J0D01*
G01*
X140462000Y-137845800D02*
G75*
G02X138430000Y-137845800I-1016000J0D01*
G01*
X138430000Y-129387600D02*
G75*
G02X140462000Y-129387600I1016000J0D01*
G01*
X140462000Y-125374400D02*
G75*
G02X138430000Y-125374400I-1016000J0D01*
G01*
X140462000Y-87960200D02*
G75*
G02X138430000Y-87960200I-1016000J0D01*
G01*
X138430000Y-91973400D02*
G75*
G02X140462000Y-91973400I1016000J0D01*
G01*
X140462000Y-100431600D02*
G75*
G02X138430000Y-100431600I-1016000J0D01*
G01*
X138430000Y-104444800D02*
G75*
G02X140462000Y-104444800I1016000J0D01*
G01*
X138430000Y-116916200D02*
G75*
G02X140462000Y-116916200I1016000J0D01*
G01*
X140462000Y-112903000D02*
G75*
G02X138430000Y-112903000I-1016000J0D01*
G01*
X138430000Y-87960200D02*
X138430000Y-82854800D01*
X138430000Y-100431600D02*
X138430000Y-91973400D01*
X138430000Y-112903000D02*
X138430000Y-104444800D01*
X138430000Y-125374400D02*
X138430000Y-116916200D01*
X138430000Y-137845800D02*
X138430000Y-129387600D01*
X138430000Y-145846800D02*
X138430000Y-141859000D01*
X140462000Y-141859000D02*
X140462000Y-143306800D01*
X140462000Y-129387600D02*
X140462000Y-137845800D01*
X140462000Y-116916200D02*
X140462000Y-125374400D01*
X140462000Y-104444800D02*
X140462000Y-112903000D01*
X140462000Y-91973400D02*
X140462000Y-100431600D01*
X140462000Y-82829400D02*
X140462000Y-87960200D01*
X97790000Y-82854800D02*
X97790000Y-84886800D01*
X97790000Y-84886800D02*
X97790000Y-86156800D01*
X97790000Y-145846800D02*
X97790000Y-86156800D01*
X138430000Y-145846800D02*
X97790000Y-145846800D01*
X97790000Y-82854800D02*
X138430000Y-82854800D01*
X140462000Y-143306800D02*
X140462000Y-145846800D01*
X181127400Y-143306800D02*
X181127400Y-143560800D01*
X181127400Y-143560800D02*
X181127400Y-145846800D01*
X181127400Y-145846800D02*
X140487400Y-145846800D01*
X181127400Y-82854800D02*
X181127400Y-143306800D01*
X140462000Y-82829400D02*
X181127400Y-82854800D01*
M02*
