G04 #@! TF.GenerationSoftware,KiCad,Pcbnew,(5.1.4-0-10_14)*
G04 #@! TF.CreationDate,2020-04-09T16:23:12-05:00*
G04 #@! TF.ProjectId,WIRELESS_MIDI_PANELIZED,57495245-4c45-4535-935f-4d4944495f50,rev?*
G04 #@! TF.SameCoordinates,Original*
G04 #@! TF.FileFunction,Legend,Top*
G04 #@! TF.FilePolarity,Positive*
%FSLAX46Y46*%
G04 Gerber Fmt 4.6, Leading zero omitted, Abs format (unit mm)*
G04 Created by KiCad (PCBNEW (5.1.4-0-10_14)) date 2020-04-09 16:23:12*
%MOMM*%
%LPD*%
G04 APERTURE LIST*
%ADD10C,0.250000*%
%ADD11C,0.300000*%
%ADD12C,0.120000*%
%ADD13C,0.100000*%
%ADD14C,0.150000*%
%ADD15C,0.127000*%
%ADD16C,0.200000*%
G04 APERTURE END LIST*
D10*
X105308285Y-84803371D02*
X105308285Y-83303371D01*
X105808285Y-84374800D01*
X106308285Y-83303371D01*
X106308285Y-84803371D01*
X107022571Y-84803371D02*
X107022571Y-83303371D01*
X107736857Y-84803371D02*
X107736857Y-83303371D01*
X108094000Y-83303371D01*
X108308285Y-83374800D01*
X108451142Y-83517657D01*
X108522571Y-83660514D01*
X108594000Y-83946228D01*
X108594000Y-84160514D01*
X108522571Y-84446228D01*
X108451142Y-84589085D01*
X108308285Y-84731942D01*
X108094000Y-84803371D01*
X107736857Y-84803371D01*
X109236857Y-84803371D02*
X109236857Y-83303371D01*
X110879714Y-83303371D02*
X111736857Y-83303371D01*
X111308285Y-84803371D02*
X111308285Y-83303371D01*
X112236857Y-84803371D02*
X112236857Y-83803371D01*
X112236857Y-84089085D02*
X112308285Y-83946228D01*
X112379714Y-83874800D01*
X112522571Y-83803371D01*
X112665428Y-83803371D01*
X113808285Y-84803371D02*
X113808285Y-84017657D01*
X113736857Y-83874800D01*
X113594000Y-83803371D01*
X113308285Y-83803371D01*
X113165428Y-83874800D01*
X113808285Y-84731942D02*
X113665428Y-84803371D01*
X113308285Y-84803371D01*
X113165428Y-84731942D01*
X113094000Y-84589085D01*
X113094000Y-84446228D01*
X113165428Y-84303371D01*
X113308285Y-84231942D01*
X113665428Y-84231942D01*
X113808285Y-84160514D01*
X114522571Y-83803371D02*
X114522571Y-84803371D01*
X114522571Y-83946228D02*
X114594000Y-83874800D01*
X114736857Y-83803371D01*
X114951142Y-83803371D01*
X115094000Y-83874800D01*
X115165428Y-84017657D01*
X115165428Y-84803371D01*
X115808285Y-84731942D02*
X115951142Y-84803371D01*
X116236857Y-84803371D01*
X116379714Y-84731942D01*
X116451142Y-84589085D01*
X116451142Y-84517657D01*
X116379714Y-84374800D01*
X116236857Y-84303371D01*
X116022571Y-84303371D01*
X115879714Y-84231942D01*
X115808285Y-84089085D01*
X115808285Y-84017657D01*
X115879714Y-83874800D01*
X116022571Y-83803371D01*
X116236857Y-83803371D01*
X116379714Y-83874800D01*
X117094000Y-84803371D02*
X117094000Y-83803371D01*
X117094000Y-83946228D02*
X117165428Y-83874800D01*
X117308285Y-83803371D01*
X117522571Y-83803371D01*
X117665428Y-83874800D01*
X117736857Y-84017657D01*
X117736857Y-84803371D01*
X117736857Y-84017657D02*
X117808285Y-83874800D01*
X117951142Y-83803371D01*
X118165428Y-83803371D01*
X118308285Y-83874800D01*
X118379714Y-84017657D01*
X118379714Y-84803371D01*
X119094000Y-84803371D02*
X119094000Y-83803371D01*
X119094000Y-83303371D02*
X119022571Y-83374800D01*
X119094000Y-83446228D01*
X119165428Y-83374800D01*
X119094000Y-83303371D01*
X119094000Y-83446228D01*
X119594000Y-83803371D02*
X120165428Y-83803371D01*
X119808285Y-83303371D02*
X119808285Y-84589085D01*
X119879714Y-84731942D01*
X120022571Y-84803371D01*
X120165428Y-84803371D01*
X120451142Y-83803371D02*
X121022571Y-83803371D01*
X120665428Y-83303371D02*
X120665428Y-84589085D01*
X120736857Y-84731942D01*
X120879714Y-84803371D01*
X121022571Y-84803371D01*
X122094000Y-84731942D02*
X121951142Y-84803371D01*
X121665428Y-84803371D01*
X121522571Y-84731942D01*
X121451142Y-84589085D01*
X121451142Y-84017657D01*
X121522571Y-83874800D01*
X121665428Y-83803371D01*
X121951142Y-83803371D01*
X122094000Y-83874800D01*
X122165428Y-84017657D01*
X122165428Y-84160514D01*
X121451142Y-84303371D01*
X122808285Y-84803371D02*
X122808285Y-83803371D01*
X122808285Y-84089085D02*
X122879714Y-83946228D01*
X122951142Y-83874800D01*
X123094000Y-83803371D01*
X123236857Y-83803371D01*
X124736857Y-83803371D02*
X125094000Y-84803371D01*
X125451142Y-83803371D01*
X126808285Y-84803371D02*
X125951142Y-84803371D01*
X126379714Y-84803371D02*
X126379714Y-83303371D01*
X126236857Y-83517657D01*
X126094000Y-83660514D01*
X125951142Y-83731942D01*
X127451142Y-84660514D02*
X127522571Y-84731942D01*
X127451142Y-84803371D01*
X127379714Y-84731942D01*
X127451142Y-84660514D01*
X127451142Y-84803371D01*
X128951142Y-84803371D02*
X128094000Y-84803371D01*
X128522571Y-84803371D02*
X128522571Y-83303371D01*
X128379714Y-83517657D01*
X128236857Y-83660514D01*
X128094000Y-83731942D01*
D11*
X149612828Y-84803371D02*
X149612828Y-83303371D01*
X150112828Y-84374800D01*
X150612828Y-83303371D01*
X150612828Y-84803371D01*
X151327114Y-84803371D02*
X151327114Y-83303371D01*
X152041400Y-84803371D02*
X152041400Y-83303371D01*
X152398542Y-83303371D01*
X152612828Y-83374800D01*
X152755685Y-83517657D01*
X152827114Y-83660514D01*
X152898542Y-83946228D01*
X152898542Y-84160514D01*
X152827114Y-84446228D01*
X152755685Y-84589085D01*
X152612828Y-84731942D01*
X152398542Y-84803371D01*
X152041400Y-84803371D01*
X153541400Y-84803371D02*
X153541400Y-83303371D01*
X156255685Y-84803371D02*
X155755685Y-84089085D01*
X155398542Y-84803371D02*
X155398542Y-83303371D01*
X155969971Y-83303371D01*
X156112828Y-83374800D01*
X156184257Y-83446228D01*
X156255685Y-83589085D01*
X156255685Y-83803371D01*
X156184257Y-83946228D01*
X156112828Y-84017657D01*
X155969971Y-84089085D01*
X155398542Y-84089085D01*
X157469971Y-84731942D02*
X157327114Y-84803371D01*
X157041400Y-84803371D01*
X156898542Y-84731942D01*
X156827114Y-84589085D01*
X156827114Y-84017657D01*
X156898542Y-83874800D01*
X157041400Y-83803371D01*
X157327114Y-83803371D01*
X157469971Y-83874800D01*
X157541400Y-84017657D01*
X157541400Y-84160514D01*
X156827114Y-84303371D01*
X158827114Y-84731942D02*
X158684257Y-84803371D01*
X158398542Y-84803371D01*
X158255685Y-84731942D01*
X158184257Y-84660514D01*
X158112828Y-84517657D01*
X158112828Y-84089085D01*
X158184257Y-83946228D01*
X158255685Y-83874800D01*
X158398542Y-83803371D01*
X158684257Y-83803371D01*
X158827114Y-83874800D01*
X160041400Y-84731942D02*
X159898542Y-84803371D01*
X159612828Y-84803371D01*
X159469971Y-84731942D01*
X159398542Y-84589085D01*
X159398542Y-84017657D01*
X159469971Y-83874800D01*
X159612828Y-83803371D01*
X159898542Y-83803371D01*
X160041400Y-83874800D01*
X160112828Y-84017657D01*
X160112828Y-84160514D01*
X159398542Y-84303371D01*
X160755685Y-84803371D02*
X160755685Y-83803371D01*
X160755685Y-83303371D02*
X160684257Y-83374800D01*
X160755685Y-83446228D01*
X160827114Y-83374800D01*
X160755685Y-83303371D01*
X160755685Y-83446228D01*
X161327114Y-83803371D02*
X161684257Y-84803371D01*
X162041400Y-83803371D01*
X163184257Y-84731942D02*
X163041400Y-84803371D01*
X162755685Y-84803371D01*
X162612828Y-84731942D01*
X162541400Y-84589085D01*
X162541400Y-84017657D01*
X162612828Y-83874800D01*
X162755685Y-83803371D01*
X163041400Y-83803371D01*
X163184257Y-83874800D01*
X163255685Y-84017657D01*
X163255685Y-84160514D01*
X162541400Y-84303371D01*
X163898542Y-84803371D02*
X163898542Y-83803371D01*
X163898542Y-84089085D02*
X163969971Y-83946228D01*
X164041400Y-83874800D01*
X164184257Y-83803371D01*
X164327114Y-83803371D01*
X165827114Y-83803371D02*
X166184257Y-84803371D01*
X166541400Y-83803371D01*
X167898542Y-84803371D02*
X167041400Y-84803371D01*
X167469971Y-84803371D02*
X167469971Y-83303371D01*
X167327114Y-83517657D01*
X167184257Y-83660514D01*
X167041400Y-83731942D01*
X168541400Y-84660514D02*
X168612828Y-84731942D01*
X168541400Y-84803371D01*
X168469971Y-84731942D01*
X168541400Y-84660514D01*
X168541400Y-84803371D01*
X170041400Y-84803371D02*
X169184257Y-84803371D01*
X169612828Y-84803371D02*
X169612828Y-83303371D01*
X169469971Y-83517657D01*
X169327114Y-83660514D01*
X169184257Y-83731942D01*
D12*
X132538199Y-104142000D02*
X132538199Y-104542000D01*
X132338199Y-104342000D02*
X132738199Y-104342000D01*
X136689000Y-105167000D02*
X136689000Y-105907000D01*
X136649000Y-105000000D02*
X136649000Y-106074000D01*
X136609000Y-104873000D02*
X136609000Y-106201000D01*
X136569000Y-104769000D02*
X136569000Y-106305000D01*
X136529000Y-104678000D02*
X136529000Y-106396000D01*
X136489000Y-104597000D02*
X136489000Y-106477000D01*
X136449000Y-104524000D02*
X136449000Y-106550000D01*
X136409000Y-104457000D02*
X136409000Y-106617000D01*
X136369000Y-104395000D02*
X136369000Y-106679000D01*
X136329000Y-104337000D02*
X136329000Y-106737000D01*
X136289000Y-104283000D02*
X136289000Y-106791000D01*
X136249000Y-104233000D02*
X136249000Y-106841000D01*
X136209000Y-104186000D02*
X136209000Y-106888000D01*
X136169000Y-106377000D02*
X136169000Y-106933000D01*
X136169000Y-104141000D02*
X136169000Y-104697000D01*
X136129000Y-106377000D02*
X136129000Y-106975000D01*
X136129000Y-104099000D02*
X136129000Y-104697000D01*
X136089000Y-106377000D02*
X136089000Y-107015000D01*
X136089000Y-104059000D02*
X136089000Y-104697000D01*
X136049000Y-106377000D02*
X136049000Y-107053000D01*
X136049000Y-104021000D02*
X136049000Y-104697000D01*
X136009000Y-106377000D02*
X136009000Y-107089000D01*
X136009000Y-103985000D02*
X136009000Y-104697000D01*
X135969000Y-106377000D02*
X135969000Y-107124000D01*
X135969000Y-103950000D02*
X135969000Y-104697000D01*
X135929000Y-106377000D02*
X135929000Y-107156000D01*
X135929000Y-103918000D02*
X135929000Y-104697000D01*
X135889000Y-106377000D02*
X135889000Y-107187000D01*
X135889000Y-103887000D02*
X135889000Y-104697000D01*
X135849000Y-106377000D02*
X135849000Y-107217000D01*
X135849000Y-103857000D02*
X135849000Y-104697000D01*
X135809000Y-106377000D02*
X135809000Y-107245000D01*
X135809000Y-103829000D02*
X135809000Y-104697000D01*
X135769000Y-106377000D02*
X135769000Y-107272000D01*
X135769000Y-103802000D02*
X135769000Y-104697000D01*
X135729000Y-106377000D02*
X135729000Y-107297000D01*
X135729000Y-103777000D02*
X135729000Y-104697000D01*
X135689000Y-106377000D02*
X135689000Y-107322000D01*
X135689000Y-103752000D02*
X135689000Y-104697000D01*
X135649000Y-106377000D02*
X135649000Y-107345000D01*
X135649000Y-103729000D02*
X135649000Y-104697000D01*
X135609000Y-106377000D02*
X135609000Y-107367000D01*
X135609000Y-103707000D02*
X135609000Y-104697000D01*
X135569000Y-106377000D02*
X135569000Y-107388000D01*
X135569000Y-103686000D02*
X135569000Y-104697000D01*
X135529000Y-106377000D02*
X135529000Y-107407000D01*
X135529000Y-103667000D02*
X135529000Y-104697000D01*
X135489000Y-106377000D02*
X135489000Y-107426000D01*
X135489000Y-103648000D02*
X135489000Y-104697000D01*
X135449000Y-106377000D02*
X135449000Y-107444000D01*
X135449000Y-103630000D02*
X135449000Y-104697000D01*
X135409000Y-106377000D02*
X135409000Y-107461000D01*
X135409000Y-103613000D02*
X135409000Y-104697000D01*
X135369000Y-106377000D02*
X135369000Y-107477000D01*
X135369000Y-103597000D02*
X135369000Y-104697000D01*
X135329000Y-106377000D02*
X135329000Y-107491000D01*
X135329000Y-103583000D02*
X135329000Y-104697000D01*
X135288000Y-106377000D02*
X135288000Y-107505000D01*
X135288000Y-103569000D02*
X135288000Y-104697000D01*
X135248000Y-106377000D02*
X135248000Y-107519000D01*
X135248000Y-103555000D02*
X135248000Y-104697000D01*
X135208000Y-106377000D02*
X135208000Y-107531000D01*
X135208000Y-103543000D02*
X135208000Y-104697000D01*
X135168000Y-106377000D02*
X135168000Y-107542000D01*
X135168000Y-103532000D02*
X135168000Y-104697000D01*
X135128000Y-106377000D02*
X135128000Y-107553000D01*
X135128000Y-103521000D02*
X135128000Y-104697000D01*
X135088000Y-106377000D02*
X135088000Y-107562000D01*
X135088000Y-103512000D02*
X135088000Y-104697000D01*
X135048000Y-106377000D02*
X135048000Y-107571000D01*
X135048000Y-103503000D02*
X135048000Y-104697000D01*
X135008000Y-106377000D02*
X135008000Y-107579000D01*
X135008000Y-103495000D02*
X135008000Y-104697000D01*
X134968000Y-106377000D02*
X134968000Y-107587000D01*
X134968000Y-103487000D02*
X134968000Y-104697000D01*
X134928000Y-106377000D02*
X134928000Y-107593000D01*
X134928000Y-103481000D02*
X134928000Y-104697000D01*
X134888000Y-106377000D02*
X134888000Y-107599000D01*
X134888000Y-103475000D02*
X134888000Y-104697000D01*
X134848000Y-106377000D02*
X134848000Y-107604000D01*
X134848000Y-103470000D02*
X134848000Y-104697000D01*
X134808000Y-106377000D02*
X134808000Y-107608000D01*
X134808000Y-103466000D02*
X134808000Y-104697000D01*
X134768000Y-106377000D02*
X134768000Y-107611000D01*
X134768000Y-103463000D02*
X134768000Y-104697000D01*
X134728000Y-106377000D02*
X134728000Y-107614000D01*
X134728000Y-103460000D02*
X134728000Y-104697000D01*
X134688000Y-103458000D02*
X134688000Y-104697000D01*
X134688000Y-106377000D02*
X134688000Y-107616000D01*
X134648000Y-103457000D02*
X134648000Y-104697000D01*
X134648000Y-106377000D02*
X134648000Y-107617000D01*
X134608000Y-103457000D02*
X134608000Y-104697000D01*
X134608000Y-106377000D02*
X134608000Y-107617000D01*
X136728000Y-105537000D02*
G75*
G03X136728000Y-105537000I-2120000J0D01*
G01*
D13*
X138446000Y-112909600D02*
G75*
G03X140446000Y-112909600I1000000J0D01*
G01*
X140446000Y-116909600D02*
G75*
G03X138446000Y-116909600I-1000000J0D01*
G01*
X138446000Y-125381000D02*
G75*
G03X140446000Y-125381000I1000000J0D01*
G01*
X140446000Y-129381000D02*
G75*
G03X138446000Y-129381000I-1000000J0D01*
G01*
X138446000Y-100438200D02*
G75*
G03X140446000Y-100438200I1000000J0D01*
G01*
X140446000Y-104438200D02*
G75*
G03X138446000Y-104438200I-1000000J0D01*
G01*
X138446000Y-137852400D02*
G75*
G03X140446000Y-137852400I1000000J0D01*
G01*
X140446000Y-141852400D02*
G75*
G03X138446000Y-141852400I-1000000J0D01*
G01*
X138446000Y-87966800D02*
G75*
G03X140446000Y-87966800I1000000J0D01*
G01*
X140446000Y-91966800D02*
G75*
G03X138446000Y-91966800I-1000000J0D01*
G01*
D12*
X136429500Y-115338200D02*
X134919500Y-115338200D01*
X136429500Y-111637200D02*
X134919500Y-111637200D01*
X134919500Y-108367200D02*
X134919500Y-118607200D01*
X136429500Y-118607200D02*
X131788500Y-118607200D01*
X136429500Y-108367200D02*
X131788500Y-108367200D01*
X131788500Y-108367200D02*
X131788500Y-118607200D01*
X136429500Y-108367200D02*
X136429500Y-118607200D01*
D14*
X130810000Y-103657400D02*
X130810000Y-121437400D01*
X100330000Y-103657400D02*
X130810000Y-103657400D01*
X100330000Y-108737400D02*
X100330000Y-103657400D01*
X97790000Y-108737400D02*
X100330000Y-108737400D01*
X97790000Y-116357400D02*
X97790000Y-108737400D01*
X100330000Y-116357400D02*
X97790000Y-116357400D01*
X100330000Y-121437400D02*
X100330000Y-116357400D01*
X100330000Y-121437400D02*
X130810000Y-121437400D01*
D13*
X115152000Y-131514800D02*
X115152000Y-131814800D01*
X115452000Y-131514800D02*
X115152000Y-131514800D01*
X115152000Y-138314800D02*
X115152000Y-138014800D01*
X115452000Y-138314800D02*
X115152000Y-138314800D01*
X125152000Y-138314800D02*
X125152000Y-138014800D01*
X124852000Y-138314800D02*
X125152000Y-138314800D01*
X125152000Y-131514800D02*
X125152000Y-131814800D01*
X124852000Y-131514800D02*
X125152000Y-131514800D01*
D12*
X123802500Y-128796300D02*
X123802500Y-126956300D01*
X123562500Y-128796300D02*
X123562500Y-126956300D01*
X123682500Y-128796300D02*
X123682500Y-126956300D01*
X119798500Y-127876300D02*
X120978500Y-127876300D01*
X125438500Y-127876300D02*
X124258500Y-127876300D01*
X120978500Y-128796300D02*
X124258500Y-128796300D01*
X120978500Y-126956300D02*
X120978500Y-128796300D01*
X124258500Y-126956300D02*
X120978500Y-126956300D01*
X124258500Y-128796300D02*
X124258500Y-126956300D01*
X127794000Y-130252800D02*
X127794000Y-130582800D01*
X134334000Y-130252800D02*
X127794000Y-130252800D01*
X134334000Y-130582800D02*
X134334000Y-130252800D01*
X127794000Y-132992800D02*
X127794000Y-132662800D01*
X134334000Y-132992800D02*
X127794000Y-132992800D01*
X134334000Y-132662800D02*
X134334000Y-132992800D01*
D15*
X110550000Y-134182800D02*
X110550000Y-139282800D01*
X98050000Y-122982800D02*
X98050000Y-142982800D01*
X98050000Y-142982800D02*
X110550000Y-142982800D01*
D16*
X111050000Y-143882800D02*
G75*
G03X111050000Y-143882800I-100000J0D01*
G01*
D15*
X110550000Y-122982800D02*
X98050000Y-122982800D01*
X110550000Y-126682800D02*
X110550000Y-131782800D01*
X110550000Y-122982800D02*
X110550000Y-124282800D01*
X110550000Y-142982800D02*
X110550000Y-141682800D01*
D12*
X134334000Y-136294800D02*
X134334000Y-135964800D01*
X127794000Y-136294800D02*
X134334000Y-136294800D01*
X127794000Y-135964800D02*
X127794000Y-136294800D01*
X134334000Y-133554800D02*
X134334000Y-133884800D01*
X127794000Y-133554800D02*
X134334000Y-133554800D01*
X127794000Y-133884800D02*
X127794000Y-133554800D01*
X134334000Y-139596800D02*
X134334000Y-139266800D01*
X127794000Y-139596800D02*
X134334000Y-139596800D01*
X127794000Y-139266800D02*
X127794000Y-139596800D01*
X134334000Y-136856800D02*
X134334000Y-137186800D01*
X127794000Y-136856800D02*
X134334000Y-136856800D01*
X127794000Y-137186800D02*
X127794000Y-136856800D01*
X129988000Y-89398800D02*
X131318000Y-89398800D01*
X129988000Y-90728800D02*
X129988000Y-89398800D01*
X132588000Y-89398800D02*
X135188000Y-89398800D01*
X132588000Y-91998800D02*
X132588000Y-89398800D01*
X129988000Y-91998800D02*
X132588000Y-91998800D01*
X135188000Y-89398800D02*
X135188000Y-99678800D01*
X129988000Y-91998800D02*
X129988000Y-99678800D01*
X129988000Y-99678800D02*
X135188000Y-99678800D01*
X105410000Y-100066800D02*
X106740000Y-100066800D01*
X106740000Y-100066800D02*
X106740000Y-101396800D01*
X106740000Y-102606800D02*
X106740000Y-102726800D01*
X104080000Y-102606800D02*
X104080000Y-102726800D01*
X104080000Y-102726800D02*
X106740000Y-102726800D01*
X101600000Y-100066800D02*
X102930000Y-100066800D01*
X102930000Y-100066800D02*
X102930000Y-101396800D01*
X102930000Y-102606800D02*
X102930000Y-102726800D01*
X100270000Y-102606800D02*
X100270000Y-102726800D01*
X100270000Y-102726800D02*
X102930000Y-102726800D01*
X133237000Y-100730800D02*
X131979000Y-100730800D01*
X133237000Y-102570800D02*
X131979000Y-102570800D01*
X146777400Y-100066800D02*
X146777400Y-102726800D01*
X146837400Y-100066800D02*
X146777400Y-100066800D01*
X146837400Y-102726800D02*
X146777400Y-102726800D01*
X146837400Y-100066800D02*
X146837400Y-102726800D01*
X148107400Y-100066800D02*
X149437400Y-100066800D01*
X149437400Y-100066800D02*
X149437400Y-101396800D01*
X143018200Y-100066800D02*
X143018200Y-102726800D01*
X143078200Y-100066800D02*
X143018200Y-100066800D01*
X143078200Y-102726800D02*
X143018200Y-102726800D01*
X143078200Y-100066800D02*
X143078200Y-102726800D01*
X144348200Y-100066800D02*
X145678200Y-100066800D01*
X145678200Y-100066800D02*
X145678200Y-101396800D01*
X179114200Y-115338200D02*
X177604200Y-115338200D01*
X179114200Y-111637200D02*
X177604200Y-111637200D01*
X177604200Y-108367200D02*
X177604200Y-118607200D01*
X179114200Y-118607200D02*
X174473200Y-118607200D01*
X179114200Y-108367200D02*
X174473200Y-108367200D01*
X174473200Y-108367200D02*
X174473200Y-118607200D01*
X179114200Y-108367200D02*
X179114200Y-118607200D01*
D15*
X153222000Y-134182800D02*
X153222000Y-139282800D01*
X140722000Y-122982800D02*
X140722000Y-142982800D01*
X140722000Y-142982800D02*
X153222000Y-142982800D01*
D16*
X153722000Y-143882800D02*
G75*
G03X153722000Y-143882800I-100000J0D01*
G01*
D15*
X153222000Y-122982800D02*
X140722000Y-122982800D01*
X153222000Y-126682800D02*
X153222000Y-131782800D01*
X153222000Y-122982800D02*
X153222000Y-124282800D01*
X153222000Y-142982800D02*
X153222000Y-141682800D01*
D12*
X168776400Y-139342800D02*
X168776400Y-139012800D01*
X162236400Y-139342800D02*
X168776400Y-139342800D01*
X162236400Y-139012800D02*
X162236400Y-139342800D01*
X168776400Y-136602800D02*
X168776400Y-136932800D01*
X162236400Y-136602800D02*
X168776400Y-136602800D01*
X162236400Y-136932800D02*
X162236400Y-136602800D01*
X168751000Y-129284400D02*
X168751000Y-128954400D01*
X162211000Y-129284400D02*
X168751000Y-129284400D01*
X162211000Y-128954400D02*
X162211000Y-129284400D01*
X168751000Y-126544400D02*
X168751000Y-126874400D01*
X162211000Y-126544400D02*
X168751000Y-126544400D01*
X162211000Y-126874400D02*
X162211000Y-126544400D01*
X172177400Y-89398800D02*
X173507400Y-89398800D01*
X172177400Y-90728800D02*
X172177400Y-89398800D01*
X174777400Y-89398800D02*
X177377400Y-89398800D01*
X174777400Y-91998800D02*
X174777400Y-89398800D01*
X172177400Y-91998800D02*
X174777400Y-91998800D01*
X177377400Y-89398800D02*
X177377400Y-99678800D01*
X172177400Y-91998800D02*
X172177400Y-99678800D01*
X172177400Y-99678800D02*
X177377400Y-99678800D01*
D14*
X173532800Y-103657400D02*
X173532800Y-121437400D01*
X143052800Y-103657400D02*
X173532800Y-103657400D01*
X143052800Y-108737400D02*
X143052800Y-103657400D01*
X140512800Y-108737400D02*
X143052800Y-108737400D01*
X140512800Y-116357400D02*
X140512800Y-108737400D01*
X143052800Y-116357400D02*
X140512800Y-116357400D01*
X143052800Y-121437400D02*
X143052800Y-116357400D01*
X143052800Y-121437400D02*
X173532800Y-121437400D01*
D12*
X174676799Y-104091200D02*
X174676799Y-104491200D01*
X174476799Y-104291200D02*
X174876799Y-104291200D01*
X178827600Y-105116200D02*
X178827600Y-105856200D01*
X178787600Y-104949200D02*
X178787600Y-106023200D01*
X178747600Y-104822200D02*
X178747600Y-106150200D01*
X178707600Y-104718200D02*
X178707600Y-106254200D01*
X178667600Y-104627200D02*
X178667600Y-106345200D01*
X178627600Y-104546200D02*
X178627600Y-106426200D01*
X178587600Y-104473200D02*
X178587600Y-106499200D01*
X178547600Y-104406200D02*
X178547600Y-106566200D01*
X178507600Y-104344200D02*
X178507600Y-106628200D01*
X178467600Y-104286200D02*
X178467600Y-106686200D01*
X178427600Y-104232200D02*
X178427600Y-106740200D01*
X178387600Y-104182200D02*
X178387600Y-106790200D01*
X178347600Y-104135200D02*
X178347600Y-106837200D01*
X178307600Y-106326200D02*
X178307600Y-106882200D01*
X178307600Y-104090200D02*
X178307600Y-104646200D01*
X178267600Y-106326200D02*
X178267600Y-106924200D01*
X178267600Y-104048200D02*
X178267600Y-104646200D01*
X178227600Y-106326200D02*
X178227600Y-106964200D01*
X178227600Y-104008200D02*
X178227600Y-104646200D01*
X178187600Y-106326200D02*
X178187600Y-107002200D01*
X178187600Y-103970200D02*
X178187600Y-104646200D01*
X178147600Y-106326200D02*
X178147600Y-107038200D01*
X178147600Y-103934200D02*
X178147600Y-104646200D01*
X178107600Y-106326200D02*
X178107600Y-107073200D01*
X178107600Y-103899200D02*
X178107600Y-104646200D01*
X178067600Y-106326200D02*
X178067600Y-107105200D01*
X178067600Y-103867200D02*
X178067600Y-104646200D01*
X178027600Y-106326200D02*
X178027600Y-107136200D01*
X178027600Y-103836200D02*
X178027600Y-104646200D01*
X177987600Y-106326200D02*
X177987600Y-107166200D01*
X177987600Y-103806200D02*
X177987600Y-104646200D01*
X177947600Y-106326200D02*
X177947600Y-107194200D01*
X177947600Y-103778200D02*
X177947600Y-104646200D01*
X177907600Y-106326200D02*
X177907600Y-107221200D01*
X177907600Y-103751200D02*
X177907600Y-104646200D01*
X177867600Y-106326200D02*
X177867600Y-107246200D01*
X177867600Y-103726200D02*
X177867600Y-104646200D01*
X177827600Y-106326200D02*
X177827600Y-107271200D01*
X177827600Y-103701200D02*
X177827600Y-104646200D01*
X177787600Y-106326200D02*
X177787600Y-107294200D01*
X177787600Y-103678200D02*
X177787600Y-104646200D01*
X177747600Y-106326200D02*
X177747600Y-107316200D01*
X177747600Y-103656200D02*
X177747600Y-104646200D01*
X177707600Y-106326200D02*
X177707600Y-107337200D01*
X177707600Y-103635200D02*
X177707600Y-104646200D01*
X177667600Y-106326200D02*
X177667600Y-107356200D01*
X177667600Y-103616200D02*
X177667600Y-104646200D01*
X177627600Y-106326200D02*
X177627600Y-107375200D01*
X177627600Y-103597200D02*
X177627600Y-104646200D01*
X177587600Y-106326200D02*
X177587600Y-107393200D01*
X177587600Y-103579200D02*
X177587600Y-104646200D01*
X177547600Y-106326200D02*
X177547600Y-107410200D01*
X177547600Y-103562200D02*
X177547600Y-104646200D01*
X177507600Y-106326200D02*
X177507600Y-107426200D01*
X177507600Y-103546200D02*
X177507600Y-104646200D01*
X177467600Y-106326200D02*
X177467600Y-107440200D01*
X177467600Y-103532200D02*
X177467600Y-104646200D01*
X177426600Y-106326200D02*
X177426600Y-107454200D01*
X177426600Y-103518200D02*
X177426600Y-104646200D01*
X177386600Y-106326200D02*
X177386600Y-107468200D01*
X177386600Y-103504200D02*
X177386600Y-104646200D01*
X177346600Y-106326200D02*
X177346600Y-107480200D01*
X177346600Y-103492200D02*
X177346600Y-104646200D01*
X177306600Y-106326200D02*
X177306600Y-107491200D01*
X177306600Y-103481200D02*
X177306600Y-104646200D01*
X177266600Y-106326200D02*
X177266600Y-107502200D01*
X177266600Y-103470200D02*
X177266600Y-104646200D01*
X177226600Y-106326200D02*
X177226600Y-107511200D01*
X177226600Y-103461200D02*
X177226600Y-104646200D01*
X177186600Y-106326200D02*
X177186600Y-107520200D01*
X177186600Y-103452200D02*
X177186600Y-104646200D01*
X177146600Y-106326200D02*
X177146600Y-107528200D01*
X177146600Y-103444200D02*
X177146600Y-104646200D01*
X177106600Y-106326200D02*
X177106600Y-107536200D01*
X177106600Y-103436200D02*
X177106600Y-104646200D01*
X177066600Y-106326200D02*
X177066600Y-107542200D01*
X177066600Y-103430200D02*
X177066600Y-104646200D01*
X177026600Y-106326200D02*
X177026600Y-107548200D01*
X177026600Y-103424200D02*
X177026600Y-104646200D01*
X176986600Y-106326200D02*
X176986600Y-107553200D01*
X176986600Y-103419200D02*
X176986600Y-104646200D01*
X176946600Y-106326200D02*
X176946600Y-107557200D01*
X176946600Y-103415200D02*
X176946600Y-104646200D01*
X176906600Y-106326200D02*
X176906600Y-107560200D01*
X176906600Y-103412200D02*
X176906600Y-104646200D01*
X176866600Y-106326200D02*
X176866600Y-107563200D01*
X176866600Y-103409200D02*
X176866600Y-104646200D01*
X176826600Y-103407200D02*
X176826600Y-104646200D01*
X176826600Y-106326200D02*
X176826600Y-107565200D01*
X176786600Y-103406200D02*
X176786600Y-104646200D01*
X176786600Y-106326200D02*
X176786600Y-107566200D01*
X176746600Y-103406200D02*
X176746600Y-104646200D01*
X176746600Y-106326200D02*
X176746600Y-107566200D01*
X178866600Y-105486200D02*
G75*
G03X178866600Y-105486200I-2120000J0D01*
G01*
X174103000Y-102570800D02*
X175361000Y-102570800D01*
X174103000Y-100730800D02*
X175361000Y-100730800D01*
D14*
X131684733Y-107672142D02*
X131637114Y-107719761D01*
X131494257Y-107767380D01*
X131399019Y-107767380D01*
X131256161Y-107719761D01*
X131160923Y-107624523D01*
X131113304Y-107529285D01*
X131065685Y-107338809D01*
X131065685Y-107195952D01*
X131113304Y-107005476D01*
X131160923Y-106910238D01*
X131256161Y-106815000D01*
X131399019Y-106767380D01*
X131494257Y-106767380D01*
X131637114Y-106815000D01*
X131684733Y-106862619D01*
X132065685Y-106862619D02*
X132113304Y-106815000D01*
X132208542Y-106767380D01*
X132446638Y-106767380D01*
X132541876Y-106815000D01*
X132589495Y-106862619D01*
X132637114Y-106957857D01*
X132637114Y-107053095D01*
X132589495Y-107195952D01*
X132018066Y-107767380D01*
X132637114Y-107767380D01*
X137993380Y-107548228D02*
X137993380Y-108119657D01*
X137993380Y-107833942D02*
X136993380Y-107833942D01*
X137136238Y-107929180D01*
X137231476Y-108024419D01*
X137279095Y-108119657D01*
X136993380Y-106929180D02*
X136993380Y-106833942D01*
X137041000Y-106738704D01*
X137088619Y-106691085D01*
X137183857Y-106643466D01*
X137374333Y-106595847D01*
X137612428Y-106595847D01*
X137802904Y-106643466D01*
X137898142Y-106691085D01*
X137945761Y-106738704D01*
X137993380Y-106833942D01*
X137993380Y-106929180D01*
X137945761Y-107024419D01*
X137898142Y-107072038D01*
X137802904Y-107119657D01*
X137612428Y-107167276D01*
X137374333Y-107167276D01*
X137183857Y-107119657D01*
X137088619Y-107072038D01*
X137041000Y-107024419D01*
X136993380Y-106929180D01*
X137326714Y-105738704D02*
X137993380Y-105738704D01*
X137326714Y-106167276D02*
X137850523Y-106167276D01*
X137945761Y-106119657D01*
X137993380Y-106024419D01*
X137993380Y-105881561D01*
X137945761Y-105786323D01*
X137898142Y-105738704D01*
X137469571Y-104929180D02*
X137469571Y-105262514D01*
X137993380Y-105262514D02*
X136993380Y-105262514D01*
X136993380Y-104786323D01*
X131376895Y-144554580D02*
X131376895Y-143554580D01*
X131376895Y-144030771D02*
X131948323Y-144030771D01*
X131948323Y-144554580D02*
X131948323Y-143554580D01*
X132853085Y-143887914D02*
X132853085Y-144554580D01*
X132614990Y-143506961D02*
X132376895Y-144221247D01*
X132995942Y-144221247D01*
X102912895Y-145087980D02*
X102912895Y-144087980D01*
X102912895Y-144564171D02*
X103484323Y-144564171D01*
X103484323Y-145087980D02*
X103484323Y-144087980D01*
X103865276Y-144087980D02*
X104484323Y-144087980D01*
X104150990Y-144468933D01*
X104293847Y-144468933D01*
X104389085Y-144516552D01*
X104436704Y-144564171D01*
X104484323Y-144659409D01*
X104484323Y-144897504D01*
X104436704Y-144992742D01*
X104389085Y-145040361D01*
X104293847Y-145087980D01*
X104008133Y-145087980D01*
X103912895Y-145040361D01*
X103865276Y-144992742D01*
X103039895Y-87845780D02*
X103039895Y-86845780D01*
X103039895Y-87321971D02*
X103611323Y-87321971D01*
X103611323Y-87845780D02*
X103611323Y-86845780D01*
X104611323Y-87845780D02*
X104039895Y-87845780D01*
X104325609Y-87845780D02*
X104325609Y-86845780D01*
X104230371Y-86988638D01*
X104135133Y-87083876D01*
X104039895Y-87131495D01*
X131605495Y-87718780D02*
X131605495Y-86718780D01*
X131605495Y-87194971D02*
X132176923Y-87194971D01*
X132176923Y-87718780D02*
X132176923Y-86718780D01*
X132605495Y-86814019D02*
X132653114Y-86766400D01*
X132748352Y-86718780D01*
X132986447Y-86718780D01*
X133081685Y-86766400D01*
X133129304Y-86814019D01*
X133176923Y-86909257D01*
X133176923Y-87004495D01*
X133129304Y-87147352D01*
X132557876Y-87718780D01*
X133176923Y-87718780D01*
X136881880Y-114249104D02*
X137691404Y-114249104D01*
X137786642Y-114201485D01*
X137834261Y-114153866D01*
X137881880Y-114058628D01*
X137881880Y-113868152D01*
X137834261Y-113772914D01*
X137786642Y-113725295D01*
X137691404Y-113677676D01*
X136881880Y-113677676D01*
X136881880Y-113296723D02*
X136881880Y-112677676D01*
X137262833Y-113011009D01*
X137262833Y-112868152D01*
X137310452Y-112772914D01*
X137358071Y-112725295D01*
X137453309Y-112677676D01*
X137691404Y-112677676D01*
X137786642Y-112725295D01*
X137834261Y-112772914D01*
X137881880Y-112868152D01*
X137881880Y-113153866D01*
X137834261Y-113249104D01*
X137786642Y-113296723D01*
X137123514Y-112032847D02*
X137790180Y-111794752D01*
X137123514Y-111556657D01*
X137790180Y-110604276D02*
X137313990Y-110937609D01*
X137790180Y-111175704D02*
X136790180Y-111175704D01*
X136790180Y-110794752D01*
X136837800Y-110699514D01*
X136885419Y-110651895D01*
X136980657Y-110604276D01*
X137123514Y-110604276D01*
X137218752Y-110651895D01*
X137266371Y-110699514D01*
X137313990Y-110794752D01*
X137313990Y-111175704D01*
X137742561Y-109794752D02*
X137790180Y-109889990D01*
X137790180Y-110080466D01*
X137742561Y-110175704D01*
X137647323Y-110223323D01*
X137266371Y-110223323D01*
X137171133Y-110175704D01*
X137123514Y-110080466D01*
X137123514Y-109889990D01*
X137171133Y-109794752D01*
X137266371Y-109747133D01*
X137361609Y-109747133D01*
X137456847Y-110223323D01*
X137123514Y-108889990D02*
X137933038Y-108889990D01*
X138028276Y-108937609D01*
X138075895Y-108985228D01*
X138123514Y-109080466D01*
X138123514Y-109223323D01*
X138075895Y-109318561D01*
X137742561Y-108889990D02*
X137790180Y-108985228D01*
X137790180Y-109175704D01*
X137742561Y-109270942D01*
X137694942Y-109318561D01*
X137599704Y-109366180D01*
X137313990Y-109366180D01*
X137218752Y-109318561D01*
X137171133Y-109270942D01*
X137123514Y-109175704D01*
X137123514Y-108985228D01*
X137171133Y-108889990D01*
X107310180Y-114783809D02*
X106310180Y-114783809D01*
X106310180Y-114402857D01*
X106357800Y-114307619D01*
X106405419Y-114260000D01*
X106500657Y-114212380D01*
X106643514Y-114212380D01*
X106738752Y-114260000D01*
X106786371Y-114307619D01*
X106833990Y-114402857D01*
X106833990Y-114783809D01*
X107310180Y-113783809D02*
X106643514Y-113783809D01*
X106833990Y-113783809D02*
X106738752Y-113736190D01*
X106691133Y-113688571D01*
X106643514Y-113593333D01*
X106643514Y-113498095D01*
X107310180Y-113021904D02*
X107262561Y-113117142D01*
X107214942Y-113164761D01*
X107119704Y-113212380D01*
X106833990Y-113212380D01*
X106738752Y-113164761D01*
X106691133Y-113117142D01*
X106643514Y-113021904D01*
X106643514Y-112879047D01*
X106691133Y-112783809D01*
X106738752Y-112736190D01*
X106833990Y-112688571D01*
X107119704Y-112688571D01*
X107214942Y-112736190D01*
X107262561Y-112783809D01*
X107310180Y-112879047D01*
X107310180Y-113021904D01*
X107310180Y-112260000D02*
X106310180Y-112260000D01*
X107024466Y-111926666D01*
X106310180Y-111593333D01*
X107310180Y-111593333D01*
X107310180Y-111117142D02*
X106643514Y-111117142D01*
X106310180Y-111117142D02*
X106357800Y-111164761D01*
X106405419Y-111117142D01*
X106357800Y-111069523D01*
X106310180Y-111117142D01*
X106405419Y-111117142D01*
X107262561Y-110212380D02*
X107310180Y-110307619D01*
X107310180Y-110498095D01*
X107262561Y-110593333D01*
X107214942Y-110640952D01*
X107119704Y-110688571D01*
X106833990Y-110688571D01*
X106738752Y-110640952D01*
X106691133Y-110593333D01*
X106643514Y-110498095D01*
X106643514Y-110307619D01*
X106691133Y-110212380D01*
X107310180Y-109783809D02*
X106643514Y-109783809D01*
X106833990Y-109783809D02*
X106738752Y-109736190D01*
X106691133Y-109688571D01*
X106643514Y-109593333D01*
X106643514Y-109498095D01*
X107310180Y-109021904D02*
X107262561Y-109117142D01*
X107214942Y-109164761D01*
X107119704Y-109212380D01*
X106833990Y-109212380D01*
X106738752Y-109164761D01*
X106691133Y-109117142D01*
X106643514Y-109021904D01*
X106643514Y-108879047D01*
X106691133Y-108783809D01*
X106738752Y-108736190D01*
X106833990Y-108688571D01*
X107119704Y-108688571D01*
X107214942Y-108736190D01*
X107262561Y-108783809D01*
X107310180Y-108879047D01*
X107310180Y-109021904D01*
X119329295Y-140269980D02*
X119329295Y-141079504D01*
X119376914Y-141174742D01*
X119424533Y-141222361D01*
X119519771Y-141269980D01*
X119710247Y-141269980D01*
X119805485Y-141222361D01*
X119853104Y-141174742D01*
X119900723Y-141079504D01*
X119900723Y-140269980D01*
X120900723Y-141269980D02*
X120329295Y-141269980D01*
X120615009Y-141269980D02*
X120615009Y-140269980D01*
X120519771Y-140412838D01*
X120424533Y-140508076D01*
X120329295Y-140555695D01*
X118324380Y-136686704D02*
X118324380Y-136877180D01*
X118372000Y-136972419D01*
X118419619Y-137020038D01*
X118562476Y-137115276D01*
X118752952Y-137162895D01*
X119133904Y-137162895D01*
X119229142Y-137115276D01*
X119276761Y-137067657D01*
X119324380Y-136972419D01*
X119324380Y-136781942D01*
X119276761Y-136686704D01*
X119229142Y-136639085D01*
X119133904Y-136591466D01*
X118895809Y-136591466D01*
X118800571Y-136639085D01*
X118752952Y-136686704D01*
X118705333Y-136781942D01*
X118705333Y-136972419D01*
X118752952Y-137067657D01*
X118800571Y-137115276D01*
X118895809Y-137162895D01*
X119324380Y-136162895D02*
X118324380Y-136162895D01*
X119324380Y-135591466D01*
X118324380Y-135591466D01*
X119324380Y-134591466D02*
X119324380Y-135162895D01*
X119324380Y-134877180D02*
X118324380Y-134877180D01*
X118467238Y-134972419D01*
X118562476Y-135067657D01*
X118610095Y-135162895D01*
X118324380Y-134258133D02*
X118324380Y-133639085D01*
X118705333Y-133972419D01*
X118705333Y-133829561D01*
X118752952Y-133734323D01*
X118800571Y-133686704D01*
X118895809Y-133639085D01*
X119133904Y-133639085D01*
X119229142Y-133686704D01*
X119276761Y-133734323D01*
X119324380Y-133829561D01*
X119324380Y-134115276D01*
X119276761Y-134210514D01*
X119229142Y-134258133D01*
X118324380Y-133305752D02*
X118324380Y-132639085D01*
X119324380Y-133067657D01*
X116076504Y-127477780D02*
X116076504Y-126477780D01*
X116314600Y-126477780D01*
X116457457Y-126525400D01*
X116552695Y-126620638D01*
X116600314Y-126715876D01*
X116647933Y-126906352D01*
X116647933Y-127049209D01*
X116600314Y-127239685D01*
X116552695Y-127334923D01*
X116457457Y-127430161D01*
X116314600Y-127477780D01*
X116076504Y-127477780D01*
X117600314Y-127477780D02*
X117028885Y-127477780D01*
X117314600Y-127477780D02*
X117314600Y-126477780D01*
X117219361Y-126620638D01*
X117124123Y-126715876D01*
X117028885Y-126763495D01*
X120951833Y-126408680D02*
X120380404Y-126408680D01*
X120666119Y-126408680D02*
X120666119Y-125408680D01*
X120570880Y-125551538D01*
X120475642Y-125646776D01*
X120380404Y-125694395D01*
X121380404Y-126408680D02*
X121380404Y-125408680D01*
X121951833Y-126408680D01*
X121951833Y-125408680D01*
X122475642Y-126408680D02*
X122666119Y-126408680D01*
X122761357Y-126361061D01*
X122808976Y-126313442D01*
X122904214Y-126170585D01*
X122951833Y-125980109D01*
X122951833Y-125599157D01*
X122904214Y-125503919D01*
X122856595Y-125456300D01*
X122761357Y-125408680D01*
X122570880Y-125408680D01*
X122475642Y-125456300D01*
X122428023Y-125503919D01*
X122380404Y-125599157D01*
X122380404Y-125837252D01*
X122428023Y-125932490D01*
X122475642Y-125980109D01*
X122570880Y-126027728D01*
X122761357Y-126027728D01*
X122856595Y-125980109D01*
X122904214Y-125932490D01*
X122951833Y-125837252D01*
X123904214Y-126408680D02*
X123332785Y-126408680D01*
X123618500Y-126408680D02*
X123618500Y-125408680D01*
X123523261Y-125551538D01*
X123428023Y-125646776D01*
X123332785Y-125694395D01*
X124761357Y-125742014D02*
X124761357Y-126408680D01*
X124523261Y-125361061D02*
X124285166Y-126075347D01*
X124904214Y-126075347D01*
X126166595Y-130078680D02*
X126166595Y-129078680D01*
X126738023Y-130078680D02*
X126309452Y-129507252D01*
X126738023Y-129078680D02*
X126166595Y-129650109D01*
X136840933Y-132125980D02*
X136507600Y-131649790D01*
X136269504Y-132125980D02*
X136269504Y-131125980D01*
X136650457Y-131125980D01*
X136745695Y-131173600D01*
X136793314Y-131221219D01*
X136840933Y-131316457D01*
X136840933Y-131459314D01*
X136793314Y-131554552D01*
X136745695Y-131602171D01*
X136650457Y-131649790D01*
X136269504Y-131649790D01*
X137793314Y-132125980D02*
X137221885Y-132125980D01*
X137507600Y-132125980D02*
X137507600Y-131125980D01*
X137412361Y-131268838D01*
X137317123Y-131364076D01*
X137221885Y-131411695D01*
X129825904Y-131170419D02*
X129873523Y-131122800D01*
X129968761Y-131075180D01*
X130206857Y-131075180D01*
X130302095Y-131122800D01*
X130349714Y-131170419D01*
X130397333Y-131265657D01*
X130397333Y-131360895D01*
X130349714Y-131503752D01*
X129778285Y-132075180D01*
X130397333Y-132075180D01*
X130778285Y-131170419D02*
X130825904Y-131122800D01*
X130921142Y-131075180D01*
X131159238Y-131075180D01*
X131254476Y-131122800D01*
X131302095Y-131170419D01*
X131349714Y-131265657D01*
X131349714Y-131360895D01*
X131302095Y-131503752D01*
X130730666Y-132075180D01*
X131349714Y-132075180D01*
X131968761Y-131075180D02*
X132064000Y-131075180D01*
X132159238Y-131122800D01*
X132206857Y-131170419D01*
X132254476Y-131265657D01*
X132302095Y-131456133D01*
X132302095Y-131694228D01*
X132254476Y-131884704D01*
X132206857Y-131979942D01*
X132159238Y-132027561D01*
X132064000Y-132075180D01*
X131968761Y-132075180D01*
X131873523Y-132027561D01*
X131825904Y-131979942D01*
X131778285Y-131884704D01*
X131730666Y-131694228D01*
X131730666Y-131456133D01*
X131778285Y-131265657D01*
X131825904Y-131170419D01*
X131873523Y-131122800D01*
X131968761Y-131075180D01*
X103592380Y-133480133D02*
X104306666Y-133480133D01*
X104449523Y-133527752D01*
X104544761Y-133622990D01*
X104592380Y-133765847D01*
X104592380Y-133861085D01*
X104592380Y-132480133D02*
X104592380Y-133051561D01*
X104592380Y-132765847D02*
X103592380Y-132765847D01*
X103735238Y-132861085D01*
X103830476Y-132956323D01*
X103878095Y-133051561D01*
X108148380Y-134456323D02*
X107148380Y-134456323D01*
X107862666Y-134122990D01*
X107148380Y-133789657D01*
X108148380Y-133789657D01*
X108148380Y-133313466D02*
X107148380Y-133313466D01*
X108148380Y-132837276D02*
X107148380Y-132837276D01*
X107148380Y-132599180D01*
X107196000Y-132456323D01*
X107291238Y-132361085D01*
X107386476Y-132313466D01*
X107576952Y-132265847D01*
X107719809Y-132265847D01*
X107910285Y-132313466D01*
X108005523Y-132361085D01*
X108100761Y-132456323D01*
X108148380Y-132599180D01*
X108148380Y-132837276D01*
X108148380Y-131837276D02*
X107148380Y-131837276D01*
X136815533Y-135351780D02*
X136482200Y-134875590D01*
X136244104Y-135351780D02*
X136244104Y-134351780D01*
X136625057Y-134351780D01*
X136720295Y-134399400D01*
X136767914Y-134447019D01*
X136815533Y-134542257D01*
X136815533Y-134685114D01*
X136767914Y-134780352D01*
X136720295Y-134827971D01*
X136625057Y-134875590D01*
X136244104Y-134875590D01*
X137148866Y-134351780D02*
X137767914Y-134351780D01*
X137434580Y-134732733D01*
X137577438Y-134732733D01*
X137672676Y-134780352D01*
X137720295Y-134827971D01*
X137767914Y-134923209D01*
X137767914Y-135161304D01*
X137720295Y-135256542D01*
X137672676Y-135304161D01*
X137577438Y-135351780D01*
X137291723Y-135351780D01*
X137196485Y-135304161D01*
X137148866Y-135256542D01*
X129825904Y-134472419D02*
X129873523Y-134424800D01*
X129968761Y-134377180D01*
X130206857Y-134377180D01*
X130302095Y-134424800D01*
X130349714Y-134472419D01*
X130397333Y-134567657D01*
X130397333Y-134662895D01*
X130349714Y-134805752D01*
X129778285Y-135377180D01*
X130397333Y-135377180D01*
X130778285Y-134472419D02*
X130825904Y-134424800D01*
X130921142Y-134377180D01*
X131159238Y-134377180D01*
X131254476Y-134424800D01*
X131302095Y-134472419D01*
X131349714Y-134567657D01*
X131349714Y-134662895D01*
X131302095Y-134805752D01*
X130730666Y-135377180D01*
X131349714Y-135377180D01*
X131968761Y-134377180D02*
X132064000Y-134377180D01*
X132159238Y-134424800D01*
X132206857Y-134472419D01*
X132254476Y-134567657D01*
X132302095Y-134758133D01*
X132302095Y-134996228D01*
X132254476Y-135186704D01*
X132206857Y-135281942D01*
X132159238Y-135329561D01*
X132064000Y-135377180D01*
X131968761Y-135377180D01*
X131873523Y-135329561D01*
X131825904Y-135281942D01*
X131778285Y-135186704D01*
X131730666Y-134996228D01*
X131730666Y-134758133D01*
X131778285Y-134567657D01*
X131825904Y-134472419D01*
X131873523Y-134424800D01*
X131968761Y-134377180D01*
X136815533Y-138577580D02*
X136482200Y-138101390D01*
X136244104Y-138577580D02*
X136244104Y-137577580D01*
X136625057Y-137577580D01*
X136720295Y-137625200D01*
X136767914Y-137672819D01*
X136815533Y-137768057D01*
X136815533Y-137910914D01*
X136767914Y-138006152D01*
X136720295Y-138053771D01*
X136625057Y-138101390D01*
X136244104Y-138101390D01*
X137196485Y-137672819D02*
X137244104Y-137625200D01*
X137339342Y-137577580D01*
X137577438Y-137577580D01*
X137672676Y-137625200D01*
X137720295Y-137672819D01*
X137767914Y-137768057D01*
X137767914Y-137863295D01*
X137720295Y-138006152D01*
X137148866Y-138577580D01*
X137767914Y-138577580D01*
X130135428Y-138012514D02*
X130135428Y-138679180D01*
X129897333Y-137631561D02*
X129659238Y-138345847D01*
X130278285Y-138345847D01*
X130659238Y-138583942D02*
X130706857Y-138631561D01*
X130659238Y-138679180D01*
X130611619Y-138631561D01*
X130659238Y-138583942D01*
X130659238Y-138679180D01*
X131040190Y-137679180D02*
X131706857Y-137679180D01*
X131278285Y-138679180D01*
X132087809Y-138679180D02*
X132087809Y-137679180D01*
X132183047Y-138298228D02*
X132468761Y-138679180D01*
X132468761Y-138012514D02*
X132087809Y-138393466D01*
X136612380Y-89792133D02*
X137326666Y-89792133D01*
X137469523Y-89839752D01*
X137564761Y-89934990D01*
X137612380Y-90077847D01*
X137612380Y-90173085D01*
X136945714Y-88887371D02*
X137612380Y-88887371D01*
X136564761Y-89125466D02*
X137279047Y-89363561D01*
X137279047Y-88744514D01*
X136945714Y-97880038D02*
X137612380Y-97880038D01*
X137040952Y-97880038D02*
X136993333Y-97832419D01*
X136945714Y-97737180D01*
X136945714Y-97594323D01*
X136993333Y-97499085D01*
X137088571Y-97451466D01*
X137612380Y-97451466D01*
X137612380Y-96975276D02*
X136945714Y-96975276D01*
X137136190Y-96975276D02*
X137040952Y-96927657D01*
X136993333Y-96880038D01*
X136945714Y-96784800D01*
X136945714Y-96689561D01*
X136945714Y-96499085D02*
X136945714Y-96118133D01*
X137612380Y-96356228D02*
X136755238Y-96356228D01*
X136660000Y-96308609D01*
X136612380Y-96213371D01*
X136612380Y-96118133D01*
X136707619Y-95832419D02*
X136660000Y-95784800D01*
X136612380Y-95689561D01*
X136612380Y-95451466D01*
X136660000Y-95356228D01*
X136707619Y-95308609D01*
X136802857Y-95260990D01*
X136898095Y-95260990D01*
X137040952Y-95308609D01*
X137612380Y-95880038D01*
X137612380Y-95260990D01*
X136945714Y-94403847D02*
X137612380Y-94403847D01*
X136564761Y-94641942D02*
X137279047Y-94880038D01*
X137279047Y-94260990D01*
X137612380Y-93737180D02*
X137564761Y-93832419D01*
X137469523Y-93880038D01*
X136612380Y-93880038D01*
X136612380Y-93165752D02*
X136612380Y-93070514D01*
X136660000Y-92975276D01*
X136707619Y-92927657D01*
X136802857Y-92880038D01*
X136993333Y-92832419D01*
X137231428Y-92832419D01*
X137421904Y-92880038D01*
X137517142Y-92927657D01*
X137564761Y-92975276D01*
X137612380Y-93070514D01*
X137612380Y-93165752D01*
X137564761Y-93260990D01*
X137517142Y-93308609D01*
X137421904Y-93356228D01*
X137231428Y-93403847D01*
X136993333Y-93403847D01*
X136802857Y-93356228D01*
X136707619Y-93308609D01*
X136660000Y-93260990D01*
X136612380Y-93165752D01*
X137612380Y-91880038D02*
X137612380Y-92451466D01*
X137612380Y-92165752D02*
X136612380Y-92165752D01*
X136755238Y-92260990D01*
X136850476Y-92356228D01*
X136898095Y-92451466D01*
X137231428Y-91451466D02*
X137231428Y-90689561D01*
X137612380Y-91070514D02*
X136850476Y-91070514D01*
X105076666Y-98079180D02*
X105076666Y-98793466D01*
X105029047Y-98936323D01*
X104933809Y-99031561D01*
X104790952Y-99079180D01*
X104695714Y-99079180D01*
X105457619Y-98079180D02*
X106076666Y-98079180D01*
X105743333Y-98460133D01*
X105886190Y-98460133D01*
X105981428Y-98507752D01*
X106029047Y-98555371D01*
X106076666Y-98650609D01*
X106076666Y-98888704D01*
X106029047Y-98983942D01*
X105981428Y-99031561D01*
X105886190Y-99079180D01*
X105600476Y-99079180D01*
X105505238Y-99031561D01*
X105457619Y-98983942D01*
X108212000Y-102158704D02*
X108164380Y-102253942D01*
X108164380Y-102396800D01*
X108212000Y-102539657D01*
X108307238Y-102634895D01*
X108402476Y-102682514D01*
X108592952Y-102730133D01*
X108735809Y-102730133D01*
X108926285Y-102682514D01*
X109021523Y-102634895D01*
X109116761Y-102539657D01*
X109164380Y-102396800D01*
X109164380Y-102301561D01*
X109116761Y-102158704D01*
X109069142Y-102111085D01*
X108735809Y-102111085D01*
X108735809Y-102301561D01*
X109164380Y-101682514D02*
X108164380Y-101682514D01*
X109164380Y-101111085D01*
X108164380Y-101111085D01*
X109164380Y-100634895D02*
X108164380Y-100634895D01*
X108164380Y-100396800D01*
X108212000Y-100253942D01*
X108307238Y-100158704D01*
X108402476Y-100111085D01*
X108592952Y-100063466D01*
X108735809Y-100063466D01*
X108926285Y-100111085D01*
X109021523Y-100158704D01*
X109116761Y-100253942D01*
X109164380Y-100396800D01*
X109164380Y-100634895D01*
X101266666Y-98055180D02*
X101266666Y-98769466D01*
X101219047Y-98912323D01*
X101123809Y-99007561D01*
X100980952Y-99055180D01*
X100885714Y-99055180D01*
X101695238Y-98150419D02*
X101742857Y-98102800D01*
X101838095Y-98055180D01*
X102076190Y-98055180D01*
X102171428Y-98102800D01*
X102219047Y-98150419D01*
X102266666Y-98245657D01*
X102266666Y-98340895D01*
X102219047Y-98483752D01*
X101647619Y-99055180D01*
X102266666Y-99055180D01*
X99512380Y-102087276D02*
X99036190Y-102420609D01*
X99512380Y-102658704D02*
X98512380Y-102658704D01*
X98512380Y-102277752D01*
X98560000Y-102182514D01*
X98607619Y-102134895D01*
X98702857Y-102087276D01*
X98845714Y-102087276D01*
X98940952Y-102134895D01*
X98988571Y-102182514D01*
X99036190Y-102277752D01*
X99036190Y-102658704D01*
X99226666Y-101706323D02*
X99226666Y-101230133D01*
X99512380Y-101801561D02*
X98512380Y-101468228D01*
X99512380Y-101134895D01*
X98512380Y-100896800D02*
X99512380Y-100658704D01*
X98798095Y-100468228D01*
X99512380Y-100277752D01*
X98512380Y-100039657D01*
X129119333Y-102007942D02*
X129071714Y-102055561D01*
X128928857Y-102103180D01*
X128833619Y-102103180D01*
X128690761Y-102055561D01*
X128595523Y-101960323D01*
X128547904Y-101865085D01*
X128500285Y-101674609D01*
X128500285Y-101531752D01*
X128547904Y-101341276D01*
X128595523Y-101246038D01*
X128690761Y-101150800D01*
X128833619Y-101103180D01*
X128928857Y-101103180D01*
X129071714Y-101150800D01*
X129119333Y-101198419D01*
X130071714Y-102103180D02*
X129500285Y-102103180D01*
X129786000Y-102103180D02*
X129786000Y-101103180D01*
X129690761Y-101246038D01*
X129595523Y-101341276D01*
X129500285Y-101388895D01*
X136612380Y-102785657D02*
X136612380Y-102690419D01*
X136660000Y-102595180D01*
X136707619Y-102547561D01*
X136802857Y-102499942D01*
X136993333Y-102452323D01*
X137231428Y-102452323D01*
X137421904Y-102499942D01*
X137517142Y-102547561D01*
X137564761Y-102595180D01*
X137612380Y-102690419D01*
X137612380Y-102785657D01*
X137564761Y-102880895D01*
X137517142Y-102928514D01*
X137421904Y-102976133D01*
X137231428Y-103023752D01*
X136993333Y-103023752D01*
X136802857Y-102976133D01*
X136707619Y-102928514D01*
X136660000Y-102880895D01*
X136612380Y-102785657D01*
X137517142Y-102023752D02*
X137564761Y-101976133D01*
X137612380Y-102023752D01*
X137564761Y-102071371D01*
X137517142Y-102023752D01*
X137612380Y-102023752D01*
X137612380Y-101023752D02*
X137612380Y-101595180D01*
X137612380Y-101309466D02*
X136612380Y-101309466D01*
X136755238Y-101404704D01*
X136850476Y-101499942D01*
X136898095Y-101595180D01*
X136945714Y-100166609D02*
X137612380Y-100166609D01*
X136945714Y-100595180D02*
X137469523Y-100595180D01*
X137564761Y-100547561D01*
X137612380Y-100452323D01*
X137612380Y-100309466D01*
X137564761Y-100214228D01*
X137517142Y-100166609D01*
X137088571Y-99357085D02*
X137088571Y-99690419D01*
X137612380Y-99690419D02*
X136612380Y-99690419D01*
X136612380Y-99214228D01*
X147647066Y-98359980D02*
X147647066Y-99074266D01*
X147599447Y-99217123D01*
X147504209Y-99312361D01*
X147361352Y-99359980D01*
X147266114Y-99359980D01*
X148551828Y-98693314D02*
X148551828Y-99359980D01*
X148313733Y-98312361D02*
X148075638Y-99026647D01*
X148694685Y-99026647D01*
X150884000Y-102209504D02*
X150836380Y-102304742D01*
X150836380Y-102447600D01*
X150884000Y-102590457D01*
X150979238Y-102685695D01*
X151074476Y-102733314D01*
X151264952Y-102780933D01*
X151407809Y-102780933D01*
X151598285Y-102733314D01*
X151693523Y-102685695D01*
X151788761Y-102590457D01*
X151836380Y-102447600D01*
X151836380Y-102352361D01*
X151788761Y-102209504D01*
X151741142Y-102161885D01*
X151407809Y-102161885D01*
X151407809Y-102352361D01*
X151836380Y-101733314D02*
X150836380Y-101733314D01*
X151836380Y-101161885D01*
X150836380Y-101161885D01*
X151836380Y-100685695D02*
X150836380Y-100685695D01*
X150836380Y-100447600D01*
X150884000Y-100304742D01*
X150979238Y-100209504D01*
X151074476Y-100161885D01*
X151264952Y-100114266D01*
X151407809Y-100114266D01*
X151598285Y-100161885D01*
X151693523Y-100209504D01*
X151788761Y-100304742D01*
X151836380Y-100447600D01*
X151836380Y-100685695D01*
X144065666Y-98334580D02*
X144065666Y-99048866D01*
X144018047Y-99191723D01*
X143922809Y-99286961D01*
X143779952Y-99334580D01*
X143684714Y-99334580D01*
X144446619Y-98334580D02*
X145065666Y-98334580D01*
X144732333Y-98715533D01*
X144875190Y-98715533D01*
X144970428Y-98763152D01*
X145018047Y-98810771D01*
X145065666Y-98906009D01*
X145065666Y-99144104D01*
X145018047Y-99239342D01*
X144970428Y-99286961D01*
X144875190Y-99334580D01*
X144589476Y-99334580D01*
X144494238Y-99286961D01*
X144446619Y-99239342D01*
X142209780Y-101934876D02*
X141733590Y-102268209D01*
X142209780Y-102506304D02*
X141209780Y-102506304D01*
X141209780Y-102125352D01*
X141257400Y-102030114D01*
X141305019Y-101982495D01*
X141400257Y-101934876D01*
X141543114Y-101934876D01*
X141638352Y-101982495D01*
X141685971Y-102030114D01*
X141733590Y-102125352D01*
X141733590Y-102506304D01*
X141924066Y-101553923D02*
X141924066Y-101077733D01*
X142209780Y-101649161D02*
X141209780Y-101315828D01*
X142209780Y-100982495D01*
X141209780Y-100744400D02*
X142209780Y-100506304D01*
X141495495Y-100315828D01*
X142209780Y-100125352D01*
X141209780Y-99887257D01*
X179538380Y-114122104D02*
X180347904Y-114122104D01*
X180443142Y-114074485D01*
X180490761Y-114026866D01*
X180538380Y-113931628D01*
X180538380Y-113741152D01*
X180490761Y-113645914D01*
X180443142Y-113598295D01*
X180347904Y-113550676D01*
X179538380Y-113550676D01*
X179633619Y-113122104D02*
X179586000Y-113074485D01*
X179538380Y-112979247D01*
X179538380Y-112741152D01*
X179586000Y-112645914D01*
X179633619Y-112598295D01*
X179728857Y-112550676D01*
X179824095Y-112550676D01*
X179966952Y-112598295D01*
X180538380Y-113169723D01*
X180538380Y-112550676D01*
X179820914Y-111753447D02*
X180487580Y-111515352D01*
X179820914Y-111277257D01*
X180487580Y-110324876D02*
X180011390Y-110658209D01*
X180487580Y-110896304D02*
X179487580Y-110896304D01*
X179487580Y-110515352D01*
X179535200Y-110420114D01*
X179582819Y-110372495D01*
X179678057Y-110324876D01*
X179820914Y-110324876D01*
X179916152Y-110372495D01*
X179963771Y-110420114D01*
X180011390Y-110515352D01*
X180011390Y-110896304D01*
X180439961Y-109515352D02*
X180487580Y-109610590D01*
X180487580Y-109801066D01*
X180439961Y-109896304D01*
X180344723Y-109943923D01*
X179963771Y-109943923D01*
X179868533Y-109896304D01*
X179820914Y-109801066D01*
X179820914Y-109610590D01*
X179868533Y-109515352D01*
X179963771Y-109467733D01*
X180059009Y-109467733D01*
X180154247Y-109943923D01*
X179820914Y-108610590D02*
X180630438Y-108610590D01*
X180725676Y-108658209D01*
X180773295Y-108705828D01*
X180820914Y-108801066D01*
X180820914Y-108943923D01*
X180773295Y-109039161D01*
X180439961Y-108610590D02*
X180487580Y-108705828D01*
X180487580Y-108896304D01*
X180439961Y-108991542D01*
X180392342Y-109039161D01*
X180297104Y-109086780D01*
X180011390Y-109086780D01*
X179916152Y-109039161D01*
X179868533Y-108991542D01*
X179820914Y-108896304D01*
X179820914Y-108705828D01*
X179868533Y-108610590D01*
X147331180Y-133632533D02*
X148045466Y-133632533D01*
X148188323Y-133680152D01*
X148283561Y-133775390D01*
X148331180Y-133918247D01*
X148331180Y-134013485D01*
X148331180Y-132632533D02*
X148331180Y-133203961D01*
X148331180Y-132918247D02*
X147331180Y-132918247D01*
X147474038Y-133013485D01*
X147569276Y-133108723D01*
X147616895Y-133203961D01*
X150998180Y-134583323D02*
X149998180Y-134583323D01*
X150712466Y-134249990D01*
X149998180Y-133916657D01*
X150998180Y-133916657D01*
X150998180Y-133440466D02*
X149998180Y-133440466D01*
X150998180Y-132964276D02*
X149998180Y-132964276D01*
X149998180Y-132726180D01*
X150045800Y-132583323D01*
X150141038Y-132488085D01*
X150236276Y-132440466D01*
X150426752Y-132392847D01*
X150569609Y-132392847D01*
X150760085Y-132440466D01*
X150855323Y-132488085D01*
X150950561Y-132583323D01*
X150998180Y-132726180D01*
X150998180Y-132964276D01*
X150998180Y-131964276D02*
X149998180Y-131964276D01*
X174252095Y-144884780D02*
X174252095Y-143884780D01*
X174252095Y-144360971D02*
X174823523Y-144360971D01*
X174823523Y-144884780D02*
X174823523Y-143884780D01*
X175728285Y-144218114D02*
X175728285Y-144884780D01*
X175490190Y-143837161D02*
X175252095Y-144551447D01*
X175871142Y-144551447D01*
X174091695Y-87523580D02*
X174091695Y-86523580D01*
X174091695Y-86999771D02*
X174663123Y-86999771D01*
X174663123Y-87523580D02*
X174663123Y-86523580D01*
X175091695Y-86618819D02*
X175139314Y-86571200D01*
X175234552Y-86523580D01*
X175472647Y-86523580D01*
X175567885Y-86571200D01*
X175615504Y-86618819D01*
X175663123Y-86714057D01*
X175663123Y-86809295D01*
X175615504Y-86952152D01*
X175044076Y-87523580D01*
X175663123Y-87523580D01*
X145788095Y-144808580D02*
X145788095Y-143808580D01*
X145788095Y-144284771D02*
X146359523Y-144284771D01*
X146359523Y-144808580D02*
X146359523Y-143808580D01*
X146740476Y-143808580D02*
X147359523Y-143808580D01*
X147026190Y-144189533D01*
X147169047Y-144189533D01*
X147264285Y-144237152D01*
X147311904Y-144284771D01*
X147359523Y-144380009D01*
X147359523Y-144618104D01*
X147311904Y-144713342D01*
X147264285Y-144760961D01*
X147169047Y-144808580D01*
X146883333Y-144808580D01*
X146788095Y-144760961D01*
X146740476Y-144713342D01*
X145584895Y-87769580D02*
X145584895Y-86769580D01*
X145584895Y-87245771D02*
X146156323Y-87245771D01*
X146156323Y-87769580D02*
X146156323Y-86769580D01*
X147156323Y-87769580D02*
X146584895Y-87769580D01*
X146870609Y-87769580D02*
X146870609Y-86769580D01*
X146775371Y-86912438D01*
X146680133Y-87007676D01*
X146584895Y-87055295D01*
X165339733Y-136055180D02*
X165006400Y-135578990D01*
X164768304Y-136055180D02*
X164768304Y-135055180D01*
X165149257Y-135055180D01*
X165244495Y-135102800D01*
X165292114Y-135150419D01*
X165339733Y-135245657D01*
X165339733Y-135388514D01*
X165292114Y-135483752D01*
X165244495Y-135531371D01*
X165149257Y-135578990D01*
X164768304Y-135578990D01*
X165720685Y-135150419D02*
X165768304Y-135102800D01*
X165863542Y-135055180D01*
X166101638Y-135055180D01*
X166196876Y-135102800D01*
X166244495Y-135150419D01*
X166292114Y-135245657D01*
X166292114Y-135340895D01*
X166244495Y-135483752D01*
X165673066Y-136055180D01*
X166292114Y-136055180D01*
X164242904Y-137495019D02*
X164290523Y-137447400D01*
X164385761Y-137399780D01*
X164623857Y-137399780D01*
X164719095Y-137447400D01*
X164766714Y-137495019D01*
X164814333Y-137590257D01*
X164814333Y-137685495D01*
X164766714Y-137828352D01*
X164195285Y-138399780D01*
X164814333Y-138399780D01*
X165195285Y-137495019D02*
X165242904Y-137447400D01*
X165338142Y-137399780D01*
X165576238Y-137399780D01*
X165671476Y-137447400D01*
X165719095Y-137495019D01*
X165766714Y-137590257D01*
X165766714Y-137685495D01*
X165719095Y-137828352D01*
X165147666Y-138399780D01*
X165766714Y-138399780D01*
X166385761Y-137399780D02*
X166481000Y-137399780D01*
X166576238Y-137447400D01*
X166623857Y-137495019D01*
X166671476Y-137590257D01*
X166719095Y-137780733D01*
X166719095Y-138018828D01*
X166671476Y-138209304D01*
X166623857Y-138304542D01*
X166576238Y-138352161D01*
X166481000Y-138399780D01*
X166385761Y-138399780D01*
X166290523Y-138352161D01*
X166242904Y-138304542D01*
X166195285Y-138209304D01*
X166147666Y-138018828D01*
X166147666Y-137780733D01*
X166195285Y-137590257D01*
X166242904Y-137495019D01*
X166290523Y-137447400D01*
X166385761Y-137399780D01*
X165314333Y-125996780D02*
X164981000Y-125520590D01*
X164742904Y-125996780D02*
X164742904Y-124996780D01*
X165123857Y-124996780D01*
X165219095Y-125044400D01*
X165266714Y-125092019D01*
X165314333Y-125187257D01*
X165314333Y-125330114D01*
X165266714Y-125425352D01*
X165219095Y-125472971D01*
X165123857Y-125520590D01*
X164742904Y-125520590D01*
X166266714Y-125996780D02*
X165695285Y-125996780D01*
X165981000Y-125996780D02*
X165981000Y-124996780D01*
X165885761Y-125139638D01*
X165790523Y-125234876D01*
X165695285Y-125282495D01*
X164268304Y-127512819D02*
X164315923Y-127465200D01*
X164411161Y-127417580D01*
X164649257Y-127417580D01*
X164744495Y-127465200D01*
X164792114Y-127512819D01*
X164839733Y-127608057D01*
X164839733Y-127703295D01*
X164792114Y-127846152D01*
X164220685Y-128417580D01*
X164839733Y-128417580D01*
X165220685Y-127512819D02*
X165268304Y-127465200D01*
X165363542Y-127417580D01*
X165601638Y-127417580D01*
X165696876Y-127465200D01*
X165744495Y-127512819D01*
X165792114Y-127608057D01*
X165792114Y-127703295D01*
X165744495Y-127846152D01*
X165173066Y-128417580D01*
X165792114Y-128417580D01*
X166411161Y-127417580D02*
X166506400Y-127417580D01*
X166601638Y-127465200D01*
X166649257Y-127512819D01*
X166696876Y-127608057D01*
X166744495Y-127798533D01*
X166744495Y-128036628D01*
X166696876Y-128227104D01*
X166649257Y-128322342D01*
X166601638Y-128369961D01*
X166506400Y-128417580D01*
X166411161Y-128417580D01*
X166315923Y-128369961D01*
X166268304Y-128322342D01*
X166220685Y-128227104D01*
X166173066Y-128036628D01*
X166173066Y-127798533D01*
X166220685Y-127608057D01*
X166268304Y-127512819D01*
X166315923Y-127465200D01*
X166411161Y-127417580D01*
X178801780Y-90554133D02*
X179516066Y-90554133D01*
X179658923Y-90601752D01*
X179754161Y-90696990D01*
X179801780Y-90839847D01*
X179801780Y-90935085D01*
X178897019Y-90125561D02*
X178849400Y-90077942D01*
X178801780Y-89982704D01*
X178801780Y-89744609D01*
X178849400Y-89649371D01*
X178897019Y-89601752D01*
X178992257Y-89554133D01*
X179087495Y-89554133D01*
X179230352Y-89601752D01*
X179801780Y-90173180D01*
X179801780Y-89554133D01*
X179135114Y-98530990D02*
X179801780Y-98530990D01*
X179230352Y-98530990D02*
X179182733Y-98483371D01*
X179135114Y-98388133D01*
X179135114Y-98245276D01*
X179182733Y-98150038D01*
X179277971Y-98102419D01*
X179801780Y-98102419D01*
X179801780Y-97626228D02*
X179135114Y-97626228D01*
X179325590Y-97626228D02*
X179230352Y-97578609D01*
X179182733Y-97530990D01*
X179135114Y-97435752D01*
X179135114Y-97340514D01*
X179135114Y-97150038D02*
X179135114Y-96769085D01*
X179801780Y-97007180D02*
X178944638Y-97007180D01*
X178849400Y-96959561D01*
X178801780Y-96864323D01*
X178801780Y-96769085D01*
X178897019Y-96483371D02*
X178849400Y-96435752D01*
X178801780Y-96340514D01*
X178801780Y-96102419D01*
X178849400Y-96007180D01*
X178897019Y-95959561D01*
X178992257Y-95911942D01*
X179087495Y-95911942D01*
X179230352Y-95959561D01*
X179801780Y-96530990D01*
X179801780Y-95911942D01*
X179135114Y-95054800D02*
X179801780Y-95054800D01*
X178754161Y-95292895D02*
X179468447Y-95530990D01*
X179468447Y-94911942D01*
X179801780Y-94388133D02*
X179754161Y-94483371D01*
X179658923Y-94530990D01*
X178801780Y-94530990D01*
X178801780Y-93816704D02*
X178801780Y-93721466D01*
X178849400Y-93626228D01*
X178897019Y-93578609D01*
X178992257Y-93530990D01*
X179182733Y-93483371D01*
X179420828Y-93483371D01*
X179611304Y-93530990D01*
X179706542Y-93578609D01*
X179754161Y-93626228D01*
X179801780Y-93721466D01*
X179801780Y-93816704D01*
X179754161Y-93911942D01*
X179706542Y-93959561D01*
X179611304Y-94007180D01*
X179420828Y-94054800D01*
X179182733Y-94054800D01*
X178992257Y-94007180D01*
X178897019Y-93959561D01*
X178849400Y-93911942D01*
X178801780Y-93816704D01*
X179801780Y-92530990D02*
X179801780Y-93102419D01*
X179801780Y-92816704D02*
X178801780Y-92816704D01*
X178944638Y-92911942D01*
X179039876Y-93007180D01*
X179087495Y-93102419D01*
X158316990Y-123159780D02*
X158316990Y-122159780D01*
X158697942Y-122159780D01*
X158793180Y-122207400D01*
X158840800Y-122255019D01*
X158888419Y-122350257D01*
X158888419Y-122493114D01*
X158840800Y-122588352D01*
X158793180Y-122635971D01*
X158697942Y-122683590D01*
X158316990Y-122683590D01*
X159316990Y-123159780D02*
X159316990Y-122493114D01*
X159316990Y-122683590D02*
X159364609Y-122588352D01*
X159412228Y-122540733D01*
X159507466Y-122493114D01*
X159602704Y-122493114D01*
X160078895Y-123159780D02*
X159983657Y-123112161D01*
X159936038Y-123064542D01*
X159888419Y-122969304D01*
X159888419Y-122683590D01*
X159936038Y-122588352D01*
X159983657Y-122540733D01*
X160078895Y-122493114D01*
X160221752Y-122493114D01*
X160316990Y-122540733D01*
X160364609Y-122588352D01*
X160412228Y-122683590D01*
X160412228Y-122969304D01*
X160364609Y-123064542D01*
X160316990Y-123112161D01*
X160221752Y-123159780D01*
X160078895Y-123159780D01*
X160840800Y-123159780D02*
X160840800Y-122159780D01*
X161174133Y-122874066D01*
X161507466Y-122159780D01*
X161507466Y-123159780D01*
X161983657Y-123159780D02*
X161983657Y-122493114D01*
X161983657Y-122159780D02*
X161936038Y-122207400D01*
X161983657Y-122255019D01*
X162031276Y-122207400D01*
X161983657Y-122159780D01*
X161983657Y-122255019D01*
X162888419Y-123112161D02*
X162793180Y-123159780D01*
X162602704Y-123159780D01*
X162507466Y-123112161D01*
X162459847Y-123064542D01*
X162412228Y-122969304D01*
X162412228Y-122683590D01*
X162459847Y-122588352D01*
X162507466Y-122540733D01*
X162602704Y-122493114D01*
X162793180Y-122493114D01*
X162888419Y-122540733D01*
X163316990Y-123159780D02*
X163316990Y-122493114D01*
X163316990Y-122683590D02*
X163364609Y-122588352D01*
X163412228Y-122540733D01*
X163507466Y-122493114D01*
X163602704Y-122493114D01*
X164078895Y-123159780D02*
X163983657Y-123112161D01*
X163936038Y-123064542D01*
X163888419Y-122969304D01*
X163888419Y-122683590D01*
X163936038Y-122588352D01*
X163983657Y-122540733D01*
X164078895Y-122493114D01*
X164221752Y-122493114D01*
X164316990Y-122540733D01*
X164364609Y-122588352D01*
X164412228Y-122683590D01*
X164412228Y-122969304D01*
X164364609Y-123064542D01*
X164316990Y-123112161D01*
X164221752Y-123159780D01*
X164078895Y-123159780D01*
X174077333Y-107748342D02*
X174029714Y-107795961D01*
X173886857Y-107843580D01*
X173791619Y-107843580D01*
X173648761Y-107795961D01*
X173553523Y-107700723D01*
X173505904Y-107605485D01*
X173458285Y-107415009D01*
X173458285Y-107272152D01*
X173505904Y-107081676D01*
X173553523Y-106986438D01*
X173648761Y-106891200D01*
X173791619Y-106843580D01*
X173886857Y-106843580D01*
X174029714Y-106891200D01*
X174077333Y-106938819D01*
X174458285Y-106938819D02*
X174505904Y-106891200D01*
X174601142Y-106843580D01*
X174839238Y-106843580D01*
X174934476Y-106891200D01*
X174982095Y-106938819D01*
X175029714Y-107034057D01*
X175029714Y-107129295D01*
X174982095Y-107272152D01*
X174410666Y-107843580D01*
X175029714Y-107843580D01*
X180589180Y-107243428D02*
X180589180Y-107814857D01*
X180589180Y-107529142D02*
X179589180Y-107529142D01*
X179732038Y-107624380D01*
X179827276Y-107719619D01*
X179874895Y-107814857D01*
X179589180Y-106624380D02*
X179589180Y-106529142D01*
X179636800Y-106433904D01*
X179684419Y-106386285D01*
X179779657Y-106338666D01*
X179970133Y-106291047D01*
X180208228Y-106291047D01*
X180398704Y-106338666D01*
X180493942Y-106386285D01*
X180541561Y-106433904D01*
X180589180Y-106529142D01*
X180589180Y-106624380D01*
X180541561Y-106719619D01*
X180493942Y-106767238D01*
X180398704Y-106814857D01*
X180208228Y-106862476D01*
X179970133Y-106862476D01*
X179779657Y-106814857D01*
X179684419Y-106767238D01*
X179636800Y-106719619D01*
X179589180Y-106624380D01*
X179922514Y-105433904D02*
X180589180Y-105433904D01*
X179922514Y-105862476D02*
X180446323Y-105862476D01*
X180541561Y-105814857D01*
X180589180Y-105719619D01*
X180589180Y-105576761D01*
X180541561Y-105481523D01*
X180493942Y-105433904D01*
X180065371Y-104624380D02*
X180065371Y-104957714D01*
X180589180Y-104957714D02*
X179589180Y-104957714D01*
X179589180Y-104481523D01*
X171029333Y-102084142D02*
X170981714Y-102131761D01*
X170838857Y-102179380D01*
X170743619Y-102179380D01*
X170600761Y-102131761D01*
X170505523Y-102036523D01*
X170457904Y-101941285D01*
X170410285Y-101750809D01*
X170410285Y-101607952D01*
X170457904Y-101417476D01*
X170505523Y-101322238D01*
X170600761Y-101227000D01*
X170743619Y-101179380D01*
X170838857Y-101179380D01*
X170981714Y-101227000D01*
X171029333Y-101274619D01*
X171981714Y-102179380D02*
X171410285Y-102179380D01*
X171696000Y-102179380D02*
X171696000Y-101179380D01*
X171600761Y-101322238D01*
X171505523Y-101417476D01*
X171410285Y-101465095D01*
X178573180Y-103293657D02*
X178573180Y-103198419D01*
X178620800Y-103103180D01*
X178668419Y-103055561D01*
X178763657Y-103007942D01*
X178954133Y-102960323D01*
X179192228Y-102960323D01*
X179382704Y-103007942D01*
X179477942Y-103055561D01*
X179525561Y-103103180D01*
X179573180Y-103198419D01*
X179573180Y-103293657D01*
X179525561Y-103388895D01*
X179477942Y-103436514D01*
X179382704Y-103484133D01*
X179192228Y-103531752D01*
X178954133Y-103531752D01*
X178763657Y-103484133D01*
X178668419Y-103436514D01*
X178620800Y-103388895D01*
X178573180Y-103293657D01*
X179477942Y-102531752D02*
X179525561Y-102484133D01*
X179573180Y-102531752D01*
X179525561Y-102579371D01*
X179477942Y-102531752D01*
X179573180Y-102531752D01*
X179573180Y-101531752D02*
X179573180Y-102103180D01*
X179573180Y-101817466D02*
X178573180Y-101817466D01*
X178716038Y-101912704D01*
X178811276Y-102007942D01*
X178858895Y-102103180D01*
X178906514Y-100674609D02*
X179573180Y-100674609D01*
X178906514Y-101103180D02*
X179430323Y-101103180D01*
X179525561Y-101055561D01*
X179573180Y-100960323D01*
X179573180Y-100817466D01*
X179525561Y-100722228D01*
X179477942Y-100674609D01*
X179049371Y-99865085D02*
X179049371Y-100198419D01*
X179573180Y-100198419D02*
X178573180Y-100198419D01*
X178573180Y-99722228D01*
M02*
