M48
; DRILL file {KiCad (5.1.4-0-10_14)} date Thursday, April 09, 2020 at 04:23:11 PM
; FORMAT={-:-/ absolute / inch / decimal}
; #@! TF.CreationDate,2020-04-09T16:23:11-05:00
; #@! TF.GenerationSoftware,Kicad,Pcbnew,(5.1.4-0-10_14)
; #@! TF.FileFunction,NonPlated,1,2,NPTH
FMAT,2
INCH
T1C0.0197
T2C0.0787
T3C0.0945
%
G90
G05
T1
X5.4605Y-4.9855
X5.4605Y-5.015
X5.4605Y-5.0445
X5.5195Y-4.9855
X5.5195Y-5.015
X5.5195Y-5.0445
X5.4605Y-4.4945
X5.4605Y-4.524
X5.4605Y-4.5535
X5.5195Y-4.4945
X5.5195Y-4.524
X5.5195Y-4.5535
X5.4605Y-4.0035
X5.4605Y-4.033
X5.4605Y-4.0625
X5.5195Y-4.0035
X5.5195Y-4.033
X5.5195Y-4.0625
X5.4605Y-5.4765
X5.4605Y-5.506
X5.4605Y-5.5355
X5.5195Y-5.4765
X5.5195Y-5.506
X5.5195Y-5.5355
X5.4605Y-3.5125
X5.4605Y-3.542
X5.4605Y-3.5715
X5.5195Y-3.5125
X5.5195Y-3.542
X5.5195Y-3.5715
T2
X7.0223Y-3.3707
X3.9597Y-5.6333
X5.6397Y-3.3707
X5.3413Y-3.3707
X5.3413Y-5.6333
X7.0223Y-5.6333
X3.9597Y-3.3707
X5.6397Y-5.6333
T3
X5.8355Y-4.9403
X5.8355Y-5.5308
X4.1555Y-4.9403
X4.1555Y-5.5308
T0
M30
