G04 #@! TF.GenerationSoftware,KiCad,Pcbnew,(5.1.4-0-10_14)*
G04 #@! TF.CreationDate,2020-04-09T16:23:12-05:00*
G04 #@! TF.ProjectId,WIRELESS_MIDI_PANELIZED,57495245-4c45-4535-935f-4d4944495f50,rev?*
G04 #@! TF.SameCoordinates,Original*
G04 #@! TF.FileFunction,Soldermask,Top*
G04 #@! TF.FilePolarity,Negative*
%FSLAX46Y46*%
G04 Gerber Fmt 4.6, Leading zero omitted, Abs format (unit mm)*
G04 Created by KiCad (PCBNEW (5.1.4-0-10_14)) date 2020-04-09 16:23:12*
%MOMM*%
%LPD*%
G04 APERTURE LIST*
%ADD10C,0.100000*%
G04 APERTURE END LIST*
D10*
G36*
X178673364Y-142075589D02*
G01*
X178864633Y-142154815D01*
X178864635Y-142154816D01*
X179036773Y-142269835D01*
X179183165Y-142416227D01*
X179298185Y-142588367D01*
X179377411Y-142779636D01*
X179417800Y-142982684D01*
X179417800Y-143189716D01*
X179377411Y-143392764D01*
X179298185Y-143584033D01*
X179298184Y-143584035D01*
X179183165Y-143756173D01*
X179036773Y-143902565D01*
X178864635Y-144017584D01*
X178864634Y-144017585D01*
X178864633Y-144017585D01*
X178673364Y-144096811D01*
X178470316Y-144137200D01*
X178263284Y-144137200D01*
X178060236Y-144096811D01*
X177868967Y-144017585D01*
X177868966Y-144017585D01*
X177868965Y-144017584D01*
X177696827Y-143902565D01*
X177550435Y-143756173D01*
X177435416Y-143584035D01*
X177435415Y-143584033D01*
X177356189Y-143392764D01*
X177315800Y-143189716D01*
X177315800Y-142982684D01*
X177356189Y-142779636D01*
X177435415Y-142588367D01*
X177550435Y-142416227D01*
X177696827Y-142269835D01*
X177868965Y-142154816D01*
X177868967Y-142154815D01*
X178060236Y-142075589D01*
X178263284Y-142035200D01*
X178470316Y-142035200D01*
X178673364Y-142075589D01*
X178673364Y-142075589D01*
G37*
G36*
X143554564Y-142075589D02*
G01*
X143745833Y-142154815D01*
X143745835Y-142154816D01*
X143917973Y-142269835D01*
X144064365Y-142416227D01*
X144179385Y-142588367D01*
X144258611Y-142779636D01*
X144299000Y-142982684D01*
X144299000Y-143189716D01*
X144258611Y-143392764D01*
X144179385Y-143584033D01*
X144179384Y-143584035D01*
X144064365Y-143756173D01*
X143917973Y-143902565D01*
X143745835Y-144017584D01*
X143745834Y-144017585D01*
X143745833Y-144017585D01*
X143554564Y-144096811D01*
X143351516Y-144137200D01*
X143144484Y-144137200D01*
X142941436Y-144096811D01*
X142750167Y-144017585D01*
X142750166Y-144017585D01*
X142750165Y-144017584D01*
X142578027Y-143902565D01*
X142431635Y-143756173D01*
X142316616Y-143584035D01*
X142316615Y-143584033D01*
X142237389Y-143392764D01*
X142197000Y-143189716D01*
X142197000Y-142982684D01*
X142237389Y-142779636D01*
X142316615Y-142588367D01*
X142431635Y-142416227D01*
X142578027Y-142269835D01*
X142750165Y-142154816D01*
X142750167Y-142154815D01*
X142941436Y-142075589D01*
X143144484Y-142035200D01*
X143351516Y-142035200D01*
X143554564Y-142075589D01*
X143554564Y-142075589D01*
G37*
G36*
X135975964Y-142075589D02*
G01*
X136167233Y-142154815D01*
X136167235Y-142154816D01*
X136339373Y-142269835D01*
X136485765Y-142416227D01*
X136600785Y-142588367D01*
X136680011Y-142779636D01*
X136720400Y-142982684D01*
X136720400Y-143189716D01*
X136680011Y-143392764D01*
X136600785Y-143584033D01*
X136600784Y-143584035D01*
X136485765Y-143756173D01*
X136339373Y-143902565D01*
X136167235Y-144017584D01*
X136167234Y-144017585D01*
X136167233Y-144017585D01*
X135975964Y-144096811D01*
X135772916Y-144137200D01*
X135565884Y-144137200D01*
X135362836Y-144096811D01*
X135171567Y-144017585D01*
X135171566Y-144017585D01*
X135171565Y-144017584D01*
X134999427Y-143902565D01*
X134853035Y-143756173D01*
X134738016Y-143584035D01*
X134738015Y-143584033D01*
X134658789Y-143392764D01*
X134618400Y-143189716D01*
X134618400Y-142982684D01*
X134658789Y-142779636D01*
X134738015Y-142588367D01*
X134853035Y-142416227D01*
X134999427Y-142269835D01*
X135171565Y-142154816D01*
X135171567Y-142154815D01*
X135362836Y-142075589D01*
X135565884Y-142035200D01*
X135772916Y-142035200D01*
X135975964Y-142075589D01*
X135975964Y-142075589D01*
G37*
G36*
X100882564Y-142075589D02*
G01*
X101073833Y-142154815D01*
X101073835Y-142154816D01*
X101245973Y-142269835D01*
X101392365Y-142416227D01*
X101507385Y-142588367D01*
X101586611Y-142779636D01*
X101627000Y-142982684D01*
X101627000Y-143189716D01*
X101586611Y-143392764D01*
X101507385Y-143584033D01*
X101507384Y-143584035D01*
X101392365Y-143756173D01*
X101245973Y-143902565D01*
X101073835Y-144017584D01*
X101073834Y-144017585D01*
X101073833Y-144017585D01*
X100882564Y-144096811D01*
X100679516Y-144137200D01*
X100472484Y-144137200D01*
X100269436Y-144096811D01*
X100078167Y-144017585D01*
X100078166Y-144017585D01*
X100078165Y-144017584D01*
X99906027Y-143902565D01*
X99759635Y-143756173D01*
X99644616Y-143584035D01*
X99644615Y-143584033D01*
X99565389Y-143392764D01*
X99525000Y-143189716D01*
X99525000Y-142982684D01*
X99565389Y-142779636D01*
X99644615Y-142588367D01*
X99759635Y-142416227D01*
X99906027Y-142269835D01*
X100078165Y-142154816D01*
X100078167Y-142154815D01*
X100269436Y-142075589D01*
X100472484Y-142035200D01*
X100679516Y-142035200D01*
X100882564Y-142075589D01*
X100882564Y-142075589D01*
G37*
G36*
X148586903Y-139279875D02*
G01*
X148812855Y-139373467D01*
X148814571Y-139374178D01*
X149019466Y-139511085D01*
X149193715Y-139685334D01*
X149289552Y-139828764D01*
X149330623Y-139890231D01*
X149424925Y-140117897D01*
X149473000Y-140359586D01*
X149473000Y-140606014D01*
X149435552Y-140794276D01*
X149424925Y-140847703D01*
X149330622Y-141075371D01*
X149193715Y-141280266D01*
X149019466Y-141454515D01*
X148814571Y-141591422D01*
X148814570Y-141591423D01*
X148814569Y-141591423D01*
X148586903Y-141685725D01*
X148345214Y-141733800D01*
X148098786Y-141733800D01*
X147857097Y-141685725D01*
X147629431Y-141591423D01*
X147629430Y-141591423D01*
X147629429Y-141591422D01*
X147424534Y-141454515D01*
X147250285Y-141280266D01*
X147113378Y-141075371D01*
X147019075Y-140847703D01*
X147008448Y-140794276D01*
X146971000Y-140606014D01*
X146971000Y-140359586D01*
X147019075Y-140117897D01*
X147113377Y-139890231D01*
X147154448Y-139828764D01*
X147250285Y-139685334D01*
X147424534Y-139511085D01*
X147629429Y-139374178D01*
X147631146Y-139373467D01*
X147857097Y-139279875D01*
X148098786Y-139231800D01*
X148345214Y-139231800D01*
X148586903Y-139279875D01*
X148586903Y-139279875D01*
G37*
G36*
X105914903Y-139279875D02*
G01*
X106140855Y-139373467D01*
X106142571Y-139374178D01*
X106347466Y-139511085D01*
X106521715Y-139685334D01*
X106617552Y-139828764D01*
X106658623Y-139890231D01*
X106752925Y-140117897D01*
X106801000Y-140359586D01*
X106801000Y-140606014D01*
X106763552Y-140794276D01*
X106752925Y-140847703D01*
X106658622Y-141075371D01*
X106521715Y-141280266D01*
X106347466Y-141454515D01*
X106142571Y-141591422D01*
X106142570Y-141591423D01*
X106142569Y-141591423D01*
X105914903Y-141685725D01*
X105673214Y-141733800D01*
X105426786Y-141733800D01*
X105185097Y-141685725D01*
X104957431Y-141591423D01*
X104957430Y-141591423D01*
X104957429Y-141591422D01*
X104752534Y-141454515D01*
X104578285Y-141280266D01*
X104441378Y-141075371D01*
X104347075Y-140847703D01*
X104336448Y-140794276D01*
X104299000Y-140606014D01*
X104299000Y-140359586D01*
X104347075Y-140117897D01*
X104441377Y-139890231D01*
X104482448Y-139828764D01*
X104578285Y-139685334D01*
X104752534Y-139511085D01*
X104957429Y-139374178D01*
X104959146Y-139373467D01*
X105185097Y-139279875D01*
X105426786Y-139231800D01*
X105673214Y-139231800D01*
X105914903Y-139279875D01*
X105914903Y-139279875D01*
G37*
G36*
X153521272Y-139496228D02*
G01*
X153707991Y-139573570D01*
X153707993Y-139573571D01*
X153876037Y-139685854D01*
X154018946Y-139828763D01*
X154093404Y-139940198D01*
X154131230Y-139996809D01*
X154208572Y-140183528D01*
X154248000Y-140381747D01*
X154248000Y-140583853D01*
X154208572Y-140782072D01*
X154163107Y-140891833D01*
X154131229Y-140968793D01*
X154018946Y-141136837D01*
X153876037Y-141279746D01*
X153707993Y-141392029D01*
X153707992Y-141392030D01*
X153707991Y-141392030D01*
X153521272Y-141469372D01*
X153323053Y-141508800D01*
X153120947Y-141508800D01*
X152922728Y-141469372D01*
X152736009Y-141392030D01*
X152736008Y-141392030D01*
X152736007Y-141392029D01*
X152567963Y-141279746D01*
X152425054Y-141136837D01*
X152312771Y-140968793D01*
X152280893Y-140891833D01*
X152235428Y-140782072D01*
X152196000Y-140583853D01*
X152196000Y-140381747D01*
X152235428Y-140183528D01*
X152312770Y-139996809D01*
X152350596Y-139940198D01*
X152425054Y-139828763D01*
X152567963Y-139685854D01*
X152736007Y-139573571D01*
X152736009Y-139573570D01*
X152922728Y-139496228D01*
X153120947Y-139456800D01*
X153323053Y-139456800D01*
X153521272Y-139496228D01*
X153521272Y-139496228D01*
G37*
G36*
X110849272Y-139496228D02*
G01*
X111035991Y-139573570D01*
X111035993Y-139573571D01*
X111204037Y-139685854D01*
X111346946Y-139828763D01*
X111421404Y-139940198D01*
X111459230Y-139996809D01*
X111536572Y-140183528D01*
X111576000Y-140381747D01*
X111576000Y-140583853D01*
X111536572Y-140782072D01*
X111491107Y-140891833D01*
X111459229Y-140968793D01*
X111346946Y-141136837D01*
X111204037Y-141279746D01*
X111035993Y-141392029D01*
X111035992Y-141392030D01*
X111035991Y-141392030D01*
X110849272Y-141469372D01*
X110651053Y-141508800D01*
X110448947Y-141508800D01*
X110250728Y-141469372D01*
X110064009Y-141392030D01*
X110064008Y-141392030D01*
X110064007Y-141392029D01*
X109895963Y-141279746D01*
X109753054Y-141136837D01*
X109640771Y-140968793D01*
X109608893Y-140891833D01*
X109563428Y-140782072D01*
X109524000Y-140583853D01*
X109524000Y-140381747D01*
X109563428Y-140183528D01*
X109640770Y-139996809D01*
X109678596Y-139940198D01*
X109753054Y-139828763D01*
X109895963Y-139685854D01*
X110064007Y-139573571D01*
X110064009Y-139573570D01*
X110250728Y-139496228D01*
X110448947Y-139456800D01*
X110651053Y-139456800D01*
X110849272Y-139496228D01*
X110849272Y-139496228D01*
G37*
G36*
X140283797Y-138812967D02*
G01*
X140328440Y-138831459D01*
X140338577Y-138835658D01*
X140387876Y-138868598D01*
X140429802Y-138910524D01*
X140462742Y-138959823D01*
X140462743Y-138959825D01*
X140485433Y-139014603D01*
X140497000Y-139072753D01*
X140497000Y-139132047D01*
X140485433Y-139190197D01*
X140468200Y-139231800D01*
X140462742Y-139244977D01*
X140429802Y-139294276D01*
X140387876Y-139336202D01*
X140338577Y-139369142D01*
X140332104Y-139373467D01*
X140313162Y-139389012D01*
X140297617Y-139407954D01*
X140286066Y-139429565D01*
X140278953Y-139453014D01*
X140276551Y-139477400D01*
X140278953Y-139501786D01*
X140286066Y-139525235D01*
X140297617Y-139546846D01*
X140313162Y-139565788D01*
X140332104Y-139581333D01*
X140338577Y-139585658D01*
X140387876Y-139618598D01*
X140429802Y-139660524D01*
X140462742Y-139709823D01*
X140462743Y-139709825D01*
X140485433Y-139764603D01*
X140497000Y-139822753D01*
X140497000Y-139882047D01*
X140485433Y-139940197D01*
X140462743Y-139994975D01*
X140462742Y-139994977D01*
X140429802Y-140044276D01*
X140387876Y-140086202D01*
X140340440Y-140117897D01*
X140332104Y-140123467D01*
X140313162Y-140139012D01*
X140297617Y-140157954D01*
X140286066Y-140179565D01*
X140278953Y-140203014D01*
X140276551Y-140227400D01*
X140278953Y-140251786D01*
X140286066Y-140275235D01*
X140297617Y-140296846D01*
X140313162Y-140315788D01*
X140332104Y-140331333D01*
X140338577Y-140335658D01*
X140387876Y-140368598D01*
X140429802Y-140410524D01*
X140462742Y-140459823D01*
X140462743Y-140459825D01*
X140485433Y-140514603D01*
X140497000Y-140572753D01*
X140497000Y-140632047D01*
X140485433Y-140690197D01*
X140462743Y-140744975D01*
X140462742Y-140744977D01*
X140429802Y-140794276D01*
X140387876Y-140836202D01*
X140338577Y-140869142D01*
X140338576Y-140869143D01*
X140338575Y-140869143D01*
X140283797Y-140891833D01*
X140225647Y-140903400D01*
X140166353Y-140903400D01*
X140108203Y-140891833D01*
X140053425Y-140869143D01*
X140053424Y-140869143D01*
X140053423Y-140869142D01*
X140004124Y-140836202D01*
X139962198Y-140794276D01*
X139929258Y-140744977D01*
X139929257Y-140744975D01*
X139906567Y-140690197D01*
X139895000Y-140632047D01*
X139895000Y-140572753D01*
X139906567Y-140514603D01*
X139929257Y-140459825D01*
X139929258Y-140459823D01*
X139962198Y-140410524D01*
X140004124Y-140368598D01*
X140053423Y-140335658D01*
X140059896Y-140331333D01*
X140078838Y-140315788D01*
X140094383Y-140296846D01*
X140105934Y-140275235D01*
X140113047Y-140251786D01*
X140115449Y-140227400D01*
X140113047Y-140203014D01*
X140105934Y-140179565D01*
X140094383Y-140157954D01*
X140078838Y-140139012D01*
X140059896Y-140123467D01*
X140051560Y-140117897D01*
X140004124Y-140086202D01*
X139962198Y-140044276D01*
X139929258Y-139994977D01*
X139929257Y-139994975D01*
X139906567Y-139940197D01*
X139895000Y-139882047D01*
X139895000Y-139822753D01*
X139906567Y-139764603D01*
X139929257Y-139709825D01*
X139929258Y-139709823D01*
X139962198Y-139660524D01*
X140004124Y-139618598D01*
X140053423Y-139585658D01*
X140059896Y-139581333D01*
X140078838Y-139565788D01*
X140094383Y-139546846D01*
X140105934Y-139525235D01*
X140113047Y-139501786D01*
X140115449Y-139477400D01*
X140113047Y-139453014D01*
X140105934Y-139429565D01*
X140094383Y-139407954D01*
X140078838Y-139389012D01*
X140059896Y-139373467D01*
X140053423Y-139369142D01*
X140004124Y-139336202D01*
X139962198Y-139294276D01*
X139929258Y-139244977D01*
X139923800Y-139231800D01*
X139906567Y-139190197D01*
X139895000Y-139132047D01*
X139895000Y-139072753D01*
X139906567Y-139014603D01*
X139929257Y-138959825D01*
X139929258Y-138959823D01*
X139962198Y-138910524D01*
X140004124Y-138868598D01*
X140053423Y-138835658D01*
X140063560Y-138831459D01*
X140108203Y-138812967D01*
X140166353Y-138801400D01*
X140225647Y-138801400D01*
X140283797Y-138812967D01*
X140283797Y-138812967D01*
G37*
G36*
X138783797Y-138812967D02*
G01*
X138828440Y-138831459D01*
X138838577Y-138835658D01*
X138887876Y-138868598D01*
X138929802Y-138910524D01*
X138962742Y-138959823D01*
X138962743Y-138959825D01*
X138985433Y-139014603D01*
X138997000Y-139072753D01*
X138997000Y-139132047D01*
X138985433Y-139190197D01*
X138968200Y-139231800D01*
X138962742Y-139244977D01*
X138929802Y-139294276D01*
X138887876Y-139336202D01*
X138838577Y-139369142D01*
X138832104Y-139373467D01*
X138813162Y-139389012D01*
X138797617Y-139407954D01*
X138786066Y-139429565D01*
X138778953Y-139453014D01*
X138776551Y-139477400D01*
X138778953Y-139501786D01*
X138786066Y-139525235D01*
X138797617Y-139546846D01*
X138813162Y-139565788D01*
X138832104Y-139581333D01*
X138838577Y-139585658D01*
X138887876Y-139618598D01*
X138929802Y-139660524D01*
X138962742Y-139709823D01*
X138962743Y-139709825D01*
X138985433Y-139764603D01*
X138997000Y-139822753D01*
X138997000Y-139882047D01*
X138985433Y-139940197D01*
X138962743Y-139994975D01*
X138962742Y-139994977D01*
X138929802Y-140044276D01*
X138887876Y-140086202D01*
X138840440Y-140117897D01*
X138832104Y-140123467D01*
X138813162Y-140139012D01*
X138797617Y-140157954D01*
X138786066Y-140179565D01*
X138778953Y-140203014D01*
X138776551Y-140227400D01*
X138778953Y-140251786D01*
X138786066Y-140275235D01*
X138797617Y-140296846D01*
X138813162Y-140315788D01*
X138832104Y-140331333D01*
X138838577Y-140335658D01*
X138887876Y-140368598D01*
X138929802Y-140410524D01*
X138962742Y-140459823D01*
X138962743Y-140459825D01*
X138985433Y-140514603D01*
X138997000Y-140572753D01*
X138997000Y-140632047D01*
X138985433Y-140690197D01*
X138962743Y-140744975D01*
X138962742Y-140744977D01*
X138929802Y-140794276D01*
X138887876Y-140836202D01*
X138838577Y-140869142D01*
X138838576Y-140869143D01*
X138838575Y-140869143D01*
X138783797Y-140891833D01*
X138725647Y-140903400D01*
X138666353Y-140903400D01*
X138608203Y-140891833D01*
X138553425Y-140869143D01*
X138553424Y-140869143D01*
X138553423Y-140869142D01*
X138504124Y-140836202D01*
X138462198Y-140794276D01*
X138429258Y-140744977D01*
X138429257Y-140744975D01*
X138406567Y-140690197D01*
X138395000Y-140632047D01*
X138395000Y-140572753D01*
X138406567Y-140514603D01*
X138429257Y-140459825D01*
X138429258Y-140459823D01*
X138462198Y-140410524D01*
X138504124Y-140368598D01*
X138553423Y-140335658D01*
X138559896Y-140331333D01*
X138578838Y-140315788D01*
X138594383Y-140296846D01*
X138605934Y-140275235D01*
X138613047Y-140251786D01*
X138615449Y-140227400D01*
X138613047Y-140203014D01*
X138605934Y-140179565D01*
X138594383Y-140157954D01*
X138578838Y-140139012D01*
X138559896Y-140123467D01*
X138551560Y-140117897D01*
X138504124Y-140086202D01*
X138462198Y-140044276D01*
X138429258Y-139994977D01*
X138429257Y-139994975D01*
X138406567Y-139940197D01*
X138395000Y-139882047D01*
X138395000Y-139822753D01*
X138406567Y-139764603D01*
X138429257Y-139709825D01*
X138429258Y-139709823D01*
X138462198Y-139660524D01*
X138504124Y-139618598D01*
X138553423Y-139585658D01*
X138559896Y-139581333D01*
X138578838Y-139565788D01*
X138594383Y-139546846D01*
X138605934Y-139525235D01*
X138613047Y-139501786D01*
X138615449Y-139477400D01*
X138613047Y-139453014D01*
X138605934Y-139429565D01*
X138594383Y-139407954D01*
X138578838Y-139389012D01*
X138559896Y-139373467D01*
X138553423Y-139369142D01*
X138504124Y-139336202D01*
X138462198Y-139294276D01*
X138429258Y-139244977D01*
X138423800Y-139231800D01*
X138406567Y-139190197D01*
X138395000Y-139132047D01*
X138395000Y-139072753D01*
X138406567Y-139014603D01*
X138429257Y-138959825D01*
X138429258Y-138959823D01*
X138462198Y-138910524D01*
X138504124Y-138868598D01*
X138553423Y-138835658D01*
X138563560Y-138831459D01*
X138608203Y-138812967D01*
X138666353Y-138801400D01*
X138725647Y-138801400D01*
X138783797Y-138812967D01*
X138783797Y-138812967D01*
G37*
G36*
X124200228Y-137916503D02*
G01*
X124355100Y-137980653D01*
X124494481Y-138073785D01*
X124613015Y-138192319D01*
X124706147Y-138331700D01*
X124770297Y-138486572D01*
X124803000Y-138650984D01*
X124803000Y-138818616D01*
X124770297Y-138983028D01*
X124706147Y-139137900D01*
X124613015Y-139277281D01*
X124494481Y-139395815D01*
X124355100Y-139488947D01*
X124200228Y-139553097D01*
X124035816Y-139585800D01*
X123868184Y-139585800D01*
X123703772Y-139553097D01*
X123548900Y-139488947D01*
X123409519Y-139395815D01*
X123290985Y-139277281D01*
X123197853Y-139137900D01*
X123133703Y-138983028D01*
X123101000Y-138818616D01*
X123101000Y-138650984D01*
X123133703Y-138486572D01*
X123197853Y-138331700D01*
X123290985Y-138192319D01*
X123409519Y-138073785D01*
X123548900Y-137980653D01*
X123703772Y-137916503D01*
X123868184Y-137883800D01*
X124035816Y-137883800D01*
X124200228Y-137916503D01*
X124200228Y-137916503D01*
G37*
G36*
X121660228Y-137916503D02*
G01*
X121815100Y-137980653D01*
X121954481Y-138073785D01*
X122073015Y-138192319D01*
X122166147Y-138331700D01*
X122230297Y-138486572D01*
X122263000Y-138650984D01*
X122263000Y-138818616D01*
X122230297Y-138983028D01*
X122166147Y-139137900D01*
X122073015Y-139277281D01*
X121954481Y-139395815D01*
X121815100Y-139488947D01*
X121660228Y-139553097D01*
X121495816Y-139585800D01*
X121328184Y-139585800D01*
X121163772Y-139553097D01*
X121008900Y-139488947D01*
X120869519Y-139395815D01*
X120750985Y-139277281D01*
X120657853Y-139137900D01*
X120593703Y-138983028D01*
X120561000Y-138818616D01*
X120561000Y-138650984D01*
X120593703Y-138486572D01*
X120657853Y-138331700D01*
X120750985Y-138192319D01*
X120869519Y-138073785D01*
X121008900Y-137980653D01*
X121163772Y-137916503D01*
X121328184Y-137883800D01*
X121495816Y-137883800D01*
X121660228Y-137916503D01*
X121660228Y-137916503D01*
G37*
G36*
X119120228Y-137916503D02*
G01*
X119275100Y-137980653D01*
X119414481Y-138073785D01*
X119533015Y-138192319D01*
X119626147Y-138331700D01*
X119690297Y-138486572D01*
X119723000Y-138650984D01*
X119723000Y-138818616D01*
X119690297Y-138983028D01*
X119626147Y-139137900D01*
X119533015Y-139277281D01*
X119414481Y-139395815D01*
X119275100Y-139488947D01*
X119120228Y-139553097D01*
X118955816Y-139585800D01*
X118788184Y-139585800D01*
X118623772Y-139553097D01*
X118468900Y-139488947D01*
X118329519Y-139395815D01*
X118210985Y-139277281D01*
X118117853Y-139137900D01*
X118053703Y-138983028D01*
X118021000Y-138818616D01*
X118021000Y-138650984D01*
X118053703Y-138486572D01*
X118117853Y-138331700D01*
X118210985Y-138192319D01*
X118329519Y-138073785D01*
X118468900Y-137980653D01*
X118623772Y-137916503D01*
X118788184Y-137883800D01*
X118955816Y-137883800D01*
X119120228Y-137916503D01*
X119120228Y-137916503D01*
G37*
G36*
X116580228Y-137916503D02*
G01*
X116735100Y-137980653D01*
X116874481Y-138073785D01*
X116993015Y-138192319D01*
X117086147Y-138331700D01*
X117150297Y-138486572D01*
X117183000Y-138650984D01*
X117183000Y-138818616D01*
X117150297Y-138983028D01*
X117086147Y-139137900D01*
X116993015Y-139277281D01*
X116874481Y-139395815D01*
X116735100Y-139488947D01*
X116580228Y-139553097D01*
X116415816Y-139585800D01*
X116248184Y-139585800D01*
X116083772Y-139553097D01*
X115928900Y-139488947D01*
X115789519Y-139395815D01*
X115670985Y-139277281D01*
X115577853Y-139137900D01*
X115513703Y-138983028D01*
X115481000Y-138818616D01*
X115481000Y-138650984D01*
X115513703Y-138486572D01*
X115577853Y-138331700D01*
X115670985Y-138192319D01*
X115789519Y-138073785D01*
X115928900Y-137980653D01*
X116083772Y-137916503D01*
X116248184Y-137883800D01*
X116415816Y-137883800D01*
X116580228Y-137916503D01*
X116580228Y-137916503D01*
G37*
G36*
X135040823Y-137388113D02*
G01*
X135201242Y-137436776D01*
X135333906Y-137507686D01*
X135349078Y-137515796D01*
X135478659Y-137622141D01*
X135585004Y-137751722D01*
X135585005Y-137751724D01*
X135664024Y-137899558D01*
X135712687Y-138059977D01*
X135729117Y-138226800D01*
X135712687Y-138393623D01*
X135664024Y-138554042D01*
X135619769Y-138636837D01*
X135585004Y-138701878D01*
X135478659Y-138831459D01*
X135349078Y-138937804D01*
X135349076Y-138937805D01*
X135201242Y-139016824D01*
X135040823Y-139065487D01*
X134915804Y-139077800D01*
X134832196Y-139077800D01*
X134707177Y-139065487D01*
X134546758Y-139016824D01*
X134398924Y-138937805D01*
X134398922Y-138937804D01*
X134269341Y-138831459D01*
X134162996Y-138701878D01*
X134128231Y-138636837D01*
X134083976Y-138554042D01*
X134035313Y-138393623D01*
X134018883Y-138226800D01*
X134035313Y-138059977D01*
X134083976Y-137899558D01*
X134162995Y-137751724D01*
X134162996Y-137751722D01*
X134269341Y-137622141D01*
X134398922Y-137515796D01*
X134414094Y-137507686D01*
X134546758Y-137436776D01*
X134707177Y-137388113D01*
X134832196Y-137375800D01*
X134915804Y-137375800D01*
X135040823Y-137388113D01*
X135040823Y-137388113D01*
G37*
G36*
X127502228Y-137408503D02*
G01*
X127657100Y-137472653D01*
X127796481Y-137565785D01*
X127915015Y-137684319D01*
X128008147Y-137823700D01*
X128072297Y-137978572D01*
X128105000Y-138142984D01*
X128105000Y-138310616D01*
X128072297Y-138475028D01*
X128008147Y-138629900D01*
X127915015Y-138769281D01*
X127796481Y-138887815D01*
X127657100Y-138980947D01*
X127502228Y-139045097D01*
X127337816Y-139077800D01*
X127170184Y-139077800D01*
X127005772Y-139045097D01*
X126850900Y-138980947D01*
X126711519Y-138887815D01*
X126592985Y-138769281D01*
X126499853Y-138629900D01*
X126435703Y-138475028D01*
X126403000Y-138310616D01*
X126403000Y-138142984D01*
X126435703Y-137978572D01*
X126499853Y-137823700D01*
X126592985Y-137684319D01*
X126711519Y-137565785D01*
X126850900Y-137472653D01*
X127005772Y-137408503D01*
X127170184Y-137375800D01*
X127337816Y-137375800D01*
X127502228Y-137408503D01*
X127502228Y-137408503D01*
G37*
G36*
X156021272Y-136996228D02*
G01*
X156183851Y-137063571D01*
X156207993Y-137073571D01*
X156376037Y-137185854D01*
X156518946Y-137328763D01*
X156631229Y-137496807D01*
X156631230Y-137496809D01*
X156708572Y-137683528D01*
X156748000Y-137881747D01*
X156748000Y-138083853D01*
X156708572Y-138282072D01*
X156662365Y-138393625D01*
X156631229Y-138468793D01*
X156518946Y-138636837D01*
X156376037Y-138779746D01*
X156207993Y-138892029D01*
X156207992Y-138892030D01*
X156207991Y-138892030D01*
X156021272Y-138969372D01*
X155823053Y-139008800D01*
X155620947Y-139008800D01*
X155422728Y-138969372D01*
X155236009Y-138892030D01*
X155236008Y-138892030D01*
X155236007Y-138892029D01*
X155067963Y-138779746D01*
X154925054Y-138636837D01*
X154812771Y-138468793D01*
X154781635Y-138393625D01*
X154735428Y-138282072D01*
X154696000Y-138083853D01*
X154696000Y-137881747D01*
X154735428Y-137683528D01*
X154812770Y-137496809D01*
X154812771Y-137496807D01*
X154925054Y-137328763D01*
X155067963Y-137185854D01*
X155236007Y-137073571D01*
X155260149Y-137063571D01*
X155422728Y-136996228D01*
X155620947Y-136956800D01*
X155823053Y-136956800D01*
X156021272Y-136996228D01*
X156021272Y-136996228D01*
G37*
G36*
X113349272Y-136996228D02*
G01*
X113511851Y-137063571D01*
X113535993Y-137073571D01*
X113704037Y-137185854D01*
X113846946Y-137328763D01*
X113959229Y-137496807D01*
X113959230Y-137496809D01*
X114036572Y-137683528D01*
X114076000Y-137881747D01*
X114076000Y-138083853D01*
X114036572Y-138282072D01*
X113990365Y-138393625D01*
X113959229Y-138468793D01*
X113846946Y-138636837D01*
X113704037Y-138779746D01*
X113535993Y-138892029D01*
X113535992Y-138892030D01*
X113535991Y-138892030D01*
X113349272Y-138969372D01*
X113151053Y-139008800D01*
X112948947Y-139008800D01*
X112750728Y-138969372D01*
X112564009Y-138892030D01*
X112564008Y-138892030D01*
X112564007Y-138892029D01*
X112395963Y-138779746D01*
X112253054Y-138636837D01*
X112140771Y-138468793D01*
X112109635Y-138393625D01*
X112063428Y-138282072D01*
X112024000Y-138083853D01*
X112024000Y-137881747D01*
X112063428Y-137683528D01*
X112140770Y-137496809D01*
X112140771Y-137496807D01*
X112253054Y-137328763D01*
X112395963Y-137185854D01*
X112564007Y-137073571D01*
X112588149Y-137063571D01*
X112750728Y-136996228D01*
X112948947Y-136956800D01*
X113151053Y-136956800D01*
X113349272Y-136996228D01*
X113349272Y-136996228D01*
G37*
G36*
X143301272Y-136986228D02*
G01*
X143487991Y-137063570D01*
X143487993Y-137063571D01*
X143656037Y-137175854D01*
X143798946Y-137318763D01*
X143911229Y-137486807D01*
X143911230Y-137486809D01*
X143988572Y-137673528D01*
X144028000Y-137871747D01*
X144028000Y-138073853D01*
X143988572Y-138272072D01*
X143915751Y-138447876D01*
X143911229Y-138458793D01*
X143798946Y-138626837D01*
X143656037Y-138769746D01*
X143487993Y-138882029D01*
X143487992Y-138882030D01*
X143487991Y-138882030D01*
X143301272Y-138959372D01*
X143103053Y-138998800D01*
X142900947Y-138998800D01*
X142702728Y-138959372D01*
X142516009Y-138882030D01*
X142516008Y-138882030D01*
X142516007Y-138882029D01*
X142347963Y-138769746D01*
X142205054Y-138626837D01*
X142092771Y-138458793D01*
X142088249Y-138447876D01*
X142015428Y-138272072D01*
X141976000Y-138073853D01*
X141976000Y-137871747D01*
X142015428Y-137673528D01*
X142092770Y-137486809D01*
X142092771Y-137486807D01*
X142205054Y-137318763D01*
X142347963Y-137175854D01*
X142516007Y-137063571D01*
X142516009Y-137063570D01*
X142702728Y-136986228D01*
X142900947Y-136946800D01*
X143103053Y-136946800D01*
X143301272Y-136986228D01*
X143301272Y-136986228D01*
G37*
G36*
X100629272Y-136986228D02*
G01*
X100815991Y-137063570D01*
X100815993Y-137063571D01*
X100984037Y-137175854D01*
X101126946Y-137318763D01*
X101239229Y-137486807D01*
X101239230Y-137486809D01*
X101316572Y-137673528D01*
X101356000Y-137871747D01*
X101356000Y-138073853D01*
X101316572Y-138272072D01*
X101243751Y-138447876D01*
X101239229Y-138458793D01*
X101126946Y-138626837D01*
X100984037Y-138769746D01*
X100815993Y-138882029D01*
X100815992Y-138882030D01*
X100815991Y-138882030D01*
X100629272Y-138959372D01*
X100431053Y-138998800D01*
X100228947Y-138998800D01*
X100030728Y-138959372D01*
X99844009Y-138882030D01*
X99844008Y-138882030D01*
X99844007Y-138882029D01*
X99675963Y-138769746D01*
X99533054Y-138626837D01*
X99420771Y-138458793D01*
X99416249Y-138447876D01*
X99343428Y-138272072D01*
X99304000Y-138073853D01*
X99304000Y-137871747D01*
X99343428Y-137673528D01*
X99420770Y-137486809D01*
X99420771Y-137486807D01*
X99533054Y-137318763D01*
X99675963Y-137175854D01*
X99844007Y-137063571D01*
X99844009Y-137063570D01*
X100030728Y-136986228D01*
X100228947Y-136946800D01*
X100431053Y-136946800D01*
X100629272Y-136986228D01*
X100629272Y-136986228D01*
G37*
G36*
X161944628Y-137154503D02*
G01*
X162099500Y-137218653D01*
X162238881Y-137311785D01*
X162357415Y-137430319D01*
X162450547Y-137569700D01*
X162514697Y-137724572D01*
X162547400Y-137888984D01*
X162547400Y-138056616D01*
X162514697Y-138221028D01*
X162450547Y-138375900D01*
X162357415Y-138515281D01*
X162238881Y-138633815D01*
X162099500Y-138726947D01*
X161944628Y-138791097D01*
X161780216Y-138823800D01*
X161612584Y-138823800D01*
X161448172Y-138791097D01*
X161293300Y-138726947D01*
X161153919Y-138633815D01*
X161035385Y-138515281D01*
X160942253Y-138375900D01*
X160878103Y-138221028D01*
X160845400Y-138056616D01*
X160845400Y-137888984D01*
X160878103Y-137724572D01*
X160942253Y-137569700D01*
X161035385Y-137430319D01*
X161153919Y-137311785D01*
X161293300Y-137218653D01*
X161448172Y-137154503D01*
X161612584Y-137121800D01*
X161780216Y-137121800D01*
X161944628Y-137154503D01*
X161944628Y-137154503D01*
G37*
G36*
X169483223Y-137134113D02*
G01*
X169643642Y-137182776D01*
X169710761Y-137218652D01*
X169791478Y-137261796D01*
X169921059Y-137368141D01*
X170027404Y-137497722D01*
X170027405Y-137497724D01*
X170106424Y-137645558D01*
X170155087Y-137805977D01*
X170171517Y-137972800D01*
X170155087Y-138139623D01*
X170106424Y-138300042D01*
X170065877Y-138375900D01*
X170027404Y-138447878D01*
X169921059Y-138577459D01*
X169791478Y-138683804D01*
X169791476Y-138683805D01*
X169643642Y-138762824D01*
X169483223Y-138811487D01*
X169358204Y-138823800D01*
X169274596Y-138823800D01*
X169149577Y-138811487D01*
X168989158Y-138762824D01*
X168841324Y-138683805D01*
X168841322Y-138683804D01*
X168711741Y-138577459D01*
X168605396Y-138447878D01*
X168566923Y-138375900D01*
X168526376Y-138300042D01*
X168477713Y-138139623D01*
X168461283Y-137972800D01*
X168477713Y-137805977D01*
X168526376Y-137645558D01*
X168605395Y-137497724D01*
X168605396Y-137497722D01*
X168711741Y-137368141D01*
X168841322Y-137261796D01*
X168922039Y-137218652D01*
X168989158Y-137182776D01*
X169149577Y-137134113D01*
X169274596Y-137121800D01*
X169358204Y-137121800D01*
X169483223Y-137134113D01*
X169483223Y-137134113D01*
G37*
G36*
X135040823Y-134086113D02*
G01*
X135201242Y-134134776D01*
X135268361Y-134170652D01*
X135349078Y-134213796D01*
X135478659Y-134320141D01*
X135585004Y-134449722D01*
X135585005Y-134449724D01*
X135664024Y-134597558D01*
X135712687Y-134757977D01*
X135729117Y-134924800D01*
X135712687Y-135091623D01*
X135664024Y-135252042D01*
X135623477Y-135327900D01*
X135585004Y-135399878D01*
X135478659Y-135529459D01*
X135349078Y-135635804D01*
X135349076Y-135635805D01*
X135201242Y-135714824D01*
X135040823Y-135763487D01*
X134915804Y-135775800D01*
X134832196Y-135775800D01*
X134707177Y-135763487D01*
X134546758Y-135714824D01*
X134398924Y-135635805D01*
X134398922Y-135635804D01*
X134269341Y-135529459D01*
X134162996Y-135399878D01*
X134124523Y-135327900D01*
X134083976Y-135252042D01*
X134035313Y-135091623D01*
X134018883Y-134924800D01*
X134035313Y-134757977D01*
X134083976Y-134597558D01*
X134162995Y-134449724D01*
X134162996Y-134449722D01*
X134269341Y-134320141D01*
X134398922Y-134213796D01*
X134479639Y-134170652D01*
X134546758Y-134134776D01*
X134707177Y-134086113D01*
X134832196Y-134073800D01*
X134915804Y-134073800D01*
X135040823Y-134086113D01*
X135040823Y-134086113D01*
G37*
G36*
X127502228Y-134106503D02*
G01*
X127657100Y-134170653D01*
X127796481Y-134263785D01*
X127915015Y-134382319D01*
X128008147Y-134521700D01*
X128072297Y-134676572D01*
X128105000Y-134840984D01*
X128105000Y-135008616D01*
X128072297Y-135173028D01*
X128008147Y-135327900D01*
X127915015Y-135467281D01*
X127796481Y-135585815D01*
X127657100Y-135678947D01*
X127502228Y-135743097D01*
X127337816Y-135775800D01*
X127170184Y-135775800D01*
X127005772Y-135743097D01*
X126850900Y-135678947D01*
X126711519Y-135585815D01*
X126592985Y-135467281D01*
X126499853Y-135327900D01*
X126435703Y-135173028D01*
X126403000Y-135008616D01*
X126403000Y-134840984D01*
X126435703Y-134676572D01*
X126499853Y-134521700D01*
X126592985Y-134382319D01*
X126711519Y-134263785D01*
X126850900Y-134170653D01*
X127005772Y-134106503D01*
X127170184Y-134073800D01*
X127337816Y-134073800D01*
X127502228Y-134106503D01*
X127502228Y-134106503D01*
G37*
G36*
X110849272Y-131996228D02*
G01*
X111035991Y-132073570D01*
X111035993Y-132073571D01*
X111204037Y-132185854D01*
X111346946Y-132328763D01*
X111435628Y-132461486D01*
X111459230Y-132496809D01*
X111536572Y-132683528D01*
X111576000Y-132881747D01*
X111576000Y-133083853D01*
X111536572Y-133282072D01*
X111459230Y-133468791D01*
X111459229Y-133468793D01*
X111346946Y-133636837D01*
X111204037Y-133779746D01*
X111035993Y-133892029D01*
X111035992Y-133892030D01*
X111035991Y-133892030D01*
X110849272Y-133969372D01*
X110651053Y-134008800D01*
X110448947Y-134008800D01*
X110250728Y-133969372D01*
X110064009Y-133892030D01*
X110064008Y-133892030D01*
X110064007Y-133892029D01*
X109895963Y-133779746D01*
X109753054Y-133636837D01*
X109640771Y-133468793D01*
X109640770Y-133468791D01*
X109563428Y-133282072D01*
X109524000Y-133083853D01*
X109524000Y-132881747D01*
X109563428Y-132683528D01*
X109640770Y-132496809D01*
X109664372Y-132461486D01*
X109753054Y-132328763D01*
X109895963Y-132185854D01*
X110064007Y-132073571D01*
X110064009Y-132073570D01*
X110250728Y-131996228D01*
X110448947Y-131956800D01*
X110651053Y-131956800D01*
X110849272Y-131996228D01*
X110849272Y-131996228D01*
G37*
G36*
X153521272Y-131996228D02*
G01*
X153707991Y-132073570D01*
X153707993Y-132073571D01*
X153876037Y-132185854D01*
X154018946Y-132328763D01*
X154107628Y-132461486D01*
X154131230Y-132496809D01*
X154208572Y-132683528D01*
X154248000Y-132881747D01*
X154248000Y-133083853D01*
X154208572Y-133282072D01*
X154131230Y-133468791D01*
X154131229Y-133468793D01*
X154018946Y-133636837D01*
X153876037Y-133779746D01*
X153707993Y-133892029D01*
X153707992Y-133892030D01*
X153707991Y-133892030D01*
X153521272Y-133969372D01*
X153323053Y-134008800D01*
X153120947Y-134008800D01*
X152922728Y-133969372D01*
X152736009Y-133892030D01*
X152736008Y-133892030D01*
X152736007Y-133892029D01*
X152567963Y-133779746D01*
X152425054Y-133636837D01*
X152312771Y-133468793D01*
X152312770Y-133468791D01*
X152235428Y-133282072D01*
X152196000Y-133083853D01*
X152196000Y-132881747D01*
X152235428Y-132683528D01*
X152312770Y-132496809D01*
X152336372Y-132461486D01*
X152425054Y-132328763D01*
X152567963Y-132185854D01*
X152736007Y-132073571D01*
X152736009Y-132073570D01*
X152922728Y-131996228D01*
X153120947Y-131956800D01*
X153323053Y-131956800D01*
X153521272Y-131996228D01*
X153521272Y-131996228D01*
G37*
G36*
X127420823Y-130784113D02*
G01*
X127581242Y-130832776D01*
X127648361Y-130868652D01*
X127729078Y-130911796D01*
X127858659Y-131018141D01*
X127965004Y-131147722D01*
X127965005Y-131147724D01*
X128044024Y-131295558D01*
X128092687Y-131455977D01*
X128109117Y-131622800D01*
X128092687Y-131789623D01*
X128044024Y-131950042D01*
X128003477Y-132025900D01*
X127965004Y-132097878D01*
X127858659Y-132227459D01*
X127729078Y-132333804D01*
X127729076Y-132333805D01*
X127581242Y-132412824D01*
X127420823Y-132461487D01*
X127295804Y-132473800D01*
X127212196Y-132473800D01*
X127087177Y-132461487D01*
X126926758Y-132412824D01*
X126778924Y-132333805D01*
X126778922Y-132333804D01*
X126649341Y-132227459D01*
X126542996Y-132097878D01*
X126504523Y-132025900D01*
X126463976Y-131950042D01*
X126415313Y-131789623D01*
X126398883Y-131622800D01*
X126415313Y-131455977D01*
X126463976Y-131295558D01*
X126542995Y-131147724D01*
X126542996Y-131147722D01*
X126649341Y-131018141D01*
X126778922Y-130911796D01*
X126859639Y-130868652D01*
X126926758Y-130832776D01*
X127087177Y-130784113D01*
X127212196Y-130771800D01*
X127295804Y-130771800D01*
X127420823Y-130784113D01*
X127420823Y-130784113D01*
G37*
G36*
X135122228Y-130804503D02*
G01*
X135277100Y-130868653D01*
X135416481Y-130961785D01*
X135535015Y-131080319D01*
X135628147Y-131219700D01*
X135692297Y-131374572D01*
X135725000Y-131538984D01*
X135725000Y-131706616D01*
X135692297Y-131871028D01*
X135628147Y-132025900D01*
X135535015Y-132165281D01*
X135416481Y-132283815D01*
X135277100Y-132376947D01*
X135122228Y-132441097D01*
X134957816Y-132473800D01*
X134790184Y-132473800D01*
X134625772Y-132441097D01*
X134470900Y-132376947D01*
X134331519Y-132283815D01*
X134212985Y-132165281D01*
X134119853Y-132025900D01*
X134055703Y-131871028D01*
X134023000Y-131706616D01*
X134023000Y-131538984D01*
X134055703Y-131374572D01*
X134119853Y-131219700D01*
X134212985Y-131080319D01*
X134331519Y-130961785D01*
X134470900Y-130868653D01*
X134625772Y-130804503D01*
X134790184Y-130771800D01*
X134957816Y-130771800D01*
X135122228Y-130804503D01*
X135122228Y-130804503D01*
G37*
G36*
X124803000Y-131965800D02*
G01*
X123101000Y-131965800D01*
X123101000Y-130263800D01*
X124803000Y-130263800D01*
X124803000Y-131965800D01*
X124803000Y-131965800D01*
G37*
G36*
X121660228Y-130296503D02*
G01*
X121815100Y-130360653D01*
X121954481Y-130453785D01*
X122073015Y-130572319D01*
X122166147Y-130711700D01*
X122230297Y-130866572D01*
X122263000Y-131030984D01*
X122263000Y-131198616D01*
X122230297Y-131363028D01*
X122166147Y-131517900D01*
X122073015Y-131657281D01*
X121954481Y-131775815D01*
X121815100Y-131868947D01*
X121660228Y-131933097D01*
X121495816Y-131965800D01*
X121328184Y-131965800D01*
X121163772Y-131933097D01*
X121008900Y-131868947D01*
X120869519Y-131775815D01*
X120750985Y-131657281D01*
X120657853Y-131517900D01*
X120593703Y-131363028D01*
X120561000Y-131198616D01*
X120561000Y-131030984D01*
X120593703Y-130866572D01*
X120657853Y-130711700D01*
X120750985Y-130572319D01*
X120869519Y-130453785D01*
X121008900Y-130360653D01*
X121163772Y-130296503D01*
X121328184Y-130263800D01*
X121495816Y-130263800D01*
X121660228Y-130296503D01*
X121660228Y-130296503D01*
G37*
G36*
X119120228Y-130296503D02*
G01*
X119275100Y-130360653D01*
X119414481Y-130453785D01*
X119533015Y-130572319D01*
X119626147Y-130711700D01*
X119690297Y-130866572D01*
X119723000Y-131030984D01*
X119723000Y-131198616D01*
X119690297Y-131363028D01*
X119626147Y-131517900D01*
X119533015Y-131657281D01*
X119414481Y-131775815D01*
X119275100Y-131868947D01*
X119120228Y-131933097D01*
X118955816Y-131965800D01*
X118788184Y-131965800D01*
X118623772Y-131933097D01*
X118468900Y-131868947D01*
X118329519Y-131775815D01*
X118210985Y-131657281D01*
X118117853Y-131517900D01*
X118053703Y-131363028D01*
X118021000Y-131198616D01*
X118021000Y-131030984D01*
X118053703Y-130866572D01*
X118117853Y-130711700D01*
X118210985Y-130572319D01*
X118329519Y-130453785D01*
X118468900Y-130360653D01*
X118623772Y-130296503D01*
X118788184Y-130263800D01*
X118955816Y-130263800D01*
X119120228Y-130296503D01*
X119120228Y-130296503D01*
G37*
G36*
X116580228Y-130296503D02*
G01*
X116735100Y-130360653D01*
X116874481Y-130453785D01*
X116993015Y-130572319D01*
X117086147Y-130711700D01*
X117150297Y-130866572D01*
X117183000Y-131030984D01*
X117183000Y-131198616D01*
X117150297Y-131363028D01*
X117086147Y-131517900D01*
X116993015Y-131657281D01*
X116874481Y-131775815D01*
X116735100Y-131868947D01*
X116580228Y-131933097D01*
X116415816Y-131965800D01*
X116248184Y-131965800D01*
X116083772Y-131933097D01*
X115928900Y-131868947D01*
X115789519Y-131775815D01*
X115670985Y-131657281D01*
X115577853Y-131517900D01*
X115513703Y-131363028D01*
X115481000Y-131198616D01*
X115481000Y-131030984D01*
X115513703Y-130866572D01*
X115577853Y-130711700D01*
X115670985Y-130572319D01*
X115789519Y-130453785D01*
X115928900Y-130360653D01*
X116083772Y-130296503D01*
X116248184Y-130263800D01*
X116415816Y-130263800D01*
X116580228Y-130296503D01*
X116580228Y-130296503D01*
G37*
G36*
X100629272Y-127080228D02*
G01*
X100815991Y-127157570D01*
X100815993Y-127157571D01*
X100984037Y-127269854D01*
X101126946Y-127412763D01*
X101239229Y-127580807D01*
X101239230Y-127580809D01*
X101316572Y-127767528D01*
X101356000Y-127965747D01*
X101356000Y-128167853D01*
X101316572Y-128366072D01*
X101278957Y-128456881D01*
X101239229Y-128552793D01*
X101126946Y-128720837D01*
X100984037Y-128863746D01*
X100815993Y-128976029D01*
X100815992Y-128976030D01*
X100815991Y-128976030D01*
X100629272Y-129053372D01*
X100431053Y-129092800D01*
X100228947Y-129092800D01*
X100030728Y-129053372D01*
X99844009Y-128976030D01*
X99844008Y-128976030D01*
X99844007Y-128976029D01*
X99675963Y-128863746D01*
X99533054Y-128720837D01*
X99420771Y-128552793D01*
X99381043Y-128456881D01*
X99343428Y-128366072D01*
X99304000Y-128167853D01*
X99304000Y-127965747D01*
X99343428Y-127767528D01*
X99420770Y-127580809D01*
X99420771Y-127580807D01*
X99533054Y-127412763D01*
X99675963Y-127269854D01*
X99844007Y-127157571D01*
X99844009Y-127157570D01*
X100030728Y-127080228D01*
X100228947Y-127040800D01*
X100431053Y-127040800D01*
X100629272Y-127080228D01*
X100629272Y-127080228D01*
G37*
G36*
X143301272Y-127080228D02*
G01*
X143487991Y-127157570D01*
X143487993Y-127157571D01*
X143656037Y-127269854D01*
X143798946Y-127412763D01*
X143911229Y-127580807D01*
X143911230Y-127580809D01*
X143988572Y-127767528D01*
X144028000Y-127965747D01*
X144028000Y-128167853D01*
X143988572Y-128366072D01*
X143950957Y-128456881D01*
X143911229Y-128552793D01*
X143798946Y-128720837D01*
X143656037Y-128863746D01*
X143487993Y-128976029D01*
X143487992Y-128976030D01*
X143487991Y-128976030D01*
X143301272Y-129053372D01*
X143103053Y-129092800D01*
X142900947Y-129092800D01*
X142702728Y-129053372D01*
X142516009Y-128976030D01*
X142516008Y-128976030D01*
X142516007Y-128976029D01*
X142347963Y-128863746D01*
X142205054Y-128720837D01*
X142092771Y-128552793D01*
X142053043Y-128456881D01*
X142015428Y-128366072D01*
X141976000Y-128167853D01*
X141976000Y-127965747D01*
X142015428Y-127767528D01*
X142092770Y-127580809D01*
X142092771Y-127580807D01*
X142205054Y-127412763D01*
X142347963Y-127269854D01*
X142516007Y-127157571D01*
X142516009Y-127157570D01*
X142702728Y-127080228D01*
X142900947Y-127040800D01*
X143103053Y-127040800D01*
X143301272Y-127080228D01*
X143301272Y-127080228D01*
G37*
G36*
X156021272Y-126996228D02*
G01*
X156207991Y-127073570D01*
X156207993Y-127073571D01*
X156376037Y-127185854D01*
X156518946Y-127328763D01*
X156592820Y-127439324D01*
X156631230Y-127496809D01*
X156708572Y-127683528D01*
X156748000Y-127881747D01*
X156748000Y-128083853D01*
X156708572Y-128282072D01*
X156646469Y-128432000D01*
X156631229Y-128468793D01*
X156518946Y-128636837D01*
X156376037Y-128779746D01*
X156207993Y-128892029D01*
X156207992Y-128892030D01*
X156207991Y-128892030D01*
X156021272Y-128969372D01*
X155823053Y-129008800D01*
X155620947Y-129008800D01*
X155422728Y-128969372D01*
X155236009Y-128892030D01*
X155236008Y-128892030D01*
X155236007Y-128892029D01*
X155067963Y-128779746D01*
X154925054Y-128636837D01*
X154812771Y-128468793D01*
X154797531Y-128432000D01*
X154735428Y-128282072D01*
X154696000Y-128083853D01*
X154696000Y-127881747D01*
X154735428Y-127683528D01*
X154812770Y-127496809D01*
X154851180Y-127439324D01*
X154925054Y-127328763D01*
X155067963Y-127185854D01*
X155236007Y-127073571D01*
X155236009Y-127073570D01*
X155422728Y-126996228D01*
X155620947Y-126956800D01*
X155823053Y-126956800D01*
X156021272Y-126996228D01*
X156021272Y-126996228D01*
G37*
G36*
X113349272Y-126996228D02*
G01*
X113535991Y-127073570D01*
X113535993Y-127073571D01*
X113704037Y-127185854D01*
X113846946Y-127328763D01*
X113920820Y-127439324D01*
X113959230Y-127496809D01*
X114036572Y-127683528D01*
X114076000Y-127881747D01*
X114076000Y-128083853D01*
X114036572Y-128282072D01*
X113974469Y-128432000D01*
X113959229Y-128468793D01*
X113846946Y-128636837D01*
X113704037Y-128779746D01*
X113535993Y-128892029D01*
X113535992Y-128892030D01*
X113535991Y-128892030D01*
X113349272Y-128969372D01*
X113151053Y-129008800D01*
X112948947Y-129008800D01*
X112750728Y-128969372D01*
X112564009Y-128892030D01*
X112564008Y-128892030D01*
X112564007Y-128892029D01*
X112395963Y-128779746D01*
X112253054Y-128636837D01*
X112140771Y-128468793D01*
X112125531Y-128432000D01*
X112063428Y-128282072D01*
X112024000Y-128083853D01*
X112024000Y-127881747D01*
X112063428Y-127683528D01*
X112140770Y-127496809D01*
X112179180Y-127439324D01*
X112253054Y-127328763D01*
X112395963Y-127185854D01*
X112564007Y-127073571D01*
X112564009Y-127073570D01*
X112750728Y-126996228D01*
X112948947Y-126956800D01*
X113151053Y-126956800D01*
X113349272Y-126996228D01*
X113349272Y-126996228D01*
G37*
G36*
X169457823Y-127075713D02*
G01*
X169618242Y-127124376D01*
X169680345Y-127157571D01*
X169766078Y-127203396D01*
X169895659Y-127309741D01*
X170002004Y-127439322D01*
X170002005Y-127439324D01*
X170081024Y-127587158D01*
X170129687Y-127747577D01*
X170146117Y-127914400D01*
X170129687Y-128081223D01*
X170081024Y-128241642D01*
X170014515Y-128366072D01*
X170002004Y-128389478D01*
X169895659Y-128519059D01*
X169766078Y-128625404D01*
X169766076Y-128625405D01*
X169618242Y-128704424D01*
X169457823Y-128753087D01*
X169332804Y-128765400D01*
X169249196Y-128765400D01*
X169124177Y-128753087D01*
X168963758Y-128704424D01*
X168815924Y-128625405D01*
X168815922Y-128625404D01*
X168686341Y-128519059D01*
X168579996Y-128389478D01*
X168567485Y-128366072D01*
X168500976Y-128241642D01*
X168452313Y-128081223D01*
X168435883Y-127914400D01*
X168452313Y-127747577D01*
X168500976Y-127587158D01*
X168579995Y-127439324D01*
X168579996Y-127439322D01*
X168686341Y-127309741D01*
X168815922Y-127203396D01*
X168901655Y-127157571D01*
X168963758Y-127124376D01*
X169124177Y-127075713D01*
X169249196Y-127063400D01*
X169332804Y-127063400D01*
X169457823Y-127075713D01*
X169457823Y-127075713D01*
G37*
G36*
X161919228Y-127096103D02*
G01*
X162074100Y-127160253D01*
X162213481Y-127253385D01*
X162332015Y-127371919D01*
X162425147Y-127511300D01*
X162489297Y-127666172D01*
X162522000Y-127830584D01*
X162522000Y-127998216D01*
X162489297Y-128162628D01*
X162425147Y-128317500D01*
X162332015Y-128456881D01*
X162213481Y-128575415D01*
X162074100Y-128668547D01*
X161919228Y-128732697D01*
X161754816Y-128765400D01*
X161587184Y-128765400D01*
X161422772Y-128732697D01*
X161267900Y-128668547D01*
X161128519Y-128575415D01*
X161009985Y-128456881D01*
X160916853Y-128317500D01*
X160852703Y-128162628D01*
X160820000Y-127998216D01*
X160820000Y-127830584D01*
X160852703Y-127666172D01*
X160916853Y-127511300D01*
X161009985Y-127371919D01*
X161128519Y-127253385D01*
X161267900Y-127160253D01*
X161422772Y-127096103D01*
X161587184Y-127063400D01*
X161754816Y-127063400D01*
X161919228Y-127096103D01*
X161919228Y-127096103D01*
G37*
G36*
X127229500Y-128677300D02*
G01*
X125627500Y-128677300D01*
X125627500Y-127075300D01*
X127229500Y-127075300D01*
X127229500Y-128677300D01*
X127229500Y-128677300D01*
G37*
G36*
X118852049Y-127075714D02*
G01*
X118965523Y-127086890D01*
X119055743Y-127114258D01*
X119116513Y-127132692D01*
X119255665Y-127207071D01*
X119377633Y-127307167D01*
X119477729Y-127429135D01*
X119552108Y-127568287D01*
X119553500Y-127572876D01*
X119597910Y-127719277D01*
X119613375Y-127876300D01*
X119597910Y-128033323D01*
X119583379Y-128081225D01*
X119552108Y-128184313D01*
X119477729Y-128323465D01*
X119377633Y-128445433D01*
X119255665Y-128545529D01*
X119116513Y-128619908D01*
X119098391Y-128625405D01*
X118965523Y-128665710D01*
X118887071Y-128673437D01*
X118847846Y-128677300D01*
X118769154Y-128677300D01*
X118729929Y-128673437D01*
X118651477Y-128665710D01*
X118518609Y-128625405D01*
X118500487Y-128619908D01*
X118361335Y-128545529D01*
X118239367Y-128445433D01*
X118139271Y-128323465D01*
X118064892Y-128184313D01*
X118033621Y-128081225D01*
X118019090Y-128033323D01*
X118003625Y-127876300D01*
X118019090Y-127719277D01*
X118063500Y-127572876D01*
X118064892Y-127568287D01*
X118139271Y-127429135D01*
X118239367Y-127307167D01*
X118361335Y-127207071D01*
X118500487Y-127132692D01*
X118561257Y-127114258D01*
X118651477Y-127086890D01*
X118764951Y-127075714D01*
X118769154Y-127075300D01*
X118847846Y-127075300D01*
X118852049Y-127075714D01*
X118852049Y-127075714D01*
G37*
G36*
X140283797Y-126341567D02*
G01*
X140338575Y-126364257D01*
X140338577Y-126364258D01*
X140387876Y-126397198D01*
X140429802Y-126439124D01*
X140462742Y-126488423D01*
X140462743Y-126488425D01*
X140485433Y-126543203D01*
X140497000Y-126601353D01*
X140497000Y-126660647D01*
X140485433Y-126718797D01*
X140479218Y-126733800D01*
X140462742Y-126773577D01*
X140429802Y-126822876D01*
X140387876Y-126864802D01*
X140338577Y-126897742D01*
X140332104Y-126902067D01*
X140313162Y-126917612D01*
X140297617Y-126936554D01*
X140286066Y-126958165D01*
X140278953Y-126981614D01*
X140276551Y-127006000D01*
X140278953Y-127030386D01*
X140286066Y-127053835D01*
X140297617Y-127075446D01*
X140313162Y-127094388D01*
X140332104Y-127109933D01*
X140338577Y-127114258D01*
X140387876Y-127147198D01*
X140429802Y-127189124D01*
X140462742Y-127238423D01*
X140462743Y-127238425D01*
X140485433Y-127293203D01*
X140497000Y-127351353D01*
X140497000Y-127410647D01*
X140485433Y-127468797D01*
X140467826Y-127511303D01*
X140462742Y-127523577D01*
X140429802Y-127572876D01*
X140387876Y-127614802D01*
X140338577Y-127647742D01*
X140332104Y-127652067D01*
X140313162Y-127667612D01*
X140297617Y-127686554D01*
X140286066Y-127708165D01*
X140278953Y-127731614D01*
X140276551Y-127756000D01*
X140278953Y-127780386D01*
X140286066Y-127803835D01*
X140297617Y-127825446D01*
X140313162Y-127844388D01*
X140332104Y-127859933D01*
X140338577Y-127864258D01*
X140387876Y-127897198D01*
X140429802Y-127939124D01*
X140447591Y-127965748D01*
X140462743Y-127988425D01*
X140485433Y-128043203D01*
X140497000Y-128101353D01*
X140497000Y-128160647D01*
X140485433Y-128218797D01*
X140475971Y-128241639D01*
X140462742Y-128273577D01*
X140429802Y-128322876D01*
X140387876Y-128364802D01*
X140338577Y-128397742D01*
X140338576Y-128397743D01*
X140338575Y-128397743D01*
X140283797Y-128420433D01*
X140225647Y-128432000D01*
X140166353Y-128432000D01*
X140108203Y-128420433D01*
X140053425Y-128397743D01*
X140053424Y-128397743D01*
X140053423Y-128397742D01*
X140004124Y-128364802D01*
X139962198Y-128322876D01*
X139929258Y-128273577D01*
X139916029Y-128241639D01*
X139906567Y-128218797D01*
X139895000Y-128160647D01*
X139895000Y-128101353D01*
X139906567Y-128043203D01*
X139929257Y-127988425D01*
X139944409Y-127965748D01*
X139962198Y-127939124D01*
X140004124Y-127897198D01*
X140053423Y-127864258D01*
X140059896Y-127859933D01*
X140078838Y-127844388D01*
X140094383Y-127825446D01*
X140105934Y-127803835D01*
X140113047Y-127780386D01*
X140115449Y-127756000D01*
X140113047Y-127731614D01*
X140105934Y-127708165D01*
X140094383Y-127686554D01*
X140078838Y-127667612D01*
X140059896Y-127652067D01*
X140053423Y-127647742D01*
X140004124Y-127614802D01*
X139962198Y-127572876D01*
X139929258Y-127523577D01*
X139924174Y-127511303D01*
X139906567Y-127468797D01*
X139895000Y-127410647D01*
X139895000Y-127351353D01*
X139906567Y-127293203D01*
X139929257Y-127238425D01*
X139929258Y-127238423D01*
X139962198Y-127189124D01*
X140004124Y-127147198D01*
X140053423Y-127114258D01*
X140059896Y-127109933D01*
X140078838Y-127094388D01*
X140094383Y-127075446D01*
X140105934Y-127053835D01*
X140113047Y-127030386D01*
X140115449Y-127006000D01*
X140113047Y-126981614D01*
X140105934Y-126958165D01*
X140094383Y-126936554D01*
X140078838Y-126917612D01*
X140059896Y-126902067D01*
X140053423Y-126897742D01*
X140004124Y-126864802D01*
X139962198Y-126822876D01*
X139929258Y-126773577D01*
X139912782Y-126733800D01*
X139906567Y-126718797D01*
X139895000Y-126660647D01*
X139895000Y-126601353D01*
X139906567Y-126543203D01*
X139929257Y-126488425D01*
X139929258Y-126488423D01*
X139962198Y-126439124D01*
X140004124Y-126397198D01*
X140053423Y-126364258D01*
X140053425Y-126364257D01*
X140108203Y-126341567D01*
X140166353Y-126330000D01*
X140225647Y-126330000D01*
X140283797Y-126341567D01*
X140283797Y-126341567D01*
G37*
G36*
X138783797Y-126341567D02*
G01*
X138838575Y-126364257D01*
X138838577Y-126364258D01*
X138887876Y-126397198D01*
X138929802Y-126439124D01*
X138962742Y-126488423D01*
X138962743Y-126488425D01*
X138985433Y-126543203D01*
X138997000Y-126601353D01*
X138997000Y-126660647D01*
X138985433Y-126718797D01*
X138979218Y-126733800D01*
X138962742Y-126773577D01*
X138929802Y-126822876D01*
X138887876Y-126864802D01*
X138838577Y-126897742D01*
X138832104Y-126902067D01*
X138813162Y-126917612D01*
X138797617Y-126936554D01*
X138786066Y-126958165D01*
X138778953Y-126981614D01*
X138776551Y-127006000D01*
X138778953Y-127030386D01*
X138786066Y-127053835D01*
X138797617Y-127075446D01*
X138813162Y-127094388D01*
X138832104Y-127109933D01*
X138838577Y-127114258D01*
X138887876Y-127147198D01*
X138929802Y-127189124D01*
X138962742Y-127238423D01*
X138962743Y-127238425D01*
X138985433Y-127293203D01*
X138997000Y-127351353D01*
X138997000Y-127410647D01*
X138985433Y-127468797D01*
X138967826Y-127511303D01*
X138962742Y-127523577D01*
X138929802Y-127572876D01*
X138887876Y-127614802D01*
X138838577Y-127647742D01*
X138832104Y-127652067D01*
X138813162Y-127667612D01*
X138797617Y-127686554D01*
X138786066Y-127708165D01*
X138778953Y-127731614D01*
X138776551Y-127756000D01*
X138778953Y-127780386D01*
X138786066Y-127803835D01*
X138797617Y-127825446D01*
X138813162Y-127844388D01*
X138832104Y-127859933D01*
X138838577Y-127864258D01*
X138887876Y-127897198D01*
X138929802Y-127939124D01*
X138947591Y-127965748D01*
X138962743Y-127988425D01*
X138985433Y-128043203D01*
X138997000Y-128101353D01*
X138997000Y-128160647D01*
X138985433Y-128218797D01*
X138975971Y-128241639D01*
X138962742Y-128273577D01*
X138929802Y-128322876D01*
X138887876Y-128364802D01*
X138838577Y-128397742D01*
X138838576Y-128397743D01*
X138838575Y-128397743D01*
X138783797Y-128420433D01*
X138725647Y-128432000D01*
X138666353Y-128432000D01*
X138608203Y-128420433D01*
X138553425Y-128397743D01*
X138553424Y-128397743D01*
X138553423Y-128397742D01*
X138504124Y-128364802D01*
X138462198Y-128322876D01*
X138429258Y-128273577D01*
X138416029Y-128241639D01*
X138406567Y-128218797D01*
X138395000Y-128160647D01*
X138395000Y-128101353D01*
X138406567Y-128043203D01*
X138429257Y-127988425D01*
X138444409Y-127965748D01*
X138462198Y-127939124D01*
X138504124Y-127897198D01*
X138553423Y-127864258D01*
X138559896Y-127859933D01*
X138578838Y-127844388D01*
X138594383Y-127825446D01*
X138605934Y-127803835D01*
X138613047Y-127780386D01*
X138615449Y-127756000D01*
X138613047Y-127731614D01*
X138605934Y-127708165D01*
X138594383Y-127686554D01*
X138578838Y-127667612D01*
X138559896Y-127652067D01*
X138553423Y-127647742D01*
X138504124Y-127614802D01*
X138462198Y-127572876D01*
X138429258Y-127523577D01*
X138424174Y-127511303D01*
X138406567Y-127468797D01*
X138395000Y-127410647D01*
X138395000Y-127351353D01*
X138406567Y-127293203D01*
X138429257Y-127238425D01*
X138429258Y-127238423D01*
X138462198Y-127189124D01*
X138504124Y-127147198D01*
X138553423Y-127114258D01*
X138559896Y-127109933D01*
X138578838Y-127094388D01*
X138594383Y-127075446D01*
X138605934Y-127053835D01*
X138613047Y-127030386D01*
X138615449Y-127006000D01*
X138613047Y-126981614D01*
X138605934Y-126958165D01*
X138594383Y-126936554D01*
X138578838Y-126917612D01*
X138559896Y-126902067D01*
X138553423Y-126897742D01*
X138504124Y-126864802D01*
X138462198Y-126822876D01*
X138429258Y-126773577D01*
X138412782Y-126733800D01*
X138406567Y-126718797D01*
X138395000Y-126660647D01*
X138395000Y-126601353D01*
X138406567Y-126543203D01*
X138429257Y-126488425D01*
X138429258Y-126488423D01*
X138462198Y-126439124D01*
X138504124Y-126397198D01*
X138553423Y-126364258D01*
X138553425Y-126364257D01*
X138608203Y-126341567D01*
X138666353Y-126330000D01*
X138725647Y-126330000D01*
X138783797Y-126341567D01*
X138783797Y-126341567D01*
G37*
G36*
X105914903Y-124279875D02*
G01*
X106142571Y-124374178D01*
X106347466Y-124511085D01*
X106521715Y-124685334D01*
X106658622Y-124890229D01*
X106752925Y-125117897D01*
X106801000Y-125359587D01*
X106801000Y-125606013D01*
X106752925Y-125847703D01*
X106658622Y-126075371D01*
X106521715Y-126280266D01*
X106347466Y-126454515D01*
X106142571Y-126591422D01*
X106142570Y-126591423D01*
X106142569Y-126591423D01*
X105914903Y-126685725D01*
X105673214Y-126733800D01*
X105426786Y-126733800D01*
X105185097Y-126685725D01*
X104957431Y-126591423D01*
X104957430Y-126591423D01*
X104957429Y-126591422D01*
X104752534Y-126454515D01*
X104578285Y-126280266D01*
X104441378Y-126075371D01*
X104347075Y-125847703D01*
X104299000Y-125606013D01*
X104299000Y-125359587D01*
X104347075Y-125117897D01*
X104441378Y-124890229D01*
X104578285Y-124685334D01*
X104752534Y-124511085D01*
X104957429Y-124374178D01*
X105185097Y-124279875D01*
X105426786Y-124231800D01*
X105673214Y-124231800D01*
X105914903Y-124279875D01*
X105914903Y-124279875D01*
G37*
G36*
X148586903Y-124279875D02*
G01*
X148814571Y-124374178D01*
X149019466Y-124511085D01*
X149193715Y-124685334D01*
X149330622Y-124890229D01*
X149424925Y-125117897D01*
X149473000Y-125359587D01*
X149473000Y-125606013D01*
X149424925Y-125847703D01*
X149330622Y-126075371D01*
X149193715Y-126280266D01*
X149019466Y-126454515D01*
X148814571Y-126591422D01*
X148814570Y-126591423D01*
X148814569Y-126591423D01*
X148586903Y-126685725D01*
X148345214Y-126733800D01*
X148098786Y-126733800D01*
X147857097Y-126685725D01*
X147629431Y-126591423D01*
X147629430Y-126591423D01*
X147629429Y-126591422D01*
X147424534Y-126454515D01*
X147250285Y-126280266D01*
X147113378Y-126075371D01*
X147019075Y-125847703D01*
X146971000Y-125606013D01*
X146971000Y-125359587D01*
X147019075Y-125117897D01*
X147113378Y-124890229D01*
X147250285Y-124685334D01*
X147424534Y-124511085D01*
X147629429Y-124374178D01*
X147857097Y-124279875D01*
X148098786Y-124231800D01*
X148345214Y-124231800D01*
X148586903Y-124279875D01*
X148586903Y-124279875D01*
G37*
G36*
X110849272Y-124496228D02*
G01*
X111035991Y-124573570D01*
X111035993Y-124573571D01*
X111204037Y-124685854D01*
X111346946Y-124828763D01*
X111388016Y-124890229D01*
X111459230Y-124996809D01*
X111536572Y-125183528D01*
X111576000Y-125381747D01*
X111576000Y-125583853D01*
X111536572Y-125782072D01*
X111459230Y-125968791D01*
X111459229Y-125968793D01*
X111346946Y-126136837D01*
X111204037Y-126279746D01*
X111035993Y-126392029D01*
X111035992Y-126392030D01*
X111035991Y-126392030D01*
X110849272Y-126469372D01*
X110651053Y-126508800D01*
X110448947Y-126508800D01*
X110250728Y-126469372D01*
X110064009Y-126392030D01*
X110064008Y-126392030D01*
X110064007Y-126392029D01*
X109895963Y-126279746D01*
X109753054Y-126136837D01*
X109640771Y-125968793D01*
X109640770Y-125968791D01*
X109563428Y-125782072D01*
X109524000Y-125583853D01*
X109524000Y-125381747D01*
X109563428Y-125183528D01*
X109640770Y-124996809D01*
X109711984Y-124890229D01*
X109753054Y-124828763D01*
X109895963Y-124685854D01*
X110064007Y-124573571D01*
X110064009Y-124573570D01*
X110250728Y-124496228D01*
X110448947Y-124456800D01*
X110651053Y-124456800D01*
X110849272Y-124496228D01*
X110849272Y-124496228D01*
G37*
G36*
X153521272Y-124496228D02*
G01*
X153707991Y-124573570D01*
X153707993Y-124573571D01*
X153876037Y-124685854D01*
X154018946Y-124828763D01*
X154060016Y-124890229D01*
X154131230Y-124996809D01*
X154208572Y-125183528D01*
X154248000Y-125381747D01*
X154248000Y-125583853D01*
X154208572Y-125782072D01*
X154131230Y-125968791D01*
X154131229Y-125968793D01*
X154018946Y-126136837D01*
X153876037Y-126279746D01*
X153707993Y-126392029D01*
X153707992Y-126392030D01*
X153707991Y-126392030D01*
X153521272Y-126469372D01*
X153323053Y-126508800D01*
X153120947Y-126508800D01*
X152922728Y-126469372D01*
X152736009Y-126392030D01*
X152736008Y-126392030D01*
X152736007Y-126392029D01*
X152567963Y-126279746D01*
X152425054Y-126136837D01*
X152312771Y-125968793D01*
X152312770Y-125968791D01*
X152235428Y-125782072D01*
X152196000Y-125583853D01*
X152196000Y-125381747D01*
X152235428Y-125183528D01*
X152312770Y-124996809D01*
X152383984Y-124890229D01*
X152425054Y-124828763D01*
X152567963Y-124685854D01*
X152736007Y-124573571D01*
X152736009Y-124573570D01*
X152922728Y-124496228D01*
X153120947Y-124456800D01*
X153323053Y-124456800D01*
X153521272Y-124496228D01*
X153521272Y-124496228D01*
G37*
G36*
X172511028Y-119349103D02*
G01*
X172665900Y-119413253D01*
X172805281Y-119506385D01*
X172923815Y-119624919D01*
X173016947Y-119764300D01*
X173081097Y-119919172D01*
X173113800Y-120083584D01*
X173113800Y-120251216D01*
X173081097Y-120415628D01*
X173016947Y-120570500D01*
X172923815Y-120709881D01*
X172805281Y-120828415D01*
X172665900Y-120921547D01*
X172511028Y-120985697D01*
X172346616Y-121018400D01*
X172178984Y-121018400D01*
X172014572Y-120985697D01*
X171859700Y-120921547D01*
X171720319Y-120828415D01*
X171601785Y-120709881D01*
X171508653Y-120570500D01*
X171444503Y-120415628D01*
X171411800Y-120251216D01*
X171411800Y-120083584D01*
X171444503Y-119919172D01*
X171508653Y-119764300D01*
X171601785Y-119624919D01*
X171720319Y-119506385D01*
X171859700Y-119413253D01*
X172014572Y-119349103D01*
X172178984Y-119316400D01*
X172346616Y-119316400D01*
X172511028Y-119349103D01*
X172511028Y-119349103D01*
G37*
G36*
X169971028Y-119349103D02*
G01*
X170125900Y-119413253D01*
X170265281Y-119506385D01*
X170383815Y-119624919D01*
X170476947Y-119764300D01*
X170541097Y-119919172D01*
X170573800Y-120083584D01*
X170573800Y-120251216D01*
X170541097Y-120415628D01*
X170476947Y-120570500D01*
X170383815Y-120709881D01*
X170265281Y-120828415D01*
X170125900Y-120921547D01*
X169971028Y-120985697D01*
X169806616Y-121018400D01*
X169638984Y-121018400D01*
X169474572Y-120985697D01*
X169319700Y-120921547D01*
X169180319Y-120828415D01*
X169061785Y-120709881D01*
X168968653Y-120570500D01*
X168904503Y-120415628D01*
X168871800Y-120251216D01*
X168871800Y-120083584D01*
X168904503Y-119919172D01*
X168968653Y-119764300D01*
X169061785Y-119624919D01*
X169180319Y-119506385D01*
X169319700Y-119413253D01*
X169474572Y-119349103D01*
X169638984Y-119316400D01*
X169806616Y-119316400D01*
X169971028Y-119349103D01*
X169971028Y-119349103D01*
G37*
G36*
X167431028Y-119349103D02*
G01*
X167585900Y-119413253D01*
X167725281Y-119506385D01*
X167843815Y-119624919D01*
X167936947Y-119764300D01*
X168001097Y-119919172D01*
X168033800Y-120083584D01*
X168033800Y-120251216D01*
X168001097Y-120415628D01*
X167936947Y-120570500D01*
X167843815Y-120709881D01*
X167725281Y-120828415D01*
X167585900Y-120921547D01*
X167431028Y-120985697D01*
X167266616Y-121018400D01*
X167098984Y-121018400D01*
X166934572Y-120985697D01*
X166779700Y-120921547D01*
X166640319Y-120828415D01*
X166521785Y-120709881D01*
X166428653Y-120570500D01*
X166364503Y-120415628D01*
X166331800Y-120251216D01*
X166331800Y-120083584D01*
X166364503Y-119919172D01*
X166428653Y-119764300D01*
X166521785Y-119624919D01*
X166640319Y-119506385D01*
X166779700Y-119413253D01*
X166934572Y-119349103D01*
X167098984Y-119316400D01*
X167266616Y-119316400D01*
X167431028Y-119349103D01*
X167431028Y-119349103D01*
G37*
G36*
X164891028Y-119349103D02*
G01*
X165045900Y-119413253D01*
X165185281Y-119506385D01*
X165303815Y-119624919D01*
X165396947Y-119764300D01*
X165461097Y-119919172D01*
X165493800Y-120083584D01*
X165493800Y-120251216D01*
X165461097Y-120415628D01*
X165396947Y-120570500D01*
X165303815Y-120709881D01*
X165185281Y-120828415D01*
X165045900Y-120921547D01*
X164891028Y-120985697D01*
X164726616Y-121018400D01*
X164558984Y-121018400D01*
X164394572Y-120985697D01*
X164239700Y-120921547D01*
X164100319Y-120828415D01*
X163981785Y-120709881D01*
X163888653Y-120570500D01*
X163824503Y-120415628D01*
X163791800Y-120251216D01*
X163791800Y-120083584D01*
X163824503Y-119919172D01*
X163888653Y-119764300D01*
X163981785Y-119624919D01*
X164100319Y-119506385D01*
X164239700Y-119413253D01*
X164394572Y-119349103D01*
X164558984Y-119316400D01*
X164726616Y-119316400D01*
X164891028Y-119349103D01*
X164891028Y-119349103D01*
G37*
G36*
X162351028Y-119349103D02*
G01*
X162505900Y-119413253D01*
X162645281Y-119506385D01*
X162763815Y-119624919D01*
X162856947Y-119764300D01*
X162921097Y-119919172D01*
X162953800Y-120083584D01*
X162953800Y-120251216D01*
X162921097Y-120415628D01*
X162856947Y-120570500D01*
X162763815Y-120709881D01*
X162645281Y-120828415D01*
X162505900Y-120921547D01*
X162351028Y-120985697D01*
X162186616Y-121018400D01*
X162018984Y-121018400D01*
X161854572Y-120985697D01*
X161699700Y-120921547D01*
X161560319Y-120828415D01*
X161441785Y-120709881D01*
X161348653Y-120570500D01*
X161284503Y-120415628D01*
X161251800Y-120251216D01*
X161251800Y-120083584D01*
X161284503Y-119919172D01*
X161348653Y-119764300D01*
X161441785Y-119624919D01*
X161560319Y-119506385D01*
X161699700Y-119413253D01*
X161854572Y-119349103D01*
X162018984Y-119316400D01*
X162186616Y-119316400D01*
X162351028Y-119349103D01*
X162351028Y-119349103D01*
G37*
G36*
X159811028Y-119349103D02*
G01*
X159965900Y-119413253D01*
X160105281Y-119506385D01*
X160223815Y-119624919D01*
X160316947Y-119764300D01*
X160381097Y-119919172D01*
X160413800Y-120083584D01*
X160413800Y-120251216D01*
X160381097Y-120415628D01*
X160316947Y-120570500D01*
X160223815Y-120709881D01*
X160105281Y-120828415D01*
X159965900Y-120921547D01*
X159811028Y-120985697D01*
X159646616Y-121018400D01*
X159478984Y-121018400D01*
X159314572Y-120985697D01*
X159159700Y-120921547D01*
X159020319Y-120828415D01*
X158901785Y-120709881D01*
X158808653Y-120570500D01*
X158744503Y-120415628D01*
X158711800Y-120251216D01*
X158711800Y-120083584D01*
X158744503Y-119919172D01*
X158808653Y-119764300D01*
X158901785Y-119624919D01*
X159020319Y-119506385D01*
X159159700Y-119413253D01*
X159314572Y-119349103D01*
X159478984Y-119316400D01*
X159646616Y-119316400D01*
X159811028Y-119349103D01*
X159811028Y-119349103D01*
G37*
G36*
X157271028Y-119349103D02*
G01*
X157425900Y-119413253D01*
X157565281Y-119506385D01*
X157683815Y-119624919D01*
X157776947Y-119764300D01*
X157841097Y-119919172D01*
X157873800Y-120083584D01*
X157873800Y-120251216D01*
X157841097Y-120415628D01*
X157776947Y-120570500D01*
X157683815Y-120709881D01*
X157565281Y-120828415D01*
X157425900Y-120921547D01*
X157271028Y-120985697D01*
X157106616Y-121018400D01*
X156938984Y-121018400D01*
X156774572Y-120985697D01*
X156619700Y-120921547D01*
X156480319Y-120828415D01*
X156361785Y-120709881D01*
X156268653Y-120570500D01*
X156204503Y-120415628D01*
X156171800Y-120251216D01*
X156171800Y-120083584D01*
X156204503Y-119919172D01*
X156268653Y-119764300D01*
X156361785Y-119624919D01*
X156480319Y-119506385D01*
X156619700Y-119413253D01*
X156774572Y-119349103D01*
X156938984Y-119316400D01*
X157106616Y-119316400D01*
X157271028Y-119349103D01*
X157271028Y-119349103D01*
G37*
G36*
X154731028Y-119349103D02*
G01*
X154885900Y-119413253D01*
X155025281Y-119506385D01*
X155143815Y-119624919D01*
X155236947Y-119764300D01*
X155301097Y-119919172D01*
X155333800Y-120083584D01*
X155333800Y-120251216D01*
X155301097Y-120415628D01*
X155236947Y-120570500D01*
X155143815Y-120709881D01*
X155025281Y-120828415D01*
X154885900Y-120921547D01*
X154731028Y-120985697D01*
X154566616Y-121018400D01*
X154398984Y-121018400D01*
X154234572Y-120985697D01*
X154079700Y-120921547D01*
X153940319Y-120828415D01*
X153821785Y-120709881D01*
X153728653Y-120570500D01*
X153664503Y-120415628D01*
X153631800Y-120251216D01*
X153631800Y-120083584D01*
X153664503Y-119919172D01*
X153728653Y-119764300D01*
X153821785Y-119624919D01*
X153940319Y-119506385D01*
X154079700Y-119413253D01*
X154234572Y-119349103D01*
X154398984Y-119316400D01*
X154566616Y-119316400D01*
X154731028Y-119349103D01*
X154731028Y-119349103D01*
G37*
G36*
X127248228Y-119349103D02*
G01*
X127403100Y-119413253D01*
X127542481Y-119506385D01*
X127661015Y-119624919D01*
X127754147Y-119764300D01*
X127818297Y-119919172D01*
X127851000Y-120083584D01*
X127851000Y-120251216D01*
X127818297Y-120415628D01*
X127754147Y-120570500D01*
X127661015Y-120709881D01*
X127542481Y-120828415D01*
X127403100Y-120921547D01*
X127248228Y-120985697D01*
X127083816Y-121018400D01*
X126916184Y-121018400D01*
X126751772Y-120985697D01*
X126596900Y-120921547D01*
X126457519Y-120828415D01*
X126338985Y-120709881D01*
X126245853Y-120570500D01*
X126181703Y-120415628D01*
X126149000Y-120251216D01*
X126149000Y-120083584D01*
X126181703Y-119919172D01*
X126245853Y-119764300D01*
X126338985Y-119624919D01*
X126457519Y-119506385D01*
X126596900Y-119413253D01*
X126751772Y-119349103D01*
X126916184Y-119316400D01*
X127083816Y-119316400D01*
X127248228Y-119349103D01*
X127248228Y-119349103D01*
G37*
G36*
X124708228Y-119349103D02*
G01*
X124863100Y-119413253D01*
X125002481Y-119506385D01*
X125121015Y-119624919D01*
X125214147Y-119764300D01*
X125278297Y-119919172D01*
X125311000Y-120083584D01*
X125311000Y-120251216D01*
X125278297Y-120415628D01*
X125214147Y-120570500D01*
X125121015Y-120709881D01*
X125002481Y-120828415D01*
X124863100Y-120921547D01*
X124708228Y-120985697D01*
X124543816Y-121018400D01*
X124376184Y-121018400D01*
X124211772Y-120985697D01*
X124056900Y-120921547D01*
X123917519Y-120828415D01*
X123798985Y-120709881D01*
X123705853Y-120570500D01*
X123641703Y-120415628D01*
X123609000Y-120251216D01*
X123609000Y-120083584D01*
X123641703Y-119919172D01*
X123705853Y-119764300D01*
X123798985Y-119624919D01*
X123917519Y-119506385D01*
X124056900Y-119413253D01*
X124211772Y-119349103D01*
X124376184Y-119316400D01*
X124543816Y-119316400D01*
X124708228Y-119349103D01*
X124708228Y-119349103D01*
G37*
G36*
X122168228Y-119349103D02*
G01*
X122323100Y-119413253D01*
X122462481Y-119506385D01*
X122581015Y-119624919D01*
X122674147Y-119764300D01*
X122738297Y-119919172D01*
X122771000Y-120083584D01*
X122771000Y-120251216D01*
X122738297Y-120415628D01*
X122674147Y-120570500D01*
X122581015Y-120709881D01*
X122462481Y-120828415D01*
X122323100Y-120921547D01*
X122168228Y-120985697D01*
X122003816Y-121018400D01*
X121836184Y-121018400D01*
X121671772Y-120985697D01*
X121516900Y-120921547D01*
X121377519Y-120828415D01*
X121258985Y-120709881D01*
X121165853Y-120570500D01*
X121101703Y-120415628D01*
X121069000Y-120251216D01*
X121069000Y-120083584D01*
X121101703Y-119919172D01*
X121165853Y-119764300D01*
X121258985Y-119624919D01*
X121377519Y-119506385D01*
X121516900Y-119413253D01*
X121671772Y-119349103D01*
X121836184Y-119316400D01*
X122003816Y-119316400D01*
X122168228Y-119349103D01*
X122168228Y-119349103D01*
G37*
G36*
X152191028Y-119349103D02*
G01*
X152345900Y-119413253D01*
X152485281Y-119506385D01*
X152603815Y-119624919D01*
X152696947Y-119764300D01*
X152761097Y-119919172D01*
X152793800Y-120083584D01*
X152793800Y-120251216D01*
X152761097Y-120415628D01*
X152696947Y-120570500D01*
X152603815Y-120709881D01*
X152485281Y-120828415D01*
X152345900Y-120921547D01*
X152191028Y-120985697D01*
X152026616Y-121018400D01*
X151858984Y-121018400D01*
X151694572Y-120985697D01*
X151539700Y-120921547D01*
X151400319Y-120828415D01*
X151281785Y-120709881D01*
X151188653Y-120570500D01*
X151124503Y-120415628D01*
X151091800Y-120251216D01*
X151091800Y-120083584D01*
X151124503Y-119919172D01*
X151188653Y-119764300D01*
X151281785Y-119624919D01*
X151400319Y-119506385D01*
X151539700Y-119413253D01*
X151694572Y-119349103D01*
X151858984Y-119316400D01*
X152026616Y-119316400D01*
X152191028Y-119349103D01*
X152191028Y-119349103D01*
G37*
G36*
X149651028Y-119349103D02*
G01*
X149805900Y-119413253D01*
X149945281Y-119506385D01*
X150063815Y-119624919D01*
X150156947Y-119764300D01*
X150221097Y-119919172D01*
X150253800Y-120083584D01*
X150253800Y-120251216D01*
X150221097Y-120415628D01*
X150156947Y-120570500D01*
X150063815Y-120709881D01*
X149945281Y-120828415D01*
X149805900Y-120921547D01*
X149651028Y-120985697D01*
X149486616Y-121018400D01*
X149318984Y-121018400D01*
X149154572Y-120985697D01*
X148999700Y-120921547D01*
X148860319Y-120828415D01*
X148741785Y-120709881D01*
X148648653Y-120570500D01*
X148584503Y-120415628D01*
X148551800Y-120251216D01*
X148551800Y-120083584D01*
X148584503Y-119919172D01*
X148648653Y-119764300D01*
X148741785Y-119624919D01*
X148860319Y-119506385D01*
X148999700Y-119413253D01*
X149154572Y-119349103D01*
X149318984Y-119316400D01*
X149486616Y-119316400D01*
X149651028Y-119349103D01*
X149651028Y-119349103D01*
G37*
G36*
X147111028Y-119349103D02*
G01*
X147265900Y-119413253D01*
X147405281Y-119506385D01*
X147523815Y-119624919D01*
X147616947Y-119764300D01*
X147681097Y-119919172D01*
X147713800Y-120083584D01*
X147713800Y-120251216D01*
X147681097Y-120415628D01*
X147616947Y-120570500D01*
X147523815Y-120709881D01*
X147405281Y-120828415D01*
X147265900Y-120921547D01*
X147111028Y-120985697D01*
X146946616Y-121018400D01*
X146778984Y-121018400D01*
X146614572Y-120985697D01*
X146459700Y-120921547D01*
X146320319Y-120828415D01*
X146201785Y-120709881D01*
X146108653Y-120570500D01*
X146044503Y-120415628D01*
X146011800Y-120251216D01*
X146011800Y-120083584D01*
X146044503Y-119919172D01*
X146108653Y-119764300D01*
X146201785Y-119624919D01*
X146320319Y-119506385D01*
X146459700Y-119413253D01*
X146614572Y-119349103D01*
X146778984Y-119316400D01*
X146946616Y-119316400D01*
X147111028Y-119349103D01*
X147111028Y-119349103D01*
G37*
G36*
X145173800Y-121018400D02*
G01*
X143471800Y-121018400D01*
X143471800Y-119316400D01*
X145173800Y-119316400D01*
X145173800Y-121018400D01*
X145173800Y-121018400D01*
G37*
G36*
X129788228Y-119349103D02*
G01*
X129943100Y-119413253D01*
X130082481Y-119506385D01*
X130201015Y-119624919D01*
X130294147Y-119764300D01*
X130358297Y-119919172D01*
X130391000Y-120083584D01*
X130391000Y-120251216D01*
X130358297Y-120415628D01*
X130294147Y-120570500D01*
X130201015Y-120709881D01*
X130082481Y-120828415D01*
X129943100Y-120921547D01*
X129788228Y-120985697D01*
X129623816Y-121018400D01*
X129456184Y-121018400D01*
X129291772Y-120985697D01*
X129136900Y-120921547D01*
X128997519Y-120828415D01*
X128878985Y-120709881D01*
X128785853Y-120570500D01*
X128721703Y-120415628D01*
X128689000Y-120251216D01*
X128689000Y-120083584D01*
X128721703Y-119919172D01*
X128785853Y-119764300D01*
X128878985Y-119624919D01*
X128997519Y-119506385D01*
X129136900Y-119413253D01*
X129291772Y-119349103D01*
X129456184Y-119316400D01*
X129623816Y-119316400D01*
X129788228Y-119349103D01*
X129788228Y-119349103D01*
G37*
G36*
X119628228Y-119349103D02*
G01*
X119783100Y-119413253D01*
X119922481Y-119506385D01*
X120041015Y-119624919D01*
X120134147Y-119764300D01*
X120198297Y-119919172D01*
X120231000Y-120083584D01*
X120231000Y-120251216D01*
X120198297Y-120415628D01*
X120134147Y-120570500D01*
X120041015Y-120709881D01*
X119922481Y-120828415D01*
X119783100Y-120921547D01*
X119628228Y-120985697D01*
X119463816Y-121018400D01*
X119296184Y-121018400D01*
X119131772Y-120985697D01*
X118976900Y-120921547D01*
X118837519Y-120828415D01*
X118718985Y-120709881D01*
X118625853Y-120570500D01*
X118561703Y-120415628D01*
X118529000Y-120251216D01*
X118529000Y-120083584D01*
X118561703Y-119919172D01*
X118625853Y-119764300D01*
X118718985Y-119624919D01*
X118837519Y-119506385D01*
X118976900Y-119413253D01*
X119131772Y-119349103D01*
X119296184Y-119316400D01*
X119463816Y-119316400D01*
X119628228Y-119349103D01*
X119628228Y-119349103D01*
G37*
G36*
X117088228Y-119349103D02*
G01*
X117243100Y-119413253D01*
X117382481Y-119506385D01*
X117501015Y-119624919D01*
X117594147Y-119764300D01*
X117658297Y-119919172D01*
X117691000Y-120083584D01*
X117691000Y-120251216D01*
X117658297Y-120415628D01*
X117594147Y-120570500D01*
X117501015Y-120709881D01*
X117382481Y-120828415D01*
X117243100Y-120921547D01*
X117088228Y-120985697D01*
X116923816Y-121018400D01*
X116756184Y-121018400D01*
X116591772Y-120985697D01*
X116436900Y-120921547D01*
X116297519Y-120828415D01*
X116178985Y-120709881D01*
X116085853Y-120570500D01*
X116021703Y-120415628D01*
X115989000Y-120251216D01*
X115989000Y-120083584D01*
X116021703Y-119919172D01*
X116085853Y-119764300D01*
X116178985Y-119624919D01*
X116297519Y-119506385D01*
X116436900Y-119413253D01*
X116591772Y-119349103D01*
X116756184Y-119316400D01*
X116923816Y-119316400D01*
X117088228Y-119349103D01*
X117088228Y-119349103D01*
G37*
G36*
X114548228Y-119349103D02*
G01*
X114703100Y-119413253D01*
X114842481Y-119506385D01*
X114961015Y-119624919D01*
X115054147Y-119764300D01*
X115118297Y-119919172D01*
X115151000Y-120083584D01*
X115151000Y-120251216D01*
X115118297Y-120415628D01*
X115054147Y-120570500D01*
X114961015Y-120709881D01*
X114842481Y-120828415D01*
X114703100Y-120921547D01*
X114548228Y-120985697D01*
X114383816Y-121018400D01*
X114216184Y-121018400D01*
X114051772Y-120985697D01*
X113896900Y-120921547D01*
X113757519Y-120828415D01*
X113638985Y-120709881D01*
X113545853Y-120570500D01*
X113481703Y-120415628D01*
X113449000Y-120251216D01*
X113449000Y-120083584D01*
X113481703Y-119919172D01*
X113545853Y-119764300D01*
X113638985Y-119624919D01*
X113757519Y-119506385D01*
X113896900Y-119413253D01*
X114051772Y-119349103D01*
X114216184Y-119316400D01*
X114383816Y-119316400D01*
X114548228Y-119349103D01*
X114548228Y-119349103D01*
G37*
G36*
X112008228Y-119349103D02*
G01*
X112163100Y-119413253D01*
X112302481Y-119506385D01*
X112421015Y-119624919D01*
X112514147Y-119764300D01*
X112578297Y-119919172D01*
X112611000Y-120083584D01*
X112611000Y-120251216D01*
X112578297Y-120415628D01*
X112514147Y-120570500D01*
X112421015Y-120709881D01*
X112302481Y-120828415D01*
X112163100Y-120921547D01*
X112008228Y-120985697D01*
X111843816Y-121018400D01*
X111676184Y-121018400D01*
X111511772Y-120985697D01*
X111356900Y-120921547D01*
X111217519Y-120828415D01*
X111098985Y-120709881D01*
X111005853Y-120570500D01*
X110941703Y-120415628D01*
X110909000Y-120251216D01*
X110909000Y-120083584D01*
X110941703Y-119919172D01*
X111005853Y-119764300D01*
X111098985Y-119624919D01*
X111217519Y-119506385D01*
X111356900Y-119413253D01*
X111511772Y-119349103D01*
X111676184Y-119316400D01*
X111843816Y-119316400D01*
X112008228Y-119349103D01*
X112008228Y-119349103D01*
G37*
G36*
X109468228Y-119349103D02*
G01*
X109623100Y-119413253D01*
X109762481Y-119506385D01*
X109881015Y-119624919D01*
X109974147Y-119764300D01*
X110038297Y-119919172D01*
X110071000Y-120083584D01*
X110071000Y-120251216D01*
X110038297Y-120415628D01*
X109974147Y-120570500D01*
X109881015Y-120709881D01*
X109762481Y-120828415D01*
X109623100Y-120921547D01*
X109468228Y-120985697D01*
X109303816Y-121018400D01*
X109136184Y-121018400D01*
X108971772Y-120985697D01*
X108816900Y-120921547D01*
X108677519Y-120828415D01*
X108558985Y-120709881D01*
X108465853Y-120570500D01*
X108401703Y-120415628D01*
X108369000Y-120251216D01*
X108369000Y-120083584D01*
X108401703Y-119919172D01*
X108465853Y-119764300D01*
X108558985Y-119624919D01*
X108677519Y-119506385D01*
X108816900Y-119413253D01*
X108971772Y-119349103D01*
X109136184Y-119316400D01*
X109303816Y-119316400D01*
X109468228Y-119349103D01*
X109468228Y-119349103D01*
G37*
G36*
X106928228Y-119349103D02*
G01*
X107083100Y-119413253D01*
X107222481Y-119506385D01*
X107341015Y-119624919D01*
X107434147Y-119764300D01*
X107498297Y-119919172D01*
X107531000Y-120083584D01*
X107531000Y-120251216D01*
X107498297Y-120415628D01*
X107434147Y-120570500D01*
X107341015Y-120709881D01*
X107222481Y-120828415D01*
X107083100Y-120921547D01*
X106928228Y-120985697D01*
X106763816Y-121018400D01*
X106596184Y-121018400D01*
X106431772Y-120985697D01*
X106276900Y-120921547D01*
X106137519Y-120828415D01*
X106018985Y-120709881D01*
X105925853Y-120570500D01*
X105861703Y-120415628D01*
X105829000Y-120251216D01*
X105829000Y-120083584D01*
X105861703Y-119919172D01*
X105925853Y-119764300D01*
X106018985Y-119624919D01*
X106137519Y-119506385D01*
X106276900Y-119413253D01*
X106431772Y-119349103D01*
X106596184Y-119316400D01*
X106763816Y-119316400D01*
X106928228Y-119349103D01*
X106928228Y-119349103D01*
G37*
G36*
X104388228Y-119349103D02*
G01*
X104543100Y-119413253D01*
X104682481Y-119506385D01*
X104801015Y-119624919D01*
X104894147Y-119764300D01*
X104958297Y-119919172D01*
X104991000Y-120083584D01*
X104991000Y-120251216D01*
X104958297Y-120415628D01*
X104894147Y-120570500D01*
X104801015Y-120709881D01*
X104682481Y-120828415D01*
X104543100Y-120921547D01*
X104388228Y-120985697D01*
X104223816Y-121018400D01*
X104056184Y-121018400D01*
X103891772Y-120985697D01*
X103736900Y-120921547D01*
X103597519Y-120828415D01*
X103478985Y-120709881D01*
X103385853Y-120570500D01*
X103321703Y-120415628D01*
X103289000Y-120251216D01*
X103289000Y-120083584D01*
X103321703Y-119919172D01*
X103385853Y-119764300D01*
X103478985Y-119624919D01*
X103597519Y-119506385D01*
X103736900Y-119413253D01*
X103891772Y-119349103D01*
X104056184Y-119316400D01*
X104223816Y-119316400D01*
X104388228Y-119349103D01*
X104388228Y-119349103D01*
G37*
G36*
X102451000Y-121018400D02*
G01*
X100749000Y-121018400D01*
X100749000Y-119316400D01*
X102451000Y-119316400D01*
X102451000Y-121018400D01*
X102451000Y-121018400D01*
G37*
G36*
X133305436Y-115028540D02*
G01*
X133403720Y-115038220D01*
X133592881Y-115095601D01*
X133592883Y-115095602D01*
X133603872Y-115101476D01*
X133767212Y-115188783D01*
X133920015Y-115314185D01*
X134045417Y-115466988D01*
X134138599Y-115641319D01*
X134195980Y-115830480D01*
X134215355Y-116027200D01*
X134195980Y-116223920D01*
X134138599Y-116413081D01*
X134045417Y-116587412D01*
X133920015Y-116740215D01*
X133767212Y-116865617D01*
X133592881Y-116958799D01*
X133403720Y-117016180D01*
X133305436Y-117025860D01*
X133256295Y-117030700D01*
X133062705Y-117030700D01*
X133013564Y-117025860D01*
X132915280Y-117016180D01*
X132726119Y-116958799D01*
X132551788Y-116865617D01*
X132398985Y-116740215D01*
X132273583Y-116587412D01*
X132180401Y-116413081D01*
X132123020Y-116223920D01*
X132103645Y-116027200D01*
X132123020Y-115830480D01*
X132180401Y-115641319D01*
X132273583Y-115466988D01*
X132398985Y-115314185D01*
X132551788Y-115188783D01*
X132715128Y-115101476D01*
X132726117Y-115095602D01*
X132726119Y-115095601D01*
X132915280Y-115038220D01*
X133013564Y-115028540D01*
X133062705Y-115023700D01*
X133256295Y-115023700D01*
X133305436Y-115028540D01*
X133305436Y-115028540D01*
G37*
G36*
X175990136Y-115028540D02*
G01*
X176088420Y-115038220D01*
X176277581Y-115095601D01*
X176277583Y-115095602D01*
X176288572Y-115101476D01*
X176451912Y-115188783D01*
X176604715Y-115314185D01*
X176730117Y-115466988D01*
X176823299Y-115641319D01*
X176880680Y-115830480D01*
X176900055Y-116027200D01*
X176880680Y-116223920D01*
X176823299Y-116413081D01*
X176730117Y-116587412D01*
X176604715Y-116740215D01*
X176451912Y-116865617D01*
X176277581Y-116958799D01*
X176088420Y-117016180D01*
X175990136Y-117025860D01*
X175940995Y-117030700D01*
X175747405Y-117030700D01*
X175698264Y-117025860D01*
X175599980Y-117016180D01*
X175410819Y-116958799D01*
X175236488Y-116865617D01*
X175083685Y-116740215D01*
X174958283Y-116587412D01*
X174865101Y-116413081D01*
X174807720Y-116223920D01*
X174788345Y-116027200D01*
X174807720Y-115830480D01*
X174865101Y-115641319D01*
X174958283Y-115466988D01*
X175083685Y-115314185D01*
X175236488Y-115188783D01*
X175399828Y-115101476D01*
X175410817Y-115095602D01*
X175410819Y-115095601D01*
X175599980Y-115038220D01*
X175698264Y-115028540D01*
X175747405Y-115023700D01*
X175940995Y-115023700D01*
X175990136Y-115028540D01*
X175990136Y-115028540D01*
G37*
G36*
X138783797Y-113870167D02*
G01*
X138838575Y-113892857D01*
X138838577Y-113892858D01*
X138887876Y-113925798D01*
X138929802Y-113967724D01*
X138962742Y-114017023D01*
X138962743Y-114017025D01*
X138985433Y-114071803D01*
X138997000Y-114129953D01*
X138997000Y-114189247D01*
X138985433Y-114247397D01*
X138962743Y-114302175D01*
X138962742Y-114302177D01*
X138929802Y-114351476D01*
X138887876Y-114393402D01*
X138849866Y-114418799D01*
X138832104Y-114430667D01*
X138813162Y-114446212D01*
X138797617Y-114465154D01*
X138786066Y-114486765D01*
X138778953Y-114510214D01*
X138776551Y-114534600D01*
X138778953Y-114558986D01*
X138786066Y-114582435D01*
X138797617Y-114604046D01*
X138813162Y-114622988D01*
X138832104Y-114638533D01*
X138838577Y-114642858D01*
X138887876Y-114675798D01*
X138929802Y-114717724D01*
X138962742Y-114767023D01*
X138962743Y-114767025D01*
X138985433Y-114821803D01*
X138997000Y-114879953D01*
X138997000Y-114939247D01*
X138985433Y-114997397D01*
X138968523Y-115038220D01*
X138962742Y-115052177D01*
X138929802Y-115101476D01*
X138887876Y-115143402D01*
X138838577Y-115176342D01*
X138832104Y-115180667D01*
X138813162Y-115196212D01*
X138797617Y-115215154D01*
X138786066Y-115236765D01*
X138778953Y-115260214D01*
X138776551Y-115284600D01*
X138778953Y-115308986D01*
X138786066Y-115332435D01*
X138797617Y-115354046D01*
X138813162Y-115372988D01*
X138832104Y-115388533D01*
X138838577Y-115392858D01*
X138887876Y-115425798D01*
X138929802Y-115467724D01*
X138962742Y-115517023D01*
X138962743Y-115517025D01*
X138985433Y-115571803D01*
X138997000Y-115629953D01*
X138997000Y-115689247D01*
X138985433Y-115747397D01*
X138962743Y-115802175D01*
X138962742Y-115802177D01*
X138929802Y-115851476D01*
X138887876Y-115893402D01*
X138838577Y-115926342D01*
X138838576Y-115926343D01*
X138838575Y-115926343D01*
X138783797Y-115949033D01*
X138725647Y-115960600D01*
X138666353Y-115960600D01*
X138608203Y-115949033D01*
X138553425Y-115926343D01*
X138553424Y-115926343D01*
X138553423Y-115926342D01*
X138504124Y-115893402D01*
X138462198Y-115851476D01*
X138429258Y-115802177D01*
X138429257Y-115802175D01*
X138406567Y-115747397D01*
X138395000Y-115689247D01*
X138395000Y-115629953D01*
X138406567Y-115571803D01*
X138429257Y-115517025D01*
X138429258Y-115517023D01*
X138462198Y-115467724D01*
X138504124Y-115425798D01*
X138553423Y-115392858D01*
X138559896Y-115388533D01*
X138578838Y-115372988D01*
X138594383Y-115354046D01*
X138605934Y-115332435D01*
X138613047Y-115308986D01*
X138615449Y-115284600D01*
X138613047Y-115260214D01*
X138605934Y-115236765D01*
X138594383Y-115215154D01*
X138578838Y-115196212D01*
X138559896Y-115180667D01*
X138553423Y-115176342D01*
X138504124Y-115143402D01*
X138462198Y-115101476D01*
X138429258Y-115052177D01*
X138423477Y-115038220D01*
X138406567Y-114997397D01*
X138395000Y-114939247D01*
X138395000Y-114879953D01*
X138406567Y-114821803D01*
X138429257Y-114767025D01*
X138429258Y-114767023D01*
X138462198Y-114717724D01*
X138504124Y-114675798D01*
X138553423Y-114642858D01*
X138559896Y-114638533D01*
X138578838Y-114622988D01*
X138594383Y-114604046D01*
X138605934Y-114582435D01*
X138613047Y-114558986D01*
X138615449Y-114534600D01*
X138613047Y-114510214D01*
X138605934Y-114486765D01*
X138594383Y-114465154D01*
X138578838Y-114446212D01*
X138559896Y-114430667D01*
X138542134Y-114418799D01*
X138504124Y-114393402D01*
X138462198Y-114351476D01*
X138429258Y-114302177D01*
X138429257Y-114302175D01*
X138406567Y-114247397D01*
X138395000Y-114189247D01*
X138395000Y-114129953D01*
X138406567Y-114071803D01*
X138429257Y-114017025D01*
X138429258Y-114017023D01*
X138462198Y-113967724D01*
X138504124Y-113925798D01*
X138553423Y-113892858D01*
X138553425Y-113892857D01*
X138608203Y-113870167D01*
X138666353Y-113858600D01*
X138725647Y-113858600D01*
X138783797Y-113870167D01*
X138783797Y-113870167D01*
G37*
G36*
X140283797Y-113870167D02*
G01*
X140338575Y-113892857D01*
X140338577Y-113892858D01*
X140387876Y-113925798D01*
X140429802Y-113967724D01*
X140462742Y-114017023D01*
X140462743Y-114017025D01*
X140485433Y-114071803D01*
X140497000Y-114129953D01*
X140497000Y-114189247D01*
X140485433Y-114247397D01*
X140462743Y-114302175D01*
X140462742Y-114302177D01*
X140429802Y-114351476D01*
X140387876Y-114393402D01*
X140349866Y-114418799D01*
X140332104Y-114430667D01*
X140313162Y-114446212D01*
X140297617Y-114465154D01*
X140286066Y-114486765D01*
X140278953Y-114510214D01*
X140276551Y-114534600D01*
X140278953Y-114558986D01*
X140286066Y-114582435D01*
X140297617Y-114604046D01*
X140313162Y-114622988D01*
X140332104Y-114638533D01*
X140338577Y-114642858D01*
X140387876Y-114675798D01*
X140429802Y-114717724D01*
X140462742Y-114767023D01*
X140462743Y-114767025D01*
X140485433Y-114821803D01*
X140497000Y-114879953D01*
X140497000Y-114939247D01*
X140485433Y-114997397D01*
X140468523Y-115038220D01*
X140462742Y-115052177D01*
X140429802Y-115101476D01*
X140387876Y-115143402D01*
X140338577Y-115176342D01*
X140332104Y-115180667D01*
X140313162Y-115196212D01*
X140297617Y-115215154D01*
X140286066Y-115236765D01*
X140278953Y-115260214D01*
X140276551Y-115284600D01*
X140278953Y-115308986D01*
X140286066Y-115332435D01*
X140297617Y-115354046D01*
X140313162Y-115372988D01*
X140332104Y-115388533D01*
X140338577Y-115392858D01*
X140387876Y-115425798D01*
X140429802Y-115467724D01*
X140462742Y-115517023D01*
X140462743Y-115517025D01*
X140485433Y-115571803D01*
X140497000Y-115629953D01*
X140497000Y-115689247D01*
X140485433Y-115747397D01*
X140462743Y-115802175D01*
X140462742Y-115802177D01*
X140429802Y-115851476D01*
X140387876Y-115893402D01*
X140338577Y-115926342D01*
X140338576Y-115926343D01*
X140338575Y-115926343D01*
X140283797Y-115949033D01*
X140225647Y-115960600D01*
X140166353Y-115960600D01*
X140108203Y-115949033D01*
X140053425Y-115926343D01*
X140053424Y-115926343D01*
X140053423Y-115926342D01*
X140004124Y-115893402D01*
X139962198Y-115851476D01*
X139929258Y-115802177D01*
X139929257Y-115802175D01*
X139906567Y-115747397D01*
X139895000Y-115689247D01*
X139895000Y-115629953D01*
X139906567Y-115571803D01*
X139929257Y-115517025D01*
X139929258Y-115517023D01*
X139962198Y-115467724D01*
X140004124Y-115425798D01*
X140053423Y-115392858D01*
X140059896Y-115388533D01*
X140078838Y-115372988D01*
X140094383Y-115354046D01*
X140105934Y-115332435D01*
X140113047Y-115308986D01*
X140115449Y-115284600D01*
X140113047Y-115260214D01*
X140105934Y-115236765D01*
X140094383Y-115215154D01*
X140078838Y-115196212D01*
X140059896Y-115180667D01*
X140053423Y-115176342D01*
X140004124Y-115143402D01*
X139962198Y-115101476D01*
X139929258Y-115052177D01*
X139923477Y-115038220D01*
X139906567Y-114997397D01*
X139895000Y-114939247D01*
X139895000Y-114879953D01*
X139906567Y-114821803D01*
X139929257Y-114767025D01*
X139929258Y-114767023D01*
X139962198Y-114717724D01*
X140004124Y-114675798D01*
X140053423Y-114642858D01*
X140059896Y-114638533D01*
X140078838Y-114622988D01*
X140094383Y-114604046D01*
X140105934Y-114582435D01*
X140113047Y-114558986D01*
X140115449Y-114534600D01*
X140113047Y-114510214D01*
X140105934Y-114486765D01*
X140094383Y-114465154D01*
X140078838Y-114446212D01*
X140059896Y-114430667D01*
X140042134Y-114418799D01*
X140004124Y-114393402D01*
X139962198Y-114351476D01*
X139929258Y-114302177D01*
X139929257Y-114302175D01*
X139906567Y-114247397D01*
X139895000Y-114189247D01*
X139895000Y-114129953D01*
X139906567Y-114071803D01*
X139929257Y-114017025D01*
X139929258Y-114017023D01*
X139962198Y-113967724D01*
X140004124Y-113925798D01*
X140053423Y-113892858D01*
X140053425Y-113892857D01*
X140108203Y-113870167D01*
X140166353Y-113858600D01*
X140225647Y-113858600D01*
X140283797Y-113870167D01*
X140283797Y-113870167D01*
G37*
G36*
X175990136Y-112488540D02*
G01*
X176088420Y-112498220D01*
X176277581Y-112555601D01*
X176451912Y-112648783D01*
X176604715Y-112774185D01*
X176730117Y-112926988D01*
X176823299Y-113101319D01*
X176880680Y-113290480D01*
X176900055Y-113487200D01*
X176880680Y-113683920D01*
X176823299Y-113873081D01*
X176730117Y-114047412D01*
X176604715Y-114200215D01*
X176451912Y-114325617D01*
X176277581Y-114418799D01*
X176088420Y-114476180D01*
X175990136Y-114485860D01*
X175940995Y-114490700D01*
X175747405Y-114490700D01*
X175698264Y-114485860D01*
X175599980Y-114476180D01*
X175410819Y-114418799D01*
X175236488Y-114325617D01*
X175083685Y-114200215D01*
X174958283Y-114047412D01*
X174865101Y-113873081D01*
X174807720Y-113683920D01*
X174788345Y-113487200D01*
X174807720Y-113290480D01*
X174865101Y-113101319D01*
X174958283Y-112926988D01*
X175083685Y-112774185D01*
X175236488Y-112648783D01*
X175410819Y-112555601D01*
X175599980Y-112498220D01*
X175698264Y-112488540D01*
X175747405Y-112483700D01*
X175940995Y-112483700D01*
X175990136Y-112488540D01*
X175990136Y-112488540D01*
G37*
G36*
X133305436Y-112488540D02*
G01*
X133403720Y-112498220D01*
X133592881Y-112555601D01*
X133767212Y-112648783D01*
X133920015Y-112774185D01*
X134045417Y-112926988D01*
X134138599Y-113101319D01*
X134195980Y-113290480D01*
X134215355Y-113487200D01*
X134195980Y-113683920D01*
X134138599Y-113873081D01*
X134045417Y-114047412D01*
X133920015Y-114200215D01*
X133767212Y-114325617D01*
X133592881Y-114418799D01*
X133403720Y-114476180D01*
X133305436Y-114485860D01*
X133256295Y-114490700D01*
X133062705Y-114490700D01*
X133013564Y-114485860D01*
X132915280Y-114476180D01*
X132726119Y-114418799D01*
X132551788Y-114325617D01*
X132398985Y-114200215D01*
X132273583Y-114047412D01*
X132180401Y-113873081D01*
X132123020Y-113683920D01*
X132103645Y-113487200D01*
X132123020Y-113290480D01*
X132180401Y-113101319D01*
X132273583Y-112926988D01*
X132398985Y-112774185D01*
X132551788Y-112648783D01*
X132726119Y-112555601D01*
X132915280Y-112498220D01*
X133013564Y-112488540D01*
X133062705Y-112483700D01*
X133256295Y-112483700D01*
X133305436Y-112488540D01*
X133305436Y-112488540D01*
G37*
G36*
X176895200Y-111950700D02*
G01*
X174793200Y-111950700D01*
X174793200Y-109943700D01*
X176895200Y-109943700D01*
X176895200Y-111950700D01*
X176895200Y-111950700D01*
G37*
G36*
X134210500Y-111950700D02*
G01*
X132108500Y-111950700D01*
X132108500Y-109943700D01*
X134210500Y-109943700D01*
X134210500Y-111950700D01*
X134210500Y-111950700D01*
G37*
G36*
X134509000Y-105257109D02*
G01*
X134511402Y-105281495D01*
X134518515Y-105304944D01*
X134530066Y-105326555D01*
X134545611Y-105345497D01*
X134564553Y-105361042D01*
X134586164Y-105372593D01*
X134609613Y-105379706D01*
X134633999Y-105382108D01*
X134658385Y-105379706D01*
X134681834Y-105372593D01*
X134703445Y-105361042D01*
X134722387Y-105345497D01*
X134737932Y-105326555D01*
X134749483Y-105304944D01*
X134781090Y-105228638D01*
X134796010Y-105206309D01*
X134852335Y-105122012D01*
X134943012Y-105031335D01*
X135049636Y-104960091D01*
X135168110Y-104911017D01*
X135176792Y-104909290D01*
X135293881Y-104886000D01*
X135422119Y-104886000D01*
X135539208Y-104909290D01*
X135547890Y-104911017D01*
X135666364Y-104960091D01*
X135772988Y-105031335D01*
X135863665Y-105122012D01*
X135919991Y-105206309D01*
X135934910Y-105228638D01*
X135983983Y-105347110D01*
X135998896Y-105422082D01*
X136009000Y-105472882D01*
X136009000Y-105601118D01*
X135983983Y-105726890D01*
X135934909Y-105845364D01*
X135863665Y-105951988D01*
X135772988Y-106042665D01*
X135666364Y-106113909D01*
X135666363Y-106113910D01*
X135666362Y-106113910D01*
X135547890Y-106162983D01*
X135422119Y-106188000D01*
X135293881Y-106188000D01*
X135168110Y-106162983D01*
X135049638Y-106113910D01*
X135049637Y-106113910D01*
X135049636Y-106113909D01*
X134943012Y-106042665D01*
X134852335Y-105951988D01*
X134781091Y-105845364D01*
X134749483Y-105769055D01*
X134737932Y-105747445D01*
X134722387Y-105728503D01*
X134703445Y-105712958D01*
X134681834Y-105701407D01*
X134658385Y-105694294D01*
X134633999Y-105691892D01*
X134609613Y-105694294D01*
X134586164Y-105701407D01*
X134564553Y-105712958D01*
X134545611Y-105728503D01*
X134530066Y-105747445D01*
X134518515Y-105769056D01*
X134511402Y-105792505D01*
X134509000Y-105816891D01*
X134509000Y-106188000D01*
X133207000Y-106188000D01*
X133207000Y-104886000D01*
X134509000Y-104886000D01*
X134509000Y-105257109D01*
X134509000Y-105257109D01*
G37*
G36*
X176647600Y-105206309D02*
G01*
X176650002Y-105230695D01*
X176657115Y-105254144D01*
X176668666Y-105275755D01*
X176684211Y-105294697D01*
X176703153Y-105310242D01*
X176724764Y-105321793D01*
X176748213Y-105328906D01*
X176772599Y-105331308D01*
X176796985Y-105328906D01*
X176820434Y-105321793D01*
X176842045Y-105310242D01*
X176860987Y-105294697D01*
X176876532Y-105275755D01*
X176888083Y-105254144D01*
X176919690Y-105177838D01*
X176921167Y-105175628D01*
X176990935Y-105071212D01*
X177081612Y-104980535D01*
X177188236Y-104909291D01*
X177306710Y-104860217D01*
X177432481Y-104835200D01*
X177560719Y-104835200D01*
X177686490Y-104860217D01*
X177804964Y-104909291D01*
X177911588Y-104980535D01*
X178002265Y-105071212D01*
X178072034Y-105175628D01*
X178073510Y-105177838D01*
X178122583Y-105296310D01*
X178147600Y-105422081D01*
X178147600Y-105550319D01*
X178122583Y-105676090D01*
X178080205Y-105778400D01*
X178073509Y-105794564D01*
X178002265Y-105901188D01*
X177911588Y-105991865D01*
X177804964Y-106063109D01*
X177804963Y-106063110D01*
X177804962Y-106063110D01*
X177686490Y-106112183D01*
X177560719Y-106137200D01*
X177432481Y-106137200D01*
X177306710Y-106112183D01*
X177188238Y-106063110D01*
X177188237Y-106063110D01*
X177188236Y-106063109D01*
X177081612Y-105991865D01*
X176990935Y-105901188D01*
X176919691Y-105794564D01*
X176912996Y-105778400D01*
X176888083Y-105718256D01*
X176876532Y-105696645D01*
X176860987Y-105677703D01*
X176842045Y-105662158D01*
X176820434Y-105650607D01*
X176796985Y-105643494D01*
X176772599Y-105641092D01*
X176748213Y-105643494D01*
X176724764Y-105650607D01*
X176703153Y-105662158D01*
X176684211Y-105677703D01*
X176668666Y-105696645D01*
X176657115Y-105718256D01*
X176650002Y-105741705D01*
X176647600Y-105766091D01*
X176647600Y-106137200D01*
X175345600Y-106137200D01*
X175345600Y-104835200D01*
X176647600Y-104835200D01*
X176647600Y-105206309D01*
X176647600Y-105206309D01*
G37*
G36*
X169971028Y-104109103D02*
G01*
X170125900Y-104173253D01*
X170265281Y-104266385D01*
X170383815Y-104384919D01*
X170476947Y-104524300D01*
X170541097Y-104679172D01*
X170573800Y-104843584D01*
X170573800Y-105011216D01*
X170541097Y-105175628D01*
X170476947Y-105330500D01*
X170383815Y-105469881D01*
X170265281Y-105588415D01*
X170125900Y-105681547D01*
X169971028Y-105745697D01*
X169806616Y-105778400D01*
X169638984Y-105778400D01*
X169474572Y-105745697D01*
X169319700Y-105681547D01*
X169180319Y-105588415D01*
X169061785Y-105469881D01*
X168968653Y-105330500D01*
X168904503Y-105175628D01*
X168871800Y-105011216D01*
X168871800Y-104843584D01*
X168904503Y-104679172D01*
X168968653Y-104524300D01*
X169061785Y-104384919D01*
X169180319Y-104266385D01*
X169319700Y-104173253D01*
X169474572Y-104109103D01*
X169638984Y-104076400D01*
X169806616Y-104076400D01*
X169971028Y-104109103D01*
X169971028Y-104109103D01*
G37*
G36*
X129788228Y-104109103D02*
G01*
X129943100Y-104173253D01*
X130082481Y-104266385D01*
X130201015Y-104384919D01*
X130294147Y-104524300D01*
X130358297Y-104679172D01*
X130391000Y-104843584D01*
X130391000Y-105011216D01*
X130358297Y-105175628D01*
X130294147Y-105330500D01*
X130201015Y-105469881D01*
X130082481Y-105588415D01*
X129943100Y-105681547D01*
X129788228Y-105745697D01*
X129623816Y-105778400D01*
X129456184Y-105778400D01*
X129291772Y-105745697D01*
X129136900Y-105681547D01*
X128997519Y-105588415D01*
X128878985Y-105469881D01*
X128785853Y-105330500D01*
X128721703Y-105175628D01*
X128689000Y-105011216D01*
X128689000Y-104843584D01*
X128721703Y-104679172D01*
X128785853Y-104524300D01*
X128878985Y-104384919D01*
X128997519Y-104266385D01*
X129136900Y-104173253D01*
X129291772Y-104109103D01*
X129456184Y-104076400D01*
X129623816Y-104076400D01*
X129788228Y-104109103D01*
X129788228Y-104109103D01*
G37*
G36*
X101848228Y-104109103D02*
G01*
X102003100Y-104173253D01*
X102142481Y-104266385D01*
X102261015Y-104384919D01*
X102354147Y-104524300D01*
X102418297Y-104679172D01*
X102451000Y-104843584D01*
X102451000Y-105011216D01*
X102418297Y-105175628D01*
X102354147Y-105330500D01*
X102261015Y-105469881D01*
X102142481Y-105588415D01*
X102003100Y-105681547D01*
X101848228Y-105745697D01*
X101683816Y-105778400D01*
X101516184Y-105778400D01*
X101351772Y-105745697D01*
X101196900Y-105681547D01*
X101057519Y-105588415D01*
X100938985Y-105469881D01*
X100845853Y-105330500D01*
X100781703Y-105175628D01*
X100749000Y-105011216D01*
X100749000Y-104843584D01*
X100781703Y-104679172D01*
X100845853Y-104524300D01*
X100938985Y-104384919D01*
X101057519Y-104266385D01*
X101196900Y-104173253D01*
X101351772Y-104109103D01*
X101516184Y-104076400D01*
X101683816Y-104076400D01*
X101848228Y-104109103D01*
X101848228Y-104109103D01*
G37*
G36*
X104388228Y-104109103D02*
G01*
X104543100Y-104173253D01*
X104682481Y-104266385D01*
X104801015Y-104384919D01*
X104894147Y-104524300D01*
X104958297Y-104679172D01*
X104991000Y-104843584D01*
X104991000Y-105011216D01*
X104958297Y-105175628D01*
X104894147Y-105330500D01*
X104801015Y-105469881D01*
X104682481Y-105588415D01*
X104543100Y-105681547D01*
X104388228Y-105745697D01*
X104223816Y-105778400D01*
X104056184Y-105778400D01*
X103891772Y-105745697D01*
X103736900Y-105681547D01*
X103597519Y-105588415D01*
X103478985Y-105469881D01*
X103385853Y-105330500D01*
X103321703Y-105175628D01*
X103289000Y-105011216D01*
X103289000Y-104843584D01*
X103321703Y-104679172D01*
X103385853Y-104524300D01*
X103478985Y-104384919D01*
X103597519Y-104266385D01*
X103736900Y-104173253D01*
X103891772Y-104109103D01*
X104056184Y-104076400D01*
X104223816Y-104076400D01*
X104388228Y-104109103D01*
X104388228Y-104109103D01*
G37*
G36*
X106928228Y-104109103D02*
G01*
X107083100Y-104173253D01*
X107222481Y-104266385D01*
X107341015Y-104384919D01*
X107434147Y-104524300D01*
X107498297Y-104679172D01*
X107531000Y-104843584D01*
X107531000Y-105011216D01*
X107498297Y-105175628D01*
X107434147Y-105330500D01*
X107341015Y-105469881D01*
X107222481Y-105588415D01*
X107083100Y-105681547D01*
X106928228Y-105745697D01*
X106763816Y-105778400D01*
X106596184Y-105778400D01*
X106431772Y-105745697D01*
X106276900Y-105681547D01*
X106137519Y-105588415D01*
X106018985Y-105469881D01*
X105925853Y-105330500D01*
X105861703Y-105175628D01*
X105829000Y-105011216D01*
X105829000Y-104843584D01*
X105861703Y-104679172D01*
X105925853Y-104524300D01*
X106018985Y-104384919D01*
X106137519Y-104266385D01*
X106276900Y-104173253D01*
X106431772Y-104109103D01*
X106596184Y-104076400D01*
X106763816Y-104076400D01*
X106928228Y-104109103D01*
X106928228Y-104109103D01*
G37*
G36*
X109468228Y-104109103D02*
G01*
X109623100Y-104173253D01*
X109762481Y-104266385D01*
X109881015Y-104384919D01*
X109974147Y-104524300D01*
X110038297Y-104679172D01*
X110071000Y-104843584D01*
X110071000Y-105011216D01*
X110038297Y-105175628D01*
X109974147Y-105330500D01*
X109881015Y-105469881D01*
X109762481Y-105588415D01*
X109623100Y-105681547D01*
X109468228Y-105745697D01*
X109303816Y-105778400D01*
X109136184Y-105778400D01*
X108971772Y-105745697D01*
X108816900Y-105681547D01*
X108677519Y-105588415D01*
X108558985Y-105469881D01*
X108465853Y-105330500D01*
X108401703Y-105175628D01*
X108369000Y-105011216D01*
X108369000Y-104843584D01*
X108401703Y-104679172D01*
X108465853Y-104524300D01*
X108558985Y-104384919D01*
X108677519Y-104266385D01*
X108816900Y-104173253D01*
X108971772Y-104109103D01*
X109136184Y-104076400D01*
X109303816Y-104076400D01*
X109468228Y-104109103D01*
X109468228Y-104109103D01*
G37*
G36*
X112008228Y-104109103D02*
G01*
X112163100Y-104173253D01*
X112302481Y-104266385D01*
X112421015Y-104384919D01*
X112514147Y-104524300D01*
X112578297Y-104679172D01*
X112611000Y-104843584D01*
X112611000Y-105011216D01*
X112578297Y-105175628D01*
X112514147Y-105330500D01*
X112421015Y-105469881D01*
X112302481Y-105588415D01*
X112163100Y-105681547D01*
X112008228Y-105745697D01*
X111843816Y-105778400D01*
X111676184Y-105778400D01*
X111511772Y-105745697D01*
X111356900Y-105681547D01*
X111217519Y-105588415D01*
X111098985Y-105469881D01*
X111005853Y-105330500D01*
X110941703Y-105175628D01*
X110909000Y-105011216D01*
X110909000Y-104843584D01*
X110941703Y-104679172D01*
X111005853Y-104524300D01*
X111098985Y-104384919D01*
X111217519Y-104266385D01*
X111356900Y-104173253D01*
X111511772Y-104109103D01*
X111676184Y-104076400D01*
X111843816Y-104076400D01*
X112008228Y-104109103D01*
X112008228Y-104109103D01*
G37*
G36*
X114548228Y-104109103D02*
G01*
X114703100Y-104173253D01*
X114842481Y-104266385D01*
X114961015Y-104384919D01*
X115054147Y-104524300D01*
X115118297Y-104679172D01*
X115151000Y-104843584D01*
X115151000Y-105011216D01*
X115118297Y-105175628D01*
X115054147Y-105330500D01*
X114961015Y-105469881D01*
X114842481Y-105588415D01*
X114703100Y-105681547D01*
X114548228Y-105745697D01*
X114383816Y-105778400D01*
X114216184Y-105778400D01*
X114051772Y-105745697D01*
X113896900Y-105681547D01*
X113757519Y-105588415D01*
X113638985Y-105469881D01*
X113545853Y-105330500D01*
X113481703Y-105175628D01*
X113449000Y-105011216D01*
X113449000Y-104843584D01*
X113481703Y-104679172D01*
X113545853Y-104524300D01*
X113638985Y-104384919D01*
X113757519Y-104266385D01*
X113896900Y-104173253D01*
X114051772Y-104109103D01*
X114216184Y-104076400D01*
X114383816Y-104076400D01*
X114548228Y-104109103D01*
X114548228Y-104109103D01*
G37*
G36*
X117088228Y-104109103D02*
G01*
X117243100Y-104173253D01*
X117382481Y-104266385D01*
X117501015Y-104384919D01*
X117594147Y-104524300D01*
X117658297Y-104679172D01*
X117691000Y-104843584D01*
X117691000Y-105011216D01*
X117658297Y-105175628D01*
X117594147Y-105330500D01*
X117501015Y-105469881D01*
X117382481Y-105588415D01*
X117243100Y-105681547D01*
X117088228Y-105745697D01*
X116923816Y-105778400D01*
X116756184Y-105778400D01*
X116591772Y-105745697D01*
X116436900Y-105681547D01*
X116297519Y-105588415D01*
X116178985Y-105469881D01*
X116085853Y-105330500D01*
X116021703Y-105175628D01*
X115989000Y-105011216D01*
X115989000Y-104843584D01*
X116021703Y-104679172D01*
X116085853Y-104524300D01*
X116178985Y-104384919D01*
X116297519Y-104266385D01*
X116436900Y-104173253D01*
X116591772Y-104109103D01*
X116756184Y-104076400D01*
X116923816Y-104076400D01*
X117088228Y-104109103D01*
X117088228Y-104109103D01*
G37*
G36*
X119628228Y-104109103D02*
G01*
X119783100Y-104173253D01*
X119922481Y-104266385D01*
X120041015Y-104384919D01*
X120134147Y-104524300D01*
X120198297Y-104679172D01*
X120231000Y-104843584D01*
X120231000Y-105011216D01*
X120198297Y-105175628D01*
X120134147Y-105330500D01*
X120041015Y-105469881D01*
X119922481Y-105588415D01*
X119783100Y-105681547D01*
X119628228Y-105745697D01*
X119463816Y-105778400D01*
X119296184Y-105778400D01*
X119131772Y-105745697D01*
X118976900Y-105681547D01*
X118837519Y-105588415D01*
X118718985Y-105469881D01*
X118625853Y-105330500D01*
X118561703Y-105175628D01*
X118529000Y-105011216D01*
X118529000Y-104843584D01*
X118561703Y-104679172D01*
X118625853Y-104524300D01*
X118718985Y-104384919D01*
X118837519Y-104266385D01*
X118976900Y-104173253D01*
X119131772Y-104109103D01*
X119296184Y-104076400D01*
X119463816Y-104076400D01*
X119628228Y-104109103D01*
X119628228Y-104109103D01*
G37*
G36*
X122168228Y-104109103D02*
G01*
X122323100Y-104173253D01*
X122462481Y-104266385D01*
X122581015Y-104384919D01*
X122674147Y-104524300D01*
X122738297Y-104679172D01*
X122771000Y-104843584D01*
X122771000Y-105011216D01*
X122738297Y-105175628D01*
X122674147Y-105330500D01*
X122581015Y-105469881D01*
X122462481Y-105588415D01*
X122323100Y-105681547D01*
X122168228Y-105745697D01*
X122003816Y-105778400D01*
X121836184Y-105778400D01*
X121671772Y-105745697D01*
X121516900Y-105681547D01*
X121377519Y-105588415D01*
X121258985Y-105469881D01*
X121165853Y-105330500D01*
X121101703Y-105175628D01*
X121069000Y-105011216D01*
X121069000Y-104843584D01*
X121101703Y-104679172D01*
X121165853Y-104524300D01*
X121258985Y-104384919D01*
X121377519Y-104266385D01*
X121516900Y-104173253D01*
X121671772Y-104109103D01*
X121836184Y-104076400D01*
X122003816Y-104076400D01*
X122168228Y-104109103D01*
X122168228Y-104109103D01*
G37*
G36*
X124708228Y-104109103D02*
G01*
X124863100Y-104173253D01*
X125002481Y-104266385D01*
X125121015Y-104384919D01*
X125214147Y-104524300D01*
X125278297Y-104679172D01*
X125311000Y-104843584D01*
X125311000Y-105011216D01*
X125278297Y-105175628D01*
X125214147Y-105330500D01*
X125121015Y-105469881D01*
X125002481Y-105588415D01*
X124863100Y-105681547D01*
X124708228Y-105745697D01*
X124543816Y-105778400D01*
X124376184Y-105778400D01*
X124211772Y-105745697D01*
X124056900Y-105681547D01*
X123917519Y-105588415D01*
X123798985Y-105469881D01*
X123705853Y-105330500D01*
X123641703Y-105175628D01*
X123609000Y-105011216D01*
X123609000Y-104843584D01*
X123641703Y-104679172D01*
X123705853Y-104524300D01*
X123798985Y-104384919D01*
X123917519Y-104266385D01*
X124056900Y-104173253D01*
X124211772Y-104109103D01*
X124376184Y-104076400D01*
X124543816Y-104076400D01*
X124708228Y-104109103D01*
X124708228Y-104109103D01*
G37*
G36*
X127248228Y-104109103D02*
G01*
X127403100Y-104173253D01*
X127542481Y-104266385D01*
X127661015Y-104384919D01*
X127754147Y-104524300D01*
X127818297Y-104679172D01*
X127851000Y-104843584D01*
X127851000Y-105011216D01*
X127818297Y-105175628D01*
X127754147Y-105330500D01*
X127661015Y-105469881D01*
X127542481Y-105588415D01*
X127403100Y-105681547D01*
X127248228Y-105745697D01*
X127083816Y-105778400D01*
X126916184Y-105778400D01*
X126751772Y-105745697D01*
X126596900Y-105681547D01*
X126457519Y-105588415D01*
X126338985Y-105469881D01*
X126245853Y-105330500D01*
X126181703Y-105175628D01*
X126149000Y-105011216D01*
X126149000Y-104843584D01*
X126181703Y-104679172D01*
X126245853Y-104524300D01*
X126338985Y-104384919D01*
X126457519Y-104266385D01*
X126596900Y-104173253D01*
X126751772Y-104109103D01*
X126916184Y-104076400D01*
X127083816Y-104076400D01*
X127248228Y-104109103D01*
X127248228Y-104109103D01*
G37*
G36*
X167431028Y-104109103D02*
G01*
X167585900Y-104173253D01*
X167725281Y-104266385D01*
X167843815Y-104384919D01*
X167936947Y-104524300D01*
X168001097Y-104679172D01*
X168033800Y-104843584D01*
X168033800Y-105011216D01*
X168001097Y-105175628D01*
X167936947Y-105330500D01*
X167843815Y-105469881D01*
X167725281Y-105588415D01*
X167585900Y-105681547D01*
X167431028Y-105745697D01*
X167266616Y-105778400D01*
X167098984Y-105778400D01*
X166934572Y-105745697D01*
X166779700Y-105681547D01*
X166640319Y-105588415D01*
X166521785Y-105469881D01*
X166428653Y-105330500D01*
X166364503Y-105175628D01*
X166331800Y-105011216D01*
X166331800Y-104843584D01*
X166364503Y-104679172D01*
X166428653Y-104524300D01*
X166521785Y-104384919D01*
X166640319Y-104266385D01*
X166779700Y-104173253D01*
X166934572Y-104109103D01*
X167098984Y-104076400D01*
X167266616Y-104076400D01*
X167431028Y-104109103D01*
X167431028Y-104109103D01*
G37*
G36*
X164891028Y-104109103D02*
G01*
X165045900Y-104173253D01*
X165185281Y-104266385D01*
X165303815Y-104384919D01*
X165396947Y-104524300D01*
X165461097Y-104679172D01*
X165493800Y-104843584D01*
X165493800Y-105011216D01*
X165461097Y-105175628D01*
X165396947Y-105330500D01*
X165303815Y-105469881D01*
X165185281Y-105588415D01*
X165045900Y-105681547D01*
X164891028Y-105745697D01*
X164726616Y-105778400D01*
X164558984Y-105778400D01*
X164394572Y-105745697D01*
X164239700Y-105681547D01*
X164100319Y-105588415D01*
X163981785Y-105469881D01*
X163888653Y-105330500D01*
X163824503Y-105175628D01*
X163791800Y-105011216D01*
X163791800Y-104843584D01*
X163824503Y-104679172D01*
X163888653Y-104524300D01*
X163981785Y-104384919D01*
X164100319Y-104266385D01*
X164239700Y-104173253D01*
X164394572Y-104109103D01*
X164558984Y-104076400D01*
X164726616Y-104076400D01*
X164891028Y-104109103D01*
X164891028Y-104109103D01*
G37*
G36*
X162351028Y-104109103D02*
G01*
X162505900Y-104173253D01*
X162645281Y-104266385D01*
X162763815Y-104384919D01*
X162856947Y-104524300D01*
X162921097Y-104679172D01*
X162953800Y-104843584D01*
X162953800Y-105011216D01*
X162921097Y-105175628D01*
X162856947Y-105330500D01*
X162763815Y-105469881D01*
X162645281Y-105588415D01*
X162505900Y-105681547D01*
X162351028Y-105745697D01*
X162186616Y-105778400D01*
X162018984Y-105778400D01*
X161854572Y-105745697D01*
X161699700Y-105681547D01*
X161560319Y-105588415D01*
X161441785Y-105469881D01*
X161348653Y-105330500D01*
X161284503Y-105175628D01*
X161251800Y-105011216D01*
X161251800Y-104843584D01*
X161284503Y-104679172D01*
X161348653Y-104524300D01*
X161441785Y-104384919D01*
X161560319Y-104266385D01*
X161699700Y-104173253D01*
X161854572Y-104109103D01*
X162018984Y-104076400D01*
X162186616Y-104076400D01*
X162351028Y-104109103D01*
X162351028Y-104109103D01*
G37*
G36*
X159811028Y-104109103D02*
G01*
X159965900Y-104173253D01*
X160105281Y-104266385D01*
X160223815Y-104384919D01*
X160316947Y-104524300D01*
X160381097Y-104679172D01*
X160413800Y-104843584D01*
X160413800Y-105011216D01*
X160381097Y-105175628D01*
X160316947Y-105330500D01*
X160223815Y-105469881D01*
X160105281Y-105588415D01*
X159965900Y-105681547D01*
X159811028Y-105745697D01*
X159646616Y-105778400D01*
X159478984Y-105778400D01*
X159314572Y-105745697D01*
X159159700Y-105681547D01*
X159020319Y-105588415D01*
X158901785Y-105469881D01*
X158808653Y-105330500D01*
X158744503Y-105175628D01*
X158711800Y-105011216D01*
X158711800Y-104843584D01*
X158744503Y-104679172D01*
X158808653Y-104524300D01*
X158901785Y-104384919D01*
X159020319Y-104266385D01*
X159159700Y-104173253D01*
X159314572Y-104109103D01*
X159478984Y-104076400D01*
X159646616Y-104076400D01*
X159811028Y-104109103D01*
X159811028Y-104109103D01*
G37*
G36*
X157271028Y-104109103D02*
G01*
X157425900Y-104173253D01*
X157565281Y-104266385D01*
X157683815Y-104384919D01*
X157776947Y-104524300D01*
X157841097Y-104679172D01*
X157873800Y-104843584D01*
X157873800Y-105011216D01*
X157841097Y-105175628D01*
X157776947Y-105330500D01*
X157683815Y-105469881D01*
X157565281Y-105588415D01*
X157425900Y-105681547D01*
X157271028Y-105745697D01*
X157106616Y-105778400D01*
X156938984Y-105778400D01*
X156774572Y-105745697D01*
X156619700Y-105681547D01*
X156480319Y-105588415D01*
X156361785Y-105469881D01*
X156268653Y-105330500D01*
X156204503Y-105175628D01*
X156171800Y-105011216D01*
X156171800Y-104843584D01*
X156204503Y-104679172D01*
X156268653Y-104524300D01*
X156361785Y-104384919D01*
X156480319Y-104266385D01*
X156619700Y-104173253D01*
X156774572Y-104109103D01*
X156938984Y-104076400D01*
X157106616Y-104076400D01*
X157271028Y-104109103D01*
X157271028Y-104109103D01*
G37*
G36*
X154731028Y-104109103D02*
G01*
X154885900Y-104173253D01*
X155025281Y-104266385D01*
X155143815Y-104384919D01*
X155236947Y-104524300D01*
X155301097Y-104679172D01*
X155333800Y-104843584D01*
X155333800Y-105011216D01*
X155301097Y-105175628D01*
X155236947Y-105330500D01*
X155143815Y-105469881D01*
X155025281Y-105588415D01*
X154885900Y-105681547D01*
X154731028Y-105745697D01*
X154566616Y-105778400D01*
X154398984Y-105778400D01*
X154234572Y-105745697D01*
X154079700Y-105681547D01*
X153940319Y-105588415D01*
X153821785Y-105469881D01*
X153728653Y-105330500D01*
X153664503Y-105175628D01*
X153631800Y-105011216D01*
X153631800Y-104843584D01*
X153664503Y-104679172D01*
X153728653Y-104524300D01*
X153821785Y-104384919D01*
X153940319Y-104266385D01*
X154079700Y-104173253D01*
X154234572Y-104109103D01*
X154398984Y-104076400D01*
X154566616Y-104076400D01*
X154731028Y-104109103D01*
X154731028Y-104109103D01*
G37*
G36*
X152191028Y-104109103D02*
G01*
X152345900Y-104173253D01*
X152485281Y-104266385D01*
X152603815Y-104384919D01*
X152696947Y-104524300D01*
X152761097Y-104679172D01*
X152793800Y-104843584D01*
X152793800Y-105011216D01*
X152761097Y-105175628D01*
X152696947Y-105330500D01*
X152603815Y-105469881D01*
X152485281Y-105588415D01*
X152345900Y-105681547D01*
X152191028Y-105745697D01*
X152026616Y-105778400D01*
X151858984Y-105778400D01*
X151694572Y-105745697D01*
X151539700Y-105681547D01*
X151400319Y-105588415D01*
X151281785Y-105469881D01*
X151188653Y-105330500D01*
X151124503Y-105175628D01*
X151091800Y-105011216D01*
X151091800Y-104843584D01*
X151124503Y-104679172D01*
X151188653Y-104524300D01*
X151281785Y-104384919D01*
X151400319Y-104266385D01*
X151539700Y-104173253D01*
X151694572Y-104109103D01*
X151858984Y-104076400D01*
X152026616Y-104076400D01*
X152191028Y-104109103D01*
X152191028Y-104109103D01*
G37*
G36*
X149651028Y-104109103D02*
G01*
X149805900Y-104173253D01*
X149945281Y-104266385D01*
X150063815Y-104384919D01*
X150156947Y-104524300D01*
X150221097Y-104679172D01*
X150253800Y-104843584D01*
X150253800Y-105011216D01*
X150221097Y-105175628D01*
X150156947Y-105330500D01*
X150063815Y-105469881D01*
X149945281Y-105588415D01*
X149805900Y-105681547D01*
X149651028Y-105745697D01*
X149486616Y-105778400D01*
X149318984Y-105778400D01*
X149154572Y-105745697D01*
X148999700Y-105681547D01*
X148860319Y-105588415D01*
X148741785Y-105469881D01*
X148648653Y-105330500D01*
X148584503Y-105175628D01*
X148551800Y-105011216D01*
X148551800Y-104843584D01*
X148584503Y-104679172D01*
X148648653Y-104524300D01*
X148741785Y-104384919D01*
X148860319Y-104266385D01*
X148999700Y-104173253D01*
X149154572Y-104109103D01*
X149318984Y-104076400D01*
X149486616Y-104076400D01*
X149651028Y-104109103D01*
X149651028Y-104109103D01*
G37*
G36*
X172511028Y-104109103D02*
G01*
X172665900Y-104173253D01*
X172805281Y-104266385D01*
X172923815Y-104384919D01*
X173016947Y-104524300D01*
X173081097Y-104679172D01*
X173113800Y-104843584D01*
X173113800Y-105011216D01*
X173081097Y-105175628D01*
X173016947Y-105330500D01*
X172923815Y-105469881D01*
X172805281Y-105588415D01*
X172665900Y-105681547D01*
X172511028Y-105745697D01*
X172346616Y-105778400D01*
X172178984Y-105778400D01*
X172014572Y-105745697D01*
X171859700Y-105681547D01*
X171720319Y-105588415D01*
X171601785Y-105469881D01*
X171508653Y-105330500D01*
X171444503Y-105175628D01*
X171411800Y-105011216D01*
X171411800Y-104843584D01*
X171444503Y-104679172D01*
X171508653Y-104524300D01*
X171601785Y-104384919D01*
X171720319Y-104266385D01*
X171859700Y-104173253D01*
X172014572Y-104109103D01*
X172178984Y-104076400D01*
X172346616Y-104076400D01*
X172511028Y-104109103D01*
X172511028Y-104109103D01*
G37*
G36*
X147111028Y-104109103D02*
G01*
X147265900Y-104173253D01*
X147405281Y-104266385D01*
X147523815Y-104384919D01*
X147616947Y-104524300D01*
X147681097Y-104679172D01*
X147713800Y-104843584D01*
X147713800Y-105011216D01*
X147681097Y-105175628D01*
X147616947Y-105330500D01*
X147523815Y-105469881D01*
X147405281Y-105588415D01*
X147265900Y-105681547D01*
X147111028Y-105745697D01*
X146946616Y-105778400D01*
X146778984Y-105778400D01*
X146614572Y-105745697D01*
X146459700Y-105681547D01*
X146320319Y-105588415D01*
X146201785Y-105469881D01*
X146108653Y-105330500D01*
X146044503Y-105175628D01*
X146011800Y-105011216D01*
X146011800Y-104843584D01*
X146044503Y-104679172D01*
X146108653Y-104524300D01*
X146201785Y-104384919D01*
X146320319Y-104266385D01*
X146459700Y-104173253D01*
X146614572Y-104109103D01*
X146778984Y-104076400D01*
X146946616Y-104076400D01*
X147111028Y-104109103D01*
X147111028Y-104109103D01*
G37*
G36*
X144571028Y-104109103D02*
G01*
X144725900Y-104173253D01*
X144865281Y-104266385D01*
X144983815Y-104384919D01*
X145076947Y-104524300D01*
X145141097Y-104679172D01*
X145173800Y-104843584D01*
X145173800Y-105011216D01*
X145141097Y-105175628D01*
X145076947Y-105330500D01*
X144983815Y-105469881D01*
X144865281Y-105588415D01*
X144725900Y-105681547D01*
X144571028Y-105745697D01*
X144406616Y-105778400D01*
X144238984Y-105778400D01*
X144074572Y-105745697D01*
X143919700Y-105681547D01*
X143780319Y-105588415D01*
X143661785Y-105469881D01*
X143568653Y-105330500D01*
X143504503Y-105175628D01*
X143471800Y-105011216D01*
X143471800Y-104843584D01*
X143504503Y-104679172D01*
X143568653Y-104524300D01*
X143661785Y-104384919D01*
X143780319Y-104266385D01*
X143919700Y-104173253D01*
X144074572Y-104109103D01*
X144238984Y-104076400D01*
X144406616Y-104076400D01*
X144571028Y-104109103D01*
X144571028Y-104109103D01*
G37*
G36*
X140283797Y-101398767D02*
G01*
X140338575Y-101421457D01*
X140338577Y-101421458D01*
X140387876Y-101454398D01*
X140429802Y-101496324D01*
X140462742Y-101545623D01*
X140462743Y-101545625D01*
X140485433Y-101600403D01*
X140497000Y-101658553D01*
X140497000Y-101717847D01*
X140485433Y-101775997D01*
X140462743Y-101830775D01*
X140462742Y-101830777D01*
X140429802Y-101880076D01*
X140387876Y-101922002D01*
X140338577Y-101954942D01*
X140332104Y-101959267D01*
X140313162Y-101974812D01*
X140297617Y-101993754D01*
X140286066Y-102015365D01*
X140278953Y-102038814D01*
X140276551Y-102063200D01*
X140278953Y-102087586D01*
X140286066Y-102111035D01*
X140297617Y-102132646D01*
X140313162Y-102151588D01*
X140332104Y-102167133D01*
X140338577Y-102171458D01*
X140387876Y-102204398D01*
X140429802Y-102246324D01*
X140462742Y-102295623D01*
X140462743Y-102295625D01*
X140485433Y-102350403D01*
X140497000Y-102408553D01*
X140497000Y-102467847D01*
X140485433Y-102525997D01*
X140462743Y-102580775D01*
X140462742Y-102580777D01*
X140429802Y-102630076D01*
X140387876Y-102672002D01*
X140338577Y-102704942D01*
X140332104Y-102709267D01*
X140313162Y-102724812D01*
X140297617Y-102743754D01*
X140286066Y-102765365D01*
X140278953Y-102788814D01*
X140276551Y-102813200D01*
X140278953Y-102837586D01*
X140286066Y-102861035D01*
X140297617Y-102882646D01*
X140313162Y-102901588D01*
X140332104Y-102917133D01*
X140338577Y-102921458D01*
X140387876Y-102954398D01*
X140429802Y-102996324D01*
X140462742Y-103045623D01*
X140462743Y-103045625D01*
X140485433Y-103100403D01*
X140497000Y-103158553D01*
X140497000Y-103217847D01*
X140485433Y-103275997D01*
X140462743Y-103330775D01*
X140462742Y-103330777D01*
X140429802Y-103380076D01*
X140387876Y-103422002D01*
X140338577Y-103454942D01*
X140338576Y-103454943D01*
X140338575Y-103454943D01*
X140283797Y-103477633D01*
X140225647Y-103489200D01*
X140166353Y-103489200D01*
X140108203Y-103477633D01*
X140053425Y-103454943D01*
X140053424Y-103454943D01*
X140053423Y-103454942D01*
X140004124Y-103422002D01*
X139962198Y-103380076D01*
X139929258Y-103330777D01*
X139929257Y-103330775D01*
X139906567Y-103275997D01*
X139895000Y-103217847D01*
X139895000Y-103158553D01*
X139906567Y-103100403D01*
X139929257Y-103045625D01*
X139929258Y-103045623D01*
X139962198Y-102996324D01*
X140004124Y-102954398D01*
X140053423Y-102921458D01*
X140059896Y-102917133D01*
X140078838Y-102901588D01*
X140094383Y-102882646D01*
X140105934Y-102861035D01*
X140113047Y-102837586D01*
X140115449Y-102813200D01*
X140113047Y-102788814D01*
X140105934Y-102765365D01*
X140094383Y-102743754D01*
X140078838Y-102724812D01*
X140059896Y-102709267D01*
X140053423Y-102704942D01*
X140004124Y-102672002D01*
X139962198Y-102630076D01*
X139929258Y-102580777D01*
X139929257Y-102580775D01*
X139906567Y-102525997D01*
X139895000Y-102467847D01*
X139895000Y-102408553D01*
X139906567Y-102350403D01*
X139929257Y-102295625D01*
X139929258Y-102295623D01*
X139962198Y-102246324D01*
X140004124Y-102204398D01*
X140053423Y-102171458D01*
X140059896Y-102167133D01*
X140078838Y-102151588D01*
X140094383Y-102132646D01*
X140105934Y-102111035D01*
X140113047Y-102087586D01*
X140115449Y-102063200D01*
X140113047Y-102038814D01*
X140105934Y-102015365D01*
X140094383Y-101993754D01*
X140078838Y-101974812D01*
X140059896Y-101959267D01*
X140053423Y-101954942D01*
X140004124Y-101922002D01*
X139962198Y-101880076D01*
X139929258Y-101830777D01*
X139929257Y-101830775D01*
X139906567Y-101775997D01*
X139895000Y-101717847D01*
X139895000Y-101658553D01*
X139906567Y-101600403D01*
X139929257Y-101545625D01*
X139929258Y-101545623D01*
X139962198Y-101496324D01*
X140004124Y-101454398D01*
X140053423Y-101421458D01*
X140053425Y-101421457D01*
X140108203Y-101398767D01*
X140166353Y-101387200D01*
X140225647Y-101387200D01*
X140283797Y-101398767D01*
X140283797Y-101398767D01*
G37*
G36*
X138783797Y-101398767D02*
G01*
X138838575Y-101421457D01*
X138838577Y-101421458D01*
X138887876Y-101454398D01*
X138929802Y-101496324D01*
X138962742Y-101545623D01*
X138962743Y-101545625D01*
X138985433Y-101600403D01*
X138997000Y-101658553D01*
X138997000Y-101717847D01*
X138985433Y-101775997D01*
X138962743Y-101830775D01*
X138962742Y-101830777D01*
X138929802Y-101880076D01*
X138887876Y-101922002D01*
X138838577Y-101954942D01*
X138832104Y-101959267D01*
X138813162Y-101974812D01*
X138797617Y-101993754D01*
X138786066Y-102015365D01*
X138778953Y-102038814D01*
X138776551Y-102063200D01*
X138778953Y-102087586D01*
X138786066Y-102111035D01*
X138797617Y-102132646D01*
X138813162Y-102151588D01*
X138832104Y-102167133D01*
X138838577Y-102171458D01*
X138887876Y-102204398D01*
X138929802Y-102246324D01*
X138962742Y-102295623D01*
X138962743Y-102295625D01*
X138985433Y-102350403D01*
X138997000Y-102408553D01*
X138997000Y-102467847D01*
X138985433Y-102525997D01*
X138962743Y-102580775D01*
X138962742Y-102580777D01*
X138929802Y-102630076D01*
X138887876Y-102672002D01*
X138838577Y-102704942D01*
X138832104Y-102709267D01*
X138813162Y-102724812D01*
X138797617Y-102743754D01*
X138786066Y-102765365D01*
X138778953Y-102788814D01*
X138776551Y-102813200D01*
X138778953Y-102837586D01*
X138786066Y-102861035D01*
X138797617Y-102882646D01*
X138813162Y-102901588D01*
X138832104Y-102917133D01*
X138838577Y-102921458D01*
X138887876Y-102954398D01*
X138929802Y-102996324D01*
X138962742Y-103045623D01*
X138962743Y-103045625D01*
X138985433Y-103100403D01*
X138997000Y-103158553D01*
X138997000Y-103217847D01*
X138985433Y-103275997D01*
X138962743Y-103330775D01*
X138962742Y-103330777D01*
X138929802Y-103380076D01*
X138887876Y-103422002D01*
X138838577Y-103454942D01*
X138838576Y-103454943D01*
X138838575Y-103454943D01*
X138783797Y-103477633D01*
X138725647Y-103489200D01*
X138666353Y-103489200D01*
X138608203Y-103477633D01*
X138553425Y-103454943D01*
X138553424Y-103454943D01*
X138553423Y-103454942D01*
X138504124Y-103422002D01*
X138462198Y-103380076D01*
X138429258Y-103330777D01*
X138429257Y-103330775D01*
X138406567Y-103275997D01*
X138395000Y-103217847D01*
X138395000Y-103158553D01*
X138406567Y-103100403D01*
X138429257Y-103045625D01*
X138429258Y-103045623D01*
X138462198Y-102996324D01*
X138504124Y-102954398D01*
X138553423Y-102921458D01*
X138559896Y-102917133D01*
X138578838Y-102901588D01*
X138594383Y-102882646D01*
X138605934Y-102861035D01*
X138613047Y-102837586D01*
X138615449Y-102813200D01*
X138613047Y-102788814D01*
X138605934Y-102765365D01*
X138594383Y-102743754D01*
X138578838Y-102724812D01*
X138559896Y-102709267D01*
X138553423Y-102704942D01*
X138504124Y-102672002D01*
X138462198Y-102630076D01*
X138429258Y-102580777D01*
X138429257Y-102580775D01*
X138406567Y-102525997D01*
X138395000Y-102467847D01*
X138395000Y-102408553D01*
X138406567Y-102350403D01*
X138429257Y-102295625D01*
X138429258Y-102295623D01*
X138462198Y-102246324D01*
X138504124Y-102204398D01*
X138553423Y-102171458D01*
X138559896Y-102167133D01*
X138578838Y-102151588D01*
X138594383Y-102132646D01*
X138605934Y-102111035D01*
X138613047Y-102087586D01*
X138615449Y-102063200D01*
X138613047Y-102038814D01*
X138605934Y-102015365D01*
X138594383Y-101993754D01*
X138578838Y-101974812D01*
X138559896Y-101959267D01*
X138553423Y-101954942D01*
X138504124Y-101922002D01*
X138462198Y-101880076D01*
X138429258Y-101830777D01*
X138429257Y-101830775D01*
X138406567Y-101775997D01*
X138395000Y-101717847D01*
X138395000Y-101658553D01*
X138406567Y-101600403D01*
X138429257Y-101545625D01*
X138429258Y-101545623D01*
X138462198Y-101496324D01*
X138504124Y-101454398D01*
X138553423Y-101421458D01*
X138553425Y-101421457D01*
X138608203Y-101398767D01*
X138666353Y-101387200D01*
X138725647Y-101387200D01*
X138783797Y-101398767D01*
X138783797Y-101398767D01*
G37*
G36*
X173730228Y-100832503D02*
G01*
X173885100Y-100896653D01*
X174024481Y-100989785D01*
X174143015Y-101108319D01*
X174236147Y-101247700D01*
X174300297Y-101402572D01*
X174333000Y-101566984D01*
X174333000Y-101734616D01*
X174300297Y-101899028D01*
X174236147Y-102053900D01*
X174143015Y-102193281D01*
X174024481Y-102311815D01*
X173885100Y-102404947D01*
X173730228Y-102469097D01*
X173565816Y-102501800D01*
X173398184Y-102501800D01*
X173233772Y-102469097D01*
X173078900Y-102404947D01*
X172939519Y-102311815D01*
X172820985Y-102193281D01*
X172727853Y-102053900D01*
X172663703Y-101899028D01*
X172631000Y-101734616D01*
X172631000Y-101566984D01*
X172663703Y-101402572D01*
X172727853Y-101247700D01*
X172820985Y-101108319D01*
X172939519Y-100989785D01*
X173078900Y-100896653D01*
X173233772Y-100832503D01*
X173398184Y-100799800D01*
X173565816Y-100799800D01*
X173730228Y-100832503D01*
X173730228Y-100832503D01*
G37*
G36*
X176230228Y-100832503D02*
G01*
X176385100Y-100896653D01*
X176524481Y-100989785D01*
X176643015Y-101108319D01*
X176736147Y-101247700D01*
X176800297Y-101402572D01*
X176833000Y-101566984D01*
X176833000Y-101734616D01*
X176800297Y-101899028D01*
X176736147Y-102053900D01*
X176643015Y-102193281D01*
X176524481Y-102311815D01*
X176385100Y-102404947D01*
X176230228Y-102469097D01*
X176065816Y-102501800D01*
X175898184Y-102501800D01*
X175733772Y-102469097D01*
X175578900Y-102404947D01*
X175439519Y-102311815D01*
X175320985Y-102193281D01*
X175227853Y-102053900D01*
X175163703Y-101899028D01*
X175131000Y-101734616D01*
X175131000Y-101566984D01*
X175163703Y-101402572D01*
X175227853Y-101247700D01*
X175320985Y-101108319D01*
X175439519Y-100989785D01*
X175578900Y-100896653D01*
X175733772Y-100832503D01*
X175898184Y-100799800D01*
X176065816Y-100799800D01*
X176230228Y-100832503D01*
X176230228Y-100832503D01*
G37*
G36*
X134106228Y-100832503D02*
G01*
X134261100Y-100896653D01*
X134400481Y-100989785D01*
X134519015Y-101108319D01*
X134612147Y-101247700D01*
X134676297Y-101402572D01*
X134709000Y-101566984D01*
X134709000Y-101734616D01*
X134676297Y-101899028D01*
X134612147Y-102053900D01*
X134519015Y-102193281D01*
X134400481Y-102311815D01*
X134261100Y-102404947D01*
X134106228Y-102469097D01*
X133941816Y-102501800D01*
X133774184Y-102501800D01*
X133609772Y-102469097D01*
X133454900Y-102404947D01*
X133315519Y-102311815D01*
X133196985Y-102193281D01*
X133103853Y-102053900D01*
X133039703Y-101899028D01*
X133007000Y-101734616D01*
X133007000Y-101566984D01*
X133039703Y-101402572D01*
X133103853Y-101247700D01*
X133196985Y-101108319D01*
X133315519Y-100989785D01*
X133454900Y-100896653D01*
X133609772Y-100832503D01*
X133774184Y-100799800D01*
X133941816Y-100799800D01*
X134106228Y-100832503D01*
X134106228Y-100832503D01*
G37*
G36*
X131606228Y-100832503D02*
G01*
X131761100Y-100896653D01*
X131900481Y-100989785D01*
X132019015Y-101108319D01*
X132112147Y-101247700D01*
X132176297Y-101402572D01*
X132209000Y-101566984D01*
X132209000Y-101734616D01*
X132176297Y-101899028D01*
X132112147Y-102053900D01*
X132019015Y-102193281D01*
X131900481Y-102311815D01*
X131761100Y-102404947D01*
X131606228Y-102469097D01*
X131441816Y-102501800D01*
X131274184Y-102501800D01*
X131109772Y-102469097D01*
X130954900Y-102404947D01*
X130815519Y-102311815D01*
X130696985Y-102193281D01*
X130603853Y-102053900D01*
X130539703Y-101899028D01*
X130507000Y-101734616D01*
X130507000Y-101566984D01*
X130539703Y-101402572D01*
X130603853Y-101247700D01*
X130696985Y-101108319D01*
X130815519Y-100989785D01*
X130954900Y-100896653D01*
X131109772Y-100832503D01*
X131274184Y-100799800D01*
X131441816Y-100799800D01*
X131606228Y-100832503D01*
X131606228Y-100832503D01*
G37*
G36*
X149008400Y-102297800D02*
G01*
X147206400Y-102297800D01*
X147206400Y-100495800D01*
X149008400Y-100495800D01*
X149008400Y-102297800D01*
X149008400Y-102297800D01*
G37*
G36*
X145249200Y-102297800D02*
G01*
X143447200Y-102297800D01*
X143447200Y-100495800D01*
X145249200Y-100495800D01*
X145249200Y-102297800D01*
X145249200Y-102297800D01*
G37*
G36*
X102501000Y-102297800D02*
G01*
X100699000Y-102297800D01*
X100699000Y-100495800D01*
X102501000Y-100495800D01*
X102501000Y-102297800D01*
X102501000Y-102297800D01*
G37*
G36*
X106311000Y-102297800D02*
G01*
X104509000Y-102297800D01*
X104509000Y-100495800D01*
X106311000Y-100495800D01*
X106311000Y-102297800D01*
X106311000Y-102297800D01*
G37*
G36*
X173617842Y-97454318D02*
G01*
X173684027Y-97460837D01*
X173853866Y-97512357D01*
X174010391Y-97596022D01*
X174046129Y-97625352D01*
X174147586Y-97708614D01*
X174230848Y-97810071D01*
X174260178Y-97845809D01*
X174343843Y-98002334D01*
X174395363Y-98172173D01*
X174412759Y-98348800D01*
X174395363Y-98525427D01*
X174343843Y-98695266D01*
X174260178Y-98851791D01*
X174230848Y-98887529D01*
X174147586Y-98988986D01*
X174046129Y-99072248D01*
X174010391Y-99101578D01*
X173853866Y-99185243D01*
X173684027Y-99236763D01*
X173617843Y-99243281D01*
X173551660Y-99249800D01*
X173463140Y-99249800D01*
X173396957Y-99243281D01*
X173330773Y-99236763D01*
X173160934Y-99185243D01*
X173004409Y-99101578D01*
X172968671Y-99072248D01*
X172867214Y-98988986D01*
X172783952Y-98887529D01*
X172754622Y-98851791D01*
X172670957Y-98695266D01*
X172619437Y-98525427D01*
X172602041Y-98348800D01*
X172619437Y-98172173D01*
X172670957Y-98002334D01*
X172754622Y-97845809D01*
X172783952Y-97810071D01*
X172867214Y-97708614D01*
X172968671Y-97625352D01*
X173004409Y-97596022D01*
X173160934Y-97512357D01*
X173330773Y-97460837D01*
X173396957Y-97454319D01*
X173463140Y-97447800D01*
X173551660Y-97447800D01*
X173617842Y-97454318D01*
X173617842Y-97454318D01*
G37*
G36*
X176157842Y-97454318D02*
G01*
X176224027Y-97460837D01*
X176393866Y-97512357D01*
X176550391Y-97596022D01*
X176586129Y-97625352D01*
X176687586Y-97708614D01*
X176770848Y-97810071D01*
X176800178Y-97845809D01*
X176883843Y-98002334D01*
X176935363Y-98172173D01*
X176952759Y-98348800D01*
X176935363Y-98525427D01*
X176883843Y-98695266D01*
X176800178Y-98851791D01*
X176770848Y-98887529D01*
X176687586Y-98988986D01*
X176586129Y-99072248D01*
X176550391Y-99101578D01*
X176393866Y-99185243D01*
X176224027Y-99236763D01*
X176157843Y-99243281D01*
X176091660Y-99249800D01*
X176003140Y-99249800D01*
X175936957Y-99243281D01*
X175870773Y-99236763D01*
X175700934Y-99185243D01*
X175544409Y-99101578D01*
X175508671Y-99072248D01*
X175407214Y-98988986D01*
X175323952Y-98887529D01*
X175294622Y-98851791D01*
X175210957Y-98695266D01*
X175159437Y-98525427D01*
X175142041Y-98348800D01*
X175159437Y-98172173D01*
X175210957Y-98002334D01*
X175294622Y-97845809D01*
X175323952Y-97810071D01*
X175407214Y-97708614D01*
X175508671Y-97625352D01*
X175544409Y-97596022D01*
X175700934Y-97512357D01*
X175870773Y-97460837D01*
X175936957Y-97454319D01*
X176003140Y-97447800D01*
X176091660Y-97447800D01*
X176157842Y-97454318D01*
X176157842Y-97454318D01*
G37*
G36*
X131428442Y-97454318D02*
G01*
X131494627Y-97460837D01*
X131664466Y-97512357D01*
X131820991Y-97596022D01*
X131856729Y-97625352D01*
X131958186Y-97708614D01*
X132041448Y-97810071D01*
X132070778Y-97845809D01*
X132154443Y-98002334D01*
X132205963Y-98172173D01*
X132223359Y-98348800D01*
X132205963Y-98525427D01*
X132154443Y-98695266D01*
X132070778Y-98851791D01*
X132041448Y-98887529D01*
X131958186Y-98988986D01*
X131856729Y-99072248D01*
X131820991Y-99101578D01*
X131664466Y-99185243D01*
X131494627Y-99236763D01*
X131428443Y-99243281D01*
X131362260Y-99249800D01*
X131273740Y-99249800D01*
X131207557Y-99243281D01*
X131141373Y-99236763D01*
X130971534Y-99185243D01*
X130815009Y-99101578D01*
X130779271Y-99072248D01*
X130677814Y-98988986D01*
X130594552Y-98887529D01*
X130565222Y-98851791D01*
X130481557Y-98695266D01*
X130430037Y-98525427D01*
X130412641Y-98348800D01*
X130430037Y-98172173D01*
X130481557Y-98002334D01*
X130565222Y-97845809D01*
X130594552Y-97810071D01*
X130677814Y-97708614D01*
X130779271Y-97625352D01*
X130815009Y-97596022D01*
X130971534Y-97512357D01*
X131141373Y-97460837D01*
X131207557Y-97454319D01*
X131273740Y-97447800D01*
X131362260Y-97447800D01*
X131428442Y-97454318D01*
X131428442Y-97454318D01*
G37*
G36*
X133968442Y-97454318D02*
G01*
X134034627Y-97460837D01*
X134204466Y-97512357D01*
X134360991Y-97596022D01*
X134396729Y-97625352D01*
X134498186Y-97708614D01*
X134581448Y-97810071D01*
X134610778Y-97845809D01*
X134694443Y-98002334D01*
X134745963Y-98172173D01*
X134763359Y-98348800D01*
X134745963Y-98525427D01*
X134694443Y-98695266D01*
X134610778Y-98851791D01*
X134581448Y-98887529D01*
X134498186Y-98988986D01*
X134396729Y-99072248D01*
X134360991Y-99101578D01*
X134204466Y-99185243D01*
X134034627Y-99236763D01*
X133968443Y-99243281D01*
X133902260Y-99249800D01*
X133813740Y-99249800D01*
X133747557Y-99243281D01*
X133681373Y-99236763D01*
X133511534Y-99185243D01*
X133355009Y-99101578D01*
X133319271Y-99072248D01*
X133217814Y-98988986D01*
X133134552Y-98887529D01*
X133105222Y-98851791D01*
X133021557Y-98695266D01*
X132970037Y-98525427D01*
X132952641Y-98348800D01*
X132970037Y-98172173D01*
X133021557Y-98002334D01*
X133105222Y-97845809D01*
X133134552Y-97810071D01*
X133217814Y-97708614D01*
X133319271Y-97625352D01*
X133355009Y-97596022D01*
X133511534Y-97512357D01*
X133681373Y-97460837D01*
X133747557Y-97454319D01*
X133813740Y-97447800D01*
X133902260Y-97447800D01*
X133968442Y-97454318D01*
X133968442Y-97454318D01*
G37*
G36*
X131428443Y-94914319D02*
G01*
X131494627Y-94920837D01*
X131664466Y-94972357D01*
X131820991Y-95056022D01*
X131856729Y-95085352D01*
X131958186Y-95168614D01*
X132041448Y-95270071D01*
X132070778Y-95305809D01*
X132154443Y-95462334D01*
X132205963Y-95632173D01*
X132223359Y-95808800D01*
X132205963Y-95985427D01*
X132154443Y-96155266D01*
X132070778Y-96311791D01*
X132041448Y-96347529D01*
X131958186Y-96448986D01*
X131856729Y-96532248D01*
X131820991Y-96561578D01*
X131664466Y-96645243D01*
X131494627Y-96696763D01*
X131428443Y-96703281D01*
X131362260Y-96709800D01*
X131273740Y-96709800D01*
X131207557Y-96703281D01*
X131141373Y-96696763D01*
X130971534Y-96645243D01*
X130815009Y-96561578D01*
X130779271Y-96532248D01*
X130677814Y-96448986D01*
X130594552Y-96347529D01*
X130565222Y-96311791D01*
X130481557Y-96155266D01*
X130430037Y-95985427D01*
X130412641Y-95808800D01*
X130430037Y-95632173D01*
X130481557Y-95462334D01*
X130565222Y-95305809D01*
X130594552Y-95270071D01*
X130677814Y-95168614D01*
X130779271Y-95085352D01*
X130815009Y-95056022D01*
X130971534Y-94972357D01*
X131141373Y-94920837D01*
X131207558Y-94914318D01*
X131273740Y-94907800D01*
X131362260Y-94907800D01*
X131428443Y-94914319D01*
X131428443Y-94914319D01*
G37*
G36*
X133968443Y-94914319D02*
G01*
X134034627Y-94920837D01*
X134204466Y-94972357D01*
X134360991Y-95056022D01*
X134396729Y-95085352D01*
X134498186Y-95168614D01*
X134581448Y-95270071D01*
X134610778Y-95305809D01*
X134694443Y-95462334D01*
X134745963Y-95632173D01*
X134763359Y-95808800D01*
X134745963Y-95985427D01*
X134694443Y-96155266D01*
X134610778Y-96311791D01*
X134581448Y-96347529D01*
X134498186Y-96448986D01*
X134396729Y-96532248D01*
X134360991Y-96561578D01*
X134204466Y-96645243D01*
X134034627Y-96696763D01*
X133968443Y-96703281D01*
X133902260Y-96709800D01*
X133813740Y-96709800D01*
X133747557Y-96703281D01*
X133681373Y-96696763D01*
X133511534Y-96645243D01*
X133355009Y-96561578D01*
X133319271Y-96532248D01*
X133217814Y-96448986D01*
X133134552Y-96347529D01*
X133105222Y-96311791D01*
X133021557Y-96155266D01*
X132970037Y-95985427D01*
X132952641Y-95808800D01*
X132970037Y-95632173D01*
X133021557Y-95462334D01*
X133105222Y-95305809D01*
X133134552Y-95270071D01*
X133217814Y-95168614D01*
X133319271Y-95085352D01*
X133355009Y-95056022D01*
X133511534Y-94972357D01*
X133681373Y-94920837D01*
X133747558Y-94914318D01*
X133813740Y-94907800D01*
X133902260Y-94907800D01*
X133968443Y-94914319D01*
X133968443Y-94914319D01*
G37*
G36*
X176157843Y-94914319D02*
G01*
X176224027Y-94920837D01*
X176393866Y-94972357D01*
X176550391Y-95056022D01*
X176586129Y-95085352D01*
X176687586Y-95168614D01*
X176770848Y-95270071D01*
X176800178Y-95305809D01*
X176883843Y-95462334D01*
X176935363Y-95632173D01*
X176952759Y-95808800D01*
X176935363Y-95985427D01*
X176883843Y-96155266D01*
X176800178Y-96311791D01*
X176770848Y-96347529D01*
X176687586Y-96448986D01*
X176586129Y-96532248D01*
X176550391Y-96561578D01*
X176393866Y-96645243D01*
X176224027Y-96696763D01*
X176157843Y-96703281D01*
X176091660Y-96709800D01*
X176003140Y-96709800D01*
X175936957Y-96703281D01*
X175870773Y-96696763D01*
X175700934Y-96645243D01*
X175544409Y-96561578D01*
X175508671Y-96532248D01*
X175407214Y-96448986D01*
X175323952Y-96347529D01*
X175294622Y-96311791D01*
X175210957Y-96155266D01*
X175159437Y-95985427D01*
X175142041Y-95808800D01*
X175159437Y-95632173D01*
X175210957Y-95462334D01*
X175294622Y-95305809D01*
X175323952Y-95270071D01*
X175407214Y-95168614D01*
X175508671Y-95085352D01*
X175544409Y-95056022D01*
X175700934Y-94972357D01*
X175870773Y-94920837D01*
X175936958Y-94914318D01*
X176003140Y-94907800D01*
X176091660Y-94907800D01*
X176157843Y-94914319D01*
X176157843Y-94914319D01*
G37*
G36*
X173617843Y-94914319D02*
G01*
X173684027Y-94920837D01*
X173853866Y-94972357D01*
X174010391Y-95056022D01*
X174046129Y-95085352D01*
X174147586Y-95168614D01*
X174230848Y-95270071D01*
X174260178Y-95305809D01*
X174343843Y-95462334D01*
X174395363Y-95632173D01*
X174412759Y-95808800D01*
X174395363Y-95985427D01*
X174343843Y-96155266D01*
X174260178Y-96311791D01*
X174230848Y-96347529D01*
X174147586Y-96448986D01*
X174046129Y-96532248D01*
X174010391Y-96561578D01*
X173853866Y-96645243D01*
X173684027Y-96696763D01*
X173617843Y-96703281D01*
X173551660Y-96709800D01*
X173463140Y-96709800D01*
X173396957Y-96703281D01*
X173330773Y-96696763D01*
X173160934Y-96645243D01*
X173004409Y-96561578D01*
X172968671Y-96532248D01*
X172867214Y-96448986D01*
X172783952Y-96347529D01*
X172754622Y-96311791D01*
X172670957Y-96155266D01*
X172619437Y-95985427D01*
X172602041Y-95808800D01*
X172619437Y-95632173D01*
X172670957Y-95462334D01*
X172754622Y-95305809D01*
X172783952Y-95270071D01*
X172867214Y-95168614D01*
X172968671Y-95085352D01*
X173004409Y-95056022D01*
X173160934Y-94972357D01*
X173330773Y-94920837D01*
X173396958Y-94914318D01*
X173463140Y-94907800D01*
X173551660Y-94907800D01*
X173617843Y-94914319D01*
X173617843Y-94914319D01*
G37*
G36*
X131428443Y-92374319D02*
G01*
X131494627Y-92380837D01*
X131664466Y-92432357D01*
X131820991Y-92516022D01*
X131856729Y-92545352D01*
X131958186Y-92628614D01*
X132041448Y-92730071D01*
X132070778Y-92765809D01*
X132154443Y-92922334D01*
X132205963Y-93092173D01*
X132223359Y-93268800D01*
X132205963Y-93445427D01*
X132154443Y-93615266D01*
X132070778Y-93771791D01*
X132041448Y-93807529D01*
X131958186Y-93908986D01*
X131856729Y-93992248D01*
X131820991Y-94021578D01*
X131664466Y-94105243D01*
X131494627Y-94156763D01*
X131428443Y-94163281D01*
X131362260Y-94169800D01*
X131273740Y-94169800D01*
X131207558Y-94163282D01*
X131141373Y-94156763D01*
X130971534Y-94105243D01*
X130815009Y-94021578D01*
X130779271Y-93992248D01*
X130677814Y-93908986D01*
X130594552Y-93807529D01*
X130565222Y-93771791D01*
X130481557Y-93615266D01*
X130430037Y-93445427D01*
X130412641Y-93268800D01*
X130430037Y-93092173D01*
X130481557Y-92922334D01*
X130565222Y-92765809D01*
X130594552Y-92730071D01*
X130677814Y-92628614D01*
X130779271Y-92545352D01*
X130815009Y-92516022D01*
X130971534Y-92432357D01*
X131141373Y-92380837D01*
X131207557Y-92374319D01*
X131273740Y-92367800D01*
X131362260Y-92367800D01*
X131428443Y-92374319D01*
X131428443Y-92374319D01*
G37*
G36*
X133968443Y-92374319D02*
G01*
X134034627Y-92380837D01*
X134204466Y-92432357D01*
X134360991Y-92516022D01*
X134396729Y-92545352D01*
X134498186Y-92628614D01*
X134581448Y-92730071D01*
X134610778Y-92765809D01*
X134694443Y-92922334D01*
X134745963Y-93092173D01*
X134763359Y-93268800D01*
X134745963Y-93445427D01*
X134694443Y-93615266D01*
X134610778Y-93771791D01*
X134581448Y-93807529D01*
X134498186Y-93908986D01*
X134396729Y-93992248D01*
X134360991Y-94021578D01*
X134204466Y-94105243D01*
X134034627Y-94156763D01*
X133968443Y-94163281D01*
X133902260Y-94169800D01*
X133813740Y-94169800D01*
X133747558Y-94163282D01*
X133681373Y-94156763D01*
X133511534Y-94105243D01*
X133355009Y-94021578D01*
X133319271Y-93992248D01*
X133217814Y-93908986D01*
X133134552Y-93807529D01*
X133105222Y-93771791D01*
X133021557Y-93615266D01*
X132970037Y-93445427D01*
X132952641Y-93268800D01*
X132970037Y-93092173D01*
X133021557Y-92922334D01*
X133105222Y-92765809D01*
X133134552Y-92730071D01*
X133217814Y-92628614D01*
X133319271Y-92545352D01*
X133355009Y-92516022D01*
X133511534Y-92432357D01*
X133681373Y-92380837D01*
X133747557Y-92374319D01*
X133813740Y-92367800D01*
X133902260Y-92367800D01*
X133968443Y-92374319D01*
X133968443Y-92374319D01*
G37*
G36*
X176157843Y-92374319D02*
G01*
X176224027Y-92380837D01*
X176393866Y-92432357D01*
X176550391Y-92516022D01*
X176586129Y-92545352D01*
X176687586Y-92628614D01*
X176770848Y-92730071D01*
X176800178Y-92765809D01*
X176883843Y-92922334D01*
X176935363Y-93092173D01*
X176952759Y-93268800D01*
X176935363Y-93445427D01*
X176883843Y-93615266D01*
X176800178Y-93771791D01*
X176770848Y-93807529D01*
X176687586Y-93908986D01*
X176586129Y-93992248D01*
X176550391Y-94021578D01*
X176393866Y-94105243D01*
X176224027Y-94156763D01*
X176157843Y-94163281D01*
X176091660Y-94169800D01*
X176003140Y-94169800D01*
X175936958Y-94163282D01*
X175870773Y-94156763D01*
X175700934Y-94105243D01*
X175544409Y-94021578D01*
X175508671Y-93992248D01*
X175407214Y-93908986D01*
X175323952Y-93807529D01*
X175294622Y-93771791D01*
X175210957Y-93615266D01*
X175159437Y-93445427D01*
X175142041Y-93268800D01*
X175159437Y-93092173D01*
X175210957Y-92922334D01*
X175294622Y-92765809D01*
X175323952Y-92730071D01*
X175407214Y-92628614D01*
X175508671Y-92545352D01*
X175544409Y-92516022D01*
X175700934Y-92432357D01*
X175870773Y-92380837D01*
X175936957Y-92374319D01*
X176003140Y-92367800D01*
X176091660Y-92367800D01*
X176157843Y-92374319D01*
X176157843Y-92374319D01*
G37*
G36*
X173617843Y-92374319D02*
G01*
X173684027Y-92380837D01*
X173853866Y-92432357D01*
X174010391Y-92516022D01*
X174046129Y-92545352D01*
X174147586Y-92628614D01*
X174230848Y-92730071D01*
X174260178Y-92765809D01*
X174343843Y-92922334D01*
X174395363Y-93092173D01*
X174412759Y-93268800D01*
X174395363Y-93445427D01*
X174343843Y-93615266D01*
X174260178Y-93771791D01*
X174230848Y-93807529D01*
X174147586Y-93908986D01*
X174046129Y-93992248D01*
X174010391Y-94021578D01*
X173853866Y-94105243D01*
X173684027Y-94156763D01*
X173617843Y-94163281D01*
X173551660Y-94169800D01*
X173463140Y-94169800D01*
X173396958Y-94163282D01*
X173330773Y-94156763D01*
X173160934Y-94105243D01*
X173004409Y-94021578D01*
X172968671Y-93992248D01*
X172867214Y-93908986D01*
X172783952Y-93807529D01*
X172754622Y-93771791D01*
X172670957Y-93615266D01*
X172619437Y-93445427D01*
X172602041Y-93268800D01*
X172619437Y-93092173D01*
X172670957Y-92922334D01*
X172754622Y-92765809D01*
X172783952Y-92730071D01*
X172867214Y-92628614D01*
X172968671Y-92545352D01*
X173004409Y-92516022D01*
X173160934Y-92432357D01*
X173330773Y-92380837D01*
X173396957Y-92374319D01*
X173463140Y-92367800D01*
X173551660Y-92367800D01*
X173617843Y-92374319D01*
X173617843Y-92374319D01*
G37*
G36*
X174408400Y-91629800D02*
G01*
X172606400Y-91629800D01*
X172606400Y-89827800D01*
X174408400Y-89827800D01*
X174408400Y-91629800D01*
X174408400Y-91629800D01*
G37*
G36*
X176157842Y-89834318D02*
G01*
X176224027Y-89840837D01*
X176393866Y-89892357D01*
X176550391Y-89976022D01*
X176575279Y-89996447D01*
X176687586Y-90088614D01*
X176770848Y-90190071D01*
X176800178Y-90225809D01*
X176883843Y-90382334D01*
X176935363Y-90552173D01*
X176952759Y-90728800D01*
X176935363Y-90905427D01*
X176883843Y-91075266D01*
X176800178Y-91231791D01*
X176770848Y-91267529D01*
X176687586Y-91368986D01*
X176586129Y-91452248D01*
X176550391Y-91481578D01*
X176393866Y-91565243D01*
X176224027Y-91616763D01*
X176157843Y-91623281D01*
X176091660Y-91629800D01*
X176003140Y-91629800D01*
X175936957Y-91623281D01*
X175870773Y-91616763D01*
X175700934Y-91565243D01*
X175544409Y-91481578D01*
X175508671Y-91452248D01*
X175407214Y-91368986D01*
X175323952Y-91267529D01*
X175294622Y-91231791D01*
X175210957Y-91075266D01*
X175159437Y-90905427D01*
X175142041Y-90728800D01*
X175159437Y-90552173D01*
X175210957Y-90382334D01*
X175294622Y-90225809D01*
X175323952Y-90190071D01*
X175407214Y-90088614D01*
X175519521Y-89996447D01*
X175544409Y-89976022D01*
X175700934Y-89892357D01*
X175870773Y-89840837D01*
X175936958Y-89834318D01*
X176003140Y-89827800D01*
X176091660Y-89827800D01*
X176157842Y-89834318D01*
X176157842Y-89834318D01*
G37*
G36*
X133968442Y-89834318D02*
G01*
X134034627Y-89840837D01*
X134204466Y-89892357D01*
X134360991Y-89976022D01*
X134385879Y-89996447D01*
X134498186Y-90088614D01*
X134581448Y-90190071D01*
X134610778Y-90225809D01*
X134694443Y-90382334D01*
X134745963Y-90552173D01*
X134763359Y-90728800D01*
X134745963Y-90905427D01*
X134694443Y-91075266D01*
X134610778Y-91231791D01*
X134581448Y-91267529D01*
X134498186Y-91368986D01*
X134396729Y-91452248D01*
X134360991Y-91481578D01*
X134204466Y-91565243D01*
X134034627Y-91616763D01*
X133968443Y-91623281D01*
X133902260Y-91629800D01*
X133813740Y-91629800D01*
X133747557Y-91623281D01*
X133681373Y-91616763D01*
X133511534Y-91565243D01*
X133355009Y-91481578D01*
X133319271Y-91452248D01*
X133217814Y-91368986D01*
X133134552Y-91267529D01*
X133105222Y-91231791D01*
X133021557Y-91075266D01*
X132970037Y-90905427D01*
X132952641Y-90728800D01*
X132970037Y-90552173D01*
X133021557Y-90382334D01*
X133105222Y-90225809D01*
X133134552Y-90190071D01*
X133217814Y-90088614D01*
X133330121Y-89996447D01*
X133355009Y-89976022D01*
X133511534Y-89892357D01*
X133681373Y-89840837D01*
X133747558Y-89834318D01*
X133813740Y-89827800D01*
X133902260Y-89827800D01*
X133968442Y-89834318D01*
X133968442Y-89834318D01*
G37*
G36*
X132219000Y-91629800D02*
G01*
X130417000Y-91629800D01*
X130417000Y-89827800D01*
X132219000Y-89827800D01*
X132219000Y-91629800D01*
X132219000Y-91629800D01*
G37*
G36*
X140283797Y-88927367D02*
G01*
X140338575Y-88950057D01*
X140338577Y-88950058D01*
X140387876Y-88982998D01*
X140429802Y-89024924D01*
X140462742Y-89074223D01*
X140462743Y-89074225D01*
X140485433Y-89129003D01*
X140497000Y-89187153D01*
X140497000Y-89246447D01*
X140485433Y-89304597D01*
X140462743Y-89359375D01*
X140462742Y-89359377D01*
X140429802Y-89408676D01*
X140387876Y-89450602D01*
X140338577Y-89483542D01*
X140332104Y-89487867D01*
X140313162Y-89503412D01*
X140297617Y-89522354D01*
X140286066Y-89543965D01*
X140278953Y-89567414D01*
X140276551Y-89591800D01*
X140278953Y-89616186D01*
X140286066Y-89639635D01*
X140297617Y-89661246D01*
X140313162Y-89680188D01*
X140332104Y-89695733D01*
X140338577Y-89700058D01*
X140387876Y-89732998D01*
X140429802Y-89774924D01*
X140462742Y-89824223D01*
X140462743Y-89824225D01*
X140485433Y-89879003D01*
X140497000Y-89937153D01*
X140497000Y-89996447D01*
X140485433Y-90054597D01*
X140471342Y-90088615D01*
X140462742Y-90109377D01*
X140429802Y-90158676D01*
X140387876Y-90200602D01*
X140350150Y-90225809D01*
X140332104Y-90237867D01*
X140313162Y-90253412D01*
X140297617Y-90272354D01*
X140286066Y-90293965D01*
X140278953Y-90317414D01*
X140276551Y-90341800D01*
X140278953Y-90366186D01*
X140286066Y-90389635D01*
X140297617Y-90411246D01*
X140313162Y-90430188D01*
X140332104Y-90445733D01*
X140338577Y-90450058D01*
X140387876Y-90482998D01*
X140429802Y-90524924D01*
X140448010Y-90552175D01*
X140462743Y-90574225D01*
X140485433Y-90629003D01*
X140497000Y-90687153D01*
X140497000Y-90746447D01*
X140485433Y-90804597D01*
X140462743Y-90859375D01*
X140462742Y-90859377D01*
X140429802Y-90908676D01*
X140387876Y-90950602D01*
X140338577Y-90983542D01*
X140338576Y-90983543D01*
X140338575Y-90983543D01*
X140283797Y-91006233D01*
X140225647Y-91017800D01*
X140166353Y-91017800D01*
X140108203Y-91006233D01*
X140053425Y-90983543D01*
X140053424Y-90983543D01*
X140053423Y-90983542D01*
X140004124Y-90950602D01*
X139962198Y-90908676D01*
X139929258Y-90859377D01*
X139929257Y-90859375D01*
X139906567Y-90804597D01*
X139895000Y-90746447D01*
X139895000Y-90687153D01*
X139906567Y-90629003D01*
X139929257Y-90574225D01*
X139943990Y-90552175D01*
X139962198Y-90524924D01*
X140004124Y-90482998D01*
X140053423Y-90450058D01*
X140059896Y-90445733D01*
X140078838Y-90430188D01*
X140094383Y-90411246D01*
X140105934Y-90389635D01*
X140113047Y-90366186D01*
X140115449Y-90341800D01*
X140113047Y-90317414D01*
X140105934Y-90293965D01*
X140094383Y-90272354D01*
X140078838Y-90253412D01*
X140059896Y-90237867D01*
X140041850Y-90225809D01*
X140004124Y-90200602D01*
X139962198Y-90158676D01*
X139929258Y-90109377D01*
X139920658Y-90088615D01*
X139906567Y-90054597D01*
X139895000Y-89996447D01*
X139895000Y-89937153D01*
X139906567Y-89879003D01*
X139929257Y-89824225D01*
X139929258Y-89824223D01*
X139962198Y-89774924D01*
X140004124Y-89732998D01*
X140053423Y-89700058D01*
X140059896Y-89695733D01*
X140078838Y-89680188D01*
X140094383Y-89661246D01*
X140105934Y-89639635D01*
X140113047Y-89616186D01*
X140115449Y-89591800D01*
X140113047Y-89567414D01*
X140105934Y-89543965D01*
X140094383Y-89522354D01*
X140078838Y-89503412D01*
X140059896Y-89487867D01*
X140053423Y-89483542D01*
X140004124Y-89450602D01*
X139962198Y-89408676D01*
X139929258Y-89359377D01*
X139929257Y-89359375D01*
X139906567Y-89304597D01*
X139895000Y-89246447D01*
X139895000Y-89187153D01*
X139906567Y-89129003D01*
X139929257Y-89074225D01*
X139929258Y-89074223D01*
X139962198Y-89024924D01*
X140004124Y-88982998D01*
X140053423Y-88950058D01*
X140053425Y-88950057D01*
X140108203Y-88927367D01*
X140166353Y-88915800D01*
X140225647Y-88915800D01*
X140283797Y-88927367D01*
X140283797Y-88927367D01*
G37*
G36*
X138783797Y-88927367D02*
G01*
X138838575Y-88950057D01*
X138838577Y-88950058D01*
X138887876Y-88982998D01*
X138929802Y-89024924D01*
X138962742Y-89074223D01*
X138962743Y-89074225D01*
X138985433Y-89129003D01*
X138997000Y-89187153D01*
X138997000Y-89246447D01*
X138985433Y-89304597D01*
X138962743Y-89359375D01*
X138962742Y-89359377D01*
X138929802Y-89408676D01*
X138887876Y-89450602D01*
X138838577Y-89483542D01*
X138832104Y-89487867D01*
X138813162Y-89503412D01*
X138797617Y-89522354D01*
X138786066Y-89543965D01*
X138778953Y-89567414D01*
X138776551Y-89591800D01*
X138778953Y-89616186D01*
X138786066Y-89639635D01*
X138797617Y-89661246D01*
X138813162Y-89680188D01*
X138832104Y-89695733D01*
X138838577Y-89700058D01*
X138887876Y-89732998D01*
X138929802Y-89774924D01*
X138962742Y-89824223D01*
X138962743Y-89824225D01*
X138985433Y-89879003D01*
X138997000Y-89937153D01*
X138997000Y-89996447D01*
X138985433Y-90054597D01*
X138971342Y-90088615D01*
X138962742Y-90109377D01*
X138929802Y-90158676D01*
X138887876Y-90200602D01*
X138850150Y-90225809D01*
X138832104Y-90237867D01*
X138813162Y-90253412D01*
X138797617Y-90272354D01*
X138786066Y-90293965D01*
X138778953Y-90317414D01*
X138776551Y-90341800D01*
X138778953Y-90366186D01*
X138786066Y-90389635D01*
X138797617Y-90411246D01*
X138813162Y-90430188D01*
X138832104Y-90445733D01*
X138838577Y-90450058D01*
X138887876Y-90482998D01*
X138929802Y-90524924D01*
X138948010Y-90552175D01*
X138962743Y-90574225D01*
X138985433Y-90629003D01*
X138997000Y-90687153D01*
X138997000Y-90746447D01*
X138985433Y-90804597D01*
X138962743Y-90859375D01*
X138962742Y-90859377D01*
X138929802Y-90908676D01*
X138887876Y-90950602D01*
X138838577Y-90983542D01*
X138838576Y-90983543D01*
X138838575Y-90983543D01*
X138783797Y-91006233D01*
X138725647Y-91017800D01*
X138666353Y-91017800D01*
X138608203Y-91006233D01*
X138553425Y-90983543D01*
X138553424Y-90983543D01*
X138553423Y-90983542D01*
X138504124Y-90950602D01*
X138462198Y-90908676D01*
X138429258Y-90859377D01*
X138429257Y-90859375D01*
X138406567Y-90804597D01*
X138395000Y-90746447D01*
X138395000Y-90687153D01*
X138406567Y-90629003D01*
X138429257Y-90574225D01*
X138443990Y-90552175D01*
X138462198Y-90524924D01*
X138504124Y-90482998D01*
X138553423Y-90450058D01*
X138559896Y-90445733D01*
X138578838Y-90430188D01*
X138594383Y-90411246D01*
X138605934Y-90389635D01*
X138613047Y-90366186D01*
X138615449Y-90341800D01*
X138613047Y-90317414D01*
X138605934Y-90293965D01*
X138594383Y-90272354D01*
X138578838Y-90253412D01*
X138559896Y-90237867D01*
X138541850Y-90225809D01*
X138504124Y-90200602D01*
X138462198Y-90158676D01*
X138429258Y-90109377D01*
X138420658Y-90088615D01*
X138406567Y-90054597D01*
X138395000Y-89996447D01*
X138395000Y-89937153D01*
X138406567Y-89879003D01*
X138429257Y-89824225D01*
X138429258Y-89824223D01*
X138462198Y-89774924D01*
X138504124Y-89732998D01*
X138553423Y-89700058D01*
X138559896Y-89695733D01*
X138578838Y-89680188D01*
X138594383Y-89661246D01*
X138605934Y-89639635D01*
X138613047Y-89616186D01*
X138615449Y-89591800D01*
X138613047Y-89567414D01*
X138605934Y-89543965D01*
X138594383Y-89522354D01*
X138578838Y-89503412D01*
X138559896Y-89487867D01*
X138553423Y-89483542D01*
X138504124Y-89450602D01*
X138462198Y-89408676D01*
X138429258Y-89359377D01*
X138429257Y-89359375D01*
X138406567Y-89304597D01*
X138395000Y-89246447D01*
X138395000Y-89187153D01*
X138406567Y-89129003D01*
X138429257Y-89074225D01*
X138429258Y-89074223D01*
X138462198Y-89024924D01*
X138504124Y-88982998D01*
X138553423Y-88950058D01*
X138553425Y-88950057D01*
X138608203Y-88927367D01*
X138666353Y-88915800D01*
X138725647Y-88915800D01*
X138783797Y-88927367D01*
X138783797Y-88927367D01*
G37*
G36*
X143554564Y-84604789D02*
G01*
X143745833Y-84684015D01*
X143745835Y-84684016D01*
X143917973Y-84799035D01*
X144064365Y-84945427D01*
X144179385Y-85117567D01*
X144258611Y-85308836D01*
X144299000Y-85511884D01*
X144299000Y-85718916D01*
X144258611Y-85921964D01*
X144179385Y-86113233D01*
X144179384Y-86113235D01*
X144064365Y-86285373D01*
X143917973Y-86431765D01*
X143745835Y-86546784D01*
X143745834Y-86546785D01*
X143745833Y-86546785D01*
X143554564Y-86626011D01*
X143351516Y-86666400D01*
X143144484Y-86666400D01*
X142941436Y-86626011D01*
X142750167Y-86546785D01*
X142750166Y-86546785D01*
X142750165Y-86546784D01*
X142578027Y-86431765D01*
X142431635Y-86285373D01*
X142316616Y-86113235D01*
X142316615Y-86113233D01*
X142237389Y-85921964D01*
X142197000Y-85718916D01*
X142197000Y-85511884D01*
X142237389Y-85308836D01*
X142316615Y-85117567D01*
X142431635Y-84945427D01*
X142578027Y-84799035D01*
X142750165Y-84684016D01*
X142750167Y-84684015D01*
X142941436Y-84604789D01*
X143144484Y-84564400D01*
X143351516Y-84564400D01*
X143554564Y-84604789D01*
X143554564Y-84604789D01*
G37*
G36*
X178673364Y-84604789D02*
G01*
X178864633Y-84684015D01*
X178864635Y-84684016D01*
X179036773Y-84799035D01*
X179183165Y-84945427D01*
X179298185Y-85117567D01*
X179377411Y-85308836D01*
X179417800Y-85511884D01*
X179417800Y-85718916D01*
X179377411Y-85921964D01*
X179298185Y-86113233D01*
X179298184Y-86113235D01*
X179183165Y-86285373D01*
X179036773Y-86431765D01*
X178864635Y-86546784D01*
X178864634Y-86546785D01*
X178864633Y-86546785D01*
X178673364Y-86626011D01*
X178470316Y-86666400D01*
X178263284Y-86666400D01*
X178060236Y-86626011D01*
X177868967Y-86546785D01*
X177868966Y-86546785D01*
X177868965Y-86546784D01*
X177696827Y-86431765D01*
X177550435Y-86285373D01*
X177435416Y-86113235D01*
X177435415Y-86113233D01*
X177356189Y-85921964D01*
X177315800Y-85718916D01*
X177315800Y-85511884D01*
X177356189Y-85308836D01*
X177435415Y-85117567D01*
X177550435Y-84945427D01*
X177696827Y-84799035D01*
X177868965Y-84684016D01*
X177868967Y-84684015D01*
X178060236Y-84604789D01*
X178263284Y-84564400D01*
X178470316Y-84564400D01*
X178673364Y-84604789D01*
X178673364Y-84604789D01*
G37*
G36*
X135975964Y-84604789D02*
G01*
X136167233Y-84684015D01*
X136167235Y-84684016D01*
X136339373Y-84799035D01*
X136485765Y-84945427D01*
X136600785Y-85117567D01*
X136680011Y-85308836D01*
X136720400Y-85511884D01*
X136720400Y-85718916D01*
X136680011Y-85921964D01*
X136600785Y-86113233D01*
X136600784Y-86113235D01*
X136485765Y-86285373D01*
X136339373Y-86431765D01*
X136167235Y-86546784D01*
X136167234Y-86546785D01*
X136167233Y-86546785D01*
X135975964Y-86626011D01*
X135772916Y-86666400D01*
X135565884Y-86666400D01*
X135362836Y-86626011D01*
X135171567Y-86546785D01*
X135171566Y-86546785D01*
X135171565Y-86546784D01*
X134999427Y-86431765D01*
X134853035Y-86285373D01*
X134738016Y-86113235D01*
X134738015Y-86113233D01*
X134658789Y-85921964D01*
X134618400Y-85718916D01*
X134618400Y-85511884D01*
X134658789Y-85308836D01*
X134738015Y-85117567D01*
X134853035Y-84945427D01*
X134999427Y-84799035D01*
X135171565Y-84684016D01*
X135171567Y-84684015D01*
X135362836Y-84604789D01*
X135565884Y-84564400D01*
X135772916Y-84564400D01*
X135975964Y-84604789D01*
X135975964Y-84604789D01*
G37*
G36*
X100882564Y-84604789D02*
G01*
X101073833Y-84684015D01*
X101073835Y-84684016D01*
X101245973Y-84799035D01*
X101392365Y-84945427D01*
X101507385Y-85117567D01*
X101586611Y-85308836D01*
X101627000Y-85511884D01*
X101627000Y-85718916D01*
X101586611Y-85921964D01*
X101507385Y-86113233D01*
X101507384Y-86113235D01*
X101392365Y-86285373D01*
X101245973Y-86431765D01*
X101073835Y-86546784D01*
X101073834Y-86546785D01*
X101073833Y-86546785D01*
X100882564Y-86626011D01*
X100679516Y-86666400D01*
X100472484Y-86666400D01*
X100269436Y-86626011D01*
X100078167Y-86546785D01*
X100078166Y-86546785D01*
X100078165Y-86546784D01*
X99906027Y-86431765D01*
X99759635Y-86285373D01*
X99644616Y-86113235D01*
X99644615Y-86113233D01*
X99565389Y-85921964D01*
X99525000Y-85718916D01*
X99525000Y-85511884D01*
X99565389Y-85308836D01*
X99644615Y-85117567D01*
X99759635Y-84945427D01*
X99906027Y-84799035D01*
X100078165Y-84684016D01*
X100078167Y-84684015D01*
X100269436Y-84604789D01*
X100472484Y-84564400D01*
X100679516Y-84564400D01*
X100882564Y-84604789D01*
X100882564Y-84604789D01*
G37*
M02*
