G04 #@! TF.GenerationSoftware,KiCad,Pcbnew,(5.1.4-0-10_14)*
G04 #@! TF.CreationDate,2020-03-12T21:14:11-05:00*
G04 #@! TF.ProjectId,I2C_Front_Forearm_Mini,4932435f-4672-46f6-9e74-5f466f726561,rev?*
G04 #@! TF.SameCoordinates,Original*
G04 #@! TF.FileFunction,Legend,Top*
G04 #@! TF.FilePolarity,Positive*
%FSLAX46Y46*%
G04 Gerber Fmt 4.6, Leading zero omitted, Abs format (unit mm)*
G04 Created by KiCad (PCBNEW (5.1.4-0-10_14)) date 2020-03-12 21:14:11*
%MOMM*%
%LPD*%
G04 APERTURE LIST*
%ADD10C,0.200000*%
%ADD11C,0.120000*%
%ADD12C,0.100000*%
%ADD13C,0.150000*%
%ADD14C,0.254000*%
G04 APERTURE END LIST*
D10*
X170498523Y-132333380D02*
X170498523Y-133047666D01*
X170450904Y-133190523D01*
X170355666Y-133285761D01*
X170212809Y-133333380D01*
X170117571Y-133333380D01*
X170974714Y-132809571D02*
X171308047Y-132809571D01*
X171450904Y-133333380D02*
X170974714Y-133333380D01*
X170974714Y-132333380D01*
X171450904Y-132333380D01*
X172212809Y-132809571D02*
X171879476Y-132809571D01*
X171879476Y-133333380D02*
X171879476Y-132333380D01*
X172355666Y-132333380D01*
X173069952Y-132809571D02*
X172736619Y-132809571D01*
X172736619Y-133333380D02*
X172736619Y-132333380D01*
X173212809Y-132333380D01*
X174355666Y-133333380D02*
X174355666Y-132333380D01*
X174689000Y-133047666D01*
X175022333Y-132333380D01*
X175022333Y-133333380D01*
X175498523Y-133333380D02*
X175498523Y-132333380D01*
X175974714Y-133333380D02*
X175974714Y-132333380D01*
X176212809Y-132333380D01*
X176355666Y-132381000D01*
X176450904Y-132476238D01*
X176498523Y-132571476D01*
X176546142Y-132761952D01*
X176546142Y-132904809D01*
X176498523Y-133095285D01*
X176450904Y-133190523D01*
X176355666Y-133285761D01*
X176212809Y-133333380D01*
X175974714Y-133333380D01*
X176974714Y-133333380D02*
X176974714Y-132333380D01*
X178784238Y-133238142D02*
X178736619Y-133285761D01*
X178593761Y-133333380D01*
X178498523Y-133333380D01*
X178355666Y-133285761D01*
X178260428Y-133190523D01*
X178212809Y-133095285D01*
X178165190Y-132904809D01*
X178165190Y-132761952D01*
X178212809Y-132571476D01*
X178260428Y-132476238D01*
X178355666Y-132381000D01*
X178498523Y-132333380D01*
X178593761Y-132333380D01*
X178736619Y-132381000D01*
X178784238Y-132428619D01*
X179403285Y-132333380D02*
X179593761Y-132333380D01*
X179689000Y-132381000D01*
X179784238Y-132476238D01*
X179831857Y-132666714D01*
X179831857Y-133000047D01*
X179784238Y-133190523D01*
X179689000Y-133285761D01*
X179593761Y-133333380D01*
X179403285Y-133333380D01*
X179308047Y-133285761D01*
X179212809Y-133190523D01*
X179165190Y-133000047D01*
X179165190Y-132666714D01*
X179212809Y-132476238D01*
X179308047Y-132381000D01*
X179403285Y-132333380D01*
X180260428Y-133333380D02*
X180260428Y-132333380D01*
X180831857Y-133333380D01*
X180831857Y-132333380D01*
X181165190Y-132333380D02*
X181736619Y-132333380D01*
X181450904Y-133333380D02*
X181450904Y-132333380D01*
X182641380Y-133333380D02*
X182308047Y-132857190D01*
X182069952Y-133333380D02*
X182069952Y-132333380D01*
X182450904Y-132333380D01*
X182546142Y-132381000D01*
X182593761Y-132428619D01*
X182641380Y-132523857D01*
X182641380Y-132666714D01*
X182593761Y-132761952D01*
X182546142Y-132809571D01*
X182450904Y-132857190D01*
X182069952Y-132857190D01*
X183260428Y-132333380D02*
X183450904Y-132333380D01*
X183546142Y-132381000D01*
X183641380Y-132476238D01*
X183689000Y-132666714D01*
X183689000Y-133000047D01*
X183641380Y-133190523D01*
X183546142Y-133285761D01*
X183450904Y-133333380D01*
X183260428Y-133333380D01*
X183165190Y-133285761D01*
X183069952Y-133190523D01*
X183022333Y-133000047D01*
X183022333Y-132666714D01*
X183069952Y-132476238D01*
X183165190Y-132381000D01*
X183260428Y-132333380D01*
X184593761Y-133333380D02*
X184117571Y-133333380D01*
X184117571Y-132333380D01*
X185403285Y-133333380D02*
X184927095Y-133333380D01*
X184927095Y-132333380D01*
X185736619Y-132809571D02*
X186069952Y-132809571D01*
X186212809Y-133333380D02*
X185736619Y-133333380D01*
X185736619Y-132333380D01*
X186212809Y-132333380D01*
X187212809Y-133333380D02*
X186879476Y-132857190D01*
X186641380Y-133333380D02*
X186641380Y-132333380D01*
X187022333Y-132333380D01*
X187117571Y-132381000D01*
X187165190Y-132428619D01*
X187212809Y-132523857D01*
X187212809Y-132666714D01*
X187165190Y-132761952D01*
X187117571Y-132809571D01*
X187022333Y-132857190D01*
X186641380Y-132857190D01*
X172260428Y-134509571D02*
X171927095Y-134509571D01*
X171927095Y-135033380D02*
X171927095Y-134033380D01*
X172403285Y-134033380D01*
X173355666Y-135033380D02*
X173022333Y-134557190D01*
X172784238Y-135033380D02*
X172784238Y-134033380D01*
X173165190Y-134033380D01*
X173260428Y-134081000D01*
X173308047Y-134128619D01*
X173355666Y-134223857D01*
X173355666Y-134366714D01*
X173308047Y-134461952D01*
X173260428Y-134509571D01*
X173165190Y-134557190D01*
X172784238Y-134557190D01*
X173974714Y-134033380D02*
X174165190Y-134033380D01*
X174260428Y-134081000D01*
X174355666Y-134176238D01*
X174403285Y-134366714D01*
X174403285Y-134700047D01*
X174355666Y-134890523D01*
X174260428Y-134985761D01*
X174165190Y-135033380D01*
X173974714Y-135033380D01*
X173879476Y-134985761D01*
X173784238Y-134890523D01*
X173736619Y-134700047D01*
X173736619Y-134366714D01*
X173784238Y-134176238D01*
X173879476Y-134081000D01*
X173974714Y-134033380D01*
X174831857Y-135033380D02*
X174831857Y-134033380D01*
X175403285Y-135033380D01*
X175403285Y-134033380D01*
X175736619Y-134033380D02*
X176308047Y-134033380D01*
X176022333Y-135033380D02*
X176022333Y-134033380D01*
X177403285Y-135033380D02*
X177403285Y-134033380D01*
X177784238Y-134033380D01*
X177879476Y-134081000D01*
X177927095Y-134128619D01*
X177974714Y-134223857D01*
X177974714Y-134366714D01*
X177927095Y-134461952D01*
X177879476Y-134509571D01*
X177784238Y-134557190D01*
X177403285Y-134557190D01*
X178355666Y-134747666D02*
X178831857Y-134747666D01*
X178260428Y-135033380D02*
X178593761Y-134033380D01*
X178927095Y-135033380D01*
X179260428Y-135033380D02*
X179260428Y-134033380D01*
X179831857Y-135033380D01*
X179831857Y-134033380D01*
X180308047Y-134509571D02*
X180641380Y-134509571D01*
X180784238Y-135033380D02*
X180308047Y-135033380D01*
X180308047Y-134033380D01*
X180784238Y-134033380D01*
X181689000Y-135033380D02*
X181212809Y-135033380D01*
X181212809Y-134033380D01*
X182689000Y-134366714D02*
X182927095Y-135033380D01*
X183165190Y-134366714D01*
X184069952Y-135033380D02*
X183498523Y-135033380D01*
X183784238Y-135033380D02*
X183784238Y-134033380D01*
X183689000Y-134176238D01*
X183593761Y-134271476D01*
X183498523Y-134319095D01*
X184498523Y-134938142D02*
X184546142Y-134985761D01*
X184498523Y-135033380D01*
X184450904Y-134985761D01*
X184498523Y-134938142D01*
X184498523Y-135033380D01*
X185165190Y-134033380D02*
X185260428Y-134033380D01*
X185355666Y-134081000D01*
X185403285Y-134128619D01*
X185450904Y-134223857D01*
X185498523Y-134414333D01*
X185498523Y-134652428D01*
X185450904Y-134842904D01*
X185403285Y-134938142D01*
X185355666Y-134985761D01*
X185260428Y-135033380D01*
X185165190Y-135033380D01*
X185069952Y-134985761D01*
X185022333Y-134938142D01*
X184974714Y-134842904D01*
X184927095Y-134652428D01*
X184927095Y-134414333D01*
X184974714Y-134223857D01*
X185022333Y-134128619D01*
X185069952Y-134081000D01*
X185165190Y-134033380D01*
D11*
X134426000Y-132909000D02*
X134426000Y-134239000D01*
X133096000Y-132909000D02*
X134426000Y-132909000D01*
X131826000Y-132909000D02*
X131826000Y-135569000D01*
X131826000Y-135569000D02*
X126686000Y-135569000D01*
X131826000Y-132909000D02*
X126686000Y-132909000D01*
X126686000Y-132909000D02*
X126686000Y-135569000D01*
X121607000Y-120324000D02*
G75*
G03X121607000Y-124024000I0J-1850000D01*
G01*
X126307000Y-120324000D02*
G75*
G02X126307000Y-124024000I0J-1850000D01*
G01*
X126307000Y-120324000D02*
X121607000Y-120324000D01*
X126307000Y-124024000D02*
X121607000Y-124024000D01*
D12*
X127295000Y-81555000D02*
X126895000Y-81555000D01*
X127295000Y-81955000D02*
X127295000Y-81555000D01*
X120215000Y-82555000D02*
X120215000Y-83355000D01*
X121215000Y-81555000D02*
X120215000Y-82555000D01*
X121715000Y-81555000D02*
X121215000Y-81555000D01*
X120215000Y-83355000D02*
X119415000Y-83355000D01*
X120315000Y-119045000D02*
X120715000Y-119045000D01*
X120315000Y-118645000D02*
X120315000Y-119045000D01*
X127315000Y-119045000D02*
X126815000Y-119045000D01*
X127315000Y-118645000D02*
X127315000Y-119045000D01*
D11*
X161766000Y-118464000D02*
X161766000Y-118134000D01*
X155226000Y-118464000D02*
X161766000Y-118464000D01*
X155226000Y-118134000D02*
X155226000Y-118464000D01*
X161766000Y-115724000D02*
X161766000Y-116054000D01*
X155226000Y-115724000D02*
X161766000Y-115724000D01*
X155226000Y-116054000D02*
X155226000Y-115724000D01*
X161766000Y-99795000D02*
X161766000Y-99465000D01*
X155226000Y-99795000D02*
X161766000Y-99795000D01*
X155226000Y-99465000D02*
X155226000Y-99795000D01*
X161766000Y-97055000D02*
X161766000Y-97385000D01*
X155226000Y-97055000D02*
X161766000Y-97055000D01*
X155226000Y-97385000D02*
X155226000Y-97055000D01*
X161639000Y-80618000D02*
X161639000Y-80288000D01*
X155099000Y-80618000D02*
X161639000Y-80618000D01*
X155099000Y-80288000D02*
X155099000Y-80618000D01*
X161639000Y-77878000D02*
X161639000Y-78208000D01*
X155099000Y-77878000D02*
X161639000Y-77878000D01*
X155099000Y-78208000D02*
X155099000Y-77878000D01*
X131223000Y-77878000D02*
X131223000Y-78208000D01*
X137763000Y-77878000D02*
X131223000Y-77878000D01*
X137763000Y-78208000D02*
X137763000Y-77878000D01*
X131223000Y-80618000D02*
X131223000Y-80288000D01*
X137763000Y-80618000D02*
X131223000Y-80618000D01*
X137763000Y-80288000D02*
X137763000Y-80618000D01*
X141023000Y-77011000D02*
X141023000Y-78261000D01*
X142273000Y-77011000D02*
X141023000Y-77011000D01*
X148383000Y-81421000D02*
X148383000Y-80921000D01*
X148483000Y-80921000D02*
X148483000Y-81421000D01*
X148283000Y-80921000D02*
X148483000Y-80921000D01*
X148283000Y-81421000D02*
X148283000Y-80921000D01*
X146383000Y-81421000D02*
X146383000Y-80921000D01*
X146483000Y-80921000D02*
X146483000Y-81421000D01*
X146283000Y-80921000D02*
X146483000Y-80921000D01*
X146283000Y-81421000D02*
X146283000Y-80921000D01*
X144383000Y-81421000D02*
X144383000Y-80921000D01*
X144483000Y-80921000D02*
X144483000Y-81421000D01*
X144283000Y-80921000D02*
X144483000Y-80921000D01*
X144283000Y-81421000D02*
X144283000Y-80921000D01*
X151443000Y-79921000D02*
X150833000Y-79921000D01*
X151443000Y-78621000D02*
X150833000Y-78621000D01*
X141323000Y-79921000D02*
X141933000Y-79921000D01*
X141323000Y-78621000D02*
X141933000Y-78621000D01*
X148883000Y-77921000D02*
X148883000Y-77311000D01*
X150833000Y-77921000D02*
X148883000Y-77921000D01*
X150833000Y-81421000D02*
X150833000Y-77921000D01*
X141933000Y-81421000D02*
X150833000Y-81421000D01*
X141933000Y-77921000D02*
X141933000Y-81421000D01*
X143883000Y-77921000D02*
X141933000Y-77921000D01*
X143883000Y-77311000D02*
X143883000Y-77921000D01*
X143083000Y-77211000D02*
X142783000Y-77211000D01*
X142783000Y-77111000D02*
X142783000Y-77311000D01*
X143083000Y-77111000D02*
X142783000Y-77111000D01*
X143083000Y-77311000D02*
X143083000Y-77111000D01*
X151443000Y-77311000D02*
X141323000Y-77311000D01*
X151443000Y-82031000D02*
X151443000Y-77311000D01*
X141323000Y-82031000D02*
X151443000Y-82031000D01*
X141323000Y-77311000D02*
X141323000Y-82031000D01*
X121127000Y-126986000D02*
X121127000Y-128244000D01*
X122967000Y-126986000D02*
X122967000Y-128244000D01*
X126777000Y-128284000D02*
X126777000Y-127026000D01*
X124937000Y-128284000D02*
X124937000Y-127026000D01*
D12*
X136596000Y-83872000D02*
X190596000Y-83872000D01*
X190596000Y-83872000D02*
X190596000Y-92872000D01*
X136596000Y-92872000D02*
X184596000Y-92872000D01*
X130596000Y-83872000D02*
X130596000Y-92872000D01*
X136596000Y-102872000D02*
X190596000Y-102872000D01*
X190596000Y-102872000D02*
X190596000Y-111872000D01*
X136596000Y-111872000D02*
X184596000Y-111872000D01*
X130596000Y-102872000D02*
X130596000Y-111872000D01*
X136596000Y-121872000D02*
X190596000Y-121872000D01*
X190596000Y-121872000D02*
X190596000Y-130872000D01*
X136596000Y-130872000D02*
X184596000Y-130872000D01*
X130596000Y-121872000D02*
X130596000Y-130872000D01*
D13*
X135429666Y-133691380D02*
X135429666Y-134405666D01*
X135382047Y-134548523D01*
X135286809Y-134643761D01*
X135143952Y-134691380D01*
X135048714Y-134691380D01*
X136382047Y-133691380D02*
X135905857Y-133691380D01*
X135858238Y-134167571D01*
X135905857Y-134119952D01*
X136001095Y-134072333D01*
X136239190Y-134072333D01*
X136334428Y-134119952D01*
X136382047Y-134167571D01*
X136429666Y-134262809D01*
X136429666Y-134500904D01*
X136382047Y-134596142D01*
X136334428Y-134643761D01*
X136239190Y-134691380D01*
X136001095Y-134691380D01*
X135905857Y-134643761D01*
X135858238Y-134596142D01*
X123475809Y-122277190D02*
X123475809Y-122753380D01*
X123142476Y-121753380D02*
X123475809Y-122277190D01*
X123809142Y-121753380D01*
X124666285Y-122753380D02*
X124094857Y-122753380D01*
X124380571Y-122753380D02*
X124380571Y-121753380D01*
X124285333Y-121896238D01*
X124190095Y-121991476D01*
X124094857Y-122039095D01*
X123190095Y-82383380D02*
X123190095Y-83192904D01*
X123237714Y-83288142D01*
X123285333Y-83335761D01*
X123380571Y-83383380D01*
X123571047Y-83383380D01*
X123666285Y-83335761D01*
X123713904Y-83288142D01*
X123761523Y-83192904D01*
X123761523Y-82383380D01*
X124761523Y-83383380D02*
X124190095Y-83383380D01*
X124475809Y-83383380D02*
X124475809Y-82383380D01*
X124380571Y-82526238D01*
X124285333Y-82621476D01*
X124190095Y-82669095D01*
X158329333Y-115176380D02*
X157996000Y-114700190D01*
X157757904Y-115176380D02*
X157757904Y-114176380D01*
X158138857Y-114176380D01*
X158234095Y-114224000D01*
X158281714Y-114271619D01*
X158329333Y-114366857D01*
X158329333Y-114509714D01*
X158281714Y-114604952D01*
X158234095Y-114652571D01*
X158138857Y-114700190D01*
X157757904Y-114700190D01*
X159186476Y-114509714D02*
X159186476Y-115176380D01*
X158948380Y-114128761D02*
X158710285Y-114843047D01*
X159329333Y-114843047D01*
X157607095Y-116879714D02*
X157607095Y-117546380D01*
X157369000Y-116498761D02*
X157130904Y-117213047D01*
X157749952Y-117213047D01*
X158035666Y-116546380D02*
X158702333Y-116546380D01*
X158273761Y-117546380D01*
X159273761Y-116546380D02*
X159369000Y-116546380D01*
X159464238Y-116594000D01*
X159511857Y-116641619D01*
X159559476Y-116736857D01*
X159607095Y-116927333D01*
X159607095Y-117165428D01*
X159559476Y-117355904D01*
X159511857Y-117451142D01*
X159464238Y-117498761D01*
X159369000Y-117546380D01*
X159273761Y-117546380D01*
X159178523Y-117498761D01*
X159130904Y-117451142D01*
X159083285Y-117355904D01*
X159035666Y-117165428D01*
X159035666Y-116927333D01*
X159083285Y-116736857D01*
X159130904Y-116641619D01*
X159178523Y-116594000D01*
X159273761Y-116546380D01*
X158329333Y-96591380D02*
X157996000Y-96115190D01*
X157757904Y-96591380D02*
X157757904Y-95591380D01*
X158138857Y-95591380D01*
X158234095Y-95639000D01*
X158281714Y-95686619D01*
X158329333Y-95781857D01*
X158329333Y-95924714D01*
X158281714Y-96019952D01*
X158234095Y-96067571D01*
X158138857Y-96115190D01*
X157757904Y-96115190D01*
X158662666Y-95591380D02*
X159281714Y-95591380D01*
X158948380Y-95972333D01*
X159091238Y-95972333D01*
X159186476Y-96019952D01*
X159234095Y-96067571D01*
X159281714Y-96162809D01*
X159281714Y-96400904D01*
X159234095Y-96496142D01*
X159186476Y-96543761D01*
X159091238Y-96591380D01*
X158805523Y-96591380D01*
X158710285Y-96543761D01*
X158662666Y-96496142D01*
X157734095Y-98210714D02*
X157734095Y-98877380D01*
X157496000Y-97829761D02*
X157257904Y-98544047D01*
X157876952Y-98544047D01*
X158162666Y-97877380D02*
X158829333Y-97877380D01*
X158400761Y-98877380D01*
X159400761Y-97877380D02*
X159496000Y-97877380D01*
X159591238Y-97925000D01*
X159638857Y-97972619D01*
X159686476Y-98067857D01*
X159734095Y-98258333D01*
X159734095Y-98496428D01*
X159686476Y-98686904D01*
X159638857Y-98782142D01*
X159591238Y-98829761D01*
X159496000Y-98877380D01*
X159400761Y-98877380D01*
X159305523Y-98829761D01*
X159257904Y-98782142D01*
X159210285Y-98686904D01*
X159162666Y-98496428D01*
X159162666Y-98258333D01*
X159210285Y-98067857D01*
X159257904Y-97972619D01*
X159305523Y-97925000D01*
X159400761Y-97877380D01*
X158202333Y-77541380D02*
X157869000Y-77065190D01*
X157630904Y-77541380D02*
X157630904Y-76541380D01*
X158011857Y-76541380D01*
X158107095Y-76589000D01*
X158154714Y-76636619D01*
X158202333Y-76731857D01*
X158202333Y-76874714D01*
X158154714Y-76969952D01*
X158107095Y-77017571D01*
X158011857Y-77065190D01*
X157630904Y-77065190D01*
X158583285Y-76636619D02*
X158630904Y-76589000D01*
X158726142Y-76541380D01*
X158964238Y-76541380D01*
X159059476Y-76589000D01*
X159107095Y-76636619D01*
X159154714Y-76731857D01*
X159154714Y-76827095D01*
X159107095Y-76969952D01*
X158535666Y-77541380D01*
X159154714Y-77541380D01*
X157607095Y-79160714D02*
X157607095Y-79827380D01*
X157369000Y-78779761D02*
X157130904Y-79494047D01*
X157749952Y-79494047D01*
X158035666Y-78827380D02*
X158702333Y-78827380D01*
X158273761Y-79827380D01*
X159273761Y-78827380D02*
X159369000Y-78827380D01*
X159464238Y-78875000D01*
X159511857Y-78922619D01*
X159559476Y-79017857D01*
X159607095Y-79208333D01*
X159607095Y-79446428D01*
X159559476Y-79636904D01*
X159511857Y-79732142D01*
X159464238Y-79779761D01*
X159369000Y-79827380D01*
X159273761Y-79827380D01*
X159178523Y-79779761D01*
X159130904Y-79732142D01*
X159083285Y-79636904D01*
X159035666Y-79446428D01*
X159035666Y-79208333D01*
X159083285Y-79017857D01*
X159130904Y-78922619D01*
X159178523Y-78875000D01*
X159273761Y-78827380D01*
X134199333Y-77541380D02*
X133866000Y-77065190D01*
X133627904Y-77541380D02*
X133627904Y-76541380D01*
X134008857Y-76541380D01*
X134104095Y-76589000D01*
X134151714Y-76636619D01*
X134199333Y-76731857D01*
X134199333Y-76874714D01*
X134151714Y-76969952D01*
X134104095Y-77017571D01*
X134008857Y-77065190D01*
X133627904Y-77065190D01*
X135151714Y-77541380D02*
X134580285Y-77541380D01*
X134866000Y-77541380D02*
X134866000Y-76541380D01*
X134770761Y-76684238D01*
X134675523Y-76779476D01*
X134580285Y-76827095D01*
X133897761Y-79700380D02*
X133326333Y-79700380D01*
X133612047Y-79700380D02*
X133612047Y-78700380D01*
X133516809Y-78843238D01*
X133421571Y-78938476D01*
X133326333Y-78986095D01*
X134516809Y-78700380D02*
X134612047Y-78700380D01*
X134707285Y-78748000D01*
X134754904Y-78795619D01*
X134802523Y-78890857D01*
X134850142Y-79081333D01*
X134850142Y-79319428D01*
X134802523Y-79509904D01*
X134754904Y-79605142D01*
X134707285Y-79652761D01*
X134612047Y-79700380D01*
X134516809Y-79700380D01*
X134421571Y-79652761D01*
X134373952Y-79605142D01*
X134326333Y-79509904D01*
X134278714Y-79319428D01*
X134278714Y-79081333D01*
X134326333Y-78890857D01*
X134373952Y-78795619D01*
X134421571Y-78748000D01*
X134516809Y-78700380D01*
X135278714Y-79700380D02*
X135278714Y-78700380D01*
X135373952Y-79319428D02*
X135659666Y-79700380D01*
X135659666Y-79033714D02*
X135278714Y-79414666D01*
X152447666Y-76414380D02*
X152447666Y-77128666D01*
X152400047Y-77271523D01*
X152304809Y-77366761D01*
X152161952Y-77414380D01*
X152066714Y-77414380D01*
X153447666Y-77414380D02*
X152876238Y-77414380D01*
X153161952Y-77414380D02*
X153161952Y-76414380D01*
X153066714Y-76557238D01*
X152971476Y-76652476D01*
X152876238Y-76700095D01*
X122404142Y-131103666D02*
X122451761Y-131151285D01*
X122499380Y-131294142D01*
X122499380Y-131389380D01*
X122451761Y-131532238D01*
X122356523Y-131627476D01*
X122261285Y-131675095D01*
X122070809Y-131722714D01*
X121927952Y-131722714D01*
X121737476Y-131675095D01*
X121642238Y-131627476D01*
X121547000Y-131532238D01*
X121499380Y-131389380D01*
X121499380Y-131294142D01*
X121547000Y-131151285D01*
X121594619Y-131103666D01*
X121594619Y-130722714D02*
X121547000Y-130675095D01*
X121499380Y-130579857D01*
X121499380Y-130341761D01*
X121547000Y-130246523D01*
X121594619Y-130198904D01*
X121689857Y-130151285D01*
X121785095Y-130151285D01*
X121927952Y-130198904D01*
X122499380Y-130770333D01*
X122499380Y-130151285D01*
X119562619Y-129257857D02*
X119515000Y-129210238D01*
X119467380Y-129115000D01*
X119467380Y-128876904D01*
X119515000Y-128781666D01*
X119562619Y-128734047D01*
X119657857Y-128686428D01*
X119753095Y-128686428D01*
X119895952Y-128734047D01*
X120467380Y-129305476D01*
X120467380Y-128686428D01*
X119562619Y-128305476D02*
X119515000Y-128257857D01*
X119467380Y-128162619D01*
X119467380Y-127924523D01*
X119515000Y-127829285D01*
X119562619Y-127781666D01*
X119657857Y-127734047D01*
X119753095Y-127734047D01*
X119895952Y-127781666D01*
X120467380Y-128353095D01*
X120467380Y-127734047D01*
X119800714Y-127305476D02*
X120800714Y-127305476D01*
X119848333Y-127305476D02*
X119800714Y-127210238D01*
X119800714Y-127019761D01*
X119848333Y-126924523D01*
X119895952Y-126876904D01*
X119991190Y-126829285D01*
X120276904Y-126829285D01*
X120372142Y-126876904D01*
X120419761Y-126924523D01*
X120467380Y-127019761D01*
X120467380Y-127210238D01*
X120419761Y-127305476D01*
X119943571Y-126067380D02*
X119943571Y-126400714D01*
X120467380Y-126400714D02*
X119467380Y-126400714D01*
X119467380Y-125924523D01*
X126214142Y-131103666D02*
X126261761Y-131151285D01*
X126309380Y-131294142D01*
X126309380Y-131389380D01*
X126261761Y-131532238D01*
X126166523Y-131627476D01*
X126071285Y-131675095D01*
X125880809Y-131722714D01*
X125737952Y-131722714D01*
X125547476Y-131675095D01*
X125452238Y-131627476D01*
X125357000Y-131532238D01*
X125309380Y-131389380D01*
X125309380Y-131294142D01*
X125357000Y-131151285D01*
X125404619Y-131103666D01*
X126309380Y-130151285D02*
X126309380Y-130722714D01*
X126309380Y-130437000D02*
X125309380Y-130437000D01*
X125452238Y-130532238D01*
X125547476Y-130627476D01*
X125595095Y-130722714D01*
X123372619Y-129297857D02*
X123325000Y-129250238D01*
X123277380Y-129155000D01*
X123277380Y-128916904D01*
X123325000Y-128821666D01*
X123372619Y-128774047D01*
X123467857Y-128726428D01*
X123563095Y-128726428D01*
X123705952Y-128774047D01*
X124277380Y-129345476D01*
X124277380Y-128726428D01*
X123372619Y-128345476D02*
X123325000Y-128297857D01*
X123277380Y-128202619D01*
X123277380Y-127964523D01*
X123325000Y-127869285D01*
X123372619Y-127821666D01*
X123467857Y-127774047D01*
X123563095Y-127774047D01*
X123705952Y-127821666D01*
X124277380Y-128393095D01*
X124277380Y-127774047D01*
X123610714Y-127345476D02*
X124610714Y-127345476D01*
X123658333Y-127345476D02*
X123610714Y-127250238D01*
X123610714Y-127059761D01*
X123658333Y-126964523D01*
X123705952Y-126916904D01*
X123801190Y-126869285D01*
X124086904Y-126869285D01*
X124182142Y-126916904D01*
X124229761Y-126964523D01*
X124277380Y-127059761D01*
X124277380Y-127250238D01*
X124229761Y-127345476D01*
X123753571Y-126107380D02*
X123753571Y-126440714D01*
X124277380Y-126440714D02*
X123277380Y-126440714D01*
X123277380Y-125964523D01*
D14*
X157922666Y-87676523D02*
X157922666Y-88583666D01*
X157862190Y-88765095D01*
X157741238Y-88886047D01*
X157559809Y-88946523D01*
X157438857Y-88946523D01*
X158466952Y-87797476D02*
X158527428Y-87737000D01*
X158648380Y-87676523D01*
X158950761Y-87676523D01*
X159071714Y-87737000D01*
X159132190Y-87797476D01*
X159192666Y-87918428D01*
X159192666Y-88039380D01*
X159132190Y-88220809D01*
X158406476Y-88946523D01*
X159192666Y-88946523D01*
X157922666Y-106676523D02*
X157922666Y-107583666D01*
X157862190Y-107765095D01*
X157741238Y-107886047D01*
X157559809Y-107946523D01*
X157438857Y-107946523D01*
X158406476Y-106676523D02*
X159192666Y-106676523D01*
X158769333Y-107160333D01*
X158950761Y-107160333D01*
X159071714Y-107220809D01*
X159132190Y-107281285D01*
X159192666Y-107402238D01*
X159192666Y-107704619D01*
X159132190Y-107825571D01*
X159071714Y-107886047D01*
X158950761Y-107946523D01*
X158587904Y-107946523D01*
X158466952Y-107886047D01*
X158406476Y-107825571D01*
X157922666Y-125676523D02*
X157922666Y-126583666D01*
X157862190Y-126765095D01*
X157741238Y-126886047D01*
X157559809Y-126946523D01*
X157438857Y-126946523D01*
X159071714Y-126099857D02*
X159071714Y-126946523D01*
X158769333Y-125616047D02*
X158466952Y-126523190D01*
X159253142Y-126523190D01*
D13*
X123317095Y-77668380D02*
X123317095Y-76668380D01*
X123317095Y-77144571D02*
X123888523Y-77144571D01*
X123888523Y-77668380D02*
X123888523Y-76668380D01*
X124888523Y-77668380D02*
X124317095Y-77668380D01*
X124602809Y-77668380D02*
X124602809Y-76668380D01*
X124507571Y-76811238D01*
X124412333Y-76906476D01*
X124317095Y-76954095D01*
X186182095Y-77414380D02*
X186182095Y-76414380D01*
X186182095Y-76890571D02*
X186753523Y-76890571D01*
X186753523Y-77414380D02*
X186753523Y-76414380D01*
X187182095Y-76509619D02*
X187229714Y-76462000D01*
X187324952Y-76414380D01*
X187563047Y-76414380D01*
X187658285Y-76462000D01*
X187705904Y-76509619D01*
X187753523Y-76604857D01*
X187753523Y-76700095D01*
X187705904Y-76842952D01*
X187134476Y-77414380D01*
X187753523Y-77414380D01*
X122936095Y-136342380D02*
X122936095Y-135342380D01*
X122936095Y-135818571D02*
X123507523Y-135818571D01*
X123507523Y-136342380D02*
X123507523Y-135342380D01*
X123888476Y-135342380D02*
X124507523Y-135342380D01*
X124174190Y-135723333D01*
X124317047Y-135723333D01*
X124412285Y-135770952D01*
X124459904Y-135818571D01*
X124507523Y-135913809D01*
X124507523Y-136151904D01*
X124459904Y-136247142D01*
X124412285Y-136294761D01*
X124317047Y-136342380D01*
X124031333Y-136342380D01*
X123936095Y-136294761D01*
X123888476Y-136247142D01*
X186436095Y-136342380D02*
X186436095Y-135342380D01*
X186436095Y-135818571D02*
X187007523Y-135818571D01*
X187007523Y-136342380D02*
X187007523Y-135342380D01*
X187912285Y-135675714D02*
X187912285Y-136342380D01*
X187674190Y-135294761D02*
X187436095Y-136009047D01*
X188055142Y-136009047D01*
M02*
