M48
; DRILL file {KiCad (5.1.4-0-10_14)} date Thursday, March 12, 2020 at 09:14:14 PM
; FORMAT={-:-/ absolute / inch / decimal}
; #@! TF.CreationDate,2020-03-12T21:14:14-05:00
; #@! TF.GenerationSoftware,Kicad,Pcbnew,(5.1.4-0-10_14)
; #@! TF.FileFunction,Plated,1,2,PTH
FMAT,2
INCH
T1C0.0157
T2C0.0295
T3C0.0315
T4C0.0394
T5C0.0512
%
G90
G05
T1
X4.785Y-4.025
X4.805Y-5.14
X4.955Y-5.14
X4.965Y-3.925
X5.24Y-5.35
X5.31Y-3.63
X5.31Y-4.375
X5.31Y-5.125
X7.34Y-3.48
X7.34Y-4.225
X7.34Y-4.975
T2
X5.645Y-3.115
X5.7237Y-3.115
X5.8025Y-3.115
X5.8812Y-3.115
T3
X6.085Y-3.12
X6.385Y-3.12
X6.09Y-4.61
X6.39Y-4.61
X5.145Y-3.12
X5.445Y-3.12
X4.805Y-4.975
X4.805Y-5.0734
X4.955Y-4.9766
X4.955Y-5.075
X4.8054Y-4.81
X4.955Y-4.81
X6.09Y-3.875
X6.39Y-3.875
T4
X5.04Y-5.285
X5.14Y-5.285
X5.24Y-5.285
X4.725Y-3.325
X4.725Y-3.425
X4.725Y-3.525
X4.725Y-3.625
X4.725Y-3.725
X4.725Y-3.825
X4.725Y-3.925
X4.725Y-4.025
X4.725Y-4.125
X4.725Y-4.225
X4.725Y-4.325
X4.725Y-4.425
X4.725Y-4.525
X4.725Y-4.625
X5.025Y-3.325
X5.025Y-3.425
X5.025Y-3.525
X5.025Y-3.625
X5.025Y-3.725
X5.025Y-3.825
X5.025Y-3.925
X5.025Y-4.025
X5.025Y-4.125
X5.025Y-4.225
X5.025Y-4.325
X5.025Y-4.425
X5.025Y-4.525
X5.025Y-4.625
T5
X5.24Y-4.0796
X5.24Y-4.178
X5.24Y-4.2765
X5.24Y-4.3749
X7.4054Y-4.2272
X7.4054Y-4.3749
X5.24Y-4.8276
X5.24Y-4.9261
X5.24Y-5.0245
X5.24Y-5.1229
X7.4054Y-4.9753
X7.4054Y-5.1229
X5.24Y-3.3316
X5.24Y-3.43
X5.24Y-3.5284
X5.24Y-3.6269
X7.4054Y-3.4792
X7.4054Y-3.6269
T0
M30
