G04 #@! TF.GenerationSoftware,KiCad,Pcbnew,(5.1.4-0-10_14)*
G04 #@! TF.CreationDate,2019-12-23T11:43:40-06:00*
G04 #@! TF.ProjectId,MIDI_RECEIVER,4d494449-5f52-4454-9345-495645522e6b,rev?*
G04 #@! TF.SameCoordinates,Original*
G04 #@! TF.FileFunction,Copper,L1,Top*
G04 #@! TF.FilePolarity,Positive*
%FSLAX46Y46*%
G04 Gerber Fmt 4.6, Leading zero omitted, Abs format (unit mm)*
G04 Created by KiCad (PCBNEW (5.1.4-0-10_14)) date 2019-12-23 11:43:40*
%MOMM*%
%LPD*%
G04 APERTURE LIST*
%ADD10R,1.700000X1.700000*%
%ADD11O,2.000000X1.905000*%
%ADD12R,2.000000X1.905000*%
%ADD13C,1.950000*%
%ADD14O,1.600000X1.600000*%
%ADD15C,1.600000*%
%ADD16O,1.700000X1.700000*%
%ADD17R,1.600000X1.600000*%
%ADD18C,1.200000*%
%ADD19R,1.200000X1.200000*%
%ADD20C,0.800000*%
%ADD21C,0.250000*%
%ADD22C,0.700000*%
%ADD23C,0.254000*%
G04 APERTURE END LIST*
D10*
X109474000Y-94996000D03*
X105664000Y-94996000D03*
D11*
X137668000Y-109474000D03*
X137668000Y-106934000D03*
D12*
X137668000Y-104394000D03*
D13*
X116860000Y-132090000D03*
X114360000Y-134590000D03*
X116860000Y-122090000D03*
X104140000Y-132080000D03*
X114360000Y-119590000D03*
X104140000Y-122174000D03*
X114360000Y-127090000D03*
D14*
X129540000Y-132334000D03*
D15*
X121920000Y-132334000D03*
D14*
X129540000Y-122174000D03*
D15*
X121920000Y-122174000D03*
D16*
X137160000Y-91440000D03*
X134620000Y-91440000D03*
X137160000Y-88900000D03*
X134620000Y-88900000D03*
X137160000Y-86360000D03*
X134620000Y-86360000D03*
X137160000Y-83820000D03*
D10*
X134620000Y-83820000D03*
D15*
X105664000Y-98806000D03*
X108204000Y-98806000D03*
X110744000Y-98806000D03*
X113284000Y-98806000D03*
X115824000Y-98806000D03*
X118364000Y-98806000D03*
X120904000Y-98806000D03*
X123444000Y-98806000D03*
X125984000Y-98806000D03*
X128524000Y-98806000D03*
X131064000Y-98806000D03*
X133604000Y-98806000D03*
X133604000Y-114046000D03*
X131064000Y-114046000D03*
X128524000Y-114046000D03*
X125984000Y-114046000D03*
X123444000Y-114046000D03*
X120904000Y-114046000D03*
X118364000Y-114046000D03*
X115824000Y-114046000D03*
X113284000Y-114046000D03*
X110744000Y-114046000D03*
X108204000Y-114046000D03*
D17*
X105664000Y-114046000D03*
D18*
X138914000Y-119634000D03*
D19*
X137414000Y-119634000D03*
D15*
X137120000Y-94488000D03*
X134620000Y-94488000D03*
D20*
X138938000Y-91440000D03*
X116332000Y-127254000D03*
X137160000Y-96266016D03*
X113284000Y-112268000D03*
X110744000Y-112268000D03*
X108204000Y-100584000D03*
X135636000Y-104394000D03*
X111760000Y-94996000D03*
X138938000Y-117602000D03*
D21*
X137160000Y-91440000D02*
X138938000Y-91440000D01*
X114300000Y-127254000D02*
X116332000Y-127254000D01*
X113284000Y-112268000D02*
X113284000Y-114046000D01*
X110744000Y-112268000D02*
X110744000Y-114046000D01*
X108204000Y-98806000D02*
X108204000Y-100584000D01*
X137668000Y-104394000D02*
X135636000Y-104394000D01*
X109474000Y-94996000D02*
X111760000Y-94996000D01*
X138938000Y-119610000D02*
X138914000Y-119634000D01*
X138938000Y-117602000D02*
X138938000Y-119610000D01*
X137120000Y-96226016D02*
X137160000Y-96266016D01*
X137120000Y-94488000D02*
X137120000Y-96226016D01*
X137715500Y-106934000D02*
X137668000Y-106934000D01*
D22*
X134620000Y-95619370D02*
X139954000Y-100953370D01*
X134620000Y-94488000D02*
X134620000Y-95619370D01*
X139954000Y-106348000D02*
X139368000Y-106934000D01*
X139368000Y-106934000D02*
X137668000Y-106934000D01*
X139954000Y-100953370D02*
X139954000Y-106348000D01*
X134620000Y-94488000D02*
X134620000Y-91440000D01*
X117094000Y-109474000D02*
X137668000Y-109474000D01*
X113284000Y-105664000D02*
X117094000Y-109474000D01*
X113284000Y-98806000D02*
X113284000Y-105664000D01*
X137414000Y-109728000D02*
X137668000Y-109474000D01*
X137414000Y-119634000D02*
X137414000Y-109728000D01*
X137414000Y-124460000D02*
X129540000Y-132334000D01*
X137414000Y-119634000D02*
X137414000Y-124460000D01*
D21*
X121840000Y-122254000D02*
X121920000Y-122174000D01*
X116800000Y-122254000D02*
X121840000Y-122254000D01*
X121840000Y-132254000D02*
X121920000Y-132334000D01*
X116800000Y-132254000D02*
X121840000Y-132254000D01*
X128524000Y-86360000D02*
X128524000Y-97674630D01*
X137160000Y-83820000D02*
X135832011Y-82492011D01*
X128524000Y-97674630D02*
X128524000Y-98806000D01*
X132391989Y-82492011D02*
X128524000Y-86360000D01*
X135832011Y-82492011D02*
X132391989Y-82492011D01*
X125984000Y-97674630D02*
X125984000Y-98806000D01*
X138335001Y-85184999D02*
X138335001Y-83255999D01*
X130302000Y-82042000D02*
X125984000Y-86360000D01*
X125984000Y-86360000D02*
X125984000Y-97674630D01*
X137121002Y-82042000D02*
X130302000Y-82042000D01*
X138335001Y-83255999D02*
X137121002Y-82042000D01*
X137160000Y-86360000D02*
X138335001Y-85184999D01*
X123444000Y-97674630D02*
X123444000Y-98806000D01*
X123444000Y-86360000D02*
X123444000Y-97674630D01*
X128509032Y-81294968D02*
X123444000Y-86360000D01*
X138785011Y-82970111D02*
X137109868Y-81294968D01*
X138785011Y-87274989D02*
X138785011Y-82970111D01*
X137109868Y-81294968D02*
X128509032Y-81294968D01*
X137160000Y-88900000D02*
X138785011Y-87274989D01*
X134314988Y-100381012D02*
X127797599Y-100381012D01*
X127746587Y-100330000D02*
X122428000Y-100330000D01*
X122428000Y-100330000D02*
X121703999Y-99605999D01*
X134620000Y-88900000D02*
X133096000Y-90424000D01*
X135128000Y-99568000D02*
X134314988Y-100381012D01*
X133096000Y-90424000D02*
X133096000Y-95758000D01*
X121703999Y-99605999D02*
X120904000Y-98806000D01*
X127797599Y-100381012D02*
X127746587Y-100330000D01*
X135128000Y-97790000D02*
X135128000Y-99568000D01*
X133096000Y-95758000D02*
X135128000Y-97790000D01*
X131064000Y-97674630D02*
X131064000Y-98806000D01*
X134620000Y-86360000D02*
X131064000Y-89916000D01*
X131064000Y-89916000D02*
X131064000Y-97674630D01*
X133604000Y-118110000D02*
X133604000Y-114046000D01*
X129540000Y-122174000D02*
X133604000Y-118110000D01*
D22*
X105664000Y-94996000D02*
X105664000Y-98806000D01*
D23*
G36*
X141580001Y-137127572D02*
G01*
X141580000Y-137127582D01*
X141580000Y-137381582D01*
X141580001Y-139040000D01*
X102260000Y-139040000D01*
X102260000Y-136744967D01*
X102505000Y-136744967D01*
X102505000Y-137067033D01*
X102567832Y-137382912D01*
X102691082Y-137680463D01*
X102870013Y-137948252D01*
X103097748Y-138175987D01*
X103365537Y-138354918D01*
X103663088Y-138478168D01*
X103978967Y-138541000D01*
X104301033Y-138541000D01*
X104616912Y-138478168D01*
X104914463Y-138354918D01*
X105182252Y-138175987D01*
X105409987Y-137948252D01*
X105588918Y-137680463D01*
X105712168Y-137382912D01*
X105775000Y-137067033D01*
X105775000Y-136998967D01*
X137811000Y-136998967D01*
X137811000Y-137321033D01*
X137873832Y-137636912D01*
X137997082Y-137934463D01*
X138176013Y-138202252D01*
X138403748Y-138429987D01*
X138671537Y-138608918D01*
X138969088Y-138732168D01*
X139284967Y-138795000D01*
X139607033Y-138795000D01*
X139922912Y-138732168D01*
X140220463Y-138608918D01*
X140488252Y-138429987D01*
X140715987Y-138202252D01*
X140894918Y-137934463D01*
X141018168Y-137636912D01*
X141081000Y-137321033D01*
X141081000Y-136998967D01*
X141018168Y-136683088D01*
X140894918Y-136385537D01*
X140715987Y-136117748D01*
X140488252Y-135890013D01*
X140220463Y-135711082D01*
X139922912Y-135587832D01*
X139607033Y-135525000D01*
X139284967Y-135525000D01*
X138969088Y-135587832D01*
X138671537Y-135711082D01*
X138403748Y-135890013D01*
X138176013Y-136117748D01*
X137997082Y-136385537D01*
X137873832Y-136683088D01*
X137811000Y-136998967D01*
X105775000Y-136998967D01*
X105775000Y-136744967D01*
X105712168Y-136429088D01*
X105588918Y-136131537D01*
X105409987Y-135863748D01*
X105182252Y-135636013D01*
X104914463Y-135457082D01*
X104616912Y-135333832D01*
X104301033Y-135271000D01*
X103978967Y-135271000D01*
X103663088Y-135333832D01*
X103365537Y-135457082D01*
X103097748Y-135636013D01*
X102870013Y-135863748D01*
X102691082Y-136131537D01*
X102567832Y-136429088D01*
X102505000Y-136744967D01*
X102260000Y-136744967D01*
X102260000Y-134409268D01*
X107525000Y-134409268D01*
X107525000Y-134770732D01*
X107595518Y-135125250D01*
X107733844Y-135459199D01*
X107934662Y-135759744D01*
X108190256Y-136015338D01*
X108490801Y-136216156D01*
X108824750Y-136354482D01*
X109179268Y-136425000D01*
X109540732Y-136425000D01*
X109895250Y-136354482D01*
X110229199Y-136216156D01*
X110529744Y-136015338D01*
X110785338Y-135759744D01*
X110986156Y-135459199D01*
X111124482Y-135125250D01*
X111195000Y-134770732D01*
X111195000Y-134431429D01*
X112750000Y-134431429D01*
X112750000Y-134748571D01*
X112811871Y-135059620D01*
X112933237Y-135352621D01*
X113109431Y-135616315D01*
X113333685Y-135840569D01*
X113597379Y-136016763D01*
X113890380Y-136138129D01*
X114201429Y-136200000D01*
X114518571Y-136200000D01*
X114829620Y-136138129D01*
X115122621Y-136016763D01*
X115386315Y-135840569D01*
X115610569Y-135616315D01*
X115786763Y-135352621D01*
X115908129Y-135059620D01*
X115970000Y-134748571D01*
X115970000Y-134431429D01*
X115908129Y-134120380D01*
X115786763Y-133827379D01*
X115610569Y-133563685D01*
X115386315Y-133339431D01*
X115122621Y-133163237D01*
X114829620Y-133041871D01*
X114518571Y-132980000D01*
X114201429Y-132980000D01*
X113890380Y-133041871D01*
X113597379Y-133163237D01*
X113333685Y-133339431D01*
X113109431Y-133563685D01*
X112933237Y-133827379D01*
X112811871Y-134120380D01*
X112750000Y-134431429D01*
X111195000Y-134431429D01*
X111195000Y-134409268D01*
X111124482Y-134054750D01*
X110986156Y-133720801D01*
X110785338Y-133420256D01*
X110529744Y-133164662D01*
X110229199Y-132963844D01*
X109895250Y-132825518D01*
X109540732Y-132755000D01*
X109179268Y-132755000D01*
X108824750Y-132825518D01*
X108490801Y-132963844D01*
X108190256Y-133164662D01*
X107934662Y-133420256D01*
X107733844Y-133720801D01*
X107595518Y-134054750D01*
X107525000Y-134409268D01*
X102260000Y-134409268D01*
X102260000Y-131921429D01*
X102530000Y-131921429D01*
X102530000Y-132238571D01*
X102591871Y-132549620D01*
X102713237Y-132842621D01*
X102889431Y-133106315D01*
X103113685Y-133330569D01*
X103377379Y-133506763D01*
X103670380Y-133628129D01*
X103981429Y-133690000D01*
X104298571Y-133690000D01*
X104609620Y-133628129D01*
X104902621Y-133506763D01*
X105166315Y-133330569D01*
X105390569Y-133106315D01*
X105566763Y-132842621D01*
X105688129Y-132549620D01*
X105750000Y-132238571D01*
X105750000Y-131931429D01*
X115250000Y-131931429D01*
X115250000Y-132248571D01*
X115311871Y-132559620D01*
X115433237Y-132852621D01*
X115609431Y-133116315D01*
X115833685Y-133340569D01*
X116097379Y-133516763D01*
X116390380Y-133638129D01*
X116701429Y-133700000D01*
X117018571Y-133700000D01*
X117329620Y-133638129D01*
X117622621Y-133516763D01*
X117886315Y-133340569D01*
X118110569Y-133116315D01*
X118178933Y-133014000D01*
X120648502Y-133014000D01*
X120805363Y-133248759D01*
X121005241Y-133448637D01*
X121240273Y-133605680D01*
X121501426Y-133713853D01*
X121778665Y-133769000D01*
X122061335Y-133769000D01*
X122338574Y-133713853D01*
X122599727Y-133605680D01*
X122834759Y-133448637D01*
X123034637Y-133248759D01*
X123191680Y-133013727D01*
X123299853Y-132752574D01*
X123355000Y-132475335D01*
X123355000Y-132192665D01*
X123299853Y-131915426D01*
X123191680Y-131654273D01*
X123034637Y-131419241D01*
X122834759Y-131219363D01*
X122599727Y-131062320D01*
X122338574Y-130954147D01*
X122061335Y-130899000D01*
X121778665Y-130899000D01*
X121501426Y-130954147D01*
X121240273Y-131062320D01*
X121005241Y-131219363D01*
X120805363Y-131419241D01*
X120755411Y-131494000D01*
X118355780Y-131494000D01*
X118286763Y-131327379D01*
X118110569Y-131063685D01*
X117886315Y-130839431D01*
X117622621Y-130663237D01*
X117329620Y-130541871D01*
X117018571Y-130480000D01*
X116701429Y-130480000D01*
X116390380Y-130541871D01*
X116097379Y-130663237D01*
X115833685Y-130839431D01*
X115609431Y-131063685D01*
X115433237Y-131327379D01*
X115311871Y-131620380D01*
X115250000Y-131931429D01*
X105750000Y-131931429D01*
X105750000Y-131921429D01*
X105688129Y-131610380D01*
X105566763Y-131317379D01*
X105390569Y-131053685D01*
X105166315Y-130829431D01*
X104902621Y-130653237D01*
X104609620Y-130531871D01*
X104298571Y-130470000D01*
X103981429Y-130470000D01*
X103670380Y-130531871D01*
X103377379Y-130653237D01*
X103113685Y-130829431D01*
X102889431Y-131053685D01*
X102713237Y-131317379D01*
X102591871Y-131610380D01*
X102530000Y-131921429D01*
X102260000Y-131921429D01*
X102260000Y-128207584D01*
X113422021Y-128207584D01*
X113514766Y-128469429D01*
X113800120Y-128607820D01*
X114106990Y-128687883D01*
X114423584Y-128706540D01*
X114737733Y-128663074D01*
X115037367Y-128559156D01*
X115205234Y-128469429D01*
X115297979Y-128207584D01*
X114360000Y-127269605D01*
X113422021Y-128207584D01*
X102260000Y-128207584D01*
X102260000Y-127153584D01*
X112743460Y-127153584D01*
X112786926Y-127467733D01*
X112890844Y-127767367D01*
X112980571Y-127935234D01*
X113242416Y-128027979D01*
X114180395Y-127090000D01*
X114539605Y-127090000D01*
X115477584Y-128027979D01*
X115739429Y-127935234D01*
X115877820Y-127649880D01*
X115957883Y-127343010D01*
X115976540Y-127026416D01*
X115933074Y-126712267D01*
X115829156Y-126412633D01*
X115739429Y-126244766D01*
X115477584Y-126152021D01*
X114539605Y-127090000D01*
X114180395Y-127090000D01*
X113242416Y-126152021D01*
X112980571Y-126244766D01*
X112842180Y-126530120D01*
X112762117Y-126836990D01*
X112743460Y-127153584D01*
X102260000Y-127153584D01*
X102260000Y-125972416D01*
X113422021Y-125972416D01*
X114360000Y-126910395D01*
X115297979Y-125972416D01*
X115205234Y-125710571D01*
X114919880Y-125572180D01*
X114613010Y-125492117D01*
X114296416Y-125473460D01*
X113982267Y-125516926D01*
X113682633Y-125620844D01*
X113514766Y-125710571D01*
X113422021Y-125972416D01*
X102260000Y-125972416D01*
X102260000Y-122015429D01*
X102530000Y-122015429D01*
X102530000Y-122332571D01*
X102591871Y-122643620D01*
X102713237Y-122936621D01*
X102889431Y-123200315D01*
X103113685Y-123424569D01*
X103377379Y-123600763D01*
X103670380Y-123722129D01*
X103981429Y-123784000D01*
X104298571Y-123784000D01*
X104609620Y-123722129D01*
X104902621Y-123600763D01*
X105166315Y-123424569D01*
X105390569Y-123200315D01*
X105566763Y-122936621D01*
X105688129Y-122643620D01*
X105750000Y-122332571D01*
X105750000Y-122015429D01*
X105733292Y-121931429D01*
X115250000Y-121931429D01*
X115250000Y-122248571D01*
X115311871Y-122559620D01*
X115433237Y-122852621D01*
X115609431Y-123116315D01*
X115833685Y-123340569D01*
X116097379Y-123516763D01*
X116390380Y-123638129D01*
X116701429Y-123700000D01*
X117018571Y-123700000D01*
X117329620Y-123638129D01*
X117622621Y-123516763D01*
X117886315Y-123340569D01*
X118110569Y-123116315D01*
X118178933Y-123014000D01*
X120755411Y-123014000D01*
X120805363Y-123088759D01*
X121005241Y-123288637D01*
X121240273Y-123445680D01*
X121501426Y-123553853D01*
X121778665Y-123609000D01*
X122061335Y-123609000D01*
X122338574Y-123553853D01*
X122599727Y-123445680D01*
X122834759Y-123288637D01*
X123034637Y-123088759D01*
X123191680Y-122853727D01*
X123299853Y-122592574D01*
X123355000Y-122315335D01*
X123355000Y-122032665D01*
X123299853Y-121755426D01*
X123191680Y-121494273D01*
X123034637Y-121259241D01*
X122834759Y-121059363D01*
X122599727Y-120902320D01*
X122338574Y-120794147D01*
X122061335Y-120739000D01*
X121778665Y-120739000D01*
X121501426Y-120794147D01*
X121240273Y-120902320D01*
X121005241Y-121059363D01*
X120805363Y-121259241D01*
X120648502Y-121494000D01*
X118355780Y-121494000D01*
X118286763Y-121327379D01*
X118110569Y-121063685D01*
X117886315Y-120839431D01*
X117622621Y-120663237D01*
X117329620Y-120541871D01*
X117018571Y-120480000D01*
X116701429Y-120480000D01*
X116390380Y-120541871D01*
X116097379Y-120663237D01*
X115833685Y-120839431D01*
X115609431Y-121063685D01*
X115433237Y-121327379D01*
X115311871Y-121620380D01*
X115250000Y-121931429D01*
X105733292Y-121931429D01*
X105688129Y-121704380D01*
X105566763Y-121411379D01*
X105390569Y-121147685D01*
X105166315Y-120923431D01*
X104902621Y-120747237D01*
X104609620Y-120625871D01*
X104298571Y-120564000D01*
X103981429Y-120564000D01*
X103670380Y-120625871D01*
X103377379Y-120747237D01*
X103113685Y-120923431D01*
X102889431Y-121147685D01*
X102713237Y-121411379D01*
X102591871Y-121704380D01*
X102530000Y-122015429D01*
X102260000Y-122015429D01*
X102260000Y-119409268D01*
X107525000Y-119409268D01*
X107525000Y-119770732D01*
X107595518Y-120125250D01*
X107733844Y-120459199D01*
X107934662Y-120759744D01*
X108190256Y-121015338D01*
X108490801Y-121216156D01*
X108824750Y-121354482D01*
X109179268Y-121425000D01*
X109540732Y-121425000D01*
X109895250Y-121354482D01*
X110229199Y-121216156D01*
X110529744Y-121015338D01*
X110785338Y-120759744D01*
X110986156Y-120459199D01*
X111124482Y-120125250D01*
X111195000Y-119770732D01*
X111195000Y-119431429D01*
X112750000Y-119431429D01*
X112750000Y-119748571D01*
X112811871Y-120059620D01*
X112933237Y-120352621D01*
X113109431Y-120616315D01*
X113333685Y-120840569D01*
X113597379Y-121016763D01*
X113890380Y-121138129D01*
X114201429Y-121200000D01*
X114518571Y-121200000D01*
X114829620Y-121138129D01*
X115122621Y-121016763D01*
X115386315Y-120840569D01*
X115610569Y-120616315D01*
X115786763Y-120352621D01*
X115908129Y-120059620D01*
X115970000Y-119748571D01*
X115970000Y-119431429D01*
X115908129Y-119120380D01*
X115786763Y-118827379D01*
X115610569Y-118563685D01*
X115386315Y-118339431D01*
X115122621Y-118163237D01*
X114829620Y-118041871D01*
X114518571Y-117980000D01*
X114201429Y-117980000D01*
X113890380Y-118041871D01*
X113597379Y-118163237D01*
X113333685Y-118339431D01*
X113109431Y-118563685D01*
X112933237Y-118827379D01*
X112811871Y-119120380D01*
X112750000Y-119431429D01*
X111195000Y-119431429D01*
X111195000Y-119409268D01*
X111124482Y-119054750D01*
X110986156Y-118720801D01*
X110785338Y-118420256D01*
X110529744Y-118164662D01*
X110229199Y-117963844D01*
X109895250Y-117825518D01*
X109540732Y-117755000D01*
X109179268Y-117755000D01*
X108824750Y-117825518D01*
X108490801Y-117963844D01*
X108190256Y-118164662D01*
X107934662Y-118420256D01*
X107733844Y-118720801D01*
X107595518Y-119054750D01*
X107525000Y-119409268D01*
X102260000Y-119409268D01*
X102260000Y-113246000D01*
X104225928Y-113246000D01*
X104225928Y-114846000D01*
X104238188Y-114970482D01*
X104274498Y-115090180D01*
X104333463Y-115200494D01*
X104412815Y-115297185D01*
X104509506Y-115376537D01*
X104619820Y-115435502D01*
X104739518Y-115471812D01*
X104864000Y-115484072D01*
X106464000Y-115484072D01*
X106588482Y-115471812D01*
X106708180Y-115435502D01*
X106818494Y-115376537D01*
X106915185Y-115297185D01*
X106994537Y-115200494D01*
X107053502Y-115090180D01*
X107089812Y-114970482D01*
X107090643Y-114962039D01*
X107289241Y-115160637D01*
X107524273Y-115317680D01*
X107785426Y-115425853D01*
X108062665Y-115481000D01*
X108345335Y-115481000D01*
X108622574Y-115425853D01*
X108883727Y-115317680D01*
X109118759Y-115160637D01*
X109240694Y-115038702D01*
X109930903Y-115038702D01*
X110002486Y-115282671D01*
X110257996Y-115403571D01*
X110532184Y-115472300D01*
X110814512Y-115486217D01*
X111094130Y-115444787D01*
X111360292Y-115349603D01*
X111485514Y-115282671D01*
X111557097Y-115038702D01*
X112470903Y-115038702D01*
X112542486Y-115282671D01*
X112797996Y-115403571D01*
X113072184Y-115472300D01*
X113354512Y-115486217D01*
X113634130Y-115444787D01*
X113900292Y-115349603D01*
X114025514Y-115282671D01*
X114097097Y-115038702D01*
X113284000Y-114225605D01*
X112470903Y-115038702D01*
X111557097Y-115038702D01*
X110744000Y-114225605D01*
X109930903Y-115038702D01*
X109240694Y-115038702D01*
X109318637Y-114960759D01*
X109474915Y-114726872D01*
X109507329Y-114787514D01*
X109751298Y-114859097D01*
X110564395Y-114046000D01*
X110923605Y-114046000D01*
X111736702Y-114859097D01*
X111980671Y-114787514D01*
X112011971Y-114721364D01*
X112047329Y-114787514D01*
X112291298Y-114859097D01*
X113104395Y-114046000D01*
X113463605Y-114046000D01*
X114276702Y-114859097D01*
X114520671Y-114787514D01*
X114551194Y-114723008D01*
X114552320Y-114725727D01*
X114709363Y-114960759D01*
X114909241Y-115160637D01*
X115144273Y-115317680D01*
X115405426Y-115425853D01*
X115682665Y-115481000D01*
X115965335Y-115481000D01*
X116242574Y-115425853D01*
X116503727Y-115317680D01*
X116738759Y-115160637D01*
X116938637Y-114960759D01*
X117094000Y-114728241D01*
X117249363Y-114960759D01*
X117449241Y-115160637D01*
X117684273Y-115317680D01*
X117945426Y-115425853D01*
X118222665Y-115481000D01*
X118505335Y-115481000D01*
X118782574Y-115425853D01*
X119043727Y-115317680D01*
X119278759Y-115160637D01*
X119478637Y-114960759D01*
X119634000Y-114728241D01*
X119789363Y-114960759D01*
X119989241Y-115160637D01*
X120224273Y-115317680D01*
X120485426Y-115425853D01*
X120762665Y-115481000D01*
X121045335Y-115481000D01*
X121322574Y-115425853D01*
X121583727Y-115317680D01*
X121818759Y-115160637D01*
X122018637Y-114960759D01*
X122174000Y-114728241D01*
X122329363Y-114960759D01*
X122529241Y-115160637D01*
X122764273Y-115317680D01*
X123025426Y-115425853D01*
X123302665Y-115481000D01*
X123585335Y-115481000D01*
X123862574Y-115425853D01*
X124123727Y-115317680D01*
X124358759Y-115160637D01*
X124558637Y-114960759D01*
X124714000Y-114728241D01*
X124869363Y-114960759D01*
X125069241Y-115160637D01*
X125304273Y-115317680D01*
X125565426Y-115425853D01*
X125842665Y-115481000D01*
X126125335Y-115481000D01*
X126402574Y-115425853D01*
X126663727Y-115317680D01*
X126898759Y-115160637D01*
X127098637Y-114960759D01*
X127254000Y-114728241D01*
X127409363Y-114960759D01*
X127609241Y-115160637D01*
X127844273Y-115317680D01*
X128105426Y-115425853D01*
X128382665Y-115481000D01*
X128665335Y-115481000D01*
X128942574Y-115425853D01*
X129203727Y-115317680D01*
X129438759Y-115160637D01*
X129638637Y-114960759D01*
X129794000Y-114728241D01*
X129949363Y-114960759D01*
X130149241Y-115160637D01*
X130384273Y-115317680D01*
X130645426Y-115425853D01*
X130922665Y-115481000D01*
X131205335Y-115481000D01*
X131482574Y-115425853D01*
X131743727Y-115317680D01*
X131978759Y-115160637D01*
X132178637Y-114960759D01*
X132334000Y-114728241D01*
X132489363Y-114960759D01*
X132689241Y-115160637D01*
X132844001Y-115264044D01*
X132844000Y-117795198D01*
X129865906Y-120773292D01*
X129821309Y-120759764D01*
X129610492Y-120739000D01*
X129469508Y-120739000D01*
X129258691Y-120759764D01*
X128988192Y-120841818D01*
X128738899Y-120975068D01*
X128520392Y-121154392D01*
X128341068Y-121372899D01*
X128207818Y-121622192D01*
X128125764Y-121892691D01*
X128098057Y-122174000D01*
X128125764Y-122455309D01*
X128207818Y-122725808D01*
X128341068Y-122975101D01*
X128520392Y-123193608D01*
X128738899Y-123372932D01*
X128988192Y-123506182D01*
X129258691Y-123588236D01*
X129469508Y-123609000D01*
X129610492Y-123609000D01*
X129821309Y-123588236D01*
X130091808Y-123506182D01*
X130341101Y-123372932D01*
X130559608Y-123193608D01*
X130738932Y-122975101D01*
X130872182Y-122725808D01*
X130954236Y-122455309D01*
X130981943Y-122174000D01*
X130954236Y-121892691D01*
X130940708Y-121848094D01*
X134115004Y-118673798D01*
X134144001Y-118650001D01*
X134217328Y-118560652D01*
X134238974Y-118534277D01*
X134309546Y-118402247D01*
X134311591Y-118395505D01*
X134353003Y-118258986D01*
X134364000Y-118147333D01*
X134364000Y-118147323D01*
X134367676Y-118110000D01*
X134364000Y-118072677D01*
X134364000Y-115264043D01*
X134518759Y-115160637D01*
X134718637Y-114960759D01*
X134875680Y-114725727D01*
X134983853Y-114464574D01*
X135039000Y-114187335D01*
X135039000Y-113904665D01*
X134983853Y-113627426D01*
X134875680Y-113366273D01*
X134718637Y-113131241D01*
X134518759Y-112931363D01*
X134283727Y-112774320D01*
X134022574Y-112666147D01*
X133745335Y-112611000D01*
X133462665Y-112611000D01*
X133185426Y-112666147D01*
X132924273Y-112774320D01*
X132689241Y-112931363D01*
X132489363Y-113131241D01*
X132334000Y-113363759D01*
X132178637Y-113131241D01*
X131978759Y-112931363D01*
X131743727Y-112774320D01*
X131482574Y-112666147D01*
X131205335Y-112611000D01*
X130922665Y-112611000D01*
X130645426Y-112666147D01*
X130384273Y-112774320D01*
X130149241Y-112931363D01*
X129949363Y-113131241D01*
X129794000Y-113363759D01*
X129638637Y-113131241D01*
X129438759Y-112931363D01*
X129203727Y-112774320D01*
X128942574Y-112666147D01*
X128665335Y-112611000D01*
X128382665Y-112611000D01*
X128105426Y-112666147D01*
X127844273Y-112774320D01*
X127609241Y-112931363D01*
X127409363Y-113131241D01*
X127254000Y-113363759D01*
X127098637Y-113131241D01*
X126898759Y-112931363D01*
X126663727Y-112774320D01*
X126402574Y-112666147D01*
X126125335Y-112611000D01*
X125842665Y-112611000D01*
X125565426Y-112666147D01*
X125304273Y-112774320D01*
X125069241Y-112931363D01*
X124869363Y-113131241D01*
X124714000Y-113363759D01*
X124558637Y-113131241D01*
X124358759Y-112931363D01*
X124123727Y-112774320D01*
X123862574Y-112666147D01*
X123585335Y-112611000D01*
X123302665Y-112611000D01*
X123025426Y-112666147D01*
X122764273Y-112774320D01*
X122529241Y-112931363D01*
X122329363Y-113131241D01*
X122174000Y-113363759D01*
X122018637Y-113131241D01*
X121818759Y-112931363D01*
X121583727Y-112774320D01*
X121322574Y-112666147D01*
X121045335Y-112611000D01*
X120762665Y-112611000D01*
X120485426Y-112666147D01*
X120224273Y-112774320D01*
X119989241Y-112931363D01*
X119789363Y-113131241D01*
X119634000Y-113363759D01*
X119478637Y-113131241D01*
X119278759Y-112931363D01*
X119043727Y-112774320D01*
X118782574Y-112666147D01*
X118505335Y-112611000D01*
X118222665Y-112611000D01*
X117945426Y-112666147D01*
X117684273Y-112774320D01*
X117449241Y-112931363D01*
X117249363Y-113131241D01*
X117094000Y-113363759D01*
X116938637Y-113131241D01*
X116738759Y-112931363D01*
X116503727Y-112774320D01*
X116242574Y-112666147D01*
X115965335Y-112611000D01*
X115682665Y-112611000D01*
X115405426Y-112666147D01*
X115144273Y-112774320D01*
X114909241Y-112931363D01*
X114709363Y-113131241D01*
X114553085Y-113365128D01*
X114520671Y-113304486D01*
X114276702Y-113232903D01*
X113463605Y-114046000D01*
X113104395Y-114046000D01*
X112291298Y-113232903D01*
X112047329Y-113304486D01*
X112016029Y-113370636D01*
X111980671Y-113304486D01*
X111736702Y-113232903D01*
X110923605Y-114046000D01*
X110564395Y-114046000D01*
X109751298Y-113232903D01*
X109507329Y-113304486D01*
X109476806Y-113368992D01*
X109475680Y-113366273D01*
X109318637Y-113131241D01*
X109240694Y-113053298D01*
X109930903Y-113053298D01*
X110744000Y-113866395D01*
X111557097Y-113053298D01*
X112470903Y-113053298D01*
X113284000Y-113866395D01*
X114097097Y-113053298D01*
X114025514Y-112809329D01*
X113770004Y-112688429D01*
X113495816Y-112619700D01*
X113213488Y-112605783D01*
X112933870Y-112647213D01*
X112667708Y-112742397D01*
X112542486Y-112809329D01*
X112470903Y-113053298D01*
X111557097Y-113053298D01*
X111485514Y-112809329D01*
X111230004Y-112688429D01*
X110955816Y-112619700D01*
X110673488Y-112605783D01*
X110393870Y-112647213D01*
X110127708Y-112742397D01*
X110002486Y-112809329D01*
X109930903Y-113053298D01*
X109240694Y-113053298D01*
X109118759Y-112931363D01*
X108883727Y-112774320D01*
X108622574Y-112666147D01*
X108345335Y-112611000D01*
X108062665Y-112611000D01*
X107785426Y-112666147D01*
X107524273Y-112774320D01*
X107289241Y-112931363D01*
X107090643Y-113129961D01*
X107089812Y-113121518D01*
X107053502Y-113001820D01*
X106994537Y-112891506D01*
X106915185Y-112794815D01*
X106818494Y-112715463D01*
X106708180Y-112656498D01*
X106588482Y-112620188D01*
X106464000Y-112607928D01*
X104864000Y-112607928D01*
X104739518Y-112620188D01*
X104619820Y-112656498D01*
X104509506Y-112715463D01*
X104412815Y-112794815D01*
X104333463Y-112891506D01*
X104274498Y-113001820D01*
X104238188Y-113121518D01*
X104225928Y-113246000D01*
X102260000Y-113246000D01*
X102260000Y-94146000D01*
X104175928Y-94146000D01*
X104175928Y-95846000D01*
X104188188Y-95970482D01*
X104224498Y-96090180D01*
X104283463Y-96200494D01*
X104362815Y-96297185D01*
X104459506Y-96376537D01*
X104569820Y-96435502D01*
X104679000Y-96468622D01*
X104679001Y-97761603D01*
X104549363Y-97891241D01*
X104392320Y-98126273D01*
X104284147Y-98387426D01*
X104229000Y-98664665D01*
X104229000Y-98947335D01*
X104284147Y-99224574D01*
X104392320Y-99485727D01*
X104549363Y-99720759D01*
X104749241Y-99920637D01*
X104984273Y-100077680D01*
X105245426Y-100185853D01*
X105522665Y-100241000D01*
X105805335Y-100241000D01*
X106082574Y-100185853D01*
X106343727Y-100077680D01*
X106578759Y-99920637D01*
X106700694Y-99798702D01*
X107390903Y-99798702D01*
X107462486Y-100042671D01*
X107717996Y-100163571D01*
X107992184Y-100232300D01*
X108274512Y-100246217D01*
X108554130Y-100204787D01*
X108820292Y-100109603D01*
X108945514Y-100042671D01*
X109017097Y-99798702D01*
X108204000Y-98985605D01*
X107390903Y-99798702D01*
X106700694Y-99798702D01*
X106778637Y-99720759D01*
X106934915Y-99486872D01*
X106967329Y-99547514D01*
X107211298Y-99619097D01*
X108024395Y-98806000D01*
X108383605Y-98806000D01*
X109196702Y-99619097D01*
X109440671Y-99547514D01*
X109471194Y-99483008D01*
X109472320Y-99485727D01*
X109629363Y-99720759D01*
X109829241Y-99920637D01*
X110064273Y-100077680D01*
X110325426Y-100185853D01*
X110602665Y-100241000D01*
X110885335Y-100241000D01*
X111162574Y-100185853D01*
X111423727Y-100077680D01*
X111658759Y-99920637D01*
X111858637Y-99720759D01*
X112014000Y-99488241D01*
X112169363Y-99720759D01*
X112299000Y-99850396D01*
X112299001Y-105615610D01*
X112294235Y-105664000D01*
X112313253Y-105857093D01*
X112369576Y-106042766D01*
X112369577Y-106042767D01*
X112461041Y-106213884D01*
X112584131Y-106363870D01*
X112621711Y-106394711D01*
X116363289Y-110136290D01*
X116394130Y-110173870D01*
X116431709Y-110204710D01*
X116544116Y-110296960D01*
X116715233Y-110388424D01*
X116900906Y-110444747D01*
X117094000Y-110463765D01*
X117142380Y-110459000D01*
X136375210Y-110459000D01*
X136429001Y-110524544D01*
X136429000Y-118528498D01*
X136362815Y-118582815D01*
X136283463Y-118679506D01*
X136224498Y-118789820D01*
X136188188Y-118909518D01*
X136175928Y-119034000D01*
X136175928Y-120234000D01*
X136188188Y-120358482D01*
X136224498Y-120478180D01*
X136283463Y-120588494D01*
X136362815Y-120685185D01*
X136429000Y-120739502D01*
X136429001Y-124051998D01*
X129582000Y-130899000D01*
X129469508Y-130899000D01*
X129258691Y-130919764D01*
X128988192Y-131001818D01*
X128738899Y-131135068D01*
X128520392Y-131314392D01*
X128341068Y-131532899D01*
X128207818Y-131782192D01*
X128125764Y-132052691D01*
X128098057Y-132334000D01*
X128125764Y-132615309D01*
X128207818Y-132885808D01*
X128341068Y-133135101D01*
X128520392Y-133353608D01*
X128738899Y-133532932D01*
X128988192Y-133666182D01*
X129258691Y-133748236D01*
X129469508Y-133769000D01*
X129610492Y-133769000D01*
X129821309Y-133748236D01*
X130091808Y-133666182D01*
X130341101Y-133532932D01*
X130559608Y-133353608D01*
X130738932Y-133135101D01*
X130872182Y-132885808D01*
X130954236Y-132615309D01*
X130981943Y-132334000D01*
X130977555Y-132289445D01*
X138076290Y-125190711D01*
X138113870Y-125159870D01*
X138236960Y-125009884D01*
X138328424Y-124838767D01*
X138384747Y-124653094D01*
X138399000Y-124508380D01*
X138403765Y-124460000D01*
X138399000Y-124411620D01*
X138399000Y-120756502D01*
X138512516Y-120808237D01*
X138749313Y-120864000D01*
X138992438Y-120872495D01*
X139232549Y-120833395D01*
X139460418Y-120748202D01*
X139536852Y-120707348D01*
X139584159Y-120483764D01*
X138914000Y-119813605D01*
X138899858Y-119827748D01*
X138720253Y-119648143D01*
X138734395Y-119634000D01*
X139093605Y-119634000D01*
X139763764Y-120304159D01*
X139987348Y-120256852D01*
X140088237Y-120035484D01*
X140144000Y-119798687D01*
X140152495Y-119555562D01*
X140113395Y-119315451D01*
X140028202Y-119087582D01*
X139987348Y-119011148D01*
X139763764Y-118963841D01*
X139093605Y-119634000D01*
X138734395Y-119634000D01*
X138720253Y-119619858D01*
X138899858Y-119440253D01*
X138914000Y-119454395D01*
X139584159Y-118784236D01*
X139536852Y-118560652D01*
X139315484Y-118459763D01*
X139078687Y-118404000D01*
X138835562Y-118395505D01*
X138595451Y-118434605D01*
X138399000Y-118508052D01*
X138399000Y-110908709D01*
X138601735Y-110800345D01*
X138843463Y-110601963D01*
X139041845Y-110360235D01*
X139189255Y-110084449D01*
X139280030Y-109785204D01*
X139310681Y-109474000D01*
X139280030Y-109162796D01*
X139189255Y-108863551D01*
X139041845Y-108587765D01*
X138843463Y-108346037D01*
X138670391Y-108204000D01*
X138843463Y-108061963D01*
X138960790Y-107919000D01*
X139319620Y-107919000D01*
X139368000Y-107923765D01*
X139416380Y-107919000D01*
X139561094Y-107904747D01*
X139746767Y-107848424D01*
X139917884Y-107756960D01*
X140067870Y-107633870D01*
X140098716Y-107596284D01*
X140616279Y-107078720D01*
X140653870Y-107047870D01*
X140776960Y-106897884D01*
X140868424Y-106726767D01*
X140924747Y-106541094D01*
X140939000Y-106396380D01*
X140943765Y-106348001D01*
X140939000Y-106299621D01*
X140939000Y-101001749D01*
X140943765Y-100953369D01*
X140924747Y-100760276D01*
X140868424Y-100574603D01*
X140844582Y-100529998D01*
X140776960Y-100403486D01*
X140653870Y-100253500D01*
X140616284Y-100222654D01*
X135874332Y-95480702D01*
X136306903Y-95480702D01*
X136378486Y-95724671D01*
X136633996Y-95845571D01*
X136908184Y-95914300D01*
X137190512Y-95928217D01*
X137470130Y-95886787D01*
X137736292Y-95791603D01*
X137861514Y-95724671D01*
X137933097Y-95480702D01*
X137120000Y-94667605D01*
X136306903Y-95480702D01*
X135874332Y-95480702D01*
X135759371Y-95365741D01*
X135868692Y-95202131D01*
X135883329Y-95229514D01*
X136127298Y-95301097D01*
X136940395Y-94488000D01*
X137299605Y-94488000D01*
X138112702Y-95301097D01*
X138356671Y-95229514D01*
X138477571Y-94974004D01*
X138546300Y-94699816D01*
X138560217Y-94417488D01*
X138518787Y-94137870D01*
X138423603Y-93871708D01*
X138356671Y-93746486D01*
X138112702Y-93674903D01*
X137299605Y-94488000D01*
X136940395Y-94488000D01*
X136127298Y-93674903D01*
X135883329Y-93746486D01*
X135869676Y-93775341D01*
X135734637Y-93573241D01*
X135656694Y-93495298D01*
X136306903Y-93495298D01*
X137120000Y-94308395D01*
X137933097Y-93495298D01*
X137861514Y-93251329D01*
X137606004Y-93130429D01*
X137331816Y-93061700D01*
X137049488Y-93047783D01*
X136769870Y-93089213D01*
X136503708Y-93184397D01*
X136378486Y-93251329D01*
X136306903Y-93495298D01*
X135656694Y-93495298D01*
X135605000Y-93443604D01*
X135605000Y-92552692D01*
X135675134Y-92495134D01*
X135860706Y-92269014D01*
X135891584Y-92211244D01*
X136062412Y-92440269D01*
X136278645Y-92635178D01*
X136528748Y-92784157D01*
X136803109Y-92881481D01*
X137033000Y-92760814D01*
X137033000Y-91567000D01*
X137287000Y-91567000D01*
X137287000Y-92760814D01*
X137516891Y-92881481D01*
X137791252Y-92784157D01*
X138041355Y-92635178D01*
X138257588Y-92440269D01*
X138431641Y-92206920D01*
X138556825Y-91944099D01*
X138601476Y-91796890D01*
X138480155Y-91567000D01*
X137287000Y-91567000D01*
X137033000Y-91567000D01*
X137013000Y-91567000D01*
X137013000Y-91313000D01*
X137033000Y-91313000D01*
X137033000Y-91293000D01*
X137287000Y-91293000D01*
X137287000Y-91313000D01*
X138480155Y-91313000D01*
X138601476Y-91083110D01*
X138556825Y-90935901D01*
X138431641Y-90673080D01*
X138257588Y-90439731D01*
X138041355Y-90244822D01*
X137924477Y-90175201D01*
X137989014Y-90140706D01*
X138215134Y-89955134D01*
X138400706Y-89729014D01*
X138538599Y-89471034D01*
X138623513Y-89191111D01*
X138652185Y-88900000D01*
X138623513Y-88608889D01*
X138600797Y-88534005D01*
X139296015Y-87838787D01*
X139325012Y-87814990D01*
X139419985Y-87699265D01*
X139490557Y-87567236D01*
X139534014Y-87423975D01*
X139545011Y-87312322D01*
X139545011Y-87312321D01*
X139548688Y-87274989D01*
X139545011Y-87237656D01*
X139545011Y-83007434D01*
X139548687Y-82970111D01*
X139545011Y-82932788D01*
X139545011Y-82932778D01*
X139534014Y-82821125D01*
X139490557Y-82677864D01*
X139470851Y-82640997D01*
X139419985Y-82545834D01*
X139348810Y-82459108D01*
X139325012Y-82430110D01*
X139296014Y-82406312D01*
X137673672Y-80783971D01*
X137649869Y-80754967D01*
X137534144Y-80659994D01*
X137402115Y-80589422D01*
X137258854Y-80545965D01*
X137147201Y-80534968D01*
X137147190Y-80534968D01*
X137109868Y-80531292D01*
X137072546Y-80534968D01*
X128546355Y-80534968D01*
X128509032Y-80531292D01*
X128471709Y-80534968D01*
X128471699Y-80534968D01*
X128360046Y-80545965D01*
X128216785Y-80589422D01*
X128084755Y-80659994D01*
X128001115Y-80728636D01*
X127969031Y-80754967D01*
X127945233Y-80783965D01*
X122933003Y-85796196D01*
X122903999Y-85819999D01*
X122848871Y-85887174D01*
X122809026Y-85935724D01*
X122802103Y-85948676D01*
X122738454Y-86067754D01*
X122694997Y-86211015D01*
X122684000Y-86322668D01*
X122684000Y-86322678D01*
X122680324Y-86360000D01*
X122684000Y-86397322D01*
X122684001Y-97587956D01*
X122529241Y-97691363D01*
X122329363Y-97891241D01*
X122174000Y-98123759D01*
X122018637Y-97891241D01*
X121818759Y-97691363D01*
X121583727Y-97534320D01*
X121322574Y-97426147D01*
X121045335Y-97371000D01*
X120762665Y-97371000D01*
X120485426Y-97426147D01*
X120224273Y-97534320D01*
X119989241Y-97691363D01*
X119789363Y-97891241D01*
X119634000Y-98123759D01*
X119478637Y-97891241D01*
X119278759Y-97691363D01*
X119043727Y-97534320D01*
X118782574Y-97426147D01*
X118505335Y-97371000D01*
X118222665Y-97371000D01*
X117945426Y-97426147D01*
X117684273Y-97534320D01*
X117449241Y-97691363D01*
X117249363Y-97891241D01*
X117094000Y-98123759D01*
X116938637Y-97891241D01*
X116738759Y-97691363D01*
X116503727Y-97534320D01*
X116242574Y-97426147D01*
X115965335Y-97371000D01*
X115682665Y-97371000D01*
X115405426Y-97426147D01*
X115144273Y-97534320D01*
X114909241Y-97691363D01*
X114709363Y-97891241D01*
X114554000Y-98123759D01*
X114398637Y-97891241D01*
X114198759Y-97691363D01*
X113963727Y-97534320D01*
X113702574Y-97426147D01*
X113425335Y-97371000D01*
X113142665Y-97371000D01*
X112865426Y-97426147D01*
X112604273Y-97534320D01*
X112369241Y-97691363D01*
X112169363Y-97891241D01*
X112014000Y-98123759D01*
X111858637Y-97891241D01*
X111658759Y-97691363D01*
X111423727Y-97534320D01*
X111162574Y-97426147D01*
X110885335Y-97371000D01*
X110602665Y-97371000D01*
X110325426Y-97426147D01*
X110064273Y-97534320D01*
X109829241Y-97691363D01*
X109629363Y-97891241D01*
X109473085Y-98125128D01*
X109440671Y-98064486D01*
X109196702Y-97992903D01*
X108383605Y-98806000D01*
X108024395Y-98806000D01*
X107211298Y-97992903D01*
X106967329Y-98064486D01*
X106936806Y-98128992D01*
X106935680Y-98126273D01*
X106778637Y-97891241D01*
X106700694Y-97813298D01*
X107390903Y-97813298D01*
X108204000Y-98626395D01*
X109017097Y-97813298D01*
X108945514Y-97569329D01*
X108690004Y-97448429D01*
X108415816Y-97379700D01*
X108133488Y-97365783D01*
X107853870Y-97407213D01*
X107587708Y-97502397D01*
X107462486Y-97569329D01*
X107390903Y-97813298D01*
X106700694Y-97813298D01*
X106649000Y-97761604D01*
X106649000Y-96468621D01*
X106758180Y-96435502D01*
X106868494Y-96376537D01*
X106965185Y-96297185D01*
X107044537Y-96200494D01*
X107103502Y-96090180D01*
X107139812Y-95970482D01*
X107152072Y-95846000D01*
X107985928Y-95846000D01*
X107998188Y-95970482D01*
X108034498Y-96090180D01*
X108093463Y-96200494D01*
X108172815Y-96297185D01*
X108269506Y-96376537D01*
X108379820Y-96435502D01*
X108499518Y-96471812D01*
X108624000Y-96484072D01*
X109188250Y-96481000D01*
X109347000Y-96322250D01*
X109347000Y-95123000D01*
X109601000Y-95123000D01*
X109601000Y-96322250D01*
X109759750Y-96481000D01*
X110324000Y-96484072D01*
X110448482Y-96471812D01*
X110568180Y-96435502D01*
X110678494Y-96376537D01*
X110775185Y-96297185D01*
X110854537Y-96200494D01*
X110913502Y-96090180D01*
X110949812Y-95970482D01*
X110962072Y-95846000D01*
X110959000Y-95281750D01*
X110800250Y-95123000D01*
X109601000Y-95123000D01*
X109347000Y-95123000D01*
X108147750Y-95123000D01*
X107989000Y-95281750D01*
X107985928Y-95846000D01*
X107152072Y-95846000D01*
X107152072Y-94146000D01*
X107985928Y-94146000D01*
X107989000Y-94710250D01*
X108147750Y-94869000D01*
X109347000Y-94869000D01*
X109347000Y-93669750D01*
X109601000Y-93669750D01*
X109601000Y-94869000D01*
X110800250Y-94869000D01*
X110959000Y-94710250D01*
X110962072Y-94146000D01*
X110949812Y-94021518D01*
X110913502Y-93901820D01*
X110854537Y-93791506D01*
X110775185Y-93694815D01*
X110678494Y-93615463D01*
X110568180Y-93556498D01*
X110448482Y-93520188D01*
X110324000Y-93507928D01*
X109759750Y-93511000D01*
X109601000Y-93669750D01*
X109347000Y-93669750D01*
X109188250Y-93511000D01*
X108624000Y-93507928D01*
X108499518Y-93520188D01*
X108379820Y-93556498D01*
X108269506Y-93615463D01*
X108172815Y-93694815D01*
X108093463Y-93791506D01*
X108034498Y-93901820D01*
X107998188Y-94021518D01*
X107985928Y-94146000D01*
X107152072Y-94146000D01*
X107139812Y-94021518D01*
X107103502Y-93901820D01*
X107044537Y-93791506D01*
X106965185Y-93694815D01*
X106868494Y-93615463D01*
X106758180Y-93556498D01*
X106638482Y-93520188D01*
X106514000Y-93507928D01*
X104814000Y-93507928D01*
X104689518Y-93520188D01*
X104569820Y-93556498D01*
X104459506Y-93615463D01*
X104362815Y-93694815D01*
X104283463Y-93791506D01*
X104224498Y-93901820D01*
X104188188Y-94021518D01*
X104175928Y-94146000D01*
X102260000Y-94146000D01*
X102260000Y-78832967D01*
X102759000Y-78832967D01*
X102759000Y-79155033D01*
X102821832Y-79470912D01*
X102945082Y-79768463D01*
X103124013Y-80036252D01*
X103351748Y-80263987D01*
X103619537Y-80442918D01*
X103917088Y-80566168D01*
X104232967Y-80629000D01*
X104555033Y-80629000D01*
X104870912Y-80566168D01*
X105168463Y-80442918D01*
X105436252Y-80263987D01*
X105663987Y-80036252D01*
X105842918Y-79768463D01*
X105966168Y-79470912D01*
X106029000Y-79155033D01*
X106029000Y-78832967D01*
X137811000Y-78832967D01*
X137811000Y-79155033D01*
X137873832Y-79470912D01*
X137997082Y-79768463D01*
X138176013Y-80036252D01*
X138403748Y-80263987D01*
X138671537Y-80442918D01*
X138969088Y-80566168D01*
X139284967Y-80629000D01*
X139607033Y-80629000D01*
X139922912Y-80566168D01*
X140220463Y-80442918D01*
X140488252Y-80263987D01*
X140715987Y-80036252D01*
X140894918Y-79768463D01*
X141018168Y-79470912D01*
X141081000Y-79155033D01*
X141081000Y-78832967D01*
X141018168Y-78517088D01*
X140894918Y-78219537D01*
X140715987Y-77951748D01*
X140488252Y-77724013D01*
X140220463Y-77545082D01*
X139922912Y-77421832D01*
X139607033Y-77359000D01*
X139284967Y-77359000D01*
X138969088Y-77421832D01*
X138671537Y-77545082D01*
X138403748Y-77724013D01*
X138176013Y-77951748D01*
X137997082Y-78219537D01*
X137873832Y-78517088D01*
X137811000Y-78832967D01*
X106029000Y-78832967D01*
X105966168Y-78517088D01*
X105842918Y-78219537D01*
X105663987Y-77951748D01*
X105436252Y-77724013D01*
X105168463Y-77545082D01*
X104870912Y-77421832D01*
X104555033Y-77359000D01*
X104232967Y-77359000D01*
X103917088Y-77421832D01*
X103619537Y-77545082D01*
X103351748Y-77724013D01*
X103124013Y-77951748D01*
X102945082Y-78219537D01*
X102821832Y-78517088D01*
X102759000Y-78832967D01*
X102260000Y-78832967D01*
X102260000Y-76860000D01*
X141580000Y-76860000D01*
X141580001Y-137127572D01*
X141580001Y-137127572D01*
G37*
X141580001Y-137127572D02*
X141580000Y-137127582D01*
X141580000Y-137381582D01*
X141580001Y-139040000D01*
X102260000Y-139040000D01*
X102260000Y-136744967D01*
X102505000Y-136744967D01*
X102505000Y-137067033D01*
X102567832Y-137382912D01*
X102691082Y-137680463D01*
X102870013Y-137948252D01*
X103097748Y-138175987D01*
X103365537Y-138354918D01*
X103663088Y-138478168D01*
X103978967Y-138541000D01*
X104301033Y-138541000D01*
X104616912Y-138478168D01*
X104914463Y-138354918D01*
X105182252Y-138175987D01*
X105409987Y-137948252D01*
X105588918Y-137680463D01*
X105712168Y-137382912D01*
X105775000Y-137067033D01*
X105775000Y-136998967D01*
X137811000Y-136998967D01*
X137811000Y-137321033D01*
X137873832Y-137636912D01*
X137997082Y-137934463D01*
X138176013Y-138202252D01*
X138403748Y-138429987D01*
X138671537Y-138608918D01*
X138969088Y-138732168D01*
X139284967Y-138795000D01*
X139607033Y-138795000D01*
X139922912Y-138732168D01*
X140220463Y-138608918D01*
X140488252Y-138429987D01*
X140715987Y-138202252D01*
X140894918Y-137934463D01*
X141018168Y-137636912D01*
X141081000Y-137321033D01*
X141081000Y-136998967D01*
X141018168Y-136683088D01*
X140894918Y-136385537D01*
X140715987Y-136117748D01*
X140488252Y-135890013D01*
X140220463Y-135711082D01*
X139922912Y-135587832D01*
X139607033Y-135525000D01*
X139284967Y-135525000D01*
X138969088Y-135587832D01*
X138671537Y-135711082D01*
X138403748Y-135890013D01*
X138176013Y-136117748D01*
X137997082Y-136385537D01*
X137873832Y-136683088D01*
X137811000Y-136998967D01*
X105775000Y-136998967D01*
X105775000Y-136744967D01*
X105712168Y-136429088D01*
X105588918Y-136131537D01*
X105409987Y-135863748D01*
X105182252Y-135636013D01*
X104914463Y-135457082D01*
X104616912Y-135333832D01*
X104301033Y-135271000D01*
X103978967Y-135271000D01*
X103663088Y-135333832D01*
X103365537Y-135457082D01*
X103097748Y-135636013D01*
X102870013Y-135863748D01*
X102691082Y-136131537D01*
X102567832Y-136429088D01*
X102505000Y-136744967D01*
X102260000Y-136744967D01*
X102260000Y-134409268D01*
X107525000Y-134409268D01*
X107525000Y-134770732D01*
X107595518Y-135125250D01*
X107733844Y-135459199D01*
X107934662Y-135759744D01*
X108190256Y-136015338D01*
X108490801Y-136216156D01*
X108824750Y-136354482D01*
X109179268Y-136425000D01*
X109540732Y-136425000D01*
X109895250Y-136354482D01*
X110229199Y-136216156D01*
X110529744Y-136015338D01*
X110785338Y-135759744D01*
X110986156Y-135459199D01*
X111124482Y-135125250D01*
X111195000Y-134770732D01*
X111195000Y-134431429D01*
X112750000Y-134431429D01*
X112750000Y-134748571D01*
X112811871Y-135059620D01*
X112933237Y-135352621D01*
X113109431Y-135616315D01*
X113333685Y-135840569D01*
X113597379Y-136016763D01*
X113890380Y-136138129D01*
X114201429Y-136200000D01*
X114518571Y-136200000D01*
X114829620Y-136138129D01*
X115122621Y-136016763D01*
X115386315Y-135840569D01*
X115610569Y-135616315D01*
X115786763Y-135352621D01*
X115908129Y-135059620D01*
X115970000Y-134748571D01*
X115970000Y-134431429D01*
X115908129Y-134120380D01*
X115786763Y-133827379D01*
X115610569Y-133563685D01*
X115386315Y-133339431D01*
X115122621Y-133163237D01*
X114829620Y-133041871D01*
X114518571Y-132980000D01*
X114201429Y-132980000D01*
X113890380Y-133041871D01*
X113597379Y-133163237D01*
X113333685Y-133339431D01*
X113109431Y-133563685D01*
X112933237Y-133827379D01*
X112811871Y-134120380D01*
X112750000Y-134431429D01*
X111195000Y-134431429D01*
X111195000Y-134409268D01*
X111124482Y-134054750D01*
X110986156Y-133720801D01*
X110785338Y-133420256D01*
X110529744Y-133164662D01*
X110229199Y-132963844D01*
X109895250Y-132825518D01*
X109540732Y-132755000D01*
X109179268Y-132755000D01*
X108824750Y-132825518D01*
X108490801Y-132963844D01*
X108190256Y-133164662D01*
X107934662Y-133420256D01*
X107733844Y-133720801D01*
X107595518Y-134054750D01*
X107525000Y-134409268D01*
X102260000Y-134409268D01*
X102260000Y-131921429D01*
X102530000Y-131921429D01*
X102530000Y-132238571D01*
X102591871Y-132549620D01*
X102713237Y-132842621D01*
X102889431Y-133106315D01*
X103113685Y-133330569D01*
X103377379Y-133506763D01*
X103670380Y-133628129D01*
X103981429Y-133690000D01*
X104298571Y-133690000D01*
X104609620Y-133628129D01*
X104902621Y-133506763D01*
X105166315Y-133330569D01*
X105390569Y-133106315D01*
X105566763Y-132842621D01*
X105688129Y-132549620D01*
X105750000Y-132238571D01*
X105750000Y-131931429D01*
X115250000Y-131931429D01*
X115250000Y-132248571D01*
X115311871Y-132559620D01*
X115433237Y-132852621D01*
X115609431Y-133116315D01*
X115833685Y-133340569D01*
X116097379Y-133516763D01*
X116390380Y-133638129D01*
X116701429Y-133700000D01*
X117018571Y-133700000D01*
X117329620Y-133638129D01*
X117622621Y-133516763D01*
X117886315Y-133340569D01*
X118110569Y-133116315D01*
X118178933Y-133014000D01*
X120648502Y-133014000D01*
X120805363Y-133248759D01*
X121005241Y-133448637D01*
X121240273Y-133605680D01*
X121501426Y-133713853D01*
X121778665Y-133769000D01*
X122061335Y-133769000D01*
X122338574Y-133713853D01*
X122599727Y-133605680D01*
X122834759Y-133448637D01*
X123034637Y-133248759D01*
X123191680Y-133013727D01*
X123299853Y-132752574D01*
X123355000Y-132475335D01*
X123355000Y-132192665D01*
X123299853Y-131915426D01*
X123191680Y-131654273D01*
X123034637Y-131419241D01*
X122834759Y-131219363D01*
X122599727Y-131062320D01*
X122338574Y-130954147D01*
X122061335Y-130899000D01*
X121778665Y-130899000D01*
X121501426Y-130954147D01*
X121240273Y-131062320D01*
X121005241Y-131219363D01*
X120805363Y-131419241D01*
X120755411Y-131494000D01*
X118355780Y-131494000D01*
X118286763Y-131327379D01*
X118110569Y-131063685D01*
X117886315Y-130839431D01*
X117622621Y-130663237D01*
X117329620Y-130541871D01*
X117018571Y-130480000D01*
X116701429Y-130480000D01*
X116390380Y-130541871D01*
X116097379Y-130663237D01*
X115833685Y-130839431D01*
X115609431Y-131063685D01*
X115433237Y-131327379D01*
X115311871Y-131620380D01*
X115250000Y-131931429D01*
X105750000Y-131931429D01*
X105750000Y-131921429D01*
X105688129Y-131610380D01*
X105566763Y-131317379D01*
X105390569Y-131053685D01*
X105166315Y-130829431D01*
X104902621Y-130653237D01*
X104609620Y-130531871D01*
X104298571Y-130470000D01*
X103981429Y-130470000D01*
X103670380Y-130531871D01*
X103377379Y-130653237D01*
X103113685Y-130829431D01*
X102889431Y-131053685D01*
X102713237Y-131317379D01*
X102591871Y-131610380D01*
X102530000Y-131921429D01*
X102260000Y-131921429D01*
X102260000Y-128207584D01*
X113422021Y-128207584D01*
X113514766Y-128469429D01*
X113800120Y-128607820D01*
X114106990Y-128687883D01*
X114423584Y-128706540D01*
X114737733Y-128663074D01*
X115037367Y-128559156D01*
X115205234Y-128469429D01*
X115297979Y-128207584D01*
X114360000Y-127269605D01*
X113422021Y-128207584D01*
X102260000Y-128207584D01*
X102260000Y-127153584D01*
X112743460Y-127153584D01*
X112786926Y-127467733D01*
X112890844Y-127767367D01*
X112980571Y-127935234D01*
X113242416Y-128027979D01*
X114180395Y-127090000D01*
X114539605Y-127090000D01*
X115477584Y-128027979D01*
X115739429Y-127935234D01*
X115877820Y-127649880D01*
X115957883Y-127343010D01*
X115976540Y-127026416D01*
X115933074Y-126712267D01*
X115829156Y-126412633D01*
X115739429Y-126244766D01*
X115477584Y-126152021D01*
X114539605Y-127090000D01*
X114180395Y-127090000D01*
X113242416Y-126152021D01*
X112980571Y-126244766D01*
X112842180Y-126530120D01*
X112762117Y-126836990D01*
X112743460Y-127153584D01*
X102260000Y-127153584D01*
X102260000Y-125972416D01*
X113422021Y-125972416D01*
X114360000Y-126910395D01*
X115297979Y-125972416D01*
X115205234Y-125710571D01*
X114919880Y-125572180D01*
X114613010Y-125492117D01*
X114296416Y-125473460D01*
X113982267Y-125516926D01*
X113682633Y-125620844D01*
X113514766Y-125710571D01*
X113422021Y-125972416D01*
X102260000Y-125972416D01*
X102260000Y-122015429D01*
X102530000Y-122015429D01*
X102530000Y-122332571D01*
X102591871Y-122643620D01*
X102713237Y-122936621D01*
X102889431Y-123200315D01*
X103113685Y-123424569D01*
X103377379Y-123600763D01*
X103670380Y-123722129D01*
X103981429Y-123784000D01*
X104298571Y-123784000D01*
X104609620Y-123722129D01*
X104902621Y-123600763D01*
X105166315Y-123424569D01*
X105390569Y-123200315D01*
X105566763Y-122936621D01*
X105688129Y-122643620D01*
X105750000Y-122332571D01*
X105750000Y-122015429D01*
X105733292Y-121931429D01*
X115250000Y-121931429D01*
X115250000Y-122248571D01*
X115311871Y-122559620D01*
X115433237Y-122852621D01*
X115609431Y-123116315D01*
X115833685Y-123340569D01*
X116097379Y-123516763D01*
X116390380Y-123638129D01*
X116701429Y-123700000D01*
X117018571Y-123700000D01*
X117329620Y-123638129D01*
X117622621Y-123516763D01*
X117886315Y-123340569D01*
X118110569Y-123116315D01*
X118178933Y-123014000D01*
X120755411Y-123014000D01*
X120805363Y-123088759D01*
X121005241Y-123288637D01*
X121240273Y-123445680D01*
X121501426Y-123553853D01*
X121778665Y-123609000D01*
X122061335Y-123609000D01*
X122338574Y-123553853D01*
X122599727Y-123445680D01*
X122834759Y-123288637D01*
X123034637Y-123088759D01*
X123191680Y-122853727D01*
X123299853Y-122592574D01*
X123355000Y-122315335D01*
X123355000Y-122032665D01*
X123299853Y-121755426D01*
X123191680Y-121494273D01*
X123034637Y-121259241D01*
X122834759Y-121059363D01*
X122599727Y-120902320D01*
X122338574Y-120794147D01*
X122061335Y-120739000D01*
X121778665Y-120739000D01*
X121501426Y-120794147D01*
X121240273Y-120902320D01*
X121005241Y-121059363D01*
X120805363Y-121259241D01*
X120648502Y-121494000D01*
X118355780Y-121494000D01*
X118286763Y-121327379D01*
X118110569Y-121063685D01*
X117886315Y-120839431D01*
X117622621Y-120663237D01*
X117329620Y-120541871D01*
X117018571Y-120480000D01*
X116701429Y-120480000D01*
X116390380Y-120541871D01*
X116097379Y-120663237D01*
X115833685Y-120839431D01*
X115609431Y-121063685D01*
X115433237Y-121327379D01*
X115311871Y-121620380D01*
X115250000Y-121931429D01*
X105733292Y-121931429D01*
X105688129Y-121704380D01*
X105566763Y-121411379D01*
X105390569Y-121147685D01*
X105166315Y-120923431D01*
X104902621Y-120747237D01*
X104609620Y-120625871D01*
X104298571Y-120564000D01*
X103981429Y-120564000D01*
X103670380Y-120625871D01*
X103377379Y-120747237D01*
X103113685Y-120923431D01*
X102889431Y-121147685D01*
X102713237Y-121411379D01*
X102591871Y-121704380D01*
X102530000Y-122015429D01*
X102260000Y-122015429D01*
X102260000Y-119409268D01*
X107525000Y-119409268D01*
X107525000Y-119770732D01*
X107595518Y-120125250D01*
X107733844Y-120459199D01*
X107934662Y-120759744D01*
X108190256Y-121015338D01*
X108490801Y-121216156D01*
X108824750Y-121354482D01*
X109179268Y-121425000D01*
X109540732Y-121425000D01*
X109895250Y-121354482D01*
X110229199Y-121216156D01*
X110529744Y-121015338D01*
X110785338Y-120759744D01*
X110986156Y-120459199D01*
X111124482Y-120125250D01*
X111195000Y-119770732D01*
X111195000Y-119431429D01*
X112750000Y-119431429D01*
X112750000Y-119748571D01*
X112811871Y-120059620D01*
X112933237Y-120352621D01*
X113109431Y-120616315D01*
X113333685Y-120840569D01*
X113597379Y-121016763D01*
X113890380Y-121138129D01*
X114201429Y-121200000D01*
X114518571Y-121200000D01*
X114829620Y-121138129D01*
X115122621Y-121016763D01*
X115386315Y-120840569D01*
X115610569Y-120616315D01*
X115786763Y-120352621D01*
X115908129Y-120059620D01*
X115970000Y-119748571D01*
X115970000Y-119431429D01*
X115908129Y-119120380D01*
X115786763Y-118827379D01*
X115610569Y-118563685D01*
X115386315Y-118339431D01*
X115122621Y-118163237D01*
X114829620Y-118041871D01*
X114518571Y-117980000D01*
X114201429Y-117980000D01*
X113890380Y-118041871D01*
X113597379Y-118163237D01*
X113333685Y-118339431D01*
X113109431Y-118563685D01*
X112933237Y-118827379D01*
X112811871Y-119120380D01*
X112750000Y-119431429D01*
X111195000Y-119431429D01*
X111195000Y-119409268D01*
X111124482Y-119054750D01*
X110986156Y-118720801D01*
X110785338Y-118420256D01*
X110529744Y-118164662D01*
X110229199Y-117963844D01*
X109895250Y-117825518D01*
X109540732Y-117755000D01*
X109179268Y-117755000D01*
X108824750Y-117825518D01*
X108490801Y-117963844D01*
X108190256Y-118164662D01*
X107934662Y-118420256D01*
X107733844Y-118720801D01*
X107595518Y-119054750D01*
X107525000Y-119409268D01*
X102260000Y-119409268D01*
X102260000Y-113246000D01*
X104225928Y-113246000D01*
X104225928Y-114846000D01*
X104238188Y-114970482D01*
X104274498Y-115090180D01*
X104333463Y-115200494D01*
X104412815Y-115297185D01*
X104509506Y-115376537D01*
X104619820Y-115435502D01*
X104739518Y-115471812D01*
X104864000Y-115484072D01*
X106464000Y-115484072D01*
X106588482Y-115471812D01*
X106708180Y-115435502D01*
X106818494Y-115376537D01*
X106915185Y-115297185D01*
X106994537Y-115200494D01*
X107053502Y-115090180D01*
X107089812Y-114970482D01*
X107090643Y-114962039D01*
X107289241Y-115160637D01*
X107524273Y-115317680D01*
X107785426Y-115425853D01*
X108062665Y-115481000D01*
X108345335Y-115481000D01*
X108622574Y-115425853D01*
X108883727Y-115317680D01*
X109118759Y-115160637D01*
X109240694Y-115038702D01*
X109930903Y-115038702D01*
X110002486Y-115282671D01*
X110257996Y-115403571D01*
X110532184Y-115472300D01*
X110814512Y-115486217D01*
X111094130Y-115444787D01*
X111360292Y-115349603D01*
X111485514Y-115282671D01*
X111557097Y-115038702D01*
X112470903Y-115038702D01*
X112542486Y-115282671D01*
X112797996Y-115403571D01*
X113072184Y-115472300D01*
X113354512Y-115486217D01*
X113634130Y-115444787D01*
X113900292Y-115349603D01*
X114025514Y-115282671D01*
X114097097Y-115038702D01*
X113284000Y-114225605D01*
X112470903Y-115038702D01*
X111557097Y-115038702D01*
X110744000Y-114225605D01*
X109930903Y-115038702D01*
X109240694Y-115038702D01*
X109318637Y-114960759D01*
X109474915Y-114726872D01*
X109507329Y-114787514D01*
X109751298Y-114859097D01*
X110564395Y-114046000D01*
X110923605Y-114046000D01*
X111736702Y-114859097D01*
X111980671Y-114787514D01*
X112011971Y-114721364D01*
X112047329Y-114787514D01*
X112291298Y-114859097D01*
X113104395Y-114046000D01*
X113463605Y-114046000D01*
X114276702Y-114859097D01*
X114520671Y-114787514D01*
X114551194Y-114723008D01*
X114552320Y-114725727D01*
X114709363Y-114960759D01*
X114909241Y-115160637D01*
X115144273Y-115317680D01*
X115405426Y-115425853D01*
X115682665Y-115481000D01*
X115965335Y-115481000D01*
X116242574Y-115425853D01*
X116503727Y-115317680D01*
X116738759Y-115160637D01*
X116938637Y-114960759D01*
X117094000Y-114728241D01*
X117249363Y-114960759D01*
X117449241Y-115160637D01*
X117684273Y-115317680D01*
X117945426Y-115425853D01*
X118222665Y-115481000D01*
X118505335Y-115481000D01*
X118782574Y-115425853D01*
X119043727Y-115317680D01*
X119278759Y-115160637D01*
X119478637Y-114960759D01*
X119634000Y-114728241D01*
X119789363Y-114960759D01*
X119989241Y-115160637D01*
X120224273Y-115317680D01*
X120485426Y-115425853D01*
X120762665Y-115481000D01*
X121045335Y-115481000D01*
X121322574Y-115425853D01*
X121583727Y-115317680D01*
X121818759Y-115160637D01*
X122018637Y-114960759D01*
X122174000Y-114728241D01*
X122329363Y-114960759D01*
X122529241Y-115160637D01*
X122764273Y-115317680D01*
X123025426Y-115425853D01*
X123302665Y-115481000D01*
X123585335Y-115481000D01*
X123862574Y-115425853D01*
X124123727Y-115317680D01*
X124358759Y-115160637D01*
X124558637Y-114960759D01*
X124714000Y-114728241D01*
X124869363Y-114960759D01*
X125069241Y-115160637D01*
X125304273Y-115317680D01*
X125565426Y-115425853D01*
X125842665Y-115481000D01*
X126125335Y-115481000D01*
X126402574Y-115425853D01*
X126663727Y-115317680D01*
X126898759Y-115160637D01*
X127098637Y-114960759D01*
X127254000Y-114728241D01*
X127409363Y-114960759D01*
X127609241Y-115160637D01*
X127844273Y-115317680D01*
X128105426Y-115425853D01*
X128382665Y-115481000D01*
X128665335Y-115481000D01*
X128942574Y-115425853D01*
X129203727Y-115317680D01*
X129438759Y-115160637D01*
X129638637Y-114960759D01*
X129794000Y-114728241D01*
X129949363Y-114960759D01*
X130149241Y-115160637D01*
X130384273Y-115317680D01*
X130645426Y-115425853D01*
X130922665Y-115481000D01*
X131205335Y-115481000D01*
X131482574Y-115425853D01*
X131743727Y-115317680D01*
X131978759Y-115160637D01*
X132178637Y-114960759D01*
X132334000Y-114728241D01*
X132489363Y-114960759D01*
X132689241Y-115160637D01*
X132844001Y-115264044D01*
X132844000Y-117795198D01*
X129865906Y-120773292D01*
X129821309Y-120759764D01*
X129610492Y-120739000D01*
X129469508Y-120739000D01*
X129258691Y-120759764D01*
X128988192Y-120841818D01*
X128738899Y-120975068D01*
X128520392Y-121154392D01*
X128341068Y-121372899D01*
X128207818Y-121622192D01*
X128125764Y-121892691D01*
X128098057Y-122174000D01*
X128125764Y-122455309D01*
X128207818Y-122725808D01*
X128341068Y-122975101D01*
X128520392Y-123193608D01*
X128738899Y-123372932D01*
X128988192Y-123506182D01*
X129258691Y-123588236D01*
X129469508Y-123609000D01*
X129610492Y-123609000D01*
X129821309Y-123588236D01*
X130091808Y-123506182D01*
X130341101Y-123372932D01*
X130559608Y-123193608D01*
X130738932Y-122975101D01*
X130872182Y-122725808D01*
X130954236Y-122455309D01*
X130981943Y-122174000D01*
X130954236Y-121892691D01*
X130940708Y-121848094D01*
X134115004Y-118673798D01*
X134144001Y-118650001D01*
X134217328Y-118560652D01*
X134238974Y-118534277D01*
X134309546Y-118402247D01*
X134311591Y-118395505D01*
X134353003Y-118258986D01*
X134364000Y-118147333D01*
X134364000Y-118147323D01*
X134367676Y-118110000D01*
X134364000Y-118072677D01*
X134364000Y-115264043D01*
X134518759Y-115160637D01*
X134718637Y-114960759D01*
X134875680Y-114725727D01*
X134983853Y-114464574D01*
X135039000Y-114187335D01*
X135039000Y-113904665D01*
X134983853Y-113627426D01*
X134875680Y-113366273D01*
X134718637Y-113131241D01*
X134518759Y-112931363D01*
X134283727Y-112774320D01*
X134022574Y-112666147D01*
X133745335Y-112611000D01*
X133462665Y-112611000D01*
X133185426Y-112666147D01*
X132924273Y-112774320D01*
X132689241Y-112931363D01*
X132489363Y-113131241D01*
X132334000Y-113363759D01*
X132178637Y-113131241D01*
X131978759Y-112931363D01*
X131743727Y-112774320D01*
X131482574Y-112666147D01*
X131205335Y-112611000D01*
X130922665Y-112611000D01*
X130645426Y-112666147D01*
X130384273Y-112774320D01*
X130149241Y-112931363D01*
X129949363Y-113131241D01*
X129794000Y-113363759D01*
X129638637Y-113131241D01*
X129438759Y-112931363D01*
X129203727Y-112774320D01*
X128942574Y-112666147D01*
X128665335Y-112611000D01*
X128382665Y-112611000D01*
X128105426Y-112666147D01*
X127844273Y-112774320D01*
X127609241Y-112931363D01*
X127409363Y-113131241D01*
X127254000Y-113363759D01*
X127098637Y-113131241D01*
X126898759Y-112931363D01*
X126663727Y-112774320D01*
X126402574Y-112666147D01*
X126125335Y-112611000D01*
X125842665Y-112611000D01*
X125565426Y-112666147D01*
X125304273Y-112774320D01*
X125069241Y-112931363D01*
X124869363Y-113131241D01*
X124714000Y-113363759D01*
X124558637Y-113131241D01*
X124358759Y-112931363D01*
X124123727Y-112774320D01*
X123862574Y-112666147D01*
X123585335Y-112611000D01*
X123302665Y-112611000D01*
X123025426Y-112666147D01*
X122764273Y-112774320D01*
X122529241Y-112931363D01*
X122329363Y-113131241D01*
X122174000Y-113363759D01*
X122018637Y-113131241D01*
X121818759Y-112931363D01*
X121583727Y-112774320D01*
X121322574Y-112666147D01*
X121045335Y-112611000D01*
X120762665Y-112611000D01*
X120485426Y-112666147D01*
X120224273Y-112774320D01*
X119989241Y-112931363D01*
X119789363Y-113131241D01*
X119634000Y-113363759D01*
X119478637Y-113131241D01*
X119278759Y-112931363D01*
X119043727Y-112774320D01*
X118782574Y-112666147D01*
X118505335Y-112611000D01*
X118222665Y-112611000D01*
X117945426Y-112666147D01*
X117684273Y-112774320D01*
X117449241Y-112931363D01*
X117249363Y-113131241D01*
X117094000Y-113363759D01*
X116938637Y-113131241D01*
X116738759Y-112931363D01*
X116503727Y-112774320D01*
X116242574Y-112666147D01*
X115965335Y-112611000D01*
X115682665Y-112611000D01*
X115405426Y-112666147D01*
X115144273Y-112774320D01*
X114909241Y-112931363D01*
X114709363Y-113131241D01*
X114553085Y-113365128D01*
X114520671Y-113304486D01*
X114276702Y-113232903D01*
X113463605Y-114046000D01*
X113104395Y-114046000D01*
X112291298Y-113232903D01*
X112047329Y-113304486D01*
X112016029Y-113370636D01*
X111980671Y-113304486D01*
X111736702Y-113232903D01*
X110923605Y-114046000D01*
X110564395Y-114046000D01*
X109751298Y-113232903D01*
X109507329Y-113304486D01*
X109476806Y-113368992D01*
X109475680Y-113366273D01*
X109318637Y-113131241D01*
X109240694Y-113053298D01*
X109930903Y-113053298D01*
X110744000Y-113866395D01*
X111557097Y-113053298D01*
X112470903Y-113053298D01*
X113284000Y-113866395D01*
X114097097Y-113053298D01*
X114025514Y-112809329D01*
X113770004Y-112688429D01*
X113495816Y-112619700D01*
X113213488Y-112605783D01*
X112933870Y-112647213D01*
X112667708Y-112742397D01*
X112542486Y-112809329D01*
X112470903Y-113053298D01*
X111557097Y-113053298D01*
X111485514Y-112809329D01*
X111230004Y-112688429D01*
X110955816Y-112619700D01*
X110673488Y-112605783D01*
X110393870Y-112647213D01*
X110127708Y-112742397D01*
X110002486Y-112809329D01*
X109930903Y-113053298D01*
X109240694Y-113053298D01*
X109118759Y-112931363D01*
X108883727Y-112774320D01*
X108622574Y-112666147D01*
X108345335Y-112611000D01*
X108062665Y-112611000D01*
X107785426Y-112666147D01*
X107524273Y-112774320D01*
X107289241Y-112931363D01*
X107090643Y-113129961D01*
X107089812Y-113121518D01*
X107053502Y-113001820D01*
X106994537Y-112891506D01*
X106915185Y-112794815D01*
X106818494Y-112715463D01*
X106708180Y-112656498D01*
X106588482Y-112620188D01*
X106464000Y-112607928D01*
X104864000Y-112607928D01*
X104739518Y-112620188D01*
X104619820Y-112656498D01*
X104509506Y-112715463D01*
X104412815Y-112794815D01*
X104333463Y-112891506D01*
X104274498Y-113001820D01*
X104238188Y-113121518D01*
X104225928Y-113246000D01*
X102260000Y-113246000D01*
X102260000Y-94146000D01*
X104175928Y-94146000D01*
X104175928Y-95846000D01*
X104188188Y-95970482D01*
X104224498Y-96090180D01*
X104283463Y-96200494D01*
X104362815Y-96297185D01*
X104459506Y-96376537D01*
X104569820Y-96435502D01*
X104679000Y-96468622D01*
X104679001Y-97761603D01*
X104549363Y-97891241D01*
X104392320Y-98126273D01*
X104284147Y-98387426D01*
X104229000Y-98664665D01*
X104229000Y-98947335D01*
X104284147Y-99224574D01*
X104392320Y-99485727D01*
X104549363Y-99720759D01*
X104749241Y-99920637D01*
X104984273Y-100077680D01*
X105245426Y-100185853D01*
X105522665Y-100241000D01*
X105805335Y-100241000D01*
X106082574Y-100185853D01*
X106343727Y-100077680D01*
X106578759Y-99920637D01*
X106700694Y-99798702D01*
X107390903Y-99798702D01*
X107462486Y-100042671D01*
X107717996Y-100163571D01*
X107992184Y-100232300D01*
X108274512Y-100246217D01*
X108554130Y-100204787D01*
X108820292Y-100109603D01*
X108945514Y-100042671D01*
X109017097Y-99798702D01*
X108204000Y-98985605D01*
X107390903Y-99798702D01*
X106700694Y-99798702D01*
X106778637Y-99720759D01*
X106934915Y-99486872D01*
X106967329Y-99547514D01*
X107211298Y-99619097D01*
X108024395Y-98806000D01*
X108383605Y-98806000D01*
X109196702Y-99619097D01*
X109440671Y-99547514D01*
X109471194Y-99483008D01*
X109472320Y-99485727D01*
X109629363Y-99720759D01*
X109829241Y-99920637D01*
X110064273Y-100077680D01*
X110325426Y-100185853D01*
X110602665Y-100241000D01*
X110885335Y-100241000D01*
X111162574Y-100185853D01*
X111423727Y-100077680D01*
X111658759Y-99920637D01*
X111858637Y-99720759D01*
X112014000Y-99488241D01*
X112169363Y-99720759D01*
X112299000Y-99850396D01*
X112299001Y-105615610D01*
X112294235Y-105664000D01*
X112313253Y-105857093D01*
X112369576Y-106042766D01*
X112369577Y-106042767D01*
X112461041Y-106213884D01*
X112584131Y-106363870D01*
X112621711Y-106394711D01*
X116363289Y-110136290D01*
X116394130Y-110173870D01*
X116431709Y-110204710D01*
X116544116Y-110296960D01*
X116715233Y-110388424D01*
X116900906Y-110444747D01*
X117094000Y-110463765D01*
X117142380Y-110459000D01*
X136375210Y-110459000D01*
X136429001Y-110524544D01*
X136429000Y-118528498D01*
X136362815Y-118582815D01*
X136283463Y-118679506D01*
X136224498Y-118789820D01*
X136188188Y-118909518D01*
X136175928Y-119034000D01*
X136175928Y-120234000D01*
X136188188Y-120358482D01*
X136224498Y-120478180D01*
X136283463Y-120588494D01*
X136362815Y-120685185D01*
X136429000Y-120739502D01*
X136429001Y-124051998D01*
X129582000Y-130899000D01*
X129469508Y-130899000D01*
X129258691Y-130919764D01*
X128988192Y-131001818D01*
X128738899Y-131135068D01*
X128520392Y-131314392D01*
X128341068Y-131532899D01*
X128207818Y-131782192D01*
X128125764Y-132052691D01*
X128098057Y-132334000D01*
X128125764Y-132615309D01*
X128207818Y-132885808D01*
X128341068Y-133135101D01*
X128520392Y-133353608D01*
X128738899Y-133532932D01*
X128988192Y-133666182D01*
X129258691Y-133748236D01*
X129469508Y-133769000D01*
X129610492Y-133769000D01*
X129821309Y-133748236D01*
X130091808Y-133666182D01*
X130341101Y-133532932D01*
X130559608Y-133353608D01*
X130738932Y-133135101D01*
X130872182Y-132885808D01*
X130954236Y-132615309D01*
X130981943Y-132334000D01*
X130977555Y-132289445D01*
X138076290Y-125190711D01*
X138113870Y-125159870D01*
X138236960Y-125009884D01*
X138328424Y-124838767D01*
X138384747Y-124653094D01*
X138399000Y-124508380D01*
X138403765Y-124460000D01*
X138399000Y-124411620D01*
X138399000Y-120756502D01*
X138512516Y-120808237D01*
X138749313Y-120864000D01*
X138992438Y-120872495D01*
X139232549Y-120833395D01*
X139460418Y-120748202D01*
X139536852Y-120707348D01*
X139584159Y-120483764D01*
X138914000Y-119813605D01*
X138899858Y-119827748D01*
X138720253Y-119648143D01*
X138734395Y-119634000D01*
X139093605Y-119634000D01*
X139763764Y-120304159D01*
X139987348Y-120256852D01*
X140088237Y-120035484D01*
X140144000Y-119798687D01*
X140152495Y-119555562D01*
X140113395Y-119315451D01*
X140028202Y-119087582D01*
X139987348Y-119011148D01*
X139763764Y-118963841D01*
X139093605Y-119634000D01*
X138734395Y-119634000D01*
X138720253Y-119619858D01*
X138899858Y-119440253D01*
X138914000Y-119454395D01*
X139584159Y-118784236D01*
X139536852Y-118560652D01*
X139315484Y-118459763D01*
X139078687Y-118404000D01*
X138835562Y-118395505D01*
X138595451Y-118434605D01*
X138399000Y-118508052D01*
X138399000Y-110908709D01*
X138601735Y-110800345D01*
X138843463Y-110601963D01*
X139041845Y-110360235D01*
X139189255Y-110084449D01*
X139280030Y-109785204D01*
X139310681Y-109474000D01*
X139280030Y-109162796D01*
X139189255Y-108863551D01*
X139041845Y-108587765D01*
X138843463Y-108346037D01*
X138670391Y-108204000D01*
X138843463Y-108061963D01*
X138960790Y-107919000D01*
X139319620Y-107919000D01*
X139368000Y-107923765D01*
X139416380Y-107919000D01*
X139561094Y-107904747D01*
X139746767Y-107848424D01*
X139917884Y-107756960D01*
X140067870Y-107633870D01*
X140098716Y-107596284D01*
X140616279Y-107078720D01*
X140653870Y-107047870D01*
X140776960Y-106897884D01*
X140868424Y-106726767D01*
X140924747Y-106541094D01*
X140939000Y-106396380D01*
X140943765Y-106348001D01*
X140939000Y-106299621D01*
X140939000Y-101001749D01*
X140943765Y-100953369D01*
X140924747Y-100760276D01*
X140868424Y-100574603D01*
X140844582Y-100529998D01*
X140776960Y-100403486D01*
X140653870Y-100253500D01*
X140616284Y-100222654D01*
X135874332Y-95480702D01*
X136306903Y-95480702D01*
X136378486Y-95724671D01*
X136633996Y-95845571D01*
X136908184Y-95914300D01*
X137190512Y-95928217D01*
X137470130Y-95886787D01*
X137736292Y-95791603D01*
X137861514Y-95724671D01*
X137933097Y-95480702D01*
X137120000Y-94667605D01*
X136306903Y-95480702D01*
X135874332Y-95480702D01*
X135759371Y-95365741D01*
X135868692Y-95202131D01*
X135883329Y-95229514D01*
X136127298Y-95301097D01*
X136940395Y-94488000D01*
X137299605Y-94488000D01*
X138112702Y-95301097D01*
X138356671Y-95229514D01*
X138477571Y-94974004D01*
X138546300Y-94699816D01*
X138560217Y-94417488D01*
X138518787Y-94137870D01*
X138423603Y-93871708D01*
X138356671Y-93746486D01*
X138112702Y-93674903D01*
X137299605Y-94488000D01*
X136940395Y-94488000D01*
X136127298Y-93674903D01*
X135883329Y-93746486D01*
X135869676Y-93775341D01*
X135734637Y-93573241D01*
X135656694Y-93495298D01*
X136306903Y-93495298D01*
X137120000Y-94308395D01*
X137933097Y-93495298D01*
X137861514Y-93251329D01*
X137606004Y-93130429D01*
X137331816Y-93061700D01*
X137049488Y-93047783D01*
X136769870Y-93089213D01*
X136503708Y-93184397D01*
X136378486Y-93251329D01*
X136306903Y-93495298D01*
X135656694Y-93495298D01*
X135605000Y-93443604D01*
X135605000Y-92552692D01*
X135675134Y-92495134D01*
X135860706Y-92269014D01*
X135891584Y-92211244D01*
X136062412Y-92440269D01*
X136278645Y-92635178D01*
X136528748Y-92784157D01*
X136803109Y-92881481D01*
X137033000Y-92760814D01*
X137033000Y-91567000D01*
X137287000Y-91567000D01*
X137287000Y-92760814D01*
X137516891Y-92881481D01*
X137791252Y-92784157D01*
X138041355Y-92635178D01*
X138257588Y-92440269D01*
X138431641Y-92206920D01*
X138556825Y-91944099D01*
X138601476Y-91796890D01*
X138480155Y-91567000D01*
X137287000Y-91567000D01*
X137033000Y-91567000D01*
X137013000Y-91567000D01*
X137013000Y-91313000D01*
X137033000Y-91313000D01*
X137033000Y-91293000D01*
X137287000Y-91293000D01*
X137287000Y-91313000D01*
X138480155Y-91313000D01*
X138601476Y-91083110D01*
X138556825Y-90935901D01*
X138431641Y-90673080D01*
X138257588Y-90439731D01*
X138041355Y-90244822D01*
X137924477Y-90175201D01*
X137989014Y-90140706D01*
X138215134Y-89955134D01*
X138400706Y-89729014D01*
X138538599Y-89471034D01*
X138623513Y-89191111D01*
X138652185Y-88900000D01*
X138623513Y-88608889D01*
X138600797Y-88534005D01*
X139296015Y-87838787D01*
X139325012Y-87814990D01*
X139419985Y-87699265D01*
X139490557Y-87567236D01*
X139534014Y-87423975D01*
X139545011Y-87312322D01*
X139545011Y-87312321D01*
X139548688Y-87274989D01*
X139545011Y-87237656D01*
X139545011Y-83007434D01*
X139548687Y-82970111D01*
X139545011Y-82932788D01*
X139545011Y-82932778D01*
X139534014Y-82821125D01*
X139490557Y-82677864D01*
X139470851Y-82640997D01*
X139419985Y-82545834D01*
X139348810Y-82459108D01*
X139325012Y-82430110D01*
X139296014Y-82406312D01*
X137673672Y-80783971D01*
X137649869Y-80754967D01*
X137534144Y-80659994D01*
X137402115Y-80589422D01*
X137258854Y-80545965D01*
X137147201Y-80534968D01*
X137147190Y-80534968D01*
X137109868Y-80531292D01*
X137072546Y-80534968D01*
X128546355Y-80534968D01*
X128509032Y-80531292D01*
X128471709Y-80534968D01*
X128471699Y-80534968D01*
X128360046Y-80545965D01*
X128216785Y-80589422D01*
X128084755Y-80659994D01*
X128001115Y-80728636D01*
X127969031Y-80754967D01*
X127945233Y-80783965D01*
X122933003Y-85796196D01*
X122903999Y-85819999D01*
X122848871Y-85887174D01*
X122809026Y-85935724D01*
X122802103Y-85948676D01*
X122738454Y-86067754D01*
X122694997Y-86211015D01*
X122684000Y-86322668D01*
X122684000Y-86322678D01*
X122680324Y-86360000D01*
X122684000Y-86397322D01*
X122684001Y-97587956D01*
X122529241Y-97691363D01*
X122329363Y-97891241D01*
X122174000Y-98123759D01*
X122018637Y-97891241D01*
X121818759Y-97691363D01*
X121583727Y-97534320D01*
X121322574Y-97426147D01*
X121045335Y-97371000D01*
X120762665Y-97371000D01*
X120485426Y-97426147D01*
X120224273Y-97534320D01*
X119989241Y-97691363D01*
X119789363Y-97891241D01*
X119634000Y-98123759D01*
X119478637Y-97891241D01*
X119278759Y-97691363D01*
X119043727Y-97534320D01*
X118782574Y-97426147D01*
X118505335Y-97371000D01*
X118222665Y-97371000D01*
X117945426Y-97426147D01*
X117684273Y-97534320D01*
X117449241Y-97691363D01*
X117249363Y-97891241D01*
X117094000Y-98123759D01*
X116938637Y-97891241D01*
X116738759Y-97691363D01*
X116503727Y-97534320D01*
X116242574Y-97426147D01*
X115965335Y-97371000D01*
X115682665Y-97371000D01*
X115405426Y-97426147D01*
X115144273Y-97534320D01*
X114909241Y-97691363D01*
X114709363Y-97891241D01*
X114554000Y-98123759D01*
X114398637Y-97891241D01*
X114198759Y-97691363D01*
X113963727Y-97534320D01*
X113702574Y-97426147D01*
X113425335Y-97371000D01*
X113142665Y-97371000D01*
X112865426Y-97426147D01*
X112604273Y-97534320D01*
X112369241Y-97691363D01*
X112169363Y-97891241D01*
X112014000Y-98123759D01*
X111858637Y-97891241D01*
X111658759Y-97691363D01*
X111423727Y-97534320D01*
X111162574Y-97426147D01*
X110885335Y-97371000D01*
X110602665Y-97371000D01*
X110325426Y-97426147D01*
X110064273Y-97534320D01*
X109829241Y-97691363D01*
X109629363Y-97891241D01*
X109473085Y-98125128D01*
X109440671Y-98064486D01*
X109196702Y-97992903D01*
X108383605Y-98806000D01*
X108024395Y-98806000D01*
X107211298Y-97992903D01*
X106967329Y-98064486D01*
X106936806Y-98128992D01*
X106935680Y-98126273D01*
X106778637Y-97891241D01*
X106700694Y-97813298D01*
X107390903Y-97813298D01*
X108204000Y-98626395D01*
X109017097Y-97813298D01*
X108945514Y-97569329D01*
X108690004Y-97448429D01*
X108415816Y-97379700D01*
X108133488Y-97365783D01*
X107853870Y-97407213D01*
X107587708Y-97502397D01*
X107462486Y-97569329D01*
X107390903Y-97813298D01*
X106700694Y-97813298D01*
X106649000Y-97761604D01*
X106649000Y-96468621D01*
X106758180Y-96435502D01*
X106868494Y-96376537D01*
X106965185Y-96297185D01*
X107044537Y-96200494D01*
X107103502Y-96090180D01*
X107139812Y-95970482D01*
X107152072Y-95846000D01*
X107985928Y-95846000D01*
X107998188Y-95970482D01*
X108034498Y-96090180D01*
X108093463Y-96200494D01*
X108172815Y-96297185D01*
X108269506Y-96376537D01*
X108379820Y-96435502D01*
X108499518Y-96471812D01*
X108624000Y-96484072D01*
X109188250Y-96481000D01*
X109347000Y-96322250D01*
X109347000Y-95123000D01*
X109601000Y-95123000D01*
X109601000Y-96322250D01*
X109759750Y-96481000D01*
X110324000Y-96484072D01*
X110448482Y-96471812D01*
X110568180Y-96435502D01*
X110678494Y-96376537D01*
X110775185Y-96297185D01*
X110854537Y-96200494D01*
X110913502Y-96090180D01*
X110949812Y-95970482D01*
X110962072Y-95846000D01*
X110959000Y-95281750D01*
X110800250Y-95123000D01*
X109601000Y-95123000D01*
X109347000Y-95123000D01*
X108147750Y-95123000D01*
X107989000Y-95281750D01*
X107985928Y-95846000D01*
X107152072Y-95846000D01*
X107152072Y-94146000D01*
X107985928Y-94146000D01*
X107989000Y-94710250D01*
X108147750Y-94869000D01*
X109347000Y-94869000D01*
X109347000Y-93669750D01*
X109601000Y-93669750D01*
X109601000Y-94869000D01*
X110800250Y-94869000D01*
X110959000Y-94710250D01*
X110962072Y-94146000D01*
X110949812Y-94021518D01*
X110913502Y-93901820D01*
X110854537Y-93791506D01*
X110775185Y-93694815D01*
X110678494Y-93615463D01*
X110568180Y-93556498D01*
X110448482Y-93520188D01*
X110324000Y-93507928D01*
X109759750Y-93511000D01*
X109601000Y-93669750D01*
X109347000Y-93669750D01*
X109188250Y-93511000D01*
X108624000Y-93507928D01*
X108499518Y-93520188D01*
X108379820Y-93556498D01*
X108269506Y-93615463D01*
X108172815Y-93694815D01*
X108093463Y-93791506D01*
X108034498Y-93901820D01*
X107998188Y-94021518D01*
X107985928Y-94146000D01*
X107152072Y-94146000D01*
X107139812Y-94021518D01*
X107103502Y-93901820D01*
X107044537Y-93791506D01*
X106965185Y-93694815D01*
X106868494Y-93615463D01*
X106758180Y-93556498D01*
X106638482Y-93520188D01*
X106514000Y-93507928D01*
X104814000Y-93507928D01*
X104689518Y-93520188D01*
X104569820Y-93556498D01*
X104459506Y-93615463D01*
X104362815Y-93694815D01*
X104283463Y-93791506D01*
X104224498Y-93901820D01*
X104188188Y-94021518D01*
X104175928Y-94146000D01*
X102260000Y-94146000D01*
X102260000Y-78832967D01*
X102759000Y-78832967D01*
X102759000Y-79155033D01*
X102821832Y-79470912D01*
X102945082Y-79768463D01*
X103124013Y-80036252D01*
X103351748Y-80263987D01*
X103619537Y-80442918D01*
X103917088Y-80566168D01*
X104232967Y-80629000D01*
X104555033Y-80629000D01*
X104870912Y-80566168D01*
X105168463Y-80442918D01*
X105436252Y-80263987D01*
X105663987Y-80036252D01*
X105842918Y-79768463D01*
X105966168Y-79470912D01*
X106029000Y-79155033D01*
X106029000Y-78832967D01*
X137811000Y-78832967D01*
X137811000Y-79155033D01*
X137873832Y-79470912D01*
X137997082Y-79768463D01*
X138176013Y-80036252D01*
X138403748Y-80263987D01*
X138671537Y-80442918D01*
X138969088Y-80566168D01*
X139284967Y-80629000D01*
X139607033Y-80629000D01*
X139922912Y-80566168D01*
X140220463Y-80442918D01*
X140488252Y-80263987D01*
X140715987Y-80036252D01*
X140894918Y-79768463D01*
X141018168Y-79470912D01*
X141081000Y-79155033D01*
X141081000Y-78832967D01*
X141018168Y-78517088D01*
X140894918Y-78219537D01*
X140715987Y-77951748D01*
X140488252Y-77724013D01*
X140220463Y-77545082D01*
X139922912Y-77421832D01*
X139607033Y-77359000D01*
X139284967Y-77359000D01*
X138969088Y-77421832D01*
X138671537Y-77545082D01*
X138403748Y-77724013D01*
X138176013Y-77951748D01*
X137997082Y-78219537D01*
X137873832Y-78517088D01*
X137811000Y-78832967D01*
X106029000Y-78832967D01*
X105966168Y-78517088D01*
X105842918Y-78219537D01*
X105663987Y-77951748D01*
X105436252Y-77724013D01*
X105168463Y-77545082D01*
X104870912Y-77421832D01*
X104555033Y-77359000D01*
X104232967Y-77359000D01*
X103917088Y-77421832D01*
X103619537Y-77545082D01*
X103351748Y-77724013D01*
X103124013Y-77951748D01*
X102945082Y-78219537D01*
X102821832Y-78517088D01*
X102759000Y-78832967D01*
X102260000Y-78832967D01*
X102260000Y-76860000D01*
X141580000Y-76860000D01*
X141580001Y-137127572D01*
G36*
X138969000Y-101361370D02*
G01*
X138969000Y-102882370D01*
X138912180Y-102851998D01*
X138792482Y-102815688D01*
X138668000Y-102803428D01*
X137953750Y-102806500D01*
X137795000Y-102965250D01*
X137795000Y-104267000D01*
X137815000Y-104267000D01*
X137815000Y-104521000D01*
X137795000Y-104521000D01*
X137795000Y-104541000D01*
X137541000Y-104541000D01*
X137541000Y-104521000D01*
X136191750Y-104521000D01*
X136033000Y-104679750D01*
X136029928Y-105346500D01*
X136042188Y-105470982D01*
X136078498Y-105590680D01*
X136137463Y-105700994D01*
X136216815Y-105797685D01*
X136313506Y-105877037D01*
X136397446Y-105921905D01*
X136294155Y-106047765D01*
X136146745Y-106323551D01*
X136055970Y-106622796D01*
X136025319Y-106934000D01*
X136055970Y-107245204D01*
X136146745Y-107544449D01*
X136294155Y-107820235D01*
X136492537Y-108061963D01*
X136665609Y-108204000D01*
X136492537Y-108346037D01*
X136375210Y-108489000D01*
X117502001Y-108489000D01*
X114269000Y-105256000D01*
X114269000Y-103441500D01*
X136029928Y-103441500D01*
X136033000Y-104108250D01*
X136191750Y-104267000D01*
X137541000Y-104267000D01*
X137541000Y-102965250D01*
X137382250Y-102806500D01*
X136668000Y-102803428D01*
X136543518Y-102815688D01*
X136423820Y-102851998D01*
X136313506Y-102910963D01*
X136216815Y-102990315D01*
X136137463Y-103087006D01*
X136078498Y-103197320D01*
X136042188Y-103317018D01*
X136029928Y-103441500D01*
X114269000Y-103441500D01*
X114269000Y-99850396D01*
X114398637Y-99720759D01*
X114554000Y-99488241D01*
X114709363Y-99720759D01*
X114909241Y-99920637D01*
X115144273Y-100077680D01*
X115405426Y-100185853D01*
X115682665Y-100241000D01*
X115965335Y-100241000D01*
X116242574Y-100185853D01*
X116503727Y-100077680D01*
X116738759Y-99920637D01*
X116938637Y-99720759D01*
X117094000Y-99488241D01*
X117249363Y-99720759D01*
X117449241Y-99920637D01*
X117684273Y-100077680D01*
X117945426Y-100185853D01*
X118222665Y-100241000D01*
X118505335Y-100241000D01*
X118782574Y-100185853D01*
X119043727Y-100077680D01*
X119278759Y-99920637D01*
X119478637Y-99720759D01*
X119634000Y-99488241D01*
X119789363Y-99720759D01*
X119989241Y-99920637D01*
X120224273Y-100077680D01*
X120485426Y-100185853D01*
X120762665Y-100241000D01*
X121045335Y-100241000D01*
X121227887Y-100204688D01*
X121864201Y-100841002D01*
X121887999Y-100870001D01*
X121916997Y-100893799D01*
X122003723Y-100964974D01*
X122099159Y-101015986D01*
X122135753Y-101035546D01*
X122279014Y-101079003D01*
X122390667Y-101090000D01*
X122390676Y-101090000D01*
X122427999Y-101093676D01*
X122465322Y-101090000D01*
X127516699Y-101090000D01*
X127648613Y-101130015D01*
X127760266Y-101141012D01*
X127760277Y-101141012D01*
X127797599Y-101144688D01*
X127834922Y-101141012D01*
X134277666Y-101141012D01*
X134314988Y-101144688D01*
X134352310Y-101141012D01*
X134352321Y-101141012D01*
X134463974Y-101130015D01*
X134607235Y-101086558D01*
X134739264Y-101015986D01*
X134854989Y-100921013D01*
X134878791Y-100892010D01*
X135639002Y-100131799D01*
X135668001Y-100108001D01*
X135762974Y-99992276D01*
X135833546Y-99860247D01*
X135877003Y-99716986D01*
X135888000Y-99605333D01*
X135891677Y-99568000D01*
X135888000Y-99530667D01*
X135888000Y-98280370D01*
X138969000Y-101361370D01*
X138969000Y-101361370D01*
G37*
X138969000Y-101361370D02*
X138969000Y-102882370D01*
X138912180Y-102851998D01*
X138792482Y-102815688D01*
X138668000Y-102803428D01*
X137953750Y-102806500D01*
X137795000Y-102965250D01*
X137795000Y-104267000D01*
X137815000Y-104267000D01*
X137815000Y-104521000D01*
X137795000Y-104521000D01*
X137795000Y-104541000D01*
X137541000Y-104541000D01*
X137541000Y-104521000D01*
X136191750Y-104521000D01*
X136033000Y-104679750D01*
X136029928Y-105346500D01*
X136042188Y-105470982D01*
X136078498Y-105590680D01*
X136137463Y-105700994D01*
X136216815Y-105797685D01*
X136313506Y-105877037D01*
X136397446Y-105921905D01*
X136294155Y-106047765D01*
X136146745Y-106323551D01*
X136055970Y-106622796D01*
X136025319Y-106934000D01*
X136055970Y-107245204D01*
X136146745Y-107544449D01*
X136294155Y-107820235D01*
X136492537Y-108061963D01*
X136665609Y-108204000D01*
X136492537Y-108346037D01*
X136375210Y-108489000D01*
X117502001Y-108489000D01*
X114269000Y-105256000D01*
X114269000Y-103441500D01*
X136029928Y-103441500D01*
X136033000Y-104108250D01*
X136191750Y-104267000D01*
X137541000Y-104267000D01*
X137541000Y-102965250D01*
X137382250Y-102806500D01*
X136668000Y-102803428D01*
X136543518Y-102815688D01*
X136423820Y-102851998D01*
X136313506Y-102910963D01*
X136216815Y-102990315D01*
X136137463Y-103087006D01*
X136078498Y-103197320D01*
X136042188Y-103317018D01*
X136029928Y-103441500D01*
X114269000Y-103441500D01*
X114269000Y-99850396D01*
X114398637Y-99720759D01*
X114554000Y-99488241D01*
X114709363Y-99720759D01*
X114909241Y-99920637D01*
X115144273Y-100077680D01*
X115405426Y-100185853D01*
X115682665Y-100241000D01*
X115965335Y-100241000D01*
X116242574Y-100185853D01*
X116503727Y-100077680D01*
X116738759Y-99920637D01*
X116938637Y-99720759D01*
X117094000Y-99488241D01*
X117249363Y-99720759D01*
X117449241Y-99920637D01*
X117684273Y-100077680D01*
X117945426Y-100185853D01*
X118222665Y-100241000D01*
X118505335Y-100241000D01*
X118782574Y-100185853D01*
X119043727Y-100077680D01*
X119278759Y-99920637D01*
X119478637Y-99720759D01*
X119634000Y-99488241D01*
X119789363Y-99720759D01*
X119989241Y-99920637D01*
X120224273Y-100077680D01*
X120485426Y-100185853D01*
X120762665Y-100241000D01*
X121045335Y-100241000D01*
X121227887Y-100204688D01*
X121864201Y-100841002D01*
X121887999Y-100870001D01*
X121916997Y-100893799D01*
X122003723Y-100964974D01*
X122099159Y-101015986D01*
X122135753Y-101035546D01*
X122279014Y-101079003D01*
X122390667Y-101090000D01*
X122390676Y-101090000D01*
X122427999Y-101093676D01*
X122465322Y-101090000D01*
X127516699Y-101090000D01*
X127648613Y-101130015D01*
X127760266Y-101141012D01*
X127760277Y-101141012D01*
X127797599Y-101144688D01*
X127834922Y-101141012D01*
X134277666Y-101141012D01*
X134314988Y-101144688D01*
X134352310Y-101141012D01*
X134352321Y-101141012D01*
X134463974Y-101130015D01*
X134607235Y-101086558D01*
X134739264Y-101015986D01*
X134854989Y-100921013D01*
X134878791Y-100892010D01*
X135639002Y-100131799D01*
X135668001Y-100108001D01*
X135762974Y-99992276D01*
X135833546Y-99860247D01*
X135877003Y-99716986D01*
X135888000Y-99605333D01*
X135891677Y-99568000D01*
X135888000Y-99530667D01*
X135888000Y-98280370D01*
X138969000Y-101361370D01*
M02*
