M48
; DRILL file {KiCad (5.1.4-0-10_14)} date Monday, December 23, 2019 at 11:43:46 AM
; FORMAT={-:-/ absolute / inch / decimal}
; #@! TF.CreationDate,2019-12-23T11:43:46-06:00
; #@! TF.GenerationSoftware,Kicad,Pcbnew,(5.1.4-0-10_14)
; #@! TF.FileFunction,Plated,1,2,PTH
FMAT,2
INCH
T1C0.0157
T2C0.0236
T3C0.0315
T4C0.0394
T5C0.0433
T6C0.0512
%
G90
G05
T1
X4.26Y-3.96
X4.36Y-4.42
X4.4Y-3.74
X4.46Y-4.42
X4.58Y-5.01
X5.34Y-4.11
X5.4Y-3.79
X5.47Y-3.6
X5.47Y-4.63
T2
X5.41Y-4.71
X5.4691Y-4.71
T3
X4.8Y-4.81
X5.1Y-4.81
X5.3Y-3.72
X5.3984Y-3.72
X4.8Y-5.21
X5.1Y-5.21
T4
X5.3Y-3.3
X5.3Y-3.4
X5.3Y-3.5
X5.3Y-3.6
X5.4Y-3.3
X5.4Y-3.4
X5.4Y-3.5
X5.4Y-3.6
X4.31Y-3.74
X4.16Y-3.74
T5
X5.42Y-4.11
X5.42Y-4.21
X5.42Y-4.31
X4.16Y-3.89
X4.16Y-4.49
X4.26Y-3.89
X4.26Y-4.49
X4.36Y-3.89
X4.36Y-4.49
X4.46Y-3.89
X4.46Y-4.49
X4.56Y-3.89
X4.56Y-4.49
X4.66Y-3.89
X4.66Y-4.49
X4.76Y-3.89
X4.76Y-4.49
X4.86Y-3.89
X4.86Y-4.49
X4.96Y-3.89
X4.96Y-4.49
X5.06Y-3.89
X5.06Y-4.49
X5.16Y-3.89
X5.16Y-4.49
X5.26Y-3.89
X5.26Y-4.49
T6
X4.1Y-4.81
X4.1Y-5.2
X4.5024Y-4.7083
X4.5024Y-5.0035
X4.5024Y-5.2988
X4.6008Y-4.8067
X4.6008Y-5.2004
T0
M30
