G04 #@! TF.GenerationSoftware,KiCad,Pcbnew,(5.1.4-0-10_14)*
G04 #@! TF.CreationDate,2019-12-23T11:43:40-06:00*
G04 #@! TF.ProjectId,MIDI_RECEIVER,4d494449-5f52-4454-9345-495645522e6b,rev?*
G04 #@! TF.SameCoordinates,Original*
G04 #@! TF.FileFunction,Legend,Top*
G04 #@! TF.FilePolarity,Positive*
%FSLAX46Y46*%
G04 Gerber Fmt 4.6, Leading zero omitted, Abs format (unit mm)*
G04 Created by KiCad (PCBNEW (5.1.4-0-10_14)) date 2019-12-23 11:43:40*
%MOMM*%
%LPD*%
G04 APERTURE LIST*
%ADD10C,0.300000*%
%ADD11C,0.120000*%
%ADD12C,0.127000*%
%ADD13C,0.200000*%
%ADD14C,0.150000*%
G04 APERTURE END LIST*
D10*
X110725428Y-78656571D02*
X110725428Y-77156571D01*
X111225428Y-78228000D01*
X111725428Y-77156571D01*
X111725428Y-78656571D01*
X112439714Y-78656571D02*
X112439714Y-77156571D01*
X113154000Y-78656571D02*
X113154000Y-77156571D01*
X113511142Y-77156571D01*
X113725428Y-77228000D01*
X113868285Y-77370857D01*
X113939714Y-77513714D01*
X114011142Y-77799428D01*
X114011142Y-78013714D01*
X113939714Y-78299428D01*
X113868285Y-78442285D01*
X113725428Y-78585142D01*
X113511142Y-78656571D01*
X113154000Y-78656571D01*
X114654000Y-78656571D02*
X114654000Y-77156571D01*
X117368285Y-78656571D02*
X116868285Y-77942285D01*
X116511142Y-78656571D02*
X116511142Y-77156571D01*
X117082571Y-77156571D01*
X117225428Y-77228000D01*
X117296857Y-77299428D01*
X117368285Y-77442285D01*
X117368285Y-77656571D01*
X117296857Y-77799428D01*
X117225428Y-77870857D01*
X117082571Y-77942285D01*
X116511142Y-77942285D01*
X118582571Y-78585142D02*
X118439714Y-78656571D01*
X118154000Y-78656571D01*
X118011142Y-78585142D01*
X117939714Y-78442285D01*
X117939714Y-77870857D01*
X118011142Y-77728000D01*
X118154000Y-77656571D01*
X118439714Y-77656571D01*
X118582571Y-77728000D01*
X118654000Y-77870857D01*
X118654000Y-78013714D01*
X117939714Y-78156571D01*
X119939714Y-78585142D02*
X119796857Y-78656571D01*
X119511142Y-78656571D01*
X119368285Y-78585142D01*
X119296857Y-78513714D01*
X119225428Y-78370857D01*
X119225428Y-77942285D01*
X119296857Y-77799428D01*
X119368285Y-77728000D01*
X119511142Y-77656571D01*
X119796857Y-77656571D01*
X119939714Y-77728000D01*
X121154000Y-78585142D02*
X121011142Y-78656571D01*
X120725428Y-78656571D01*
X120582571Y-78585142D01*
X120511142Y-78442285D01*
X120511142Y-77870857D01*
X120582571Y-77728000D01*
X120725428Y-77656571D01*
X121011142Y-77656571D01*
X121154000Y-77728000D01*
X121225428Y-77870857D01*
X121225428Y-78013714D01*
X120511142Y-78156571D01*
X121868285Y-78656571D02*
X121868285Y-77656571D01*
X121868285Y-77156571D02*
X121796857Y-77228000D01*
X121868285Y-77299428D01*
X121939714Y-77228000D01*
X121868285Y-77156571D01*
X121868285Y-77299428D01*
X122439714Y-77656571D02*
X122796857Y-78656571D01*
X123154000Y-77656571D01*
X124296857Y-78585142D02*
X124154000Y-78656571D01*
X123868285Y-78656571D01*
X123725428Y-78585142D01*
X123654000Y-78442285D01*
X123654000Y-77870857D01*
X123725428Y-77728000D01*
X123868285Y-77656571D01*
X124154000Y-77656571D01*
X124296857Y-77728000D01*
X124368285Y-77870857D01*
X124368285Y-78013714D01*
X123654000Y-78156571D01*
X125011142Y-78656571D02*
X125011142Y-77656571D01*
X125011142Y-77942285D02*
X125082571Y-77799428D01*
X125154000Y-77728000D01*
X125296857Y-77656571D01*
X125439714Y-77656571D01*
X126939714Y-77656571D02*
X127296857Y-78656571D01*
X127654000Y-77656571D01*
X129011142Y-78656571D02*
X128154000Y-78656571D01*
X128582571Y-78656571D02*
X128582571Y-77156571D01*
X128439714Y-77370857D01*
X128296857Y-77513714D01*
X128154000Y-77585142D01*
X129654000Y-78513714D02*
X129725428Y-78585142D01*
X129654000Y-78656571D01*
X129582571Y-78585142D01*
X129654000Y-78513714D01*
X129654000Y-78656571D01*
X130654000Y-77156571D02*
X130796857Y-77156571D01*
X130939714Y-77228000D01*
X131011142Y-77299428D01*
X131082571Y-77442285D01*
X131154000Y-77728000D01*
X131154000Y-78085142D01*
X131082571Y-78370857D01*
X131011142Y-78513714D01*
X130939714Y-78585142D01*
X130796857Y-78656571D01*
X130654000Y-78656571D01*
X130511142Y-78585142D01*
X130439714Y-78513714D01*
X130368285Y-78370857D01*
X130296857Y-78085142D01*
X130296857Y-77728000D01*
X130368285Y-77442285D01*
X130439714Y-77299428D01*
X130511142Y-77228000D01*
X130654000Y-77156571D01*
D11*
X108144000Y-93666000D02*
X108144000Y-96326000D01*
X108204000Y-93666000D02*
X108144000Y-93666000D01*
X108204000Y-96326000D02*
X108144000Y-96326000D01*
X108204000Y-93666000D02*
X108204000Y-96326000D01*
X109474000Y-93666000D02*
X110804000Y-93666000D01*
X110804000Y-93666000D02*
X110804000Y-94996000D01*
X104334000Y-93666000D02*
X104334000Y-96326000D01*
X104394000Y-93666000D02*
X104334000Y-93666000D01*
X104394000Y-96326000D02*
X104334000Y-96326000D01*
X104394000Y-93666000D02*
X104394000Y-96326000D01*
X105664000Y-93666000D02*
X106994000Y-93666000D01*
X106994000Y-93666000D02*
X106994000Y-94996000D01*
X140938000Y-108785000D02*
X139428000Y-108785000D01*
X140938000Y-105084000D02*
X139428000Y-105084000D01*
X139428000Y-101814000D02*
X139428000Y-112054000D01*
X140938000Y-112054000D02*
X136297000Y-112054000D01*
X140938000Y-101814000D02*
X136297000Y-101814000D01*
X136297000Y-101814000D02*
X136297000Y-112054000D01*
X140938000Y-101814000D02*
X140938000Y-112054000D01*
D12*
X114360000Y-128290000D02*
X114360000Y-133390000D01*
X101860000Y-117090000D02*
X101860000Y-137090000D01*
X101860000Y-137090000D02*
X114360000Y-137090000D01*
D13*
X114860000Y-137990000D02*
G75*
G03X114860000Y-137990000I-100000J0D01*
G01*
D12*
X114360000Y-117090000D02*
X101860000Y-117090000D01*
X114360000Y-120790000D02*
X114360000Y-125890000D01*
X114360000Y-117090000D02*
X114360000Y-118390000D01*
X114360000Y-137090000D02*
X114360000Y-135790000D01*
D11*
X129000000Y-133704000D02*
X129000000Y-133374000D01*
X122460000Y-133704000D02*
X129000000Y-133704000D01*
X122460000Y-133374000D02*
X122460000Y-133704000D01*
X129000000Y-130964000D02*
X129000000Y-131294000D01*
X122460000Y-130964000D02*
X129000000Y-130964000D01*
X122460000Y-131294000D02*
X122460000Y-130964000D01*
X129000000Y-123544000D02*
X129000000Y-123214000D01*
X122460000Y-123544000D02*
X129000000Y-123544000D01*
X122460000Y-123214000D02*
X122460000Y-123544000D01*
X129000000Y-120804000D02*
X129000000Y-121134000D01*
X122460000Y-120804000D02*
X129000000Y-120804000D01*
X122460000Y-121134000D02*
X122460000Y-120804000D01*
X133290000Y-82490000D02*
X134620000Y-82490000D01*
X133290000Y-83820000D02*
X133290000Y-82490000D01*
X135890000Y-82490000D02*
X138490000Y-82490000D01*
X135890000Y-85090000D02*
X135890000Y-82490000D01*
X133290000Y-85090000D02*
X135890000Y-85090000D01*
X138490000Y-82490000D02*
X138490000Y-92770000D01*
X133290000Y-85090000D02*
X133290000Y-92770000D01*
X133290000Y-92770000D02*
X138490000Y-92770000D01*
D14*
X134874000Y-97536000D02*
X134874000Y-115316000D01*
X104394000Y-97536000D02*
X134874000Y-97536000D01*
X104394000Y-102616000D02*
X104394000Y-97536000D01*
X101854000Y-102616000D02*
X104394000Y-102616000D01*
X101854000Y-110236000D02*
X101854000Y-102616000D01*
X104394000Y-110236000D02*
X101854000Y-110236000D01*
X104394000Y-115316000D02*
X104394000Y-110236000D01*
X104394000Y-115316000D02*
X134874000Y-115316000D01*
D11*
X136094199Y-118239000D02*
X136094199Y-118639000D01*
X135894199Y-118439000D02*
X136294199Y-118439000D01*
X140245000Y-119264000D02*
X140245000Y-120004000D01*
X140205000Y-119097000D02*
X140205000Y-120171000D01*
X140165000Y-118970000D02*
X140165000Y-120298000D01*
X140125000Y-118866000D02*
X140125000Y-120402000D01*
X140085000Y-118775000D02*
X140085000Y-120493000D01*
X140045000Y-118694000D02*
X140045000Y-120574000D01*
X140005000Y-118621000D02*
X140005000Y-120647000D01*
X139965000Y-118554000D02*
X139965000Y-120714000D01*
X139925000Y-118492000D02*
X139925000Y-120776000D01*
X139885000Y-118434000D02*
X139885000Y-120834000D01*
X139845000Y-118380000D02*
X139845000Y-120888000D01*
X139805000Y-118330000D02*
X139805000Y-120938000D01*
X139765000Y-118283000D02*
X139765000Y-120985000D01*
X139725000Y-120474000D02*
X139725000Y-121030000D01*
X139725000Y-118238000D02*
X139725000Y-118794000D01*
X139685000Y-120474000D02*
X139685000Y-121072000D01*
X139685000Y-118196000D02*
X139685000Y-118794000D01*
X139645000Y-120474000D02*
X139645000Y-121112000D01*
X139645000Y-118156000D02*
X139645000Y-118794000D01*
X139605000Y-120474000D02*
X139605000Y-121150000D01*
X139605000Y-118118000D02*
X139605000Y-118794000D01*
X139565000Y-120474000D02*
X139565000Y-121186000D01*
X139565000Y-118082000D02*
X139565000Y-118794000D01*
X139525000Y-120474000D02*
X139525000Y-121221000D01*
X139525000Y-118047000D02*
X139525000Y-118794000D01*
X139485000Y-120474000D02*
X139485000Y-121253000D01*
X139485000Y-118015000D02*
X139485000Y-118794000D01*
X139445000Y-120474000D02*
X139445000Y-121284000D01*
X139445000Y-117984000D02*
X139445000Y-118794000D01*
X139405000Y-120474000D02*
X139405000Y-121314000D01*
X139405000Y-117954000D02*
X139405000Y-118794000D01*
X139365000Y-120474000D02*
X139365000Y-121342000D01*
X139365000Y-117926000D02*
X139365000Y-118794000D01*
X139325000Y-120474000D02*
X139325000Y-121369000D01*
X139325000Y-117899000D02*
X139325000Y-118794000D01*
X139285000Y-120474000D02*
X139285000Y-121394000D01*
X139285000Y-117874000D02*
X139285000Y-118794000D01*
X139245000Y-120474000D02*
X139245000Y-121419000D01*
X139245000Y-117849000D02*
X139245000Y-118794000D01*
X139205000Y-120474000D02*
X139205000Y-121442000D01*
X139205000Y-117826000D02*
X139205000Y-118794000D01*
X139165000Y-120474000D02*
X139165000Y-121464000D01*
X139165000Y-117804000D02*
X139165000Y-118794000D01*
X139125000Y-120474000D02*
X139125000Y-121485000D01*
X139125000Y-117783000D02*
X139125000Y-118794000D01*
X139085000Y-120474000D02*
X139085000Y-121504000D01*
X139085000Y-117764000D02*
X139085000Y-118794000D01*
X139045000Y-120474000D02*
X139045000Y-121523000D01*
X139045000Y-117745000D02*
X139045000Y-118794000D01*
X139005000Y-120474000D02*
X139005000Y-121541000D01*
X139005000Y-117727000D02*
X139005000Y-118794000D01*
X138965000Y-120474000D02*
X138965000Y-121558000D01*
X138965000Y-117710000D02*
X138965000Y-118794000D01*
X138925000Y-120474000D02*
X138925000Y-121574000D01*
X138925000Y-117694000D02*
X138925000Y-118794000D01*
X138885000Y-120474000D02*
X138885000Y-121588000D01*
X138885000Y-117680000D02*
X138885000Y-118794000D01*
X138844000Y-120474000D02*
X138844000Y-121602000D01*
X138844000Y-117666000D02*
X138844000Y-118794000D01*
X138804000Y-120474000D02*
X138804000Y-121616000D01*
X138804000Y-117652000D02*
X138804000Y-118794000D01*
X138764000Y-120474000D02*
X138764000Y-121628000D01*
X138764000Y-117640000D02*
X138764000Y-118794000D01*
X138724000Y-120474000D02*
X138724000Y-121639000D01*
X138724000Y-117629000D02*
X138724000Y-118794000D01*
X138684000Y-120474000D02*
X138684000Y-121650000D01*
X138684000Y-117618000D02*
X138684000Y-118794000D01*
X138644000Y-120474000D02*
X138644000Y-121659000D01*
X138644000Y-117609000D02*
X138644000Y-118794000D01*
X138604000Y-120474000D02*
X138604000Y-121668000D01*
X138604000Y-117600000D02*
X138604000Y-118794000D01*
X138564000Y-120474000D02*
X138564000Y-121676000D01*
X138564000Y-117592000D02*
X138564000Y-118794000D01*
X138524000Y-120474000D02*
X138524000Y-121684000D01*
X138524000Y-117584000D02*
X138524000Y-118794000D01*
X138484000Y-120474000D02*
X138484000Y-121690000D01*
X138484000Y-117578000D02*
X138484000Y-118794000D01*
X138444000Y-120474000D02*
X138444000Y-121696000D01*
X138444000Y-117572000D02*
X138444000Y-118794000D01*
X138404000Y-120474000D02*
X138404000Y-121701000D01*
X138404000Y-117567000D02*
X138404000Y-118794000D01*
X138364000Y-120474000D02*
X138364000Y-121705000D01*
X138364000Y-117563000D02*
X138364000Y-118794000D01*
X138324000Y-120474000D02*
X138324000Y-121708000D01*
X138324000Y-117560000D02*
X138324000Y-118794000D01*
X138284000Y-120474000D02*
X138284000Y-121711000D01*
X138284000Y-117557000D02*
X138284000Y-118794000D01*
X138244000Y-117555000D02*
X138244000Y-118794000D01*
X138244000Y-120474000D02*
X138244000Y-121713000D01*
X138204000Y-117554000D02*
X138204000Y-118794000D01*
X138204000Y-120474000D02*
X138204000Y-121714000D01*
X138164000Y-117554000D02*
X138164000Y-118794000D01*
X138164000Y-120474000D02*
X138164000Y-121714000D01*
X140284000Y-119634000D02*
G75*
G03X140284000Y-119634000I-2120000J0D01*
G01*
X135241000Y-95408000D02*
X136499000Y-95408000D01*
X135241000Y-93568000D02*
X136499000Y-93568000D01*
D14*
X105116380Y-95251333D02*
X105830666Y-95251333D01*
X105973523Y-95298952D01*
X106068761Y-95394190D01*
X106116380Y-95537047D01*
X106116380Y-95632285D01*
X105449714Y-94346571D02*
X106116380Y-94346571D01*
X105068761Y-94584666D02*
X105783047Y-94822761D01*
X105783047Y-94203714D01*
X108712095Y-91956000D02*
X108616857Y-91908380D01*
X108474000Y-91908380D01*
X108331142Y-91956000D01*
X108235904Y-92051238D01*
X108188285Y-92146476D01*
X108140666Y-92336952D01*
X108140666Y-92479809D01*
X108188285Y-92670285D01*
X108235904Y-92765523D01*
X108331142Y-92860761D01*
X108474000Y-92908380D01*
X108569238Y-92908380D01*
X108712095Y-92860761D01*
X108759714Y-92813142D01*
X108759714Y-92479809D01*
X108569238Y-92479809D01*
X109188285Y-92908380D02*
X109188285Y-91908380D01*
X109759714Y-92908380D01*
X109759714Y-91908380D01*
X110235904Y-92908380D02*
X110235904Y-91908380D01*
X110474000Y-91908380D01*
X110616857Y-91956000D01*
X110712095Y-92051238D01*
X110759714Y-92146476D01*
X110807333Y-92336952D01*
X110807333Y-92479809D01*
X110759714Y-92670285D01*
X110712095Y-92765523D01*
X110616857Y-92860761D01*
X110474000Y-92908380D01*
X110235904Y-92908380D01*
X104973523Y-92908380D02*
X104640190Y-92432190D01*
X104402095Y-92908380D02*
X104402095Y-91908380D01*
X104783047Y-91908380D01*
X104878285Y-91956000D01*
X104925904Y-92003619D01*
X104973523Y-92098857D01*
X104973523Y-92241714D01*
X104925904Y-92336952D01*
X104878285Y-92384571D01*
X104783047Y-92432190D01*
X104402095Y-92432190D01*
X105354476Y-92622666D02*
X105830666Y-92622666D01*
X105259238Y-92908380D02*
X105592571Y-91908380D01*
X105925904Y-92908380D01*
X106164000Y-91908380D02*
X106402095Y-92908380D01*
X106592571Y-92194095D01*
X106783047Y-92908380D01*
X107021142Y-91908380D01*
X136810952Y-112815714D02*
X137049047Y-113482380D01*
X137287142Y-112815714D01*
X138239523Y-113482380D02*
X137906190Y-113006190D01*
X137668095Y-113482380D02*
X137668095Y-112482380D01*
X138049047Y-112482380D01*
X138144285Y-112530000D01*
X138191904Y-112577619D01*
X138239523Y-112672857D01*
X138239523Y-112815714D01*
X138191904Y-112910952D01*
X138144285Y-112958571D01*
X138049047Y-113006190D01*
X137668095Y-113006190D01*
X139049047Y-113434761D02*
X138953809Y-113482380D01*
X138763333Y-113482380D01*
X138668095Y-113434761D01*
X138620476Y-113339523D01*
X138620476Y-112958571D01*
X138668095Y-112863333D01*
X138763333Y-112815714D01*
X138953809Y-112815714D01*
X139049047Y-112863333D01*
X139096666Y-112958571D01*
X139096666Y-113053809D01*
X138620476Y-113149047D01*
X139953809Y-112815714D02*
X139953809Y-113625238D01*
X139906190Y-113720476D01*
X139858571Y-113768095D01*
X139763333Y-113815714D01*
X139620476Y-113815714D01*
X139525238Y-113768095D01*
X139953809Y-113434761D02*
X139858571Y-113482380D01*
X139668095Y-113482380D01*
X139572857Y-113434761D01*
X139525238Y-113387142D01*
X139477619Y-113291904D01*
X139477619Y-113006190D01*
X139525238Y-112910952D01*
X139572857Y-112863333D01*
X139668095Y-112815714D01*
X139858571Y-112815714D01*
X139953809Y-112863333D01*
X119832380Y-128563523D02*
X118832380Y-128563523D01*
X119546666Y-128230190D01*
X118832380Y-127896857D01*
X119832380Y-127896857D01*
X119832380Y-127420666D02*
X118832380Y-127420666D01*
X119832380Y-126944476D02*
X118832380Y-126944476D01*
X118832380Y-126706380D01*
X118880000Y-126563523D01*
X118975238Y-126468285D01*
X119070476Y-126420666D01*
X119260952Y-126373047D01*
X119403809Y-126373047D01*
X119594285Y-126420666D01*
X119689523Y-126468285D01*
X119784761Y-126563523D01*
X119832380Y-126706380D01*
X119832380Y-126944476D01*
X119832380Y-125944476D02*
X118832380Y-125944476D01*
X135382095Y-138374380D02*
X135382095Y-137374380D01*
X135382095Y-137850571D02*
X135953523Y-137850571D01*
X135953523Y-138374380D02*
X135953523Y-137374380D01*
X136858285Y-137707714D02*
X136858285Y-138374380D01*
X136620190Y-137326761D02*
X136382095Y-138041047D01*
X137001142Y-138041047D01*
X135382095Y-78430380D02*
X135382095Y-77430380D01*
X135382095Y-77906571D02*
X135953523Y-77906571D01*
X135953523Y-78430380D02*
X135953523Y-77430380D01*
X136334476Y-77430380D02*
X136953523Y-77430380D01*
X136620190Y-77811333D01*
X136763047Y-77811333D01*
X136858285Y-77858952D01*
X136905904Y-77906571D01*
X136953523Y-78001809D01*
X136953523Y-78239904D01*
X136905904Y-78335142D01*
X136858285Y-78382761D01*
X136763047Y-78430380D01*
X136477333Y-78430380D01*
X136382095Y-78382761D01*
X136334476Y-78335142D01*
X106680095Y-138628380D02*
X106680095Y-137628380D01*
X106680095Y-138104571D02*
X107251523Y-138104571D01*
X107251523Y-138628380D02*
X107251523Y-137628380D01*
X107680095Y-137723619D02*
X107727714Y-137676000D01*
X107822952Y-137628380D01*
X108061047Y-137628380D01*
X108156285Y-137676000D01*
X108203904Y-137723619D01*
X108251523Y-137818857D01*
X108251523Y-137914095D01*
X108203904Y-138056952D01*
X107632476Y-138628380D01*
X108251523Y-138628380D01*
X106934095Y-78430380D02*
X106934095Y-77430380D01*
X106934095Y-77906571D02*
X107505523Y-77906571D01*
X107505523Y-78430380D02*
X107505523Y-77430380D01*
X108505523Y-78430380D02*
X107934095Y-78430380D01*
X108219809Y-78430380D02*
X108219809Y-77430380D01*
X108124571Y-77573238D01*
X108029333Y-77668476D01*
X107934095Y-77716095D01*
X124491904Y-134251619D02*
X124539523Y-134204000D01*
X124634761Y-134156380D01*
X124872857Y-134156380D01*
X124968095Y-134204000D01*
X125015714Y-134251619D01*
X125063333Y-134346857D01*
X125063333Y-134442095D01*
X125015714Y-134584952D01*
X124444285Y-135156380D01*
X125063333Y-135156380D01*
X125444285Y-134251619D02*
X125491904Y-134204000D01*
X125587142Y-134156380D01*
X125825238Y-134156380D01*
X125920476Y-134204000D01*
X125968095Y-134251619D01*
X126015714Y-134346857D01*
X126015714Y-134442095D01*
X125968095Y-134584952D01*
X125396666Y-135156380D01*
X126015714Y-135156380D01*
X126634761Y-134156380D02*
X126730000Y-134156380D01*
X126825238Y-134204000D01*
X126872857Y-134251619D01*
X126920476Y-134346857D01*
X126968095Y-134537333D01*
X126968095Y-134775428D01*
X126920476Y-134965904D01*
X126872857Y-135061142D01*
X126825238Y-135108761D01*
X126730000Y-135156380D01*
X126634761Y-135156380D01*
X126539523Y-135108761D01*
X126491904Y-135061142D01*
X126444285Y-134965904D01*
X126396666Y-134775428D01*
X126396666Y-134537333D01*
X126444285Y-134346857D01*
X126491904Y-134251619D01*
X126539523Y-134204000D01*
X126634761Y-134156380D01*
X124491904Y-124091619D02*
X124539523Y-124044000D01*
X124634761Y-123996380D01*
X124872857Y-123996380D01*
X124968095Y-124044000D01*
X125015714Y-124091619D01*
X125063333Y-124186857D01*
X125063333Y-124282095D01*
X125015714Y-124424952D01*
X124444285Y-124996380D01*
X125063333Y-124996380D01*
X125444285Y-124091619D02*
X125491904Y-124044000D01*
X125587142Y-123996380D01*
X125825238Y-123996380D01*
X125920476Y-124044000D01*
X125968095Y-124091619D01*
X126015714Y-124186857D01*
X126015714Y-124282095D01*
X125968095Y-124424952D01*
X125396666Y-124996380D01*
X126015714Y-124996380D01*
X126634761Y-123996380D02*
X126730000Y-123996380D01*
X126825238Y-124044000D01*
X126872857Y-124091619D01*
X126920476Y-124186857D01*
X126968095Y-124377333D01*
X126968095Y-124615428D01*
X126920476Y-124805904D01*
X126872857Y-124901142D01*
X126825238Y-124948761D01*
X126730000Y-124996380D01*
X126634761Y-124996380D01*
X126539523Y-124948761D01*
X126491904Y-124901142D01*
X126444285Y-124805904D01*
X126396666Y-124615428D01*
X126396666Y-124377333D01*
X126444285Y-124186857D01*
X126491904Y-124091619D01*
X126539523Y-124044000D01*
X126634761Y-123996380D01*
X140247714Y-91622190D02*
X140914380Y-91622190D01*
X140342952Y-91622190D02*
X140295333Y-91574571D01*
X140247714Y-91479333D01*
X140247714Y-91336476D01*
X140295333Y-91241238D01*
X140390571Y-91193619D01*
X140914380Y-91193619D01*
X140914380Y-90717428D02*
X140247714Y-90717428D01*
X140438190Y-90717428D02*
X140342952Y-90669809D01*
X140295333Y-90622190D01*
X140247714Y-90526952D01*
X140247714Y-90431714D01*
X140247714Y-90241238D02*
X140247714Y-89860285D01*
X140914380Y-90098380D02*
X140057238Y-90098380D01*
X139962000Y-90050761D01*
X139914380Y-89955523D01*
X139914380Y-89860285D01*
X140009619Y-89574571D02*
X139962000Y-89526952D01*
X139914380Y-89431714D01*
X139914380Y-89193619D01*
X139962000Y-89098380D01*
X140009619Y-89050761D01*
X140104857Y-89003142D01*
X140200095Y-89003142D01*
X140342952Y-89050761D01*
X140914380Y-89622190D01*
X140914380Y-89003142D01*
X140247714Y-88146000D02*
X140914380Y-88146000D01*
X139866761Y-88384095D02*
X140581047Y-88622190D01*
X140581047Y-88003142D01*
X140914380Y-87479333D02*
X140866761Y-87574571D01*
X140771523Y-87622190D01*
X139914380Y-87622190D01*
X139914380Y-86907904D02*
X139914380Y-86812666D01*
X139962000Y-86717428D01*
X140009619Y-86669809D01*
X140104857Y-86622190D01*
X140295333Y-86574571D01*
X140533428Y-86574571D01*
X140723904Y-86622190D01*
X140819142Y-86669809D01*
X140866761Y-86717428D01*
X140914380Y-86812666D01*
X140914380Y-86907904D01*
X140866761Y-87003142D01*
X140819142Y-87050761D01*
X140723904Y-87098380D01*
X140533428Y-87146000D01*
X140295333Y-87146000D01*
X140104857Y-87098380D01*
X140009619Y-87050761D01*
X139962000Y-87003142D01*
X139914380Y-86907904D01*
X140914380Y-85622190D02*
X140914380Y-86193619D01*
X140914380Y-85907904D02*
X139914380Y-85907904D01*
X140057238Y-86003142D01*
X140152476Y-86098380D01*
X140200095Y-86193619D01*
X119658190Y-117038380D02*
X119658190Y-116038380D01*
X120039142Y-116038380D01*
X120134380Y-116086000D01*
X120182000Y-116133619D01*
X120229619Y-116228857D01*
X120229619Y-116371714D01*
X120182000Y-116466952D01*
X120134380Y-116514571D01*
X120039142Y-116562190D01*
X119658190Y-116562190D01*
X120658190Y-117038380D02*
X120658190Y-116371714D01*
X120658190Y-116562190D02*
X120705809Y-116466952D01*
X120753428Y-116419333D01*
X120848666Y-116371714D01*
X120943904Y-116371714D01*
X121420095Y-117038380D02*
X121324857Y-116990761D01*
X121277238Y-116943142D01*
X121229619Y-116847904D01*
X121229619Y-116562190D01*
X121277238Y-116466952D01*
X121324857Y-116419333D01*
X121420095Y-116371714D01*
X121562952Y-116371714D01*
X121658190Y-116419333D01*
X121705809Y-116466952D01*
X121753428Y-116562190D01*
X121753428Y-116847904D01*
X121705809Y-116943142D01*
X121658190Y-116990761D01*
X121562952Y-117038380D01*
X121420095Y-117038380D01*
X122182000Y-117038380D02*
X122182000Y-116038380D01*
X122515333Y-116752666D01*
X122848666Y-116038380D01*
X122848666Y-117038380D01*
X123324857Y-117038380D02*
X123324857Y-116371714D01*
X123324857Y-116038380D02*
X123277238Y-116086000D01*
X123324857Y-116133619D01*
X123372476Y-116086000D01*
X123324857Y-116038380D01*
X123324857Y-116133619D01*
X124229619Y-116990761D02*
X124134380Y-117038380D01*
X123943904Y-117038380D01*
X123848666Y-116990761D01*
X123801047Y-116943142D01*
X123753428Y-116847904D01*
X123753428Y-116562190D01*
X123801047Y-116466952D01*
X123848666Y-116419333D01*
X123943904Y-116371714D01*
X124134380Y-116371714D01*
X124229619Y-116419333D01*
X124658190Y-117038380D02*
X124658190Y-116371714D01*
X124658190Y-116562190D02*
X124705809Y-116466952D01*
X124753428Y-116419333D01*
X124848666Y-116371714D01*
X124943904Y-116371714D01*
X125420095Y-117038380D02*
X125324857Y-116990761D01*
X125277238Y-116943142D01*
X125229619Y-116847904D01*
X125229619Y-116562190D01*
X125277238Y-116466952D01*
X125324857Y-116419333D01*
X125420095Y-116371714D01*
X125562952Y-116371714D01*
X125658190Y-116419333D01*
X125705809Y-116466952D01*
X125753428Y-116562190D01*
X125753428Y-116847904D01*
X125705809Y-116943142D01*
X125658190Y-116990761D01*
X125562952Y-117038380D01*
X125420095Y-117038380D01*
X137092571Y-123336380D02*
X136521142Y-123336380D01*
X136806857Y-123336380D02*
X136806857Y-122336380D01*
X136711619Y-122479238D01*
X136616380Y-122574476D01*
X136521142Y-122622095D01*
X137711619Y-122336380D02*
X137806857Y-122336380D01*
X137902095Y-122384000D01*
X137949714Y-122431619D01*
X137997333Y-122526857D01*
X138044952Y-122717333D01*
X138044952Y-122955428D01*
X137997333Y-123145904D01*
X137949714Y-123241142D01*
X137902095Y-123288761D01*
X137806857Y-123336380D01*
X137711619Y-123336380D01*
X137616380Y-123288761D01*
X137568761Y-123241142D01*
X137521142Y-123145904D01*
X137473523Y-122955428D01*
X137473523Y-122717333D01*
X137521142Y-122526857D01*
X137568761Y-122431619D01*
X137616380Y-122384000D01*
X137711619Y-122336380D01*
X138902095Y-122669714D02*
X138902095Y-123336380D01*
X138473523Y-122669714D02*
X138473523Y-123193523D01*
X138521142Y-123288761D01*
X138616380Y-123336380D01*
X138759238Y-123336380D01*
X138854476Y-123288761D01*
X138902095Y-123241142D01*
X139711619Y-122812571D02*
X139378285Y-122812571D01*
X139378285Y-123336380D02*
X139378285Y-122336380D01*
X139854476Y-122336380D01*
X135703333Y-92795142D02*
X135655714Y-92842761D01*
X135512857Y-92890380D01*
X135417619Y-92890380D01*
X135274761Y-92842761D01*
X135179523Y-92747523D01*
X135131904Y-92652285D01*
X135084285Y-92461809D01*
X135084285Y-92318952D01*
X135131904Y-92128476D01*
X135179523Y-92033238D01*
X135274761Y-91938000D01*
X135417619Y-91890380D01*
X135512857Y-91890380D01*
X135655714Y-91938000D01*
X135703333Y-91985619D01*
X136655714Y-92890380D02*
X136084285Y-92890380D01*
X136370000Y-92890380D02*
X136370000Y-91890380D01*
X136274761Y-92033238D01*
X136179523Y-92128476D01*
X136084285Y-92176095D01*
X138898380Y-97146857D02*
X138898380Y-97051619D01*
X138946000Y-96956380D01*
X138993619Y-96908761D01*
X139088857Y-96861142D01*
X139279333Y-96813523D01*
X139517428Y-96813523D01*
X139707904Y-96861142D01*
X139803142Y-96908761D01*
X139850761Y-96956380D01*
X139898380Y-97051619D01*
X139898380Y-97146857D01*
X139850761Y-97242095D01*
X139803142Y-97289714D01*
X139707904Y-97337333D01*
X139517428Y-97384952D01*
X139279333Y-97384952D01*
X139088857Y-97337333D01*
X138993619Y-97289714D01*
X138946000Y-97242095D01*
X138898380Y-97146857D01*
X139803142Y-96384952D02*
X139850761Y-96337333D01*
X139898380Y-96384952D01*
X139850761Y-96432571D01*
X139803142Y-96384952D01*
X139898380Y-96384952D01*
X139898380Y-95384952D02*
X139898380Y-95956380D01*
X139898380Y-95670666D02*
X138898380Y-95670666D01*
X139041238Y-95765904D01*
X139136476Y-95861142D01*
X139184095Y-95956380D01*
X139231714Y-94527809D02*
X139898380Y-94527809D01*
X139231714Y-94956380D02*
X139755523Y-94956380D01*
X139850761Y-94908761D01*
X139898380Y-94813523D01*
X139898380Y-94670666D01*
X139850761Y-94575428D01*
X139803142Y-94527809D01*
X139374571Y-93718285D02*
X139374571Y-94051619D01*
X139898380Y-94051619D02*
X138898380Y-94051619D01*
X138898380Y-93575428D01*
M02*
