M48
; DRILL file {KiCad (5.1.4-0-10_14)} date Thursday, April 09, 2020 at 08:11:13 AM
; FORMAT={-:-/ absolute / inch / decimal}
; #@! TF.CreationDate,2020-04-09T08:11:13-05:00
; #@! TF.GenerationSoftware,Kicad,Pcbnew,(5.1.4-0-10_14)
; #@! TF.FileFunction,NonPlated,1,2,NPTH
FMAT,2
INCH
T1C0.0197
T2C0.0472
T3C0.0787
%
G90
G05
T1
X5.261Y-3.9275
X3.8675Y-6.1385
X3.8675Y-6.168
X3.8675Y-6.1975
X3.9265Y-6.1385
X3.9265Y-6.168
X3.9265Y-6.1975
X6.5825Y-6.4275
X6.5825Y-6.4865
X6.612Y-6.4275
X6.612Y-6.4865
X6.6415Y-6.4275
X6.6415Y-6.4865
X5.2315Y-3.8685
X5.2315Y-3.9275
X5.261Y-3.8685
X5.2905Y-3.8685
X5.2905Y-3.9275
X3.8675Y-5.5115
X3.8675Y-5.541
X3.8675Y-5.5705
X3.9265Y-5.5115
X3.9265Y-5.541
X3.9265Y-5.5705
X5.9245Y-6.4275
X5.9245Y-6.4865
X5.954Y-6.4275
X5.954Y-6.4865
X5.9835Y-6.4275
X5.9835Y-6.4865
X6.6245Y-3.8685
X5.8305Y-3.8685
X5.8305Y-3.9275
X3.8675Y-4.1935
X3.8675Y-4.223
X3.8675Y-4.2525
X3.9265Y-4.1935
X3.9265Y-4.2525
X6.6245Y-3.9275
X6.6835Y-3.9275
X3.9265Y-4.223
X6.654Y-3.8685
X6.654Y-3.9275
X6.6835Y-3.8685
X5.86Y-3.8685
X3.8675Y-4.7275
X3.8675Y-4.757
X3.8675Y-4.7865
X3.9265Y-4.7275
X3.9265Y-4.757
X3.9265Y-4.7865
X5.2645Y-6.4275
X5.2645Y-6.4865
X5.294Y-6.4275
X5.294Y-6.4865
X5.3235Y-6.4865
X5.86Y-3.9275
X5.8895Y-3.8685
X5.8895Y-3.9275
X5.3235Y-6.4275
X4.5605Y-3.8685
X4.5605Y-3.9275
X4.59Y-3.8685
X4.59Y-3.9275
X4.6195Y-3.8685
X4.6195Y-3.9275
T2
X6.608Y-6.2063
X4.527Y-4.1487
X4.1287Y-5.408
T3
X4.505Y-3.538
X5.051Y-7.22
X6.795Y-6.594
X6.28Y-3.538
X4.035Y-6.325
X5.051Y-6.594
X3.763Y-4.035
X3.763Y-6.326
X6.795Y-7.22
X4.035Y-4.035
X6.795Y-6.325
X6.795Y-4.035
T0
M30
