M48
; DRILL file {KiCad (5.1.4-0-10_14)} date Thursday, April 09, 2020 at 08:11:13 AM
; FORMAT={-:-/ absolute / inch / decimal}
; #@! TF.CreationDate,2020-04-09T08:11:13-05:00
; #@! TF.GenerationSoftware,Kicad,Pcbnew,(5.1.4-0-10_14)
; #@! TF.FileFunction,Plated,1,2,PTH
FMAT,2
INCH
T1C0.0157
T2C0.0236
T3C0.0295
T4C0.0315
T5C0.0374
T6C0.0394
T7C0.0433
T8C0.0472
T9C0.0512
T10C0.1291
%
G90
G05
T1
X3.449Y-5.266
X3.449Y-5.522
X3.45Y-5.854
X3.45Y-6.107
X3.451Y-4.341
X3.451Y-4.676
X3.452Y-4.086
X3.453Y-4.931
X3.771Y-5.422
X4.006Y-6.03
X4.112Y-4.95
X4.212Y-6.27
X4.308Y-5.069
X4.435Y-5.111
X4.47Y-6.07
X4.533Y-4.069
X4.59Y-3.713
X4.643Y-5.111
X4.761Y-3.452
X4.767Y-6.273
X4.832Y-5.012
X5.005Y-6.069
X5.017Y-3.451
X5.094Y-6.867
X5.323Y-6.271
X5.331Y-4.392
X5.331Y-4.293
X5.351Y-3.452
X5.435Y-5.7025
X5.435Y-5.7813
X5.435Y-5.8206
X5.435Y-5.86
X5.435Y-5.7419
X5.4355Y-5.905
X5.465Y-5.422
X5.565Y-4.955
X5.605Y-3.451
X5.664Y-6.965
X5.681Y-5.446
X5.739Y-5.567
X5.7395Y-6.0355
X5.7396Y-5.9954
X5.7398Y-5.9552
X5.74Y-5.915
X5.789Y-4.192
X5.937Y-3.452
X5.954Y-6.222
X5.954Y-6.636
X6.059Y-4.174
X6.06Y-4.319
X6.192Y-3.452
X6.257Y-4.989
X6.257Y-5.091
X6.257Y-5.19
X6.319Y-6.965
X6.3525Y-6.7815
X6.409Y-4.097
X6.415Y-5.396
X6.527Y-3.453
X6.557Y-4.99
X6.732Y-6.726
X6.739Y-7.065
X6.783Y-3.453
X6.805Y-4.974
X6.806Y-4.821
T2
X4.355Y-5.0109
X4.355Y-5.07
X6.17Y-4.8875
X6.17Y-4.9466
X5.465Y-5.315
X5.465Y-5.3741
X6.7459Y-5.0375
X6.805Y-5.0375
X6.0Y-4.2375
X6.0591Y-4.2375
T3
X5.37Y-6.27
X5.4487Y-6.27
X5.5275Y-6.27
X5.6062Y-6.27
X4.815Y-6.27
X4.8937Y-6.27
X4.9725Y-6.27
X5.0512Y-6.27
X4.26Y-6.27
X4.3387Y-6.27
X4.4175Y-6.27
X4.4962Y-6.27
X4.0538Y-6.03
X4.1325Y-6.03
X4.2113Y-6.03
X4.29Y-6.03
T4
X5.14Y-4.415
X6.3125Y-4.745
X5.9616Y-4.39
X6.06Y-4.39
X5.14Y-4.715
X4.49Y-5.0125
X4.49Y-5.1109
X6.6125Y-4.745
X4.5416Y-6.07
X4.64Y-6.07
X6.0438Y-5.4475
X6.109Y-6.868
X6.109Y-7.168
X6.3124Y-4.8899
X6.3124Y-4.9899
X6.6124Y-5.1899
X6.045Y-5.845
X5.6816Y-5.39
X5.78Y-5.39
X6.345Y-5.845
X6.3438Y-5.4475
X5.8537Y-6.868
X5.8537Y-7.168
X6.3124Y-5.0899
X6.3124Y-5.1899
X6.6124Y-4.8899
X6.6124Y-4.9899
X6.6124Y-5.0899
X5.005Y-4.415
X5.005Y-4.715
X4.6421Y-5.9
X4.835Y-5.9
X6.3125Y-4.615
X6.6125Y-4.615
X5.726Y-7.168
X6.0425Y-5.58
X6.3425Y-5.58
X5.726Y-6.868
X4.835Y-6.07
X4.9334Y-6.07
X4.1825Y-4.415
X4.4825Y-4.415
X6.045Y-5.7125
X6.345Y-5.7125
X6.7075Y-4.8925
X6.8059Y-4.8925
X5.9813Y-6.868
X5.9813Y-7.168
X6.045Y-5.9775
X6.345Y-5.9775
T5
X5.856Y-6.285
X5.9544Y-6.285
X6.0529Y-6.285
X6.1513Y-6.285
X6.2497Y-6.285
X6.3481Y-6.285
X6.4466Y-6.285
X6.545Y-6.285
X4.59Y-4.07
X4.6884Y-4.07
X4.7869Y-4.07
X4.8853Y-4.07
X4.9837Y-4.07
X4.05Y-4.9513
X4.05Y-5.0497
X4.05Y-5.1481
X4.05Y-5.2466
X4.05Y-5.345
T6
X3.772Y-4.949
X3.772Y-5.049
X3.772Y-5.149
X3.772Y-5.249
X3.772Y-5.349
X4.5875Y-4.4125
X4.5875Y-4.5125
X4.5875Y-4.6125
X4.5875Y-4.7125
X4.5875Y-4.8125
X4.5875Y-4.9125
X4.5875Y-5.0125
X4.5875Y-5.1125
X4.5875Y-5.2125
X4.5875Y-5.3125
X4.5875Y-5.4125
X4.5875Y-5.5125
X4.5875Y-5.6125
X4.5875Y-5.7125
X4.8875Y-4.4125
X4.8875Y-4.5125
X4.8875Y-4.6125
X4.8875Y-4.7125
X4.8875Y-4.8125
X4.8875Y-4.9125
X4.8875Y-5.0125
X4.8875Y-5.1125
X4.8875Y-5.2125
X4.8875Y-5.3125
X4.8875Y-5.4125
X4.8875Y-5.5125
X4.8875Y-5.6125
X4.8875Y-5.7125
X5.14Y-5.51
X5.24Y-5.51
X5.34Y-5.51
X5.44Y-5.51
X5.54Y-5.51
X5.64Y-5.51
X5.74Y-5.51
X5.84Y-5.51
X5.854Y-6.576
X5.954Y-6.576
X6.054Y-6.576
X6.154Y-6.576
X6.254Y-6.576
X6.354Y-6.576
X6.454Y-6.576
X6.554Y-6.576
X4.59Y-3.779
X4.69Y-3.779
X4.79Y-3.779
X6.465Y-5.545
X6.465Y-5.345
X6.465Y-5.445
X6.465Y-5.645
X6.465Y-5.745
X6.465Y-5.845
X6.465Y-5.945
X6.465Y-6.045
X4.89Y-3.779
X4.99Y-3.779
T7
X5.26Y-4.0925
X5.26Y-4.1925
X5.26Y-4.2925
X5.26Y-4.3925
X5.26Y-4.4925
X5.26Y-4.5925
X5.26Y-4.6925
X5.26Y-4.7925
X5.26Y-4.8925
X5.26Y-4.9925
X5.26Y-5.0925
X5.26Y-5.1925
X5.86Y-4.0925
X5.86Y-4.1925
X5.86Y-4.2925
X5.86Y-4.3925
X5.86Y-4.4925
X5.86Y-4.5925
X5.86Y-4.6925
X5.86Y-4.7925
X5.86Y-4.8925
X5.86Y-4.9925
X5.86Y-5.0925
X5.86Y-5.1925
X3.4495Y-5.3481
X3.4495Y-5.604
X3.6267Y-5.3481
X3.6267Y-5.604
X6.4475Y-3.4515
X6.4475Y-3.6287
X6.7034Y-3.4515
X6.7034Y-3.6287
X4.6775Y-3.4515
X4.6775Y-3.6287
X4.9334Y-3.4515
X4.9334Y-3.6287
X5.8575Y-3.4515
X3.452Y-4.1681
X3.452Y-4.424
X3.6292Y-4.1681
X3.6292Y-4.424
X3.4495Y-5.9356
X3.4495Y-6.1915
X3.6267Y-5.9356
X3.6267Y-6.1915
X5.8575Y-3.6287
X6.1134Y-3.4515
X6.1134Y-3.6287
X3.452Y-4.7581
X3.452Y-5.014
X3.6292Y-4.7581
X3.6292Y-5.014
X5.2675Y-3.4515
X5.2675Y-3.6287
X5.5234Y-3.4515
X5.5234Y-3.6287
T8
X6.2437Y-6.868
X6.2437Y-6.9665
X6.2437Y-7.0649
X6.8146Y-6.868
X5.0184Y-6.8676
X6.8146Y-7.0649
X5.0184Y-7.0644
X5.5893Y-6.8676
X5.5893Y-6.966
X5.5893Y-7.0644
T9
X6.2289Y-4.1835
X6.2486Y-4.4709
X6.41Y-4.03
X6.5084Y-4.2977
X6.6147Y-4.345
T10
X5.294Y-6.7455
X5.294Y-7.1865
X6.539Y-6.746
X6.539Y-7.1869
T0
M30
